<svg width="1440" height="4394" viewBox="0 0 1440 4394" fill="none" xmlns="http://www.w3.org/2000/svg">
<g clip-path="url(#clip0)">
<rect width="1440" height="4394" fill="white"/>
<rect width="1440" height="1906" fill="white"/>
<g style="mix-blend-mode:multiply" opacity="0.5">
<path d="M1721.27 941.498L1546.94 -104.069C1466.93 -202.923 1300.7 -290.499 1160.92 -303.298C909.72 -326.3 600.657 -209.887 419.171 -33.641C237.685 142.605 36.4847 565.451 363.964 510.851C685.41 457.258 1052.45 286.571 1127.45 736.362C1183.36 1071.73 1576.61 1119.71 1721.27 941.498Z" fill="#73D1F6" fill-opacity="0.2"/>
</g>
<g style="mix-blend-mode:multiply" opacity="0.5">
<path d="M633.3 1542.54L1307.34 1649.66C1384.04 1620.99 1471.47 1537.38 1507.83 1454.65C1573.19 1305.96 1565.23 1093.46 1494.69 946.649C1424.14 799.833 1207.04 590.61 1173.49 801.724C1140.56 1008.95 1169.81 1267.93 879.848 1221.85C663.648 1187.49 554.027 1417.81 633.3 1542.54Z" fill="#73D1F6" fill-opacity="0.2"/>
</g>
<g style="mix-blend-mode:multiply" opacity="0.5">
<path d="M-567.264 1103.23L-475.858 299.856C-418.82 221.386 -295.66 148.094 -189.689 132.811C0.757042 105.346 240.797 181.791 386.023 308.864C531.248 435.938 701.252 750.081 449.63 721.452C202.644 693.35 -83.7124 577.857 -123.034 923.459C-152.353 1181.14 -450.012 1233.26 -567.264 1103.23Z" fill="#F288B8" fill-opacity="0.2"/>
</g>
<g style="mix-blend-mode:multiply" opacity="0.2">
<path d="M252.52 2675.19L372.351 1621.98C447.127 1519.11 608.587 1423.03 747.513 1402.99C997.184 1366.98 1311.87 1467.2 1502.26 1633.79C1692.65 1800.38 1915.52 2212.22 1585.65 2174.69C1261.85 2137.85 886.446 1986.44 834.896 2439.51C796.46 2777.33 406.234 2845.66 252.52 2675.19Z" fill="#F288B8" fill-opacity="0.4"/>
</g>
<g style="mix-blend-mode:multiply" opacity="0.2">
<path d="M-266.48 4562.95L-146.649 3509.75C-71.8734 3406.87 89.587 3310.79 228.513 3290.75C478.184 3254.75 792.872 3354.97 983.259 3521.56C1173.65 3688.15 1396.52 4099.98 1066.65 4062.45C742.853 4025.61 367.446 3874.2 315.896 4327.28C277.46 4665.1 -112.766 4733.42 -266.48 4562.95Z" fill="#F288B8" fill-opacity="0.4"/>
</g>
<g style="mix-blend-mode:multiply" opacity="0.5">
<path d="M-883.889 1821.5L121.766 2156.54C246.567 2132.07 401.732 2026.12 478.433 1908.57C616.277 1697.31 657.969 1369.69 587.097 1126.84C516.225 883.983 236.623 508.347 131.683 823.326C28.6771 1132.5 7.83016 1536.75 -424.791 1392.62C-747.36 1285.15 -973.73 1610.27 -883.889 1821.5Z" fill="#73D1F6" fill-opacity="0.2"/>
</g>
<g style="mix-blend-mode:multiply" opacity="0.5">
<path d="M827.096 3323.54C827.096 3323.54 734 3742 512 3774C290 3806 56 3606 -47.4368 3235.65C-91.1265 3079.22 -104.837 2874.46 -34.2898 2727.65C36.2575 2580.83 253.353 2371.61 286.904 2582.72C319.837 2789.95 290.585 3048.93 580.548 3002.85C796.748 2968.49 906.369 3198.81 827.096 3323.54Z" fill="#73D1F6" fill-opacity="0.2"/>
</g>
<g style="mix-blend-mode:multiply" opacity="0.5">
<path d="M640.402 1766.39C640.402 1766.39 1051.37 1888.4 1067.83 2112.08C1084.3 2335.77 868.493 2555.28 491.836 2632.68C332.743 2665.38 127.534 2664.8 -14.0136 2584.2C-155.562 2503.6 -349.162 2272.47 -136.225 2253.7C72.7883 2235.27 329.107 2282.48 303.324 1990.01C284.101 1771.95 521.491 1678.63 640.402 1766.39Z" fill="#F288B8" fill-opacity="0.2"/>
</g>
<g style="mix-blend-mode:multiply" opacity="0.5">
<path d="M1308.63 4171.32C1308.63 4171.32 766.974 4282.04 612.419 4037.53C457.864 3793.03 570.117 3412.24 951.665 3095.48C1112.82 2961.68 1346.65 2837.74 1556.64 2843.5C1766.63 2849.25 2127.24 2994.68 1896.36 3145.33C1669.75 3293.2 1349.45 3395.12 1556.37 3712.22C1710.65 3948.66 1497.21 4198.97 1308.63 4171.32Z" fill="#F288B8" fill-opacity="0.2"/>
</g>
<g style="mix-blend-mode:multiply" opacity="0.5">
<path d="M2466.12 3169.5L1460.47 3504.54C1335.67 3480.07 1180.5 3374.12 1103.8 3256.57C965.957 3045.31 924.265 2717.69 995.137 2474.84C1066.01 2231.98 1345.61 1856.35 1450.55 2171.33C1553.56 2480.5 1574.4 2884.75 2007.03 2740.62C2329.59 2633.15 2555.96 2958.27 2466.12 3169.5Z" fill="#73D1F6" fill-opacity="0.2"/>
</g>
</g>
<defs>
<clipPath id="clip0">
<rect width="1440" height="4394" fill="white"/>
</clipPath>
</defs>
</svg>
