<svg width="342" height="298" viewBox="0 0 342 298" fill="none" xmlns="http://www.w3.org/2000/svg">
<path d="M301.33 119.015C297.814 101.009 278.011 88.3184 258.208 87.6324C254.692 87.4609 250.99 87.8039 247.474 88.3184C235.074 90.2048 222.674 83.0022 219.342 71.6837C218.232 68.0824 216.566 64.481 214.16 61.3942C202.871 46.4744 179.552 44.7595 161.599 51.7906C151.791 55.392 141.982 65.167 134.579 76.314C127.731 86.775 113.11 90.5478 101.265 85.0601C97.749 83.3451 93.8624 82.3162 89.7908 81.8017C79.2416 80.7728 68.5073 85.9175 61.1043 93.2917C50.9253 103.41 46.4835 118.672 51.8506 131.534C52.776 133.764 54.0715 135.822 55.5521 137.708C62.3999 146.283 62.3999 157.773 55.5521 166.347C49.0745 174.407 45.5581 184.354 46.1134 194.3C47.5939 216.251 68.5073 235.458 92.1967 237.688C106.077 239.06 119.958 234.772 131.062 227.227C141.056 220.196 155.122 220.367 164.19 228.599C181.772 244.719 210.089 251.407 231.557 245.919C244.698 242.49 260.244 233.229 265.241 221.568C269.312 212.136 270.238 200.989 266.351 190.699C262.465 179.895 267.647 168.062 278.196 162.403C280.232 161.374 282.083 160.174 283.748 158.973C296.148 149.027 304.291 133.592 301.33 119.015Z" fill="#F287B7"/>
<path d="M115.331 62.2516C115.701 54.8774 112.555 48.1892 107.928 42.3585C101.45 34.1268 91.0862 26.0666 79.4266 28.982C67.3968 31.8974 64.9908 45.2738 72.5789 53.334C75.9102 56.7639 79.7967 57.6213 84.2385 58.8218C85.349 59.1648 86.4594 59.5077 87.7549 60.0222C84.4236 58.8218 88.4952 60.3652 89.2355 60.7082C89.6057 60.8797 92.3818 62.5946 91.4564 61.9086C90.531 61.2227 93.1221 63.2806 93.4922 63.6236C95.3429 65.3385 97.1937 66.8819 99.0444 68.7683C104.597 74.5991 114.961 69.7973 115.331 62.2516Z" fill="#8E55A2"/>
<path d="M260.059 67.5675C258.578 68.2534 258.208 68.4249 259.318 68.0819C260.429 67.9104 261.539 67.396 262.65 66.8815C263.39 66.5385 264.13 66.1955 264.871 65.8525C268.387 64.1376 262.65 66.5385 266.351 65.3381C267.462 64.8236 268.572 64.4806 269.683 63.9661C268.387 64.4806 268.387 64.4806 269.312 64.1376C275.42 62.2512 281.157 61.0508 286.154 56.9349C292.262 51.7902 291.706 39.4427 283.193 36.1844C277.641 33.955 272.644 33.0975 266.721 34.9839C261.909 36.5274 258.393 38.5853 254.507 41.6721C251.73 43.9015 249.51 46.8169 247.659 49.9038C246.733 51.4472 245.808 52.9906 245.438 54.7055C245.253 55.22 244.883 59.1643 244.883 59.3358C241.551 67.396 254.136 73.5697 260.059 67.5675Z" fill="#73D1F6"/>
<path d="M288.005 194.472C289.485 196.701 289.115 196.358 290.041 199.102C290.411 200.474 290.966 201.674 291.521 203.046C291.891 204.075 292.447 204.933 292.817 205.962C292.262 204.761 292.076 204.59 292.447 205.619C293.372 208.706 294.297 211.621 295.593 214.536C295.408 214.193 295.223 213.85 295.038 213.507C295.778 215.737 297.073 217.795 298.739 219.51C299.85 220.71 301.33 221.568 302.626 222.596C305.957 224.997 311.879 224.483 315.396 222.596C326.685 216.251 325.575 202.875 319.838 193.443C314.656 185.04 305.957 181.61 296.148 180.752C289.115 180.238 284.303 188.984 288.005 194.472Z" fill="#F287B7"/>
<path d="M49.4447 144.053C39.6358 137.536 27.7911 138.394 17.2419 143.196C5.39713 148.683 -1.82075 158.801 0.400132 171.149C2.0658 181.438 16.8717 182.81 23.9045 176.979C27.9761 173.55 30.5672 167.547 33.8985 164.461C37.0448 161.545 43.1522 159.659 47.4089 158.63C54.9969 156.572 55.182 147.826 49.4447 144.053Z" fill="#6EC8BD"/>
<path d="M150.125 247.977C149.57 248.663 149.199 249.349 148.829 250.035C148.274 250.892 147.904 251.75 147.719 252.779C148.089 251.921 148.274 251.75 147.904 252.436C147.349 253.122 145.313 257.238 146.794 254.837C146.608 255.351 144.573 257.752 146.238 256.037C142.352 260.324 142.167 266.498 147.349 270.1C149.57 271.643 152.161 272.329 154.937 271.986C158.453 271.643 160.304 269.928 162.34 267.527C167.892 261.01 168.077 250.721 160.119 245.748C156.602 243.347 152.346 245.233 150.125 247.977Z" fill="#FFDA38"/>
<path d="M218.972 18.0066C231.372 18.0066 231.557 0 218.972 0C206.572 0 206.572 18.0066 218.972 18.0066Z" fill="#ECBAD6"/>
<path d="M152.346 40.8154C161.785 40.8154 161.785 27.2676 152.346 27.2676C142.907 27.4391 142.907 40.8154 152.346 40.8154Z" fill="#FFDA38"/>
<path d="M329.646 115.757C346.118 115.757 346.118 91.9189 329.646 91.9189C312.99 92.0904 312.99 115.757 329.646 115.757Z" fill="#6EC8BD"/>
<path d="M217.307 297.024C233.593 297.024 233.593 273.529 217.307 273.529C201.205 273.529 201.02 297.024 217.307 297.024Z" fill="#8E55A2"/>
<path d="M284.674 258.267C293.187 258.267 293.187 246.091 284.674 246.091C276.16 246.091 276.16 258.267 284.674 258.267Z" fill="#8E55A2"/>
<path d="M23.3493 234.087C38.1552 234.087 38.1552 212.65 23.3493 212.65C8.5434 212.822 8.5434 234.087 23.3493 234.087Z" fill="#73D1F6"/>
<path d="M85.1639 274.559C94.0474 274.559 94.0474 261.868 85.1639 261.868C76.2803 261.868 76.2803 274.559 85.1639 274.559Z" fill="#ECBAD6"/>
<path d="M25.9403 89.8613C31.4925 89.8613 31.4925 81.9727 25.9403 81.9727C20.5731 81.9727 20.5731 89.8613 25.9403 89.8613Z" fill="#EE3D72"/>
<path d="M139.53 118.205C139.295 144.689 139.178 162.58 139.178 171.876C139.178 177.736 139.256 183.517 139.412 189.22L139.53 199.181L139.412 202.345L110.116 201.173C110.897 187.814 111.287 171.408 111.287 151.955V143.4L99.2171 144.337L99.6859 127.111C105.389 126.33 108.866 125.666 110.116 125.119C113.006 123.947 115.936 121.642 118.905 118.205H139.53ZM179.491 201.173C168.553 201.173 159.959 197.97 153.709 191.564C147.459 185.158 144.139 176.134 143.748 164.494C143.67 164.025 143.631 162.892 143.631 161.095C143.866 140.314 149.881 126.642 161.678 120.08C167.694 116.564 174.608 114.806 182.42 114.806C196.639 114.806 206.522 121.251 212.069 134.142C214.803 140.626 216.17 147.736 216.17 155.47C216.17 167.423 213.475 177.775 208.084 186.525C202.147 196.291 192.616 201.173 179.491 201.173ZM170.116 157.345C170.116 162.814 171.522 167.892 174.334 172.58C175.897 175.08 177.616 176.33 179.491 176.33H180.076C184.139 176.33 187.264 173.947 189.451 169.181C191.092 165.666 191.912 161.916 191.912 157.931C191.912 152.619 191.053 148.244 189.334 144.806C187.459 141.212 185.037 139.416 182.069 139.416C174.1 139.416 170.116 145.392 170.116 157.345Z" fill="white"/>
<path d="M234.936 133.586C234.005 133.658 231.505 133.693 227.438 133.693C225.375 133.693 224.344 133.665 224.344 133.607L224.322 129.311C224.308 128.38 224.301 127.012 224.301 125.207L224.279 117.494H229.693L229.521 122.027C229.464 123.13 229.436 124.212 229.436 125.271C229.436 126.016 229.457 126.797 229.5 127.613C229.543 128.43 229.564 129.017 229.564 129.375L230.445 129.332C230.961 129.318 231.448 129.296 231.906 129.268C232.938 129.21 233.919 129.182 234.85 129.182L234.936 133.586ZM241.896 134.08C239.762 134.08 238.087 133.457 236.869 132.211C235.652 130.951 235.007 129.189 234.936 126.926C234.921 126.826 234.914 126.611 234.914 126.281C234.914 123.517 235.559 121.39 236.848 119.9C237.378 119.256 238.029 118.726 238.803 118.311C240.077 117.609 241.503 117.258 243.078 117.258C243.852 117.258 244.604 117.365 245.334 117.58C246.695 118.038 247.747 118.969 248.492 120.373C249.251 121.82 249.631 123.424 249.631 125.186C249.631 127.577 249.008 129.597 247.762 131.244C246.329 133.135 244.374 134.08 241.896 134.08ZM241.188 122.629C240.643 123.087 240.371 124.061 240.371 125.551C240.371 126.625 240.5 127.456 240.758 128.043C241.073 128.831 241.653 129.217 242.498 129.203C243.343 129.203 243.895 128.824 244.152 128.064C244.41 127.262 244.539 126.46 244.539 125.658C244.539 124.656 244.36 123.803 244.002 123.102C243.644 122.414 243.157 122.07 242.541 122.07C242.126 122.07 241.674 122.257 241.188 122.629ZM259.471 118.246C262.593 118.246 264.197 118.289 264.283 118.375C264.312 118.404 264.326 118.905 264.326 119.879C264.326 121.039 264.319 122.249 264.305 123.51C264.29 124.785 264.283 126.274 264.283 127.979C264.283 130.485 264.319 132.297 264.391 133.414L263.295 133.5L259.771 133.414L257.473 133.242C257.415 133.113 257.372 132.941 257.344 132.727L254.852 123.123C254.852 124.312 254.844 125.744 254.83 127.42L254.787 133.758L253.047 133.693C252.13 133.636 251.421 133.607 250.92 133.607H250.34C250.111 133.607 249.996 133.586 249.996 133.543V133.521C249.996 123.008 250.053 117.695 250.168 117.58C250.182 117.566 250.225 117.559 250.297 117.559C250.54 117.559 251.4 117.63 252.875 117.773C254.493 117.931 255.539 118.01 256.012 118.01C256.914 118.01 257.387 118.038 257.43 118.096C257.516 118.239 257.867 119.585 258.482 122.135C258.984 124.183 259.471 126.324 259.943 128.559V127.936C259.943 125.615 259.9 123.939 259.814 122.908L259.471 118.246Z" fill="white"/>
</svg>
