<svg width="191" height="186" viewBox="0 0 191 186" fill="none" xmlns="http://www.w3.org/2000/svg">
<path d="M164.353 82.6942C162.089 70.1828 149.339 61.3653 136.59 60.8886C134.326 60.7695 131.943 61.0078 129.679 61.3653C121.695 62.676 113.712 57.6714 111.567 49.8071C110.852 47.3049 109.779 44.8026 108.23 42.6578C100.962 32.2912 85.9483 31.0996 74.3902 35.985C68.0749 38.4873 61.7596 45.2792 56.9934 53.0243C52.5846 60.2929 43.1713 62.9143 35.5453 59.1013C33.2813 57.9097 30.779 57.1948 28.1576 56.8373C21.3657 56.1224 14.4547 59.6971 9.68843 64.8208C3.13485 71.851 0.275102 82.4559 3.73063 91.3926C4.32641 92.9416 5.1605 94.3715 6.11375 95.6822C10.5225 101.64 10.5225 109.623 6.11375 115.581C1.94329 121.182 -0.320679 128.093 0.0367891 135.004C0.990037 150.256 14.4547 163.601 29.7066 165.15C38.6433 166.103 47.5801 163.124 54.7294 157.882C61.1638 152.996 70.2197 153.115 76.0583 158.835C87.3782 170.036 105.609 174.683 119.431 170.87C127.891 168.487 137.9 162.052 141.118 153.949C143.739 147.396 144.335 139.651 141.832 132.501C139.33 124.995 142.667 116.773 149.458 112.841C150.769 112.126 151.961 111.292 153.033 110.458C161.017 103.546 166.259 92.8225 164.353 82.6942Z" fill="#F287B7"/>
<path d="M137.781 46.9477C136.828 47.4243 136.59 47.5435 137.305 47.3051C138.019 47.186 138.734 46.8285 139.449 46.4711C139.926 46.2327 140.403 45.9944 140.879 45.7561C143.143 44.5646 139.449 46.2327 141.832 45.3986C142.547 45.0412 143.262 44.8029 143.977 44.4454C143.143 44.8029 143.143 44.8029 143.739 44.5646C147.671 43.2538 151.365 42.4198 154.582 39.56C158.514 35.9853 158.157 27.4061 152.676 25.1421C149.101 23.5931 145.884 22.9973 142.071 24.308C138.973 25.3804 136.709 26.8103 134.206 28.9551C132.419 30.5041 130.989 32.5298 129.798 34.6746C129.202 35.747 128.606 36.8194 128.368 38.011C128.249 38.3684 128.01 41.109 128.01 41.2282C125.866 46.8285 133.968 51.1181 137.781 46.9477Z" fill="#73D1F6"/>
<path d="M111.329 12.5114C119.312 12.5114 119.431 0 111.329 0C103.345 0 103.345 12.5114 111.329 12.5114Z" fill="#ECBAD6"/>
<path d="M68.4324 28.3596C74.5094 28.3596 74.5094 18.9463 68.4324 18.9463C62.3555 19.0654 62.3555 28.3596 68.4324 28.3596Z" fill="#FFDA38"/>
<path d="M182.584 80.4299C193.189 80.4299 193.189 63.8672 182.584 63.8672C171.86 63.9863 171.86 80.4299 182.584 80.4299Z" fill="#6EC8BD"/>
<path d="M65.7472 117.142L64.9659 96.3408H64.7706L49.9268 115.579L65.7472 117.142ZM64.8683 144.388L65.1612 128.958L32.7393 128.372L32.544 114.993C35.4086 109.394 40.0961 102.168 46.6065 93.3135C53.3123 84.1338 57.2836 78.307 58.5206 75.833L88.9893 74.7588L88.794 89.3096C88.794 99.1403 88.9893 108.711 89.38 118.021H97.3878L98.0714 131.399L88.5987 130.228V145.56L64.8683 144.388Z" fill="white"/>
<path d="M115.499 93.7388C114.568 93.8104 112.069 93.8462 108.001 93.8462C105.938 93.8462 104.907 93.8175 104.907 93.7603L104.886 89.4634C104.871 88.5324 104.864 87.1646 104.864 85.3599L104.843 77.647H110.257L110.085 82.1802C110.028 83.283 109.999 84.3644 109.999 85.4243C109.999 86.1691 110.02 86.9497 110.063 87.7661C110.106 88.5825 110.128 89.1698 110.128 89.5278L111.009 89.4849C111.524 89.4705 112.011 89.4491 112.47 89.4204C113.501 89.3631 114.482 89.3345 115.413 89.3345L115.499 93.7388ZM122.46 94.2329C120.326 94.2329 118.65 93.6099 117.432 92.3638C116.215 91.1034 115.571 89.3416 115.499 87.0786C115.485 86.9784 115.477 86.7635 115.477 86.4341C115.477 83.6698 116.122 81.5428 117.411 80.0532C117.941 79.4087 118.593 78.8787 119.366 78.4634C120.641 77.7616 122.066 77.4106 123.641 77.4106C124.415 77.4106 125.167 77.5181 125.897 77.7329C127.258 78.1912 128.311 79.1222 129.056 80.5259C129.815 81.9725 130.194 83.5767 130.194 85.3384C130.194 87.7303 129.571 89.7498 128.325 91.397C126.893 93.2876 124.938 94.2329 122.46 94.2329ZM121.751 82.7817C121.207 83.2401 120.934 84.214 120.934 85.7036C120.934 86.7778 121.063 87.6086 121.321 88.1958C121.636 88.9836 122.216 89.3703 123.061 89.356C123.906 89.356 124.458 88.9764 124.716 88.2173C124.974 87.4152 125.102 86.6131 125.102 85.811C125.102 84.8084 124.923 83.9562 124.565 83.2544C124.207 82.5669 123.72 82.2231 123.104 82.2231C122.689 82.2231 122.238 82.4093 121.751 82.7817ZM140.034 78.3989C143.156 78.3989 144.761 78.4419 144.847 78.5278C144.875 78.5565 144.89 79.0578 144.89 80.0317C144.89 81.1919 144.882 82.4022 144.868 83.6626C144.854 84.9373 144.847 86.4269 144.847 88.1313C144.847 90.6379 144.882 92.4497 144.954 93.5669L143.858 93.6528L140.335 93.5669L138.036 93.395C137.979 93.2661 137.936 93.0942 137.907 92.8794L135.415 83.2759C135.415 84.4647 135.408 85.897 135.393 87.5728L135.35 93.9106L133.61 93.8462C132.694 93.7889 131.985 93.7603 131.483 93.7603H130.903C130.674 93.7603 130.559 93.7388 130.559 93.6958V93.6743C130.559 83.1613 130.617 77.8475 130.731 77.7329C130.746 77.7186 130.789 77.7114 130.86 77.7114C131.104 77.7114 131.963 77.783 133.438 77.9263C135.057 78.0838 136.102 78.1626 136.575 78.1626C137.477 78.1626 137.95 78.1912 137.993 78.2485C138.079 78.3918 138.43 79.7381 139.046 82.2876C139.547 84.3358 140.034 86.4771 140.507 88.7114V88.0884C140.507 85.7681 140.464 84.0923 140.378 83.061L140.034 78.3989Z" fill="white"/>
</svg>
