<svg width="242" height="219" viewBox="0 0 242 219" fill="none" xmlns="http://www.w3.org/2000/svg">
<path d="M208.261 104.787C205.393 88.9332 189.237 77.7599 173.081 77.156C170.212 77.005 167.192 77.307 164.323 77.7599C154.207 79.4208 144.091 73.0793 141.373 63.1139C140.467 59.9432 139.108 56.7724 137.145 54.0546C127.935 40.9185 108.91 39.4086 94.2642 45.5991C86.2618 48.7699 78.2593 57.3763 72.2197 67.1907C66.6331 76.401 54.7049 79.7228 45.0416 74.8911C42.1728 73.3812 39.002 72.4753 35.6802 72.0223C27.0738 71.1164 18.3164 75.6461 12.2768 82.1387C3.97235 91.047 0.348598 104.485 4.7273 115.809C5.48225 117.772 6.53918 119.584 7.7471 121.245C13.3337 128.794 13.3337 138.911 7.7471 146.46C2.46245 153.557 -0.406352 162.314 0.0466176 171.072C1.25454 190.398 18.3164 207.309 37.6431 209.272C48.9673 210.48 60.2915 206.705 69.3509 200.062C77.5044 193.871 88.9796 194.022 96.3781 201.27C110.722 215.463 133.824 221.351 151.338 216.519C162.059 213.5 174.742 205.346 178.818 195.079C182.14 186.775 182.895 176.96 179.724 167.901C176.554 158.388 180.781 147.97 189.388 142.987C191.049 142.082 192.559 141.025 193.917 139.968C204.034 131.21 210.677 117.621 208.261 104.787Z" fill="#F287B7"/>
<path d="M56.5168 54.8096C56.8187 48.3171 54.2519 42.4285 50.4772 37.2948C45.1925 30.0473 36.7371 22.9508 27.2248 25.5176C17.4104 28.0844 15.4476 39.8616 21.6381 46.9582C24.356 49.978 27.5267 50.7329 31.1505 51.7898C32.0564 52.0918 32.9624 52.3938 34.0193 52.8468C31.3015 51.7898 34.6233 53.1487 35.2272 53.4507C35.5292 53.6017 37.794 55.1116 37.0391 54.5076C36.2841 53.9037 38.398 55.7156 38.7 56.0175C40.2099 57.5274 41.7198 58.8863 43.2297 60.5472C47.7594 65.6809 56.2148 61.4532 56.5168 54.8096Z" fill="#8E55A2"/>
<path d="M174.591 59.4899C173.383 60.0938 173.081 60.2448 173.987 59.9428C174.893 59.7919 175.799 59.3389 176.705 58.8859C177.309 58.5839 177.913 58.282 178.517 57.98C181.385 56.4701 176.705 58.5839 179.724 57.527C180.63 57.074 181.536 56.7721 182.442 56.3191C181.385 56.7721 181.385 56.7721 182.14 56.4701C187.123 54.8092 191.804 53.7523 195.88 50.1285C200.863 45.5988 200.41 34.7276 193.464 31.8588C188.935 29.8959 184.858 29.1409 180.026 30.8018C176.101 32.1607 173.232 33.9726 170.061 36.6904C167.796 38.6533 165.984 41.2201 164.474 43.9379C163.72 45.2968 162.965 46.6557 162.663 48.1656C162.512 48.6186 162.21 52.0914 162.21 52.2424C159.492 59.3389 169.759 64.7745 174.591 59.4899Z" fill="#73D1F6"/>
<path d="M197.39 171.222C198.598 173.185 198.296 172.883 199.051 175.299C199.353 176.507 199.806 177.564 200.259 178.772C200.561 179.678 201.014 180.433 201.316 181.339C200.863 180.282 200.712 180.131 201.014 181.037C201.769 183.754 202.524 186.321 203.581 188.888C203.43 188.586 203.279 188.284 203.128 187.982C203.732 189.945 204.789 191.757 206.148 193.267C207.054 194.324 208.262 195.079 209.318 195.985C212.036 198.098 216.868 197.646 219.737 195.985C228.947 190.398 228.041 178.621 223.361 170.316C219.133 162.918 212.036 159.898 204.034 159.143C198.296 158.69 194.37 166.391 197.39 171.222Z" fill="#F287B7"/>
<path d="M141.071 15.8539C151.187 15.8539 151.338 0 141.071 0C130.955 0 130.955 15.8539 141.071 15.8539Z" fill="#ECBAD6"/>
<path d="M86.7148 35.936C94.4153 35.936 94.4153 24.0078 86.7148 24.0078C79.0143 24.1588 79.0143 35.936 86.7148 35.936Z" fill="#FFDA38"/>
<path d="M231.363 101.918C244.801 101.918 244.801 80.9302 231.363 80.9302C217.774 81.0812 217.774 101.918 231.363 101.918Z" fill="#6EC8BD"/>
<path d="M83.5819 127.251C87.8137 125.558 92.371 124.647 97.2538 124.517C105.652 124.517 111.772 126.535 115.613 130.571C119.454 134.608 121.375 139.686 121.375 145.806C121.375 152.576 119.129 158.468 114.637 163.481C110.144 168.494 103.667 171.001 95.203 171.001C71.8306 171.001 60.1444 159.054 60.1444 135.161V134.478C60.1444 123.605 62.6184 114.816 67.5663 108.11C73.4257 100.037 82.345 96.001 94.3241 96.001C102.202 96.001 108.322 97.7913 112.684 101.372C117.111 105.018 119.324 109.608 119.324 115.142C115.157 115.532 111.251 115.955 107.605 116.411C102.723 117.127 99.858 117.518 99.0116 117.583C98.8163 115.5 98.2304 114.1 97.2538 113.384C96.3424 112.668 94.5845 112.244 91.9804 112.114C86.3814 112.114 83.5819 116.932 83.5819 126.567V127.251ZM83.4843 142.192C84.4608 150.461 87.1627 154.595 91.5898 154.595C96.9283 154.595 99.5976 152.088 99.5976 147.075C99.5976 144.601 98.914 142.616 97.5468 141.118C96.2447 139.621 94.4869 138.872 92.2733 138.872C89.4739 138.872 86.5442 139.979 83.4843 142.192Z" fill="white"/>
<path d="M140.951 116.739C140.02 116.811 137.521 116.847 133.453 116.847C131.39 116.847 130.359 116.818 130.359 116.761L130.338 112.464C130.323 111.533 130.316 110.165 130.316 108.36L130.295 100.647H135.709L135.537 105.181C135.48 106.284 135.451 107.365 135.451 108.425C135.451 109.17 135.472 109.95 135.515 110.767C135.558 111.583 135.58 112.17 135.58 112.528L136.461 112.485C136.976 112.471 137.463 112.45 137.922 112.421C138.953 112.364 139.934 112.335 140.865 112.335L140.951 116.739ZM147.912 117.233C145.778 117.233 144.102 116.61 142.884 115.364C141.667 114.104 141.022 112.342 140.951 110.079C140.937 109.979 140.929 109.764 140.929 109.435C140.929 106.67 141.574 104.543 142.863 103.054C143.393 102.409 144.045 101.879 144.818 101.464C146.093 100.762 147.518 100.411 149.093 100.411C149.867 100.411 150.619 100.519 151.349 100.733C152.71 101.192 153.763 102.123 154.508 103.526C155.267 104.973 155.646 106.577 155.646 108.339C155.646 110.731 155.023 112.75 153.777 114.397C152.345 116.288 150.39 117.233 147.912 117.233ZM147.203 105.782C146.659 106.241 146.386 107.215 146.386 108.704C146.386 109.778 146.515 110.609 146.773 111.196C147.088 111.984 147.668 112.371 148.513 112.356C149.358 112.356 149.91 111.977 150.168 111.218C150.425 110.416 150.554 109.614 150.554 108.812C150.554 107.809 150.375 106.957 150.017 106.255C149.659 105.567 149.172 105.224 148.556 105.224C148.141 105.224 147.69 105.41 147.203 105.782ZM165.486 101.399C168.608 101.399 170.213 101.442 170.299 101.528C170.327 101.557 170.341 102.058 170.341 103.032C170.341 104.192 170.334 105.403 170.32 106.663C170.306 107.938 170.299 109.427 170.299 111.132C170.299 113.638 170.334 115.45 170.406 116.567L169.31 116.653L165.787 116.567L163.488 116.396C163.431 116.267 163.388 116.095 163.359 115.88L160.867 106.276C160.867 107.465 160.86 108.897 160.845 110.573L160.802 116.911L159.062 116.847C158.146 116.789 157.437 116.761 156.935 116.761H156.355C156.126 116.761 156.011 116.739 156.011 116.696V116.675C156.011 106.162 156.069 100.848 156.183 100.733C156.198 100.719 156.241 100.712 156.312 100.712C156.556 100.712 157.415 100.784 158.89 100.927C160.509 101.084 161.554 101.163 162.027 101.163C162.929 101.163 163.402 101.192 163.445 101.249C163.531 101.392 163.882 102.739 164.498 105.288C164.999 107.336 165.486 109.478 165.959 111.712V111.089C165.959 108.769 165.916 107.093 165.83 106.062L165.486 101.399Z" fill="white"/>
</svg>
