<svg width="258" height="136" viewBox="0 0 258 136" fill="none" xmlns="http://www.w3.org/2000/svg">
<path d="M257.047 103.577H0L12.4552 119.665L0 135.391H257.047L247.299 119.665L257.047 103.577Z" fill="#C1AE60"/>
<path d="M25.6325 127.257C25.452 127.257 25.2715 127.257 24.9104 127.438C24.5494 127.438 24.1884 127.438 24.0079 127.438C23.6469 127.438 23.4664 127.438 23.1053 127.438C22.9248 127.438 22.5638 127.257 22.5638 127.257C22.3833 127.076 22.2028 126.896 22.2028 126.715C22.2028 126.534 22.0223 126.173 22.0223 125.811V115.688C22.0223 115.327 22.0223 115.146 22.2028 114.965C22.3833 114.785 22.5638 114.604 22.9248 114.604C23.4664 114.423 24.0079 114.242 24.5494 114.242C25.091 114.242 25.813 114.062 26.3545 114.062C28.3401 114.062 29.7842 114.423 30.8673 115.327C31.9504 116.231 32.4919 117.315 32.4919 118.761C32.4919 119.484 32.3114 120.027 32.1309 120.569C31.9504 121.111 31.5893 121.654 31.2283 122.015C30.8673 122.377 30.3258 122.738 29.6037 122.919C28.8817 123.1 28.1596 123.28 27.2571 123.28H25.813V127.257H25.6325ZM26.7156 120.569C27.2571 120.569 27.7986 120.388 28.1596 120.207C28.5207 119.846 28.7012 119.484 28.7012 118.942C28.7012 118.4 28.5207 118.038 28.1596 117.677C27.7986 117.315 27.2571 117.315 26.7156 117.315C26.535 117.315 26.3545 117.315 26.174 117.315C25.9935 117.315 25.813 117.315 25.6325 117.315V120.569H26.7156Z" fill="#F8F7F8"/>
<path d="M45.6692 127.257C45.4887 127.257 45.3082 127.257 44.9472 127.438C44.5862 127.438 44.2251 127.438 44.0446 127.438C43.6836 127.438 43.5031 127.438 43.1421 127.438C42.9616 127.438 42.6005 127.257 42.6005 127.257C42.42 127.076 42.2395 126.895 42.2395 126.715C42.2395 126.534 42.059 126.172 42.059 125.811V122.557H37.9073V127.438C37.7268 127.438 37.5462 127.438 37.1852 127.618C36.8242 127.618 36.4632 127.618 36.2827 127.618C35.9217 127.618 35.7411 127.618 35.3801 127.618C35.1996 127.618 34.8386 127.438 34.8386 127.438C34.6581 127.257 34.4776 127.076 34.4776 126.895C34.4776 126.715 34.2971 126.353 34.2971 125.992V114.784C34.4776 114.784 34.6581 114.784 35.0191 114.604C35.3801 114.604 35.7411 114.604 35.9217 114.604C36.2827 114.604 36.4632 114.604 36.8242 114.604C37.0047 114.604 37.3657 114.784 37.3657 114.784C37.5462 114.965 37.7268 115.146 37.7268 115.327C37.7268 115.507 37.9073 115.869 37.9073 116.23V119.665H41.8785V114.784C42.059 114.784 42.2395 114.784 42.6005 114.604C42.9616 114.604 43.3226 114.604 43.5031 114.604C43.8641 114.604 44.0446 114.604 44.4056 114.604C44.5862 114.604 44.9472 114.784 44.9472 114.784C45.1277 114.965 45.3082 115.146 45.3082 115.327C45.3082 115.507 45.4887 115.869 45.4887 116.23V127.257H45.6692Z" fill="#F8F7F8"/>
<path d="M51.0845 114.965C51.265 114.785 51.626 114.604 52.1676 114.604C52.7091 114.423 53.0701 114.423 53.6116 114.423C54.3337 114.423 54.8752 114.604 55.4167 114.785C55.9583 114.965 56.3193 115.327 56.4998 115.689C56.6803 116.412 57.0413 117.315 57.4024 118.219C57.7634 119.123 57.9439 120.208 58.3049 121.292C58.6659 122.377 58.8464 123.281 59.2075 124.365C59.5685 125.45 59.749 126.354 59.9295 127.077C59.749 127.257 59.5685 127.438 59.2075 127.619C58.8464 127.8 58.4854 127.8 57.9439 127.8C57.5829 127.8 57.4024 127.8 57.0413 127.8C56.8608 127.8 56.6803 127.619 56.4998 127.619C56.3193 127.438 56.3193 127.438 56.1388 127.257C56.1388 126.534 55.9583 126.354 55.9583 126.173L55.5973 124.727H51.8065C51.626 125.088 51.626 125.63 51.4455 125.992C51.265 126.354 51.265 126.896 51.0845 127.257C50.904 127.257 50.7235 127.438 50.543 127.438C50.3624 127.438 50.0014 127.438 49.8209 127.438C49.0989 127.438 48.5573 127.257 48.1963 127.077C47.8353 126.896 47.6548 126.534 47.6548 125.992C47.6548 125.811 47.6548 125.63 47.6548 125.45C47.6548 125.269 47.8353 125.088 47.8353 124.727C48.0158 124.365 48.0158 123.823 48.1963 123.281C48.3768 122.738 48.5573 122.196 48.7378 121.473C48.9184 120.75 49.0989 120.208 49.4599 119.485C49.6404 118.761 50.0014 118.219 50.1819 117.496C50.3624 116.954 50.543 116.412 50.7235 115.869C50.904 115.508 51.0845 115.146 51.0845 114.965ZM54.8752 109.362C55.5973 109.362 56.1388 109.543 56.3193 109.904C56.6803 110.266 56.6803 110.446 56.6803 110.808C56.6803 111.169 56.4998 111.531 56.3193 111.712C56.1388 111.892 55.7778 112.254 55.2362 112.435L52.3481 113.519C51.987 113.519 51.626 113.339 51.4455 112.977C51.265 112.796 51.0845 112.435 51.0845 112.073C51.0845 111.892 51.0845 111.712 51.265 111.531C51.4455 111.35 51.626 111.169 51.8065 111.169L54.8752 109.362ZM53.6116 117.677C53.4311 118.219 53.2506 118.942 52.8896 119.665C52.7091 120.388 52.3481 121.111 52.1676 121.834H54.8752C54.6947 121.111 54.5142 120.388 54.3337 119.665C54.1532 118.942 53.9727 118.219 53.6116 117.677Z" fill="#F8F7F8"/>
<path d="M60.2906 117.496C60.1101 117.315 60.11 117.134 59.9295 116.773C59.749 116.411 59.749 116.231 59.749 115.869C59.749 115.327 59.9295 114.965 60.11 114.604C60.2906 114.423 60.6516 114.242 61.0126 114.242H70.3991C70.5797 114.423 70.5797 114.604 70.7602 114.965C70.7602 115.146 70.9407 115.508 70.9407 115.869C70.9407 116.411 70.7602 116.773 70.5797 117.134C70.3991 117.315 70.0381 117.496 69.6771 117.496H67.3305V127.257C67.15 127.257 66.9695 127.257 66.6084 127.438C66.2474 127.438 65.8864 127.438 65.7059 127.438C65.3449 127.438 65.1643 127.438 64.8033 127.438C64.6228 127.438 64.2618 127.257 64.2618 127.257C64.0813 127.076 63.9008 126.896 63.9008 126.715C63.9008 126.534 63.7203 126.173 63.7203 125.811V117.496H60.2906Z" fill="#F8F7F8"/>
<path d="M76.1754 117.496C75.9949 117.315 75.9949 117.134 75.8144 116.773C75.6339 116.411 75.8144 116.411 75.8144 116.05C75.8144 115.507 75.9949 115.146 76.1754 114.784C76.356 114.604 76.717 114.423 77.078 114.423H86.284C86.4645 114.604 86.4645 114.784 86.6451 115.146C86.6451 115.327 86.8256 115.688 86.8256 116.05C86.8256 116.592 86.6451 116.954 86.4645 117.315C86.284 117.496 85.923 117.677 85.562 117.677H83.2153V127.438C83.0348 127.438 82.8543 127.438 82.4933 127.619C82.1323 127.619 81.7713 127.619 81.5908 127.619C81.2297 127.619 81.0492 127.619 80.6882 127.619C80.5077 127.619 80.1467 127.438 80.1467 127.438C79.9662 127.257 79.7857 127.076 79.7857 126.895C79.7857 126.715 79.6051 126.353 79.6051 125.992V117.496H76.1754Z" fill="#F8F7F8"/>
<path d="M92.2409 123.28V127.257C92.0604 127.257 91.8799 127.257 91.5188 127.438C91.1578 127.438 90.7968 127.438 90.6163 127.438C90.2553 127.438 90.0748 127.438 89.7137 127.438C89.5332 127.438 89.3527 127.257 89.1722 127.257C88.9917 127.076 88.8112 126.896 88.8112 126.715C88.8112 126.534 88.6307 126.173 88.6307 125.811V115.688C88.6307 115.327 88.6307 115.146 88.8112 114.965C88.9917 114.785 89.1722 114.604 89.5332 114.604C90.0748 114.423 90.6163 114.242 91.1578 114.242C91.8799 114.242 92.4214 114.062 93.1434 114.062C95.1291 114.062 96.5731 114.423 97.4757 115.327C98.3782 116.231 98.9198 117.315 98.9198 118.581C98.9198 119.484 98.7393 120.207 98.1977 120.75C97.8367 121.292 97.2952 121.834 96.5731 122.196C97.1147 122.919 97.6562 123.461 98.0172 124.184C98.5588 124.727 98.9198 125.269 99.1003 125.811C98.9198 126.353 98.7393 126.715 98.3782 126.896C98.0172 127.076 97.6562 127.257 97.1147 127.257C96.7536 127.257 96.5731 127.257 96.3926 127.076C96.2121 127.076 96.0316 126.896 95.8511 126.715C95.6706 126.534 95.4901 126.353 95.3096 126.173C95.1291 125.992 94.9485 125.811 94.9485 125.63L93.1434 122.738H92.2409V123.28ZM93.685 120.388C94.2265 120.388 94.5875 120.207 94.9485 120.027C95.3096 119.665 95.4901 119.304 95.4901 118.761C95.4901 118.219 95.3096 117.858 94.9485 117.496C94.5875 117.134 94.046 117.135 93.324 117.135C93.1434 117.135 92.9629 117.135 92.7824 117.135C92.6019 117.135 92.6019 117.135 92.4214 117.135V120.388H93.685Z" fill="#F8F7F8"/>
<path d="M105.238 127.257C105.057 127.257 104.877 127.257 104.516 127.438C104.155 127.438 103.794 127.438 103.613 127.438C103.252 127.438 103.072 127.438 102.711 127.438C102.53 127.438 102.169 127.257 102.169 127.257C101.988 127.076 101.808 126.895 101.808 126.715C101.808 126.534 101.627 126.172 101.627 125.811V114.604C101.808 114.604 101.988 114.604 102.349 114.423C102.711 114.423 103.072 114.423 103.252 114.423C103.613 114.423 103.794 114.423 104.155 114.423C104.335 114.423 104.696 114.604 104.696 114.604C104.877 114.784 105.057 114.965 105.057 115.146C105.057 115.327 105.238 115.688 105.238 116.05V127.257Z" fill="#F8F7F8"/>
<path d="M107.945 116.592C107.945 116.05 108.126 115.508 108.487 115.146C108.848 114.785 109.389 114.604 109.931 114.604H116.971C117.151 114.785 117.151 114.965 117.151 115.146C117.151 115.327 117.332 115.688 117.332 115.869C117.332 116.411 117.151 116.773 116.971 116.954C116.79 117.134 116.429 117.315 116.068 117.315H111.556V119.304H116.249C116.429 119.484 116.429 119.665 116.429 119.846C116.429 120.027 116.61 120.388 116.61 120.569C116.61 121.111 116.429 121.473 116.249 121.654C116.068 121.834 115.707 122.015 115.346 122.015H111.375V124.184H116.79C116.971 124.365 116.971 124.546 116.971 124.726C116.971 124.907 117.151 125.269 117.151 125.45C117.151 125.992 116.971 126.353 116.79 126.534C116.61 126.715 116.249 126.896 115.888 126.896H109.75C109.209 126.896 108.667 126.715 108.306 126.353C107.945 125.992 107.765 125.45 107.765 124.907V116.592H107.945ZM112.278 111.892C111.917 112.254 111.375 112.435 111.195 112.796C111.014 113.158 110.472 113.338 110.292 113.519C109.931 113.519 109.57 113.338 109.209 113.158C108.848 112.977 108.848 112.615 108.848 112.254C108.848 111.892 108.848 111.712 109.028 111.531C109.209 111.35 109.389 111.169 109.75 110.808L110.472 110.265C110.834 110.085 111.195 109.904 111.375 109.723C111.736 109.542 111.917 109.542 112.278 109.542C112.639 109.542 113 109.542 113.18 109.723C113.361 109.904 113.722 110.085 114.083 110.446L115.707 111.892C115.707 112.435 115.527 112.796 115.346 112.977C115.166 113.338 114.805 113.519 114.444 113.519C114.263 113.519 114.083 113.519 114.083 113.519C113.902 113.519 113.902 113.519 113.722 113.338C113.541 113.338 113.361 113.158 113.18 112.977C113 112.796 112.819 112.615 112.639 112.435L112.278 111.892ZM116.429 106.108C117.151 106.108 117.693 106.289 118.054 106.65C118.415 107.012 118.595 107.373 118.595 107.916C118.595 108.277 118.595 108.639 118.415 108.819C118.234 109 118.054 109.362 117.693 109.542C117.512 109.723 117.332 109.904 117.151 109.904C117.151 110.085 116.971 110.265 116.971 110.446C116.79 110.627 116.61 110.627 116.249 110.627C115.888 110.627 115.707 110.627 115.527 110.446C115.346 110.265 115.166 110.085 115.166 109.723C115.166 109.362 115.346 109 115.888 108.639L116.249 108.277C116.429 108.096 116.429 108.096 116.61 108.096V107.916C116.61 107.735 116.429 107.554 116.249 107.554C116.068 107.554 115.707 107.554 115.527 107.735C115.346 107.916 115.166 107.916 114.985 108.096C114.805 108.096 114.624 107.916 114.624 107.735C114.444 107.554 114.444 107.373 114.444 107.192C114.444 106.831 114.624 106.65 114.985 106.289C115.346 106.108 115.888 106.108 116.429 106.108Z" fill="#F8F7F8"/>
<path d="M131.051 126.896C130.87 127.076 130.509 127.257 130.148 127.438C129.787 127.619 129.246 127.619 128.885 127.619C128.343 127.619 127.801 127.619 127.44 127.438C126.899 127.257 126.538 126.896 126.357 126.353L124.191 122.015C124.011 121.653 123.83 121.111 123.65 120.75C123.469 120.388 123.289 119.846 123.108 119.484H122.928C122.928 120.207 122.928 121.111 123.108 121.834C123.108 122.557 123.108 123.461 123.108 124.184V127.438C122.928 127.438 122.747 127.438 122.386 127.619C122.025 127.619 121.845 127.619 121.484 127.619C121.123 127.619 120.942 127.619 120.581 127.619C120.401 127.619 120.22 127.438 120.04 127.438C119.859 127.257 119.679 127.076 119.679 126.896C119.679 126.715 119.498 126.353 119.498 125.992V115.327C119.678 114.965 120.04 114.784 120.401 114.604C120.762 114.423 121.303 114.423 121.664 114.423C122.206 114.423 122.747 114.423 123.108 114.604C123.65 114.784 124.011 115.146 124.191 115.688L126.357 120.027C126.538 120.388 126.718 120.93 126.899 121.292C127.079 121.653 127.26 122.196 127.44 122.557H127.621C127.621 121.834 127.44 121.111 127.44 120.207C127.44 119.484 127.44 118.761 127.44 117.857V114.423C127.621 114.423 127.801 114.423 128.162 114.242C128.524 114.242 128.704 114.242 129.065 114.242C129.607 114.242 130.148 114.423 130.509 114.604C130.87 114.784 131.051 115.327 131.051 116.05V126.896Z" fill="#F8F7F8"/>
<path d="M137.549 117.496C137.369 117.315 137.369 117.134 137.188 116.773C137.008 116.411 137.008 116.231 137.008 115.869C137.008 115.327 137.188 114.965 137.369 114.604C137.549 114.423 137.91 114.242 138.271 114.242H147.477C147.658 114.423 147.658 114.604 147.838 114.965C147.838 115.146 148.019 115.508 148.019 115.869C148.019 116.411 147.838 116.773 147.658 117.134C147.477 117.315 147.116 117.496 146.755 117.496H144.408V127.257C144.228 127.257 144.047 127.257 143.686 127.438C143.325 127.438 142.964 127.438 142.784 127.438C142.603 127.438 142.242 127.438 141.881 127.438C141.52 127.438 141.34 127.257 141.34 127.257C140.979 127.076 140.798 126.896 140.798 126.534C140.798 126.353 140.618 125.992 140.618 125.63V117.496H137.549Z" fill="#F8F7F8"/>
<path d="M148.56 120.93C148.56 119.846 148.741 118.942 149.102 118.038C149.463 117.134 150.004 116.411 150.546 115.869C151.087 115.327 151.809 114.784 152.712 114.604C153.434 114.242 154.336 114.242 155.42 114.242C156.322 114.242 157.225 114.423 158.127 114.604C158.849 114.965 159.571 115.327 160.293 115.869C160.835 116.411 161.376 117.134 161.737 118.038C162.098 118.942 162.279 119.846 162.279 120.93C162.279 122.015 162.098 122.919 161.737 123.823C161.376 124.726 161.015 125.449 160.293 125.992C159.752 126.534 159.03 127.076 158.127 127.257C157.225 127.619 156.503 127.619 155.42 127.619C154.517 127.619 153.614 127.438 152.712 127.076C151.809 126.715 151.268 126.353 150.546 125.811C149.824 125.269 149.463 124.546 149.102 123.642C148.741 122.738 148.56 122.015 148.56 120.93ZM152.351 120.93C152.351 122.196 152.531 123.1 153.073 123.823C153.614 124.546 154.337 124.726 155.239 124.726C156.142 124.726 156.864 124.365 157.405 123.823C157.947 123.1 158.127 122.196 158.127 120.93C158.127 119.665 157.947 118.761 157.405 118.038C156.864 117.315 156.142 117.134 155.239 117.134C154.337 117.134 153.614 117.496 153.073 118.038C152.712 118.761 152.351 119.665 152.351 120.93Z" fill="#F8F7F8"/>
<path d="M166.611 114.965C166.792 114.784 167.153 114.604 167.694 114.604C168.236 114.423 168.597 114.423 169.138 114.423C169.86 114.423 170.402 114.604 170.944 114.785C171.485 114.965 171.846 115.327 172.027 115.688C172.207 116.411 172.568 117.315 172.929 118.219C173.29 119.123 173.471 120.207 173.832 121.292C174.193 122.377 174.373 123.28 174.734 124.365C175.095 125.45 175.276 126.353 175.456 127.076C175.276 127.257 175.095 127.438 174.734 127.619C174.373 127.799 174.012 127.799 173.471 127.799C173.11 127.799 172.929 127.799 172.568 127.799C172.388 127.799 172.207 127.619 172.027 127.619C171.846 127.438 171.846 127.438 171.666 127.257C171.666 126.534 171.485 126.353 171.485 126.173L171.124 124.726H167.333C167.153 125.088 167.153 125.63 166.972 125.992C166.792 126.353 166.792 126.896 166.611 127.257C166.431 127.257 166.25 127.438 166.07 127.438C165.889 127.438 165.528 127.438 165.348 127.438C164.626 127.438 164.084 127.257 163.723 127.076C163.362 126.896 163.182 126.534 163.182 125.992C163.182 125.811 163.182 125.63 163.182 125.45C163.182 125.269 163.362 125.088 163.362 124.726C163.543 124.365 163.543 123.823 163.723 123.28C163.904 122.738 164.084 122.196 164.265 121.473C164.445 120.75 164.626 120.207 164.987 119.484C165.167 118.761 165.528 118.219 165.709 117.496C165.889 116.954 166.07 116.411 166.25 115.869C166.431 115.508 166.611 115.146 166.611 114.965ZM166.431 112.073C166.431 111.892 166.25 111.712 166.25 111.531C166.25 111.35 166.25 111.169 166.25 111.169C166.25 110.808 166.431 110.265 166.611 110.085C166.972 109.723 167.333 109.723 167.694 109.723C167.875 109.723 168.236 109.723 168.416 109.904C168.597 110.085 168.958 110.085 169.138 110.265L172.027 111.712V111.892V112.073C172.027 112.615 171.846 112.977 171.666 113.338C171.485 113.7 171.124 113.7 170.763 113.7C170.402 113.7 170.041 113.519 169.499 113.338L166.431 112.073ZM169.138 117.677C168.958 118.219 168.777 118.942 168.416 119.665C168.236 120.388 167.875 121.111 167.694 121.834H170.402C170.221 121.111 170.041 120.388 169.86 119.665C169.68 118.942 169.499 118.219 169.138 117.677Z" fill="#F8F7F8"/>
<path d="M188.814 126.896C188.633 127.076 188.272 127.257 187.911 127.438C187.55 127.619 187.009 127.619 186.648 127.619C186.106 127.619 185.565 127.619 185.204 127.438C184.662 127.257 184.301 126.896 184.121 126.353L181.955 122.015C181.774 121.653 181.594 121.111 181.413 120.75C181.233 120.388 181.052 119.846 180.872 119.484H180.691C180.691 120.207 180.691 121.111 180.872 121.834C180.872 122.557 180.872 123.461 180.872 124.184V127.438C180.691 127.438 180.51 127.438 180.149 127.619C179.788 127.619 179.608 127.619 179.247 127.619C178.886 127.619 178.705 127.619 178.344 127.619C178.164 127.619 177.983 127.438 177.803 127.438C177.622 127.257 177.442 127.076 177.442 126.896C177.442 126.715 177.261 126.353 177.261 125.992V115.327C177.442 114.965 177.803 114.784 178.164 114.604C178.525 114.423 179.066 114.423 179.427 114.423C179.969 114.423 180.51 114.423 180.872 114.604C181.413 114.784 181.774 115.146 181.955 115.688L184.121 120.027C184.301 120.388 184.482 120.93 184.662 121.292C184.843 121.653 185.023 122.196 185.204 122.557H185.384C185.384 121.834 185.204 121.111 185.204 120.207C185.204 119.484 185.204 118.761 185.204 117.857V114.423C185.384 114.423 185.565 114.423 185.926 114.242C186.287 114.242 186.467 114.242 186.828 114.242C187.37 114.242 187.911 114.423 188.272 114.604C188.633 114.784 188.814 115.327 188.814 116.05V126.896Z" fill="#F8F7F8"/>
<path d="M200.547 127.8C200.367 127.8 200.006 127.8 199.645 127.8C199.284 127.8 199.103 127.8 198.742 127.8C198.381 127.8 198.02 127.619 197.659 127.619C197.298 127.619 196.937 127.438 196.756 127.438C196.034 127.076 195.673 126.715 195.673 125.811V115.688C195.673 115.327 195.673 115.146 195.854 114.965C196.034 114.785 196.215 114.604 196.576 114.604C197.117 114.423 197.84 114.242 198.562 114.242C199.284 114.242 199.825 114.062 200.367 114.062C201.45 114.062 202.533 114.242 203.435 114.423C204.338 114.604 205.06 115.146 205.782 115.688C206.504 116.231 206.865 116.954 207.226 117.858C207.587 118.761 207.768 119.665 207.768 120.931C207.768 122.015 207.587 123.1 207.226 123.823C206.865 124.546 206.324 125.45 205.782 125.992C205.24 126.534 204.338 127.076 203.616 127.257C202.713 127.619 201.63 127.8 200.547 127.8ZM199.464 124.546C199.645 124.546 199.825 124.546 200.006 124.546C200.186 124.546 200.367 124.546 200.728 124.546C201.269 124.546 201.63 124.546 201.991 124.365C202.352 124.184 202.713 124.003 203.074 123.642C203.435 123.28 203.616 122.919 203.796 122.557C203.977 122.015 203.977 121.473 203.977 120.931C203.977 119.665 203.616 118.761 203.074 118.038C202.533 117.315 201.63 117.135 200.728 117.135C200.547 117.135 200.367 117.135 200.186 117.135C200.006 117.135 199.825 117.135 199.645 117.135V124.546H199.464Z" fill="#F8F7F8"/>
<path d="M213.544 127.257C213.363 127.257 213.183 127.257 212.822 127.438C212.461 127.438 212.1 127.438 211.919 127.438C211.739 127.438 211.378 127.438 211.017 127.438C210.836 127.438 210.475 127.257 210.475 127.257C210.295 127.076 210.114 126.895 210.114 126.715C210.114 126.534 209.934 126.172 209.934 125.811V114.604C210.114 114.604 210.295 114.604 210.656 114.423C211.017 114.423 211.378 114.423 211.558 114.423C211.919 114.423 212.1 114.423 212.461 114.423C212.641 114.423 213.002 114.604 213.002 114.604C213.183 114.784 213.363 114.965 213.363 115.146C213.363 115.327 213.544 115.688 213.544 116.05V127.257Z" fill="#F8F7F8"/>
<path d="M216.071 116.592C216.071 116.05 216.252 115.508 216.613 115.146C216.974 114.785 217.515 114.604 218.057 114.604H225.097C225.277 114.785 225.277 114.965 225.277 115.146C225.277 115.327 225.458 115.688 225.458 115.869C225.458 116.411 225.277 116.773 225.097 116.954C224.916 117.135 224.555 117.315 224.194 117.315H219.681V119.304H224.375C224.555 119.484 224.555 119.665 224.555 119.846C224.555 120.027 224.736 120.388 224.736 120.569C224.736 121.111 224.555 121.473 224.375 121.654C224.194 121.834 223.833 122.015 223.472 122.015H219.501V124.184H224.916C225.097 124.365 225.097 124.546 225.097 124.727C225.097 124.907 225.277 125.269 225.277 125.45C225.277 125.992 225.097 126.353 224.916 126.534C224.736 126.715 224.375 126.896 224.014 126.896H217.876C217.335 126.896 216.793 126.715 216.432 126.353C216.071 125.992 215.891 125.45 215.891 124.907V116.592H216.071ZM220.584 111.892C220.223 112.254 219.681 112.435 219.501 112.796C219.14 112.977 218.779 113.339 218.598 113.519C218.237 113.519 217.876 113.339 217.515 113.158C217.154 112.977 217.154 112.615 217.154 112.254C217.154 111.892 217.154 111.712 217.335 111.531C217.515 111.35 217.696 111.169 218.057 110.808L218.779 110.266C219.14 110.085 219.501 109.904 219.681 109.723C220.042 109.542 220.223 109.542 220.584 109.542C220.945 109.542 221.306 109.542 221.486 109.723C221.667 109.904 222.028 110.085 222.389 110.446L224.014 111.892C224.014 112.435 223.833 112.796 223.653 112.977C223.472 113.339 223.111 113.519 222.75 113.519C222.57 113.519 222.389 113.519 222.389 113.519C222.208 113.519 222.208 113.519 222.028 113.339C221.847 113.339 221.667 113.158 221.486 112.977C221.306 112.796 221.125 112.615 220.945 112.435L220.584 111.892ZM219.32 130.149C219.32 129.788 219.501 129.426 219.681 129.065C220.042 128.703 220.403 128.523 220.764 128.523C221.306 128.523 221.667 128.703 221.847 129.065C222.208 129.426 222.208 129.788 222.208 130.149C222.208 130.511 222.028 130.873 221.847 131.234C221.486 131.596 221.125 131.776 220.764 131.776C220.223 131.776 219.862 131.596 219.681 131.234C219.501 130.873 219.32 130.511 219.32 130.149Z" fill="#F8F7F8"/>
<path d="M239.357 126.896C239.176 127.076 238.815 127.257 238.454 127.438C238.093 127.619 237.552 127.619 237.191 127.619C236.649 127.619 236.108 127.619 235.747 127.438C235.205 127.257 234.844 126.896 234.664 126.353L232.498 122.015C232.317 121.653 232.137 121.111 231.956 120.75C231.775 120.388 231.595 119.846 231.414 119.484H231.234C231.234 120.207 231.234 121.111 231.414 121.834C231.414 122.557 231.414 123.461 231.414 124.184V127.438C231.234 127.438 231.053 127.438 230.692 127.619C230.331 127.619 230.151 127.619 229.79 127.619C229.429 127.619 229.248 127.619 228.887 127.619C228.707 127.619 228.526 127.438 228.346 127.438C228.165 127.257 227.985 127.076 227.985 126.896C227.985 126.715 227.804 126.353 227.804 125.992V115.327C227.985 114.965 228.346 114.784 228.707 114.604C229.068 114.423 229.609 114.423 229.97 114.423C230.512 114.423 231.053 114.423 231.414 114.604C231.956 114.784 232.317 115.146 232.498 115.688L234.664 120.027C234.844 120.388 235.025 120.93 235.205 121.292C235.386 121.653 235.566 122.196 235.747 122.557H235.927C235.927 121.834 235.747 121.111 235.747 120.207C235.747 119.484 235.747 118.761 235.747 117.857V114.423C235.927 114.423 236.108 114.423 236.469 114.242C236.83 114.242 237.01 114.242 237.371 114.242C237.913 114.242 238.454 114.423 238.815 114.604C239.176 114.784 239.357 115.327 239.357 116.05V126.896Z" fill="#F8F7F8"/>
<path d="M115.888 86.0431C114.805 86.0431 113.902 86.4046 113.361 87.1277C112.819 87.8507 112.458 88.7545 112.458 90.0199C112.458 91.2852 112.819 92.189 113.361 92.9121C113.902 93.6351 114.805 93.8159 115.888 93.8159C116.429 93.8159 116.971 93.8159 117.332 93.6351C117.693 93.4544 118.054 93.2736 118.415 93.0928C118.595 93.2736 118.776 93.4544 118.956 93.8159C119.137 94.1774 119.137 94.3582 119.137 94.7197C119.137 95.262 118.776 95.8043 118.234 96.1658C117.512 96.5273 116.61 96.7081 115.346 96.7081C114.444 96.7081 113.541 96.5273 112.639 96.3466C111.736 96.1658 111.014 95.6235 110.472 95.0812C109.931 94.5389 109.389 93.8159 109.028 92.9121C108.667 92.0083 108.487 91.1044 108.487 89.8391C108.487 88.7545 108.667 87.8507 109.028 86.9469C109.389 86.0431 109.931 85.32 110.472 84.7777C111.014 84.2355 111.736 83.6932 112.639 83.5124C113.361 83.1509 114.263 83.1509 115.166 83.1509C116.429 83.1509 117.512 83.3316 118.234 83.8739C118.956 84.2355 119.317 84.7777 119.317 85.5008C119.317 85.8623 119.137 86.2238 118.956 86.4046C118.776 86.5854 118.595 86.9469 118.234 87.1277C117.873 86.9469 117.512 86.7661 117.151 86.5854C116.79 86.2239 116.429 86.0431 115.888 86.0431Z" fill="#C1AE60"/>
<path d="M132.856 96.1656C132.675 96.1656 132.495 96.1656 132.134 96.3464C131.773 96.3464 131.412 96.3464 131.231 96.3464C130.87 96.3464 130.69 96.3464 130.329 96.3464C130.148 96.3464 129.787 96.1656 129.787 96.1656C129.607 95.9848 129.426 95.8041 129.426 95.6233C129.426 95.4426 129.245 95.081 129.245 94.7195V91.4658H125.274V96.3464C125.094 96.3464 124.913 96.3464 124.552 96.5271C124.191 96.5271 123.83 96.5271 123.65 96.5271C123.289 96.5271 123.108 96.5271 122.747 96.5271C122.567 96.5271 122.206 96.3464 122.206 96.3464C122.025 96.1656 121.845 95.9848 121.845 95.8041C121.845 95.6233 121.664 95.2618 121.664 94.9003V83.693C121.845 83.693 122.025 83.693 122.386 83.5122C122.747 83.5122 123.108 83.5122 123.289 83.5122C123.65 83.5122 123.83 83.5122 124.191 83.5122C124.372 83.5122 124.733 83.693 124.733 83.693C124.913 83.8737 125.094 84.0545 125.094 84.2353C125.094 84.416 125.274 84.7775 125.274 85.1391V88.5736H129.245V83.693C129.426 83.693 129.607 83.693 129.968 83.5122C130.329 83.5122 130.69 83.5122 130.87 83.5122C131.231 83.5122 131.412 83.5122 131.773 83.5122C131.953 83.5122 132.314 83.693 132.314 83.693C132.495 83.8737 132.675 84.0545 132.675 84.2353C132.675 84.416 132.856 84.7775 132.856 85.1391V96.1656Z" fill="#C1AE60"/>
<path d="M135.022 89.8391C135.022 88.7545 135.202 87.8507 135.563 86.9469C135.924 86.0431 136.466 85.32 137.008 84.7777C137.549 84.2355 138.271 83.6932 139.174 83.5124C139.896 83.1509 140.798 83.1509 141.881 83.1509C142.784 83.1509 143.686 83.3316 144.589 83.5124C145.311 83.8739 146.033 84.2355 146.755 84.7777C147.297 85.32 147.838 86.0431 148.199 86.9469C148.56 87.8507 148.741 88.7545 148.741 89.8391C148.741 90.9237 148.56 91.8275 148.199 92.7313C147.838 93.6351 147.477 94.3582 146.755 94.9005C146.214 95.4428 145.492 95.985 144.589 96.1658C143.686 96.5273 142.964 96.5273 141.881 96.5273C140.979 96.5273 140.076 96.3466 139.174 95.985C138.271 95.6235 137.73 95.262 137.008 94.7197C136.285 94.1774 135.924 93.4544 135.563 92.5505C135.022 91.8275 135.022 90.9237 135.022 89.8391ZM138.813 89.8391C138.813 91.1044 138.993 92.0083 139.535 92.7313C140.076 93.4544 140.798 93.6351 141.701 93.6351C142.603 93.6351 143.325 93.2736 143.867 92.7313C144.408 92.0083 144.589 91.1044 144.589 89.8391C144.589 88.5738 144.408 87.6699 143.867 86.9469C143.325 86.2238 142.603 86.0431 141.701 86.0431C140.798 86.0431 140.076 86.4046 139.535 86.9469C138.993 87.6699 138.813 88.5738 138.813 89.8391Z" fill="#C1AE60"/>
<path d="M18.4121 34.8876C17.8706 34.8876 17.5095 34.8876 16.7875 34.8876C16.246 34.8876 15.5239 34.8876 14.9824 34.7068C14.4409 34.7068 13.7188 34.526 13.1773 34.3453C12.6358 34.1645 11.9137 33.9837 11.3722 33.803C9.9281 33.2607 9.20605 32.1761 9.20605 30.9108V12.1114C9.20605 11.5692 9.38657 11.0269 9.74759 10.8461C10.1086 10.4846 10.4696 10.3038 11.0112 10.1231C12.0942 9.76153 13.3578 9.58076 14.6214 9.4C15.8849 9.21924 17.1485 9.21924 18.0511 9.21924C20.2172 9.21924 22.0223 9.4 23.8274 9.94229C25.452 10.4846 27.0766 11.2076 28.1597 12.2922C29.4232 13.3768 30.3258 14.6421 31.0478 16.269C31.7699 17.8959 32.1309 19.7035 32.1309 22.0534C32.1309 24.2226 31.7699 26.0302 31.2283 27.6571C30.5063 29.2839 29.6037 30.5493 28.5207 31.6338C27.2571 32.7184 25.813 33.6222 24.1884 33.9837C22.3833 34.7068 20.5782 34.8876 18.4121 34.8876ZM16.246 29.1032C16.607 29.1032 16.968 29.2839 17.329 29.2839C17.6901 29.2839 18.2316 29.2839 18.5926 29.2839C19.4952 29.2839 20.3977 29.1032 21.1198 28.9224C21.8418 28.7416 22.5638 28.1993 23.1054 27.6571C23.6469 27.1148 24.0079 26.3917 24.3689 25.4879C24.73 24.5841 24.9105 23.4995 24.9105 22.2342C24.9105 19.8842 24.3689 18.0766 23.2859 16.8113C22.2028 15.5459 20.5782 15.0037 18.7731 15.0037C18.4121 15.0037 18.0511 15.0037 17.6901 15.0037C17.329 15.0037 16.968 15.0036 16.4265 15.1844V29.1032H16.246Z" fill="#ED1164"/>
<path d="M43.142 34.1643C42.781 34.1643 42.42 34.3451 41.6979 34.3451C41.1564 34.3451 40.4344 34.5258 39.8928 34.5258C39.3513 34.5258 38.8098 34.5258 38.2682 34.3451C37.7267 34.1643 37.3657 34.1643 37.0047 33.8028C36.6436 33.622 36.4631 33.2605 36.2826 32.7182C36.1021 32.3567 36.1021 31.8144 36.1021 31.0913V9.94209C36.4631 9.94209 36.8242 9.76133 37.5462 9.76133C38.2682 9.58057 38.8098 9.58057 39.3513 9.58057C39.8928 9.58057 40.4344 9.58057 40.9759 9.76133C41.5174 9.94209 41.8784 9.94209 42.2395 10.3036C42.6005 10.4844 42.781 10.8459 42.9615 11.3882C43.142 11.7497 43.142 12.292 43.142 13.0151V34.1643Z" fill="#ED1164"/>
<path d="M70.3991 33.4413C70.0381 33.8028 69.4966 34.1643 68.7745 34.3451C68.0525 34.5258 67.1499 34.7066 66.2474 34.7066C65.3448 34.7066 64.2618 34.5258 63.3592 34.3451C62.4567 33.9836 61.7346 33.2605 61.1931 32.1759L57.2218 24.0416C56.8608 23.1378 56.4998 22.4147 56.1388 21.6917C55.7778 20.9686 55.4167 20.0648 55.0557 19.161H54.8752C55.0557 20.6071 55.0557 22.0532 55.0557 23.6801C55.0557 25.1262 55.0557 26.5723 55.0557 28.1991V34.5258C54.6947 34.5258 54.3337 34.7066 53.7921 34.7066C53.2506 34.7066 52.5286 34.8874 51.987 34.8874C51.4455 34.8874 50.904 34.8874 50.3624 34.7066C49.8209 34.7066 49.4599 34.5258 49.2794 34.1643C48.9184 33.9836 48.7379 33.622 48.5573 33.2605C48.3768 32.899 48.3768 32.3567 48.3768 31.6336V11.2074C48.7379 10.6651 49.2794 10.3036 50.1819 9.94209C50.904 9.76133 51.8065 9.58057 52.7091 9.58057C53.6116 9.58057 54.6947 9.76133 55.5973 10.1229C56.4998 10.4844 57.2218 11.2074 57.7634 12.292L61.7346 20.4263C62.0956 21.3302 62.4567 22.0532 62.8177 22.7763C63.1787 23.4993 63.5397 24.4031 63.9007 25.3069H64.0812C63.9007 23.8608 63.9007 22.4147 63.9007 20.9686C63.9007 19.5225 63.9007 18.0764 63.9007 16.6303V9.94209C64.2618 9.94209 64.6228 9.76133 65.1643 9.76133C65.7058 9.76133 66.4279 9.58057 66.9694 9.58057C68.233 9.58057 69.1355 9.76133 69.6771 10.1229C70.0381 10.6651 70.3991 11.3882 70.3991 12.8343V33.4413Z" fill="#ED1164"/>
<path d="M97.2951 34.1643C96.9341 34.1643 96.5731 34.3451 95.8511 34.3451C95.3095 34.3451 94.5875 34.5258 94.0459 34.5258C93.5044 34.5258 92.9629 34.5258 92.4214 34.3451C91.8798 34.1643 91.5188 34.1643 91.1578 33.8028C90.7968 33.622 90.6163 33.2605 90.4357 32.7182C90.2552 32.3567 90.2552 31.8144 90.2552 31.0913V24.7646H82.4933V33.9835C82.1323 33.9835 81.7712 34.1643 81.0492 34.1643C80.5077 34.1643 79.7856 34.3451 79.2441 34.3451C78.7026 34.3451 78.161 34.3451 77.6195 34.1643C77.078 33.9836 76.7169 33.9836 76.3559 33.622C75.9949 33.4413 75.8144 33.0797 75.6339 32.5374C75.4534 32.1759 75.4534 31.6336 75.4534 30.9106V9.94209C75.8144 9.94209 76.1754 9.76133 76.8975 9.76133C77.6195 9.58057 78.161 9.58057 78.7026 9.58057C79.2441 9.58057 79.7856 9.58057 80.3272 9.76133C80.8687 9.94209 81.2297 9.94209 81.5907 10.3036C81.9518 10.4844 82.1323 10.8459 82.3128 11.3882C82.4933 11.7497 82.4933 12.292 82.4933 13.0151V19.5225H90.2552V9.94209C90.6163 9.94209 90.9773 9.76133 91.6993 9.76133C92.4214 9.58057 92.9629 9.58057 93.5044 9.58057C94.046 9.58057 94.5875 9.58057 95.129 9.76133C95.6705 9.94209 96.0316 9.94209 96.3926 10.3036C96.7536 10.4844 96.9341 10.8459 97.1146 11.3882C97.2951 11.7497 97.2951 12.292 97.2951 13.0151V34.1643Z" fill="#ED1164"/>
<path d="M119.859 34.8876C119.317 34.8876 118.956 34.8876 118.234 34.8876C117.693 34.8876 116.971 34.8876 116.429 34.7068C115.888 34.7068 115.166 34.526 114.624 34.3453C114.083 34.1645 113.361 33.9837 112.819 33.803C111.375 33.2607 110.653 32.1761 110.653 30.9108V12.1114C110.653 11.5692 110.833 11.0269 111.194 10.8461C111.556 10.4846 111.917 10.3038 112.458 10.1231C113.541 9.76153 114.805 9.58076 116.068 9.4C117.332 9.21924 118.595 9.21924 119.498 9.21924C121.664 9.21924 123.469 9.4 125.274 9.94229C126.899 10.4846 128.523 11.2076 129.607 12.2922C130.87 13.3768 131.773 14.8229 132.314 16.269C133.036 17.8959 133.397 19.7035 133.397 22.0534C133.397 24.2226 133.036 26.0302 132.495 27.6571C131.773 29.2839 130.87 30.5493 129.787 31.6338C128.523 32.7184 127.079 33.6222 125.455 33.9837C123.65 34.7068 121.845 34.8876 119.859 34.8876ZM117.693 29.1032C118.054 29.1032 118.415 29.2839 118.776 29.2839C119.137 29.2839 119.678 29.2839 120.039 29.2839C120.942 29.2839 121.845 29.1032 122.567 28.9224C123.289 28.7416 124.011 28.1993 124.552 27.6571C125.094 27.1148 125.455 26.3917 125.816 25.4879C126.177 24.5841 126.357 23.4995 126.357 22.2342C126.357 19.8842 125.816 18.0766 124.733 16.8113C123.65 15.5459 122.025 15.0037 120.22 15.0037C119.859 15.0037 119.498 15.0037 119.137 15.0037C118.776 15.0037 118.415 15.0036 117.873 15.1844V29.1032H117.693Z" fill="#ED1164"/>
<path d="M158.849 25.3066C158.849 26.7527 158.669 28.018 158.127 29.2833C157.586 30.5487 156.864 31.4525 155.961 32.3563C155.059 33.2601 153.795 33.8024 152.531 34.3447C151.268 34.887 149.643 35.0678 148.019 35.0678C146.394 35.0678 144.769 34.887 143.506 34.3447C142.242 33.8024 140.979 33.2601 140.076 32.3563C139.174 31.4525 138.452 30.5487 137.91 29.2833C137.369 28.018 137.188 26.7527 137.188 25.3066V9.94171C137.549 9.94171 137.91 9.76095 138.632 9.76095C139.354 9.58019 139.896 9.58019 140.437 9.58019C140.979 9.58019 141.52 9.58019 142.062 9.76095C142.603 9.94171 142.964 9.94171 143.325 10.3032C143.686 10.484 143.867 10.8455 144.047 11.3878C144.228 11.7493 144.228 12.2916 144.228 13.0147V25.3066C144.228 26.5719 144.589 27.6565 145.311 28.3795C146.033 29.1026 146.936 29.4641 148.019 29.4641C149.102 29.4641 150.185 29.1026 150.726 28.3795C151.448 27.6565 151.809 26.5719 151.809 25.3066V9.94171C152.17 9.94171 152.531 9.76095 153.253 9.76095C153.975 9.58019 154.517 9.58019 155.059 9.58019C155.6 9.58019 156.142 9.58019 156.683 9.76095C157.225 9.94171 157.586 9.94171 157.947 10.3032C158.308 10.484 158.488 10.8455 158.669 11.3878C158.849 11.5686 158.849 12.1109 158.849 12.8339V14.4608C159.571 13.9185 160.113 13.0147 160.474 12.1109C160.835 11.2071 161.015 9.94171 161.196 8.31485C161.557 8.13409 161.918 7.95332 162.279 7.77256C162.64 7.5918 163.181 7.5918 163.723 7.5918C164.626 7.5918 165.348 7.77256 166.07 8.13409C166.792 8.49561 166.972 9.21866 166.972 10.3032C166.972 11.5686 166.792 12.6532 166.25 13.7377C165.709 14.8223 165.167 15.7261 164.445 16.4492C163.723 17.1722 162.82 17.8953 161.918 18.4376C161.015 18.9799 159.932 19.3414 159.03 19.5221V25.3066H158.849Z" fill="#ED1164"/>
<path d="M166.972 22.0531C166.972 19.8839 167.333 18.0763 167.875 16.4494C168.597 14.8226 169.499 13.5572 170.582 12.4726C171.665 11.3881 173.11 10.4842 174.554 9.94196C176.178 9.39967 177.803 9.03815 179.608 9.03815C181.774 9.03815 183.94 9.39967 185.745 10.3035C187.55 11.2073 188.994 12.4726 190.078 14.0995C190.439 13.3765 190.8 12.6534 190.98 11.7496C191.161 10.8458 191.341 9.7612 191.341 8.31509C191.702 8.13433 192.063 7.95357 192.424 7.77281C192.785 7.59204 193.327 7.59204 193.868 7.59204C194.771 7.59204 195.493 7.7728 196.215 8.13433C196.937 8.49586 197.117 9.21891 197.117 10.3035C197.117 11.0265 196.937 11.9304 196.756 12.6534C196.576 13.5572 196.215 14.2803 195.673 15.0033C195.312 15.7264 194.771 16.2687 194.049 16.9917C193.327 17.534 192.605 17.8955 191.883 18.2571C192.063 18.7993 192.063 19.3416 192.244 20.0647C192.244 20.607 192.424 21.33 192.424 22.0531C192.424 24.2222 192.063 26.0299 191.522 27.6567C190.8 29.2836 190.078 30.5489 188.814 31.6335C187.731 32.7181 186.287 33.6219 184.843 34.1642C183.218 34.7065 181.594 35.068 179.788 35.068C177.983 35.068 176.359 34.7065 174.734 34.1642C173.11 33.6219 171.846 32.7181 170.763 31.6335C169.68 30.5489 168.777 29.1028 168.055 27.6567C167.333 26.0299 166.972 24.0415 166.972 22.0531ZM179.608 0.903814C180.149 1.08458 180.51 1.08458 180.871 1.26534C181.232 1.26534 181.413 1.4461 181.594 1.4461C182.135 1.4461 182.677 1.26534 183.038 0.903814C183.399 0.542289 183.579 0.180763 183.76 0C184.662 0 185.565 0.361526 186.106 0.903814C186.648 1.4461 187.009 2.34992 187.009 3.25373C187.009 4.51907 186.648 5.42289 185.926 5.96518C185.204 6.50746 184.301 6.86899 183.038 6.86899C182.677 6.86899 182.316 6.86899 181.955 6.86899C181.594 6.86899 181.232 6.68823 180.691 6.68823L179.066 6.14594C178.705 5.96518 178.344 5.96518 178.164 5.96518C177.983 5.96518 177.622 5.78441 177.442 5.78441C176.9 5.78441 176.359 5.96518 176.178 6.3267C175.817 6.68823 175.637 7.04975 175.456 7.23052C174.554 7.23052 173.651 6.86899 173.11 6.3267C172.568 5.78441 172.207 4.8806 172.207 3.97678C172.207 3.4345 172.387 2.89221 172.568 2.34992C172.568 1.80763 172.929 1.4461 173.29 1.08458C173.651 0.723052 174.012 0.542289 174.554 0.361526C175.095 0.180763 175.456 0.180763 175.998 0.180763C176.359 0.180763 176.72 0.180763 177.261 0.361526C177.803 0.361526 178.525 0.723052 179.608 0.903814ZM174.193 22.0531C174.193 24.5838 174.734 26.3914 175.637 27.476C176.539 28.7413 177.983 29.2836 179.608 29.2836C181.232 29.2836 182.677 28.7413 183.579 27.476C184.482 26.2106 185.023 24.403 185.023 22.0531C185.023 19.7032 184.482 17.8955 183.579 16.6302C182.677 15.3648 181.232 14.8226 179.608 14.8226C177.983 14.8226 176.539 15.3648 175.637 16.6302C174.734 17.7148 174.193 19.7032 174.193 22.0531Z" fill="#ED1164"/>
<path d="M221.125 33.4413C220.764 33.8028 220.223 34.1643 219.501 34.3451C218.779 34.5258 217.876 34.7066 216.974 34.7066C216.071 34.7066 214.988 34.5258 214.085 34.3451C213.183 33.9836 212.461 33.2605 211.919 32.1759L207.948 24.0416C207.587 23.1378 207.226 22.4147 206.865 21.6917C206.504 20.9686 206.143 20.0648 205.782 19.161H205.601C205.782 20.6071 205.782 22.0532 205.782 23.6801C205.782 25.1262 205.782 26.5723 205.782 28.1991V34.5258C205.421 34.5258 205.06 34.7066 204.518 34.7066C203.977 34.7066 203.255 34.8874 202.713 34.8874C202.172 34.8874 201.63 34.8874 201.089 34.7066C200.547 34.5258 200.186 34.5258 200.006 34.1643C199.645 33.9836 199.464 33.622 199.284 33.2605C199.103 32.899 199.103 32.3567 199.103 31.6336V11.2074C199.464 10.6651 200.006 10.3036 200.908 9.94209C201.63 9.76133 202.533 9.58057 203.435 9.58057C204.338 9.58057 205.421 9.76133 206.323 10.1229C207.226 10.4844 207.948 11.2074 208.49 12.292L212.461 20.4263C212.822 21.3302 213.183 22.0532 213.544 22.7763C213.905 23.4993 214.266 24.4031 214.627 25.3069H214.807C214.627 23.8608 214.627 22.4147 214.627 20.9686C214.627 19.5225 214.627 18.0764 214.627 16.6303V9.94209C214.988 9.94209 215.349 9.76133 215.891 9.76133C216.432 9.76133 217.154 9.58057 217.696 9.58057C218.959 9.58057 219.862 9.76133 220.403 10.1229C220.945 10.4844 221.306 11.3882 221.306 12.6535V33.4413H221.125Z" fill="#ED1164"/>
<path d="M248.382 30.3685C248.382 31.2723 248.202 31.8146 248.021 32.1761C247.66 32.5376 247.299 32.8992 246.577 33.2607C246.216 33.4415 245.675 33.6222 245.133 33.803C244.592 33.9837 243.87 34.1645 243.328 34.3453C242.606 34.526 241.884 34.526 241.162 34.7068C240.44 34.7068 239.718 34.8876 238.996 34.8876C237.01 34.8876 235.205 34.7068 233.581 34.1645C231.956 33.6222 230.512 32.8992 229.248 31.8146C227.985 30.73 227.082 29.4647 226.36 27.8378C225.638 26.2109 225.277 24.4033 225.277 22.2342C225.277 20.065 225.638 18.0766 226.541 16.4498C227.263 14.8229 228.346 13.3768 229.609 12.2922C230.873 11.2076 232.317 10.3038 234.122 9.94229C235.747 9.4 237.552 9.21924 239.357 9.21924C241.884 9.21924 243.87 9.58076 245.494 10.4846C246.938 11.3884 247.66 12.2922 247.66 13.7383C247.66 14.4614 247.48 15.0037 247.119 15.5459C246.758 16.0882 246.397 16.4498 245.855 16.8113C245.133 16.4498 244.411 16.0882 243.328 15.5459C242.245 15.1844 241.162 15.0037 239.898 15.0037C237.732 15.0037 235.927 15.7267 234.483 16.992C233.039 18.2574 232.498 20.065 232.498 22.4149C232.498 23.6803 232.678 24.7648 233.039 25.6687C233.4 26.5725 233.942 27.2955 234.483 27.8378C235.025 28.3801 235.747 28.9224 236.649 29.1032C237.371 29.4647 238.274 29.4647 239.176 29.4647C239.718 29.4647 240.259 29.4647 240.801 29.2839C241.343 29.1032 241.523 29.1032 241.884 28.9224V25.1264H237.552C237.371 24.7648 237.191 24.4033 237.01 24.0418C236.83 23.4995 236.83 23.138 236.83 22.5957C236.83 21.6919 237.01 20.9688 237.552 20.4265C237.913 20.065 238.635 19.7035 239.176 19.7035H246.036C246.758 19.7035 247.48 19.8842 247.841 20.4265C248.202 20.7881 248.563 21.5111 248.563 22.2342V30.3685H248.382Z" fill="#ED1164"/>
<path d="M60.11 55.675C58.3049 55.675 57.0414 56.2173 55.9583 57.3019C55.0557 58.3865 54.5142 60.0133 54.5142 62.0017C54.5142 63.9901 55.0557 65.617 56.1388 66.7016C57.2219 67.7861 58.666 68.3284 60.4711 68.3284C61.3736 68.3284 62.2762 68.1477 62.8177 67.9669C63.5397 67.7861 64.0813 67.4246 64.6228 67.0631C64.9838 67.4246 65.3448 67.7861 65.5254 68.1477C65.7059 68.69 65.8864 69.0515 65.8864 69.7745C65.8864 70.6783 65.3448 71.5822 64.2618 72.1245C63.1787 72.8475 61.5541 73.0283 59.388 73.0283C57.7634 73.0283 56.3193 72.8475 55.0557 72.3052C53.6117 71.9437 52.5286 71.2206 51.4455 70.3168C50.3625 69.413 49.6404 68.3284 49.0989 66.8823C48.5574 65.4362 48.1964 63.8094 48.1964 61.821C48.1964 60.0133 48.5574 58.3865 49.0989 57.1211C49.6404 55.675 50.3625 54.5905 51.4455 53.6866C52.3481 52.7828 53.6117 52.0598 54.8752 51.5175C56.1388 50.9752 57.5829 50.7944 59.027 50.7944C61.1931 50.7944 62.8177 51.156 63.9008 51.879C64.9838 52.6021 65.7059 53.5059 65.7059 54.5905C65.7059 55.1327 65.5254 55.675 65.1643 56.2173C64.8033 56.5788 64.4423 56.9404 64.0813 57.3019C63.5397 56.9404 62.8177 56.5788 62.0957 56.2173C61.9152 55.8558 61.0126 55.675 60.11 55.675Z" fill="#ED1164"/>
<path d="M74.1898 52.0597C74.5509 51.879 75.0924 51.5174 75.9949 51.3367C76.717 51.1559 77.6195 50.9752 78.3416 50.9752C79.4247 50.9752 80.5077 51.1559 81.4103 51.5174C82.3128 51.879 82.8543 52.4213 83.2154 53.1443C83.5764 54.4096 84.1179 55.675 84.6595 57.3019C85.201 58.9287 85.562 60.5556 86.1035 62.1825C86.6451 63.8093 87.0061 65.6169 87.5476 67.2438C88.0892 68.8707 88.4502 70.3168 88.8112 71.5821C88.4502 71.9436 88.0892 72.1244 87.5476 72.3052C87.0061 72.4859 86.284 72.6667 85.562 72.6667C85.0205 72.6667 84.4789 72.6667 84.1179 72.4859C83.7569 72.3052 83.3959 72.3052 83.2154 72.1244C83.0349 71.9437 82.8543 71.7629 82.6738 71.4014C82.4933 71.0398 82.3128 70.6783 82.3128 70.3168L81.7713 67.9669H75.4534C75.2729 68.6899 75.0924 69.413 74.9119 70.136C74.7314 70.8591 74.5509 71.5821 74.3704 72.3052C74.0093 72.4859 73.6483 72.4859 73.2873 72.6667C72.9263 72.6667 72.5653 72.8475 72.0237 72.8475C70.7601 72.8475 70.0381 72.6667 69.3161 72.3052C68.7745 71.9436 68.4135 71.4014 68.4135 70.6783C68.4135 70.3168 68.4135 69.9553 68.594 69.7745C68.7745 69.413 68.7745 69.0514 68.955 68.6899C69.1356 68.1476 69.3161 67.2438 69.6771 66.34C70.0381 65.4362 70.2186 64.3516 70.5796 63.267C70.9407 62.1825 71.3017 61.0979 71.6627 60.0133C72.0237 58.9287 72.3847 57.8441 72.7458 56.7596C73.1068 55.675 73.4678 54.7712 73.6483 54.0481C73.8288 53.1443 74.1898 52.4213 74.1898 52.0597ZM78.7026 46.9984C77.9806 47.5407 77.2585 47.9022 76.717 48.4445C76.1755 48.806 75.6339 49.1675 75.0924 49.529C74.3704 49.529 73.8288 49.3483 73.2873 48.9868C72.7458 48.6252 72.5653 48.0829 72.5653 47.5407C72.5653 46.9984 72.7458 46.6368 72.9263 46.2753C73.1068 45.9138 73.6483 45.5523 74.1898 45.01L75.4534 44.1062C75.9949 43.7446 76.5365 43.3831 77.078 43.2023C77.6195 43.0216 77.9806 42.8408 78.5221 42.8408C79.0636 42.8408 79.6052 43.0216 80.1467 43.2023C80.5077 43.3831 81.0492 43.7446 81.7713 44.2869L84.6595 46.8176C84.6595 47.5407 84.4789 48.2637 84.1179 48.806C83.7569 49.3483 83.2154 49.529 82.4933 49.529C82.3128 49.529 82.1323 49.529 81.7713 49.529C81.5908 49.529 81.4103 49.3483 81.0492 49.3483C80.8687 49.1675 80.5077 48.9868 80.3272 48.806C79.9662 48.6252 79.7857 48.2637 79.4246 47.9022L78.7026 46.9984ZM78.5221 56.5788C78.1611 57.4826 77.8001 58.5672 77.439 59.8325C77.078 61.0979 76.717 62.1824 76.356 63.4478H80.6882C80.3272 62.1824 79.9662 60.9171 79.7857 59.8325C79.4247 58.5672 79.0636 57.4826 78.8831 56.5788H78.5221Z" fill="#ED1164"/>
<path d="M110.653 71.7629C110.292 72.1245 109.931 72.3052 109.209 72.486C108.667 72.6667 107.945 72.6667 107.043 72.6667C106.14 72.6667 105.418 72.486 104.696 72.3052C103.974 72.1244 103.252 71.4014 102.891 70.4976L99.2808 63.6286C98.9198 62.9055 98.5587 62.1825 98.3782 61.6402C98.0172 60.9171 97.8367 60.1941 97.4757 59.4711H97.2952C97.4757 60.7364 97.4757 62.0017 97.4757 63.2671C97.4757 64.5324 97.4757 65.7977 97.4757 67.0631V72.486C97.2952 72.486 96.7536 72.6667 96.3926 72.6667C95.8511 72.6667 95.3096 72.8475 94.768 72.8475C94.2265 72.8475 93.8655 72.8475 93.3239 72.6667C92.9629 72.6667 92.6019 72.486 92.4214 72.3052C92.2409 72.1244 91.8799 71.7629 91.8799 71.4014C91.6993 71.0399 91.6993 70.4976 91.6993 69.9553V52.4213C92.0604 51.879 92.6019 51.6982 93.1434 51.3367C93.8655 51.156 94.5875 50.9752 95.3095 50.9752C96.2121 50.9752 96.9341 51.156 97.8367 51.3367C98.5587 51.5175 99.2808 52.2405 99.6418 53.1443L103.071 60.1941C103.433 60.9172 103.794 61.6402 103.974 62.1825C104.335 62.9055 104.516 63.6286 104.877 64.3516H105.057C104.877 63.0863 104.877 61.821 104.877 60.5556C104.877 59.2903 104.877 58.0249 104.877 56.7596V51.156C105.057 51.156 105.599 50.9752 105.96 50.9752C106.501 50.9752 107.043 50.7944 107.584 50.7944C108.667 50.7944 109.389 50.9752 109.931 51.3367C110.472 51.6982 110.653 52.4213 110.653 53.5059V71.7629Z" fill="#ED1164"/>
<path d="M130.329 73.0282C129.968 73.0282 129.426 73.0282 128.885 73.0282C128.343 73.0282 127.801 73.0282 127.26 72.8474C126.718 72.8474 126.177 72.6666 125.635 72.6666C125.094 72.4859 124.552 72.4859 124.191 72.3051C122.928 71.7628 122.206 71.0398 122.206 69.7744V53.5058C122.206 52.9635 122.386 52.602 122.567 52.4212C122.747 52.2404 123.108 51.8789 123.65 51.6981C124.372 51.3366 125.455 51.1559 126.538 51.1559C127.801 50.9751 128.885 50.9751 130.148 50.9751C133.036 50.9751 135.383 51.5174 137.007 52.4212C138.632 53.5058 139.354 54.9519 139.354 57.121C139.354 58.2056 138.993 59.1094 138.452 59.8325C137.91 60.5555 137.007 61.0978 136.105 61.4593C137.188 61.8209 138.271 62.3632 138.993 63.267C139.715 64.1708 140.076 65.2554 140.076 66.5207C140.076 68.8706 139.174 70.4975 137.549 71.5821C135.924 72.4859 133.397 73.0282 130.329 73.0282ZM127.982 59.6517H130.509C131.592 59.6517 132.314 59.471 132.675 59.1094C133.217 58.7479 133.397 58.2056 133.397 57.4826C133.397 56.9403 133.217 56.398 132.675 56.0365C132.134 55.6749 131.412 55.4942 130.329 55.4942C129.968 55.4942 129.607 55.4942 129.065 55.4942C128.523 55.4942 128.343 55.4942 127.982 55.6749V59.6517ZM127.982 68.1476C128.343 68.3283 128.704 68.3283 129.246 68.3283C129.787 68.3283 130.329 68.3283 130.69 68.3283C131.592 68.3283 132.314 68.1476 133.036 67.786C133.578 67.4245 133.939 66.8822 133.939 65.9784C133.939 65.2554 133.758 64.7131 133.217 64.3515C132.675 63.99 131.953 63.8093 130.87 63.8093H127.982V68.1476Z" fill="#ED1164"/>
<path d="M148.199 52.0596C148.56 51.8788 149.102 51.5173 150.004 51.3365C150.726 51.1558 151.629 50.975 152.351 50.975C153.434 50.975 154.517 51.1558 155.42 51.5173C156.322 51.8788 156.864 52.4211 157.225 53.1441C157.586 54.4095 158.127 55.6748 158.669 57.3017C159.21 58.9286 159.571 60.5554 160.113 62.1823C160.654 63.8092 161.015 65.6168 161.557 67.2437C162.098 68.8705 162.459 70.3166 162.82 71.582C162.459 71.9435 162.098 72.1243 161.557 72.305C161.015 72.4858 160.293 72.6665 159.571 72.6665C159.03 72.6665 158.488 72.6665 158.127 72.4858C157.766 72.305 157.405 72.305 157.225 72.1243C157.044 71.9435 156.864 71.7627 156.683 71.4012C156.503 71.0397 156.322 70.6782 156.322 70.3166L155.781 67.9667H149.463C149.282 68.6898 149.102 69.4128 148.921 70.1359C148.741 70.8589 148.56 71.582 148.38 72.305C148.019 72.4858 147.658 72.4858 147.297 72.6665C146.936 72.6665 146.575 72.8473 146.033 72.8473C144.769 72.8473 144.047 72.6665 143.325 72.305C142.784 71.9435 142.423 71.4012 142.423 70.6781C142.423 70.3166 142.423 69.9551 142.603 69.7743C142.784 69.4128 142.784 69.0513 142.964 68.6898C143.145 68.1475 143.325 67.2437 143.686 66.3398C144.047 65.436 144.228 64.3514 144.589 63.2669C144.95 62.1823 145.311 61.0977 145.672 60.0131C146.033 58.9286 146.394 57.844 146.755 56.7594C147.116 55.6748 147.477 54.771 147.658 54.048C147.658 53.1441 148.019 52.4211 148.199 52.0596ZM152.351 49.5289C150.365 49.5289 148.921 49.1674 147.838 48.4443C146.755 47.7213 146.214 46.8174 146.214 45.7329C146.214 45.1906 146.394 44.6483 146.936 44.106C147.477 43.5637 148.019 43.383 149.102 43.383C149.282 43.383 149.282 43.383 149.463 43.383C149.643 43.383 149.643 43.383 149.824 43.383C150.004 43.9252 150.185 44.2868 150.726 44.6483C151.268 45.0098 151.809 45.1906 152.531 45.1906C153.253 45.1906 153.795 45.0098 154.336 44.6483C154.878 44.2868 155.059 43.9252 155.239 43.383C155.42 43.383 155.42 43.383 155.6 43.383C155.781 43.383 155.781 43.383 155.961 43.383C156.864 43.383 157.586 43.5637 158.127 44.106C158.669 44.6483 158.849 45.1906 158.849 45.7329C158.849 46.8174 158.308 47.7213 157.225 48.4443C155.781 49.1674 154.336 49.5289 152.351 49.5289ZM147.477 39.5869C147.477 38.6831 147.838 38.1408 148.199 37.5985C148.741 37.0563 149.282 36.8755 149.824 36.8755C150.365 36.8755 150.907 37.0563 151.268 37.237C151.629 37.4178 151.99 37.9601 152.531 38.5024L154.697 41.2138C154.517 41.9368 154.336 42.4791 153.795 42.8407C153.434 43.2022 153.073 43.383 152.531 43.383C152.17 43.383 151.809 43.2022 151.268 43.0214C150.907 42.8407 150.546 42.4791 150.185 42.1176L147.477 39.5869ZM152.351 56.5786C151.99 57.4825 151.629 58.567 151.268 59.8324C150.907 61.0977 150.546 62.1823 150.185 63.4476H154.517C154.156 62.1823 153.795 60.917 153.614 59.8324C153.253 58.567 152.892 57.4825 152.712 56.5786H152.351Z" fill="#ED1164"/>
<path d="M184.482 71.7628C184.121 72.1244 183.76 72.3051 183.038 72.4859C182.496 72.6666 181.774 72.6666 180.872 72.6666C179.969 72.6666 179.247 72.4859 178.525 72.3051C177.803 72.1244 177.081 71.4013 176.72 70.4975L173.29 63.4477C172.929 62.7247 172.568 62.0016 172.388 61.4593C172.027 60.7363 171.846 60.0132 171.485 59.2902H171.304C171.485 60.5555 171.485 61.8209 171.485 63.0862C171.485 64.3516 171.485 65.6169 171.485 66.8822V72.3051C171.304 72.3051 170.763 72.4859 170.402 72.4859C169.86 72.4859 169.319 72.6666 168.777 72.6666C168.236 72.6666 167.875 72.6666 167.333 72.4859C166.792 72.3051 166.611 72.3051 166.431 72.1244C166.25 71.9436 165.889 71.5821 165.889 71.2205C165.709 70.859 165.709 70.3167 165.709 69.7744V52.4212C166.07 51.8789 166.611 51.6981 167.153 51.3366C167.875 51.1559 168.597 50.9751 169.319 50.9751C170.221 50.9751 170.943 51.1559 171.846 51.3366C172.568 51.5174 173.29 52.2404 173.651 53.1443L177.081 60.194C177.442 60.9171 177.803 61.6401 177.983 62.1824C178.344 62.9054 178.525 63.6285 178.886 64.3515H179.066C178.705 63.267 178.705 62.0016 178.705 60.7363C178.705 59.4709 178.705 58.2056 178.705 56.9403V51.3366C178.886 51.3366 179.427 51.1559 179.788 51.1559C180.15 51.1559 180.872 50.9751 181.413 50.9751C182.496 50.9751 183.218 51.1559 183.76 51.5174C184.301 51.8789 184.482 52.602 184.482 53.6865V71.7628Z" fill="#ED1164"/>
<path d="M208.129 69.0514C208.129 69.7744 207.948 70.3167 207.768 70.6782C207.587 71.0398 207.046 71.4013 206.504 71.7628C206.143 71.9436 205.782 72.1243 205.24 72.3051C204.699 72.4859 204.157 72.6666 203.616 72.8474C203.074 73.0282 202.352 73.0282 201.811 73.2089C201.089 73.2089 200.547 73.3897 200.006 73.3897C198.381 73.3897 196.756 73.2089 195.312 72.6666C193.868 72.1244 192.605 71.5821 191.522 70.6782C190.439 69.7744 189.536 68.6899 188.994 67.2438C188.453 65.7977 188.092 64.3515 188.092 62.5439C188.092 60.5555 188.453 58.9287 189.175 57.4826C189.897 56.0365 190.8 54.9519 191.883 53.8673C192.966 52.9635 194.229 52.2404 195.673 51.6981C197.117 51.1559 198.562 50.9751 200.186 50.9751C202.352 50.9751 204.157 51.3366 205.421 52.0597C206.685 52.7827 207.407 53.6865 207.407 54.7711C207.407 55.3134 207.226 55.8557 206.865 56.398C206.504 56.7595 206.143 57.121 205.782 57.4826C205.24 57.121 204.518 56.7595 203.616 56.398C202.713 56.0365 201.811 55.8557 200.728 55.8557C198.742 55.8557 197.298 56.398 196.034 57.4826C194.951 58.5671 194.229 60.194 194.229 62.1824C194.229 63.267 194.41 64.1708 194.771 64.8938C195.132 65.6169 195.493 66.3399 196.034 66.8822C196.576 67.4245 197.117 67.786 197.839 67.9668C198.562 68.1476 199.284 68.3283 200.006 68.3283C200.547 68.3283 200.908 68.3283 201.45 68.1476C201.811 67.9668 202.172 67.9668 202.352 67.786V64.5323H198.562C198.381 64.3515 198.201 63.99 198.201 63.4477C198.02 63.0862 198.02 62.5439 198.02 62.1824C198.02 61.2786 198.201 60.7363 198.562 60.3748C198.923 60.0132 199.464 59.8325 200.006 59.8325H205.962C206.685 59.8325 207.226 60.0132 207.587 60.3748C207.948 60.7363 208.129 61.2786 208.129 62.0016V69.0514Z" fill="#ED1164"/>
</svg>
