<svg width="22" height="22" viewBox="0 0 22 22" fill="none" xmlns="http://www.w3.org/2000/svg">
<path d="M16.2997 16.506C15.7841 17.0216 14.9592 17.0216 14.4436 16.506L10.7313 12.7937L7.22519 16.2998C6.70959 16.8154 5.88463 16.8154 5.36903 16.2998C4.85344 15.7842 4.85344 14.9592 5.36903 14.4436L8.87511 10.9375L5.36903 7.43146C4.85343 6.91586 4.85344 6.0909 5.36903 5.5753C5.88463 5.0597 6.70959 5.0597 7.22519 5.5753L10.7313 9.08137L14.4436 5.36906C14.9592 4.85346 15.7841 4.85346 16.2997 5.36906C16.8153 5.88466 16.8153 6.70962 16.2997 7.22522L12.5874 10.9375L16.2997 14.6498C16.8153 15.1654 16.8153 15.9904 16.2997 16.506Z" fill="#F7BCD6"/>
</svg>
