<svg width="121" height="79" viewBox="0 0 121 79" fill="none" xmlns="http://www.w3.org/2000/svg">
<path d="M98.6398 79C98.6398 79 99.6304 78.8581 101.753 78.7163C103.876 78.5745 106.14 77.8653 108.829 76.5888C111.377 75.3124 113.924 73.4686 116.33 70.9156C118.736 68.3626 120.292 64.675 120.858 59.8528C121.283 54.605 120.434 50.3501 118.594 47.0879C116.754 43.8258 114.49 41.2729 112.084 39.4291C109.678 37.5853 107.414 36.4506 105.291 35.7414C103.168 35.0323 102.178 34.7486 102.178 34.7486C102.178 34.7486 102.178 33.1885 102.036 29.9264C101.895 26.6642 101.187 22.9766 99.7719 18.8635C98.3567 14.7504 95.8093 10.7791 92.1298 7.09153C88.4503 3.40392 83.214 0.992791 76.138 0.141804C69.9111 -0.425521 64.8164 0.283635 60.8538 2.4111C56.8912 4.53857 53.4947 6.80787 51.0889 9.50267C48.683 12.1975 46.8433 14.6086 45.8526 17.0197C44.862 19.289 44.2959 20.5655 44.2959 20.5655C44.2959 20.5655 42.5977 19.5727 39.3427 17.7289C36.0877 15.8851 31.9836 16.4524 27.0304 19.289C22.5018 21.9838 20.2374 25.2459 19.9544 29.0754C19.6713 32.9048 19.6713 34.7486 19.6713 34.7486C19.6713 34.7486 18.6807 35.0323 16.6994 35.5996C14.7181 36.1669 12.4538 37.3016 9.90643 39.1454C7.35906 40.9892 5.23626 43.4003 3.11345 46.5206C0.990643 49.4991 0 53.6122 0 58.7181C0.14152 63.6822 1.27368 67.6535 3.53801 70.3483C5.80234 73.0431 8.20819 75.0287 10.8971 76.447C13.586 77.7235 15.9918 78.4327 18.2561 78.7163C20.5205 79 21.5111 79 21.5111 79H98.6398Z" fill="white"/>
</svg>
