<svg width="136" height="79" viewBox="0 0 136 79" fill="none" xmlns="http://www.w3.org/2000/svg">
<path d="M120.7 28.0372C120.7 28.0372 120.7 26.798 120.7 24.1646C120.7 21.5313 120.082 18.5882 118.845 15.3352C117.609 12.0823 115.6 8.82935 112.664 5.88621C109.727 2.94308 105.4 1.08425 99.6818 0.309744C94.8909 -0.154962 90.7182 0.464645 87.4727 2.01366C84.2273 3.71759 81.4455 5.57641 79.4364 7.74504C77.4273 9.91366 76.0364 11.9274 75.1091 13.7862C74.3364 15.645 73.8727 16.5744 73.8727 16.5744C73.8727 16.5744 75.7273 18.4333 79.7455 22.1509C83.6091 25.8686 85.6182 32.2195 85.9273 41.2039C89.4818 42.2882 92.8818 44.4568 96.1273 47.8646C99.3727 51.2725 100.918 56.3842 101.073 63.5097H118.227C118.227 63.5097 120.855 62.8901 125.955 61.6509C131.209 60.4117 134.455 55.9195 135.845 48.1744C136.464 39.6548 133.991 34.2333 128.736 31.7548C123.482 29.2764 120.7 28.0372 120.7 28.0372ZM82.0636 43.5274C82.0636 43.5274 82.0636 42.2882 82.0636 39.6548C82.0636 37.0215 81.4455 34.0784 80.2091 30.8254C78.9727 27.5725 76.9636 24.3195 74.0273 21.3764C71.0909 18.4333 66.7636 16.5744 61.0455 15.7999C56.2545 15.3352 52.2364 15.9548 48.8364 17.5039C45.5909 19.0529 42.9636 21.0666 40.9545 23.2352C38.9455 25.4039 37.5545 27.4176 36.7818 29.2764C36.0091 30.9803 35.5455 31.9097 35.5455 31.9097C35.5455 31.9097 34.3091 31.1352 31.6818 29.7411C29.0545 28.1921 25.8091 28.6568 21.7909 30.9803C18.2364 33.149 16.3818 35.7823 16.2273 38.8803C16.0727 41.9784 15.9182 43.5274 15.9182 43.5274C15.9182 43.5274 13.2909 44.7666 7.88182 47.0901C2.62727 49.2588 0 54.5254 0 62.7352C0.309091 70.945 3.09091 75.747 8.80909 76.9862C14.5273 78.2254 17.1545 78.845 17.1545 78.845L79.7455 78.9999C79.7455 78.9999 82.3727 78.3803 87.4727 77.1411C92.5727 75.9019 95.9727 71.4097 97.3636 63.6646C97.9818 55.145 95.5091 49.7235 90.2545 47.245C84.8455 44.7666 82.0636 43.5274 82.0636 43.5274Z" fill="white"/>
</svg>
