<svg width="28" height="28" viewBox="0 0 28 28" fill="none" xmlns="http://www.w3.org/2000/svg">
  <path
    d="M26.4688 0H1.53125C1.11805 0 0.75955 0.151908 0.455729 0.455729C0.151908 0.75955 0 1.13021 0 1.56771V26.4688C0 26.8819 0.151908 27.2404 0.455729 27.5443C0.75955 27.8481 1.11805 28 1.53125 28H14.9479V17.1719H11.3021V12.9427H14.9479V9.84375C14.9479 8.02082 15.4523 6.62934 16.4609 5.66927C17.4696 4.7092 18.776 4.22917 20.3802 4.22917C21.158 4.22917 21.8507 4.25347 22.4583 4.30208C23.066 4.35069 23.467 4.38715 23.6615 4.41146V8.20312H21.401C20.526 8.20312 19.9609 8.39149 19.7057 8.76823C19.4505 9.14497 19.3229 9.63715 19.3229 10.2448V12.9427H23.5156L22.9688 17.1719H19.3229V28H26.4688C26.8819 28 27.2404 27.8481 27.5443 27.5443C27.8481 27.2404 28 26.8819 28 26.4688V1.56771C28 1.13021 27.8481 0.75955 27.5443 0.455729C27.2404 0.151908 26.8819 0 26.4688 0Z"
    fill="#F288B8" fill-opacity="0.990196" />
</svg>