<svg width="106" height="138" viewBox="0 0 106 138" fill="none" xmlns="http://www.w3.org/2000/svg">
<path d="M37.4074 61.6651C35.9376 61.8264 35.6422 61.7431 34.0908 63.2258C32.5393 64.7085 29.7374 65.5822 26.577 63.922C23.451 62.3996 22.7354 60.0851 20.5788 60.2446C20.5788 60.2446 21.746 59.4217 22.9605 57.1397C24.175 54.8577 27.4988 53.8753 30.7209 55.2327C33.943 56.5902 34.4047 59.5373 35.6623 60.7245C36.4524 61.1395 37.4074 61.6651 37.4074 61.6651Z" fill="#619B82"/>
<path d="M37.4586 61.7336C37.4586 61.7336 32.2773 58.1591 28.6503 58.0084C25.7512 58.0072 23.7831 58.413 20.7185 59.9436" stroke="#5A9075" stroke-width="0.2287" stroke-miterlimit="10"/>
<path d="M33.3241 59.3252C33.3241 59.3252 33.5456 62.3008 30.2234 65.134" stroke="#5A9075" stroke-width="0.2287" stroke-miterlimit="10"/>
<path d="M33.6215 59.3647C33.4189 58.5581 33.0592 57.6425 32.7333 56.8615C32.4074 56.0804 32.0815 55.2993 31.666 54.6782C31.2506 54.0571 30.5887 53.4871 29.871 53.2115" stroke="#5A9075" stroke-width="0.2287" stroke-miterlimit="10"/>
<path d="M30.6047 58.541C30.0773 61.251 28.2136 63.5096 26.0803 65.2446" stroke="#5A9075" stroke-width="0.2287" stroke-miterlimit="10"/>
<path d="M27.2372 58.2021C26.3871 59.6902 25.3361 60.927 24.1197 62.0514C23.8008 62.4085 23.3166 62.6533 22.9268 62.7327" stroke="#5A9075" stroke-width="0.2287" stroke-miterlimit="10"/>
<path d="M30.9268 58.5846C30.3848 56.4317 29.258 54.5413 27.704 53.0222C27.5125 52.7787 27.3549 52.6697 27.0735 52.5863" stroke="#5A9075" stroke-width="0.2287" stroke-miterlimit="10"/>
<path d="M27.2605 58.458C27.2257 58.3219 27.2257 58.3219 27.191 58.1858C26.7624 57.5573 26.1601 56.2483 25.5115 55.8078C24.863 55.3672 24.0523 54.8166 23.288 54.9722" stroke="#5A9075" stroke-width="0.2287" stroke-miterlimit="10"/>
<path d="M24.1439 58.8796C23.9417 58.6249 23.9417 58.6249 23.6087 58.397C23.1093 58.0552 22.5507 58.0216 22.1227 57.9613C21.564 57.9277 21.0411 58.0348 20.4824 58.0013" stroke="#5A9075" stroke-width="0.2287" stroke-miterlimit="10"/>
<path d="M24.0645 58.7954C23.0435 60.1873 21.7848 61.1842 20.2882 61.7864" stroke="#5A9075" stroke-width="0.2287" stroke-miterlimit="10"/>
<path d="M15.8656 56.8863C16.2623 57.3808 16.5055 58.3385 15.4495 58.9867C14.3587 59.4981 14.0067 59.7142 14.344 60.5087C14.6814 61.3033 15.3113 62.1818 15.3113 62.1818C15.3113 62.1818 14.2452 62.2563 13.5358 60.5304C13.5358 60.5304 13.1591 61.1834 13.1344 61.6203C13.1097 62.0571 12.1525 60.9578 12.8364 59.3783C12.8364 59.3783 12.2366 60.2209 10.8927 59.2008C10.8927 59.2008 11.7704 59.4527 12.6033 58.9942C13.4363 58.5356 13.322 57.5514 13.7682 57.1721C14.4027 56.4663 15.2704 56.1446 15.8656 56.8863Z" fill="#619B82"/>
<path d="M15.7829 57.2097C18.978 52.7004 23.8744 52.2785 23.8744 52.2785C23.8744 52.2785 28.5068 51.9124 31.7935 53.9777" stroke="#619B82" stroke-width="0.1824" stroke-miterlimit="10"/>
<path d="M20.195 53.5086C19.2377 53.9931 19.3246 55.9657 20.2342 56.913C20.753 57.3733 21.6223 57.6181 21.6223 57.6181C21.6223 57.6181 19.9846 57.534 18.947 56.6135C17.943 55.828 18.4086 54.4509 19.1097 54.0199C19.7163 53.7508 20.195 53.5086 20.195 53.5086Z" fill="#619B82"/>
<path d="M20.283 53.5937C20.283 53.5937 18.2919 53.8648 17.5644 53.149C16.837 52.4332 17.3522 51.7472 17.3522 51.7472C17.3522 51.7472 16.0885 52.7341 16.8502 53.5874C17.5777 54.3032 20.283 53.5937 20.283 53.5937Z" fill="#619B82"/>
<path d="M29.2928 22.1681C30.5158 22.201 32.3035 21.2601 31.654 18.6799C31.0045 16.0997 31.0902 15.3676 32.2365 14.5593C32.9379 14.1286 34.0926 13.8899 34.0926 13.8899C34.0926 13.8899 33.3316 12.4757 30.7825 14.1454C30.7825 14.1454 30.6631 12.5986 32.3057 10.5447C32.8104 9.86896 30.3727 10.3728 29.072 13.7846C29.072 13.7846 28.9699 11.2342 26.9087 11.0887C26.9087 11.0887 27.4046 11.9863 27.789 14.0498C28.1735 16.1133 26.839 17.2463 26.6335 18.5746C26.6247 20.1479 27.5223 22.1054 29.2928 22.1681Z" fill="#619B82"/>
<path d="M33.513 48.0421C33.513 48.0421 27.2272 32.1522 28.9291 21.1177" stroke="#619B82" stroke-width="0.1609" stroke-miterlimit="10"/>
<path d="M29.4627 33.6782C29.1358 30.6992 31.41 28.7713 34.2324 29.0504C36.1046 29.3835 37.4597 30.4056 37.4597 30.4056C37.4597 30.4056 39.653 27.0434 34.4069 26.9821C31.6531 26.9789 28.8056 30.4782 29.1201 32.2988C29.1544 32.4368 29.4627 33.6782 29.4627 33.6782Z" fill="#619B82"/>
<path d="M28.7209 27.4856C28.7209 27.4856 27.7942 25.3973 26.6554 24.637C25.5166 23.8768 23.6439 23.9832 23.6101 23.8476C22.5388 23.3585 25.1393 21.8161 26.9289 23.0108C28.2641 24.0152 28.7209 27.4856 28.7209 27.4856Z" fill="#619B82"/>
<path d="M22.475 32.8495C21.6728 32.8697 20.5105 32.5332 20.5118 30.9555C20.5132 29.3778 20.502 28.8064 19.5024 28.5801C18.5027 28.3538 17.6657 28.2378 17.6657 28.2378C17.6657 28.2378 19.387 27.5999 20.5604 28.5077C20.5604 28.5077 20.0265 27.4694 18.8183 26.4252C18.4582 26.0685 20.2017 26.5733 21.1068 28.5397C21.1068 28.5397 20.6549 26.7676 22.853 25.889C22.853 25.889 21.5614 27.1563 21.6532 28.5716C21.745 29.9869 23.2216 29.9726 23.558 30.7643C23.8598 31.4198 23.5331 32.7771 22.475 32.8495Z" fill="#619B82"/>
<path d="M31.092 41.0319C31.092 41.0319 26.0491 37.9336 22.4676 31.6869" stroke="#619B82" stroke-width="0.1609" stroke-miterlimit="10"/>
<path d="M26.8225 37.6921C25.9588 36.4285 23.5806 36.7797 22.4225 38.1759C21.9085 38.8604 21.7921 40.0396 21.7921 40.0396C21.7921 40.0396 21.504 37.7899 22.3674 36.3107C23.2309 34.8316 24.9992 35.3292 25.6298 36.2083C26.4249 37.1975 26.8225 37.6921 26.8225 37.6921Z" fill="#619B82"/>
<path d="M26.386 37.0458C26.386 37.0458 25.6805 34.7646 26.3451 33.6263C27.0436 32.6238 28.0474 32.8431 28.0474 32.8431C28.0474 32.8431 26.0059 32.2687 25.0496 33.3249C24.2562 34.4901 26.386 37.0458 26.386 37.0458Z" fill="#619B82"/>
<path d="M45.5752 72.8735C44.3008 74.3006 44.0411 74.3535 43.841 77.313C43.6055 80.1338 41.7176 83.437 37.6338 84.5605C33.5146 85.5452 30.9412 84.0261 29.0884 85.8628C29.0884 85.8628 29.4421 84.0395 28.686 80.545C27.9299 77.0504 30.1009 73.2517 34.2082 71.6857C38.351 70.2583 41.0781 72.9136 43.2972 73.0455C44.3124 73.2766 45.5752 72.8735 45.5752 72.8735Z" fill="#619B82"/>
<path d="M45.5277 72.7357C45.5277 72.7357 38.0816 73.6429 34.6232 76.7207C31.9682 79.1901 30.6167 81.3966 29.0296 85.8818" stroke="#00995D" stroke-width="0.1824" stroke-miterlimit="10"/>
<path d="M40.303 74.1034C40.303 74.1034 42.579 76.9902 42.0475 82.7236" stroke="#00995D" stroke-width="0.1824" stroke-miterlimit="10"/>
<path d="M40.5002 74.3359C39.5044 73.6526 38.5449 73.1092 37.5491 72.4259C36.5896 71.8825 35.7598 71.3131 34.743 71.0756C33.7261 70.8382 32.7455 70.7407 31.7799 71.2291" stroke="#00995D" stroke-width="0.1824" stroke-miterlimit="10"/>
<path d="M36.9101 75.7074C38.4404 78.9036 38.6983 82.9303 38.2053 86.4114" stroke="#00995D" stroke-width="0.1824" stroke-miterlimit="10"/>
<path d="M33.2484 78.2261C33.6728 80.4029 33.7323 82.6544 33.5143 84.8214C33.4076 85.4092 33.3349 86.1315 32.9166 86.5002" stroke="#00995D" stroke-width="0.1824" stroke-miterlimit="10"/>
<path d="M37.1974 75.7863C34.8349 74.0479 32.0978 72.975 29.4484 72.7698C29.1524 72.6818 28.7627 72.7601 28.5029 72.8124" stroke="#00995D" stroke-width="0.1824" stroke-miterlimit="10"/>
<path d="M33.5013 78.5137C33.4645 78.3693 33.3333 78.3961 33.1653 78.2784C32.0997 77.8882 30.6246 76.9738 29.7062 77.1613C28.7878 77.3488 27.439 77.4722 26.967 78.3282" stroke="#00995D" stroke-width="0.1824" stroke-miterlimit="10"/>
<path d="M30.7575 81.3517C30.3281 81.2883 30.3281 81.2883 29.8044 81.3946C29.1499 81.5276 28.5686 81.9469 28.1183 82.3397C27.668 82.7325 27.1234 83.2951 26.7098 83.8311" stroke="#00995D" stroke-width="0.1824" stroke-miterlimit="10"/>
<path d="M30.6705 81.479C30.8533 83.7164 30.4711 85.7839 29.6824 87.7917" stroke="#00995D" stroke-width="0.1824" stroke-miterlimit="10"/>
<path d="M48.5428 87.157C48.5428 87.157 48.4629 84.7475 48.7746 82.8288C49.0863 80.9101 47.6011 76.6475 40.7219 76.341C40.7219 76.341 40.9059 77.5876 40.9518 78.2917C41.0322 79.1314 40.6046 83.2142 43.0239 84.8602C45.4433 86.5061 46.9185 85.4912 48.5428 87.157Z" fill="#619B82"/>
<path d="M48.4657 87.1399C48.4657 87.1399 47.3988 83.9559 46.457 82.3062C45.5152 80.6566 44.6075 79.1417 40.6026 76.2793" stroke="#3F934E" stroke-width="0.1824" stroke-miterlimit="10"/>
<path d="M26.7479 70.2766C26.7479 70.2766 28.6732 71.9289 30.0079 73.4096C31.378 75.029 35.4888 76.674 39.6119 70.8673C39.6119 70.8673 38.4898 70.2197 37.9582 69.7438C37.2967 69.2944 34.2966 66.1085 31.6386 66.9425C29.0161 67.9153 28.8624 69.9916 26.7479 70.2766Z" fill="#619B82"/>
<path d="M26.6683 70.2577C26.6683 70.2577 29.7688 71.583 31.6597 71.9476C33.5506 72.3122 35.2738 72.56 39.6988 70.8825" stroke="#3F934E" stroke-width="0.1824" stroke-miterlimit="10"/>
<path d="M37.4784 70.9837C36.73 70.6958 35.9815 70.4079 35.3056 70.3964C33.4056 70.3365 31.8489 72.0981 31.5886 74.1845C31.4584 75.2277 31.6204 76.3584 32.2579 77.2497C32.4946 77.6388 32.9871 77.9774 33.3518 78.3412C33.8805 78.8179 34.5373 79.2693 35.0298 79.6079C35.5586 80.0846 36.2153 80.5359 36.8551 80.4093C37.2389 80.3333 37.5865 80.1191 38.0066 80.1813C38.6825 80.1929 39.2113 80.6696 39.851 80.5429C40.2349 80.4669 40.5824 80.2528 40.8938 79.9005C42.2309 78.3276 42.4549 76.1031 42.5873 74.042C42.7197 71.981 38.9753 71.5594 37.4784 70.9837Z" fill="#CFD362"/>
<path d="M40.6826 73.0008C40.7211 72.1171 40.0082 70.9442 39.1089 71.1223C38.0812 71.3258 37.2354 72.2234 36.9399 73.158C36.8843 73.461 35.9057 76.429 36.0342 76.4035C36.3275 76.4915 36.5844 76.4406 36.805 76.2509C37.0255 76.0612 37.1176 75.897 37.3745 75.8461C37.7235 75.631 38.1089 75.5546 38.4943 75.4783C38.9718 75.2378 39.4492 74.9972 39.7618 74.6433C40.1665 74.1251 40.5712 73.6069 40.6826 73.0008Z" fill="#AEC551"/>
<path d="M35.7675 79.6438C36.0293 79.5907 36.2911 79.5376 36.4219 79.511C37.0397 79.235 37.7308 79.2454 38.2543 79.1391C38.6469 79.0595 38.9087 79.0063 39.338 79.0698C39.5998 79.0167 39.8982 79.1067 40.16 79.0536C40.8511 79.0639 41.3954 78.5017 42.0132 78.2257C42.5158 78.5755 42.8668 79.4079 42.5842 79.917C42.3591 80.1133 42.134 80.3096 41.9089 80.5059C40.7469 81.3441 39.3805 81.9226 37.9041 82.0716C36.6895 82.1675 35.4958 81.8074 34.5479 80.7949C34.2128 80.5617 33.4692 79.809 33.9194 79.4165C34.4062 79.1671 35.244 79.75 35.7675 79.6438Z" fill="#FAF09E"/>
<path d="M42.4155 74.2214C43.3398 75.1922 44.1719 76.3259 44.6206 77.5364C44.8911 78.0602 45.0694 78.7469 45.5954 79.2195C45.9223 79.443 46.3771 79.641 46.6683 79.7272C48.3803 80.1069 50.0982 79.4741 51.091 78.1196C51.5874 77.4423 52.0125 76.4904 52.3454 75.7013C52.6427 74.775 53.0678 73.823 52.946 72.8361C52.8242 71.8491 52.4824 71.0507 52.105 70.1149C51.7276 69.1791 51.258 68.4062 50.8806 67.4704C50.6815 67.2213 50.5745 66.8093 50.2476 66.5858C49.7572 66.2505 49.246 66.3528 48.8626 66.4295C46.8534 66.9762 44.752 67.6857 43.0132 68.7561C42.1899 69.2099 40.7632 69.9289 40.6294 70.967C40.1835 72.3565 41.5269 73.3879 42.4155 74.2214Z" fill="#CFD362"/>
<path d="M49.9158 77.594C50.135 77.406 50.3897 77.355 50.4816 77.1925C51.231 76.4661 50.5853 75.0105 51.0089 74.0612C51.3763 73.4113 52.1405 73.2583 52.3805 72.6339C52.5286 72.172 52.3864 71.6241 52.2798 71.2132C52.3006 70.7768 52.4131 70.178 52.7597 69.9645C52.9582 70.2129 53.0293 70.4868 53.1003 70.7607C53.435 72.5668 53.6423 74.3983 53.1416 76.0835C52.8454 77.0073 52.2588 77.8452 51.6368 78.5461C51.1065 79.0845 50.4489 79.6485 49.7557 80.0754C49.2818 80.3144 48.1502 81.1174 47.5696 80.9455C46.4647 80.3023 49.4418 77.833 49.9158 77.594Z" fill="#FAF09E"/>
<path d="M35.8186 71.3537C35.011 71.3734 34.0395 71.282 33.4775 70.6742C33.2785 70.4258 33.0795 70.1775 33.0444 70.0402C32.7751 69.5173 32.377 69.0206 32.1077 68.4977C31.6043 67.5891 30.9018 66.4322 31.206 65.504C31.4165 64.7391 32.1188 64.3076 32.7274 64.0396C33.8158 63.5296 34.8107 63.183 36.0045 63.0848C36.5195 62.9802 37.1984 62.9866 37.8188 63.2938C39.0245 63.7708 39.5046 65.1173 39.9496 66.3265C40.3594 67.3985 41.94 70.3986 40.9803 70.8825C40.4069 71.2878 39.1778 71.2487 38.499 71.2423C37.5626 71.2882 36.6262 71.334 35.8186 71.3537Z" fill="#CFD362"/>
<path d="M37.8261 64.1785C37.3932 63.5449 36.9252 62.7742 37.007 62.036C37.0654 61.7356 37.2525 61.4089 37.3109 61.1084C37.5916 60.6185 37.8722 60.1285 38.3868 60.024C38.995 59.7561 39.7085 59.8997 40.387 59.9061C41.4513 59.8342 42.5039 59.1873 43.5683 59.1154C44.6678 59.1805 45.7791 59.8206 46.4109 60.7023C47.1713 61.5579 47.6159 62.7663 48.0255 63.8376C48.3297 64.4973 48.6339 65.157 48.6808 65.869C48.7277 66.581 48.646 67.3191 48.2367 67.8352C47.8274 68.3513 47.3127 68.4559 46.6694 68.5866C45.032 69.0636 43.4296 69.6779 41.7922 70.1549C41.5349 70.2072 41.1489 70.2856 40.8565 70.2008C40.6927 70.0897 40.4938 69.8415 40.4236 69.5672C40.4469 69.1295 37.8261 64.1785 37.8261 64.1785Z" fill="#CFD362"/>
<path d="M42.8054 79.2312C43.6459 79.3484 44.4747 78.8919 45.0467 78.4876C45.712 77.9202 46.2489 77.379 46.9493 76.9486C47.2995 76.7333 47.6847 76.6551 47.8714 76.329C48.6652 75.7356 48.9335 74.6727 48.6531 73.5773C48.548 73.1666 48.4429 72.7558 48.3377 72.345C48.2676 72.0712 48.361 71.9082 48.4544 71.7451C48.4776 71.3083 48.2091 70.7867 47.9755 70.402C48.4892 70.2976 49.0378 70.3301 49.4231 70.2519C49.5515 70.2258 49.8083 70.1736 49.9367 70.1475C50.0651 70.1214 50.1585 69.9583 50.2168 69.6584C50.7419 68.5434 50.5199 67.148 49.6326 66.32C49.4341 66.0723 49.1072 65.8506 49.0371 65.5768C49.002 65.4399 48.9319 65.166 48.8969 65.0291C48.7567 64.4814 48.1029 64.0381 47.6125 63.7056C46.6669 63.1776 45.4061 63.0017 44.6123 63.5951C43.912 64.0256 43.6086 64.9515 42.8732 65.245C42.4061 64.4757 41.904 63.5694 41.3085 62.8261C41.0749 62.4415 40.8414 62.0568 40.6079 61.6721C40.3743 61.2875 40.2692 60.8767 40.0357 60.492C39.4985 59.4488 38.2609 58.836 37.3038 59.3187C36.9536 59.5339 36.7318 59.723 36.4167 60.0751C35.658 60.8055 34.8993 61.5359 34.269 62.2402C33.9539 62.5923 33.6387 62.9444 33.487 63.4074C33.242 64.0334 33.3239 64.881 33.7559 65.5134C34.1879 66.1459 34.7484 66.7522 35.2387 67.0847C34.1764 67.1565 32.9857 67.2545 31.8883 67.1894C31.7599 67.2155 31.5031 67.2677 31.3747 67.2938C30.7677 67.5612 30.7212 68.4349 31.0248 69.0935C31.3284 69.752 31.7254 70.2475 31.9006 70.9321C32.0758 71.6167 31.9592 72.2166 32.1344 72.9012C32.4381 73.5597 32.9634 74.0291 33.5472 74.1986C34.1309 74.3681 34.7729 74.2376 35.415 74.1071C35.8002 74.0288 36.2788 73.7875 36.664 73.7092C37.4345 73.5526 38.4034 73.6438 39.1506 73.9241C38.9406 74.687 38.4037 75.2282 38.0302 75.8803C37.7501 76.3694 37.7619 76.9431 38.3807 77.2495C38.7076 77.4712 39.0928 77.3929 39.4197 77.6145C39.7466 77.8362 40.0735 78.0579 40.4004 78.2795C41.6029 78.7553 42.1283 79.2247 42.8054 79.2312Z" fill="#FCE96B"/>
<path d="M45.5371 73.4778C45.6308 73.3141 45.8887 73.2617 45.9824 73.0981C46.205 72.9082 46.2636 72.6071 46.3221 72.3061C46.5915 71.2391 47.318 70.3685 48.1148 69.7728C48.5953 69.5306 48.4194 68.8433 48.056 68.4834C47.7278 68.2609 47.6574 67.986 47.4582 67.7373C46.8955 67.1287 45.9228 67.0371 45.7469 66.3499C45.7117 66.2125 45.6765 66.075 45.6765 66.075C45.6647 65.499 45.1724 65.1653 44.692 65.4075L44.563 65.4337C44.4341 65.4599 44.3404 65.6235 44.1763 65.5123C44.0474 65.5385 43.8481 65.2898 43.684 65.1785C43.0277 64.7335 42.3479 64.7271 41.7619 64.557C40.754 64.328 39.8749 64.0728 38.9607 63.6802C38.6326 63.4577 38.281 63.6737 38.1287 64.1385C37.9764 64.6032 37.5664 65.1203 37.2852 65.6113C37.0977 65.9386 37.0392 66.2396 36.8517 66.5669C36.4182 67.5226 35.6566 68.2558 34.6956 68.7402C34.3441 68.9563 34.227 69.5584 34.7193 69.8922C35.0475 70.1147 35.4108 70.4746 35.5164 70.887C35.6219 71.2993 35.7627 71.8491 35.9971 72.2353C36.466 73.0076 37.474 73.2365 37.9429 74.0088C38.1773 74.395 38.2829 74.8073 38.2947 75.3833C38.3065 75.9593 38.9277 76.2668 39.4082 76.0246C40.2987 75.2652 41.5175 74.7284 42.6191 74.7937C43.17 74.8264 43.6271 75.0227 44.1194 75.3564C44.6116 75.6902 45.1858 75.2843 45.174 74.7083C45.0333 74.1585 45.0566 73.72 45.5371 73.4778Z" fill="#CFD362"/>
<path d="M39.6195 64.2122C39.1056 64.315 38.7561 64.5302 38.3497 65.0472C38.036 65.4004 37.9583 66.142 37.8089 66.6076C37.6028 67.3749 37.1397 68.1937 36.4406 68.624C36.091 68.8392 35.6129 69.08 35.6279 69.6579C35.6996 69.934 35.7354 70.0721 35.8071 70.3482C35.9147 70.7623 35.9296 71.3402 35.9087 71.78C35.8161 71.9438 35.7593 72.2456 35.7952 72.3836C35.8669 72.6597 36.1029 73.0482 36.3957 73.1348C37.4534 74.0849 38.6395 75.0093 39.8465 75.4939C41.0536 75.9785 42.5744 76.1099 43.6589 75.6024C43.7874 75.5767 43.9159 75.551 43.88 75.4129C43.9726 75.2492 43.9368 75.1111 43.9009 74.9731C43.7575 74.4209 43.7067 73.705 43.5633 73.1528C43.7635 73.4032 43.9637 73.6536 44.1638 73.9039C44.6777 73.8011 44.9556 73.3099 45.2335 72.8186C45.5113 72.3273 45.6249 71.7238 45.9386 71.3705C46.566 70.6641 47.7581 70.5708 48.2212 69.752C48.3138 69.5883 48.4065 69.4245 48.3348 69.1484C48.2989 69.0104 48.0987 68.76 47.9344 68.6477C46.8767 67.6975 45.3769 67.1263 44.0563 67.2454C44.37 66.8921 44.3909 66.4523 44.376 65.8744C44.3402 65.7364 44.3043 65.5983 44.14 65.486C43.9756 65.3737 43.9756 65.3736 43.8113 65.2613C42.6401 64.9148 40.9043 63.9551 39.6195 64.2122Z" fill="#FAF09E"/>
<path d="M44.1782 70.8692C44.7489 70.4646 45.2479 69.7838 45.4899 69.1544C45.5467 68.8526 45.7678 68.6631 45.6961 68.387C45.5885 67.9728 45.1313 67.7738 44.71 67.7129C44.2887 67.652 43.2967 67.9957 43.0248 67.4692C42.5527 66.6922 42.3884 66.5799 41.6384 66.2943C40.9243 66.1467 40.3028 65.8354 39.6604 65.9639C39.0539 66.2305 38.7401 66.5837 38.6266 67.1874C38.4772 67.653 38.4563 68.0929 38.5638 68.507C38.7431 69.1973 38.3577 69.2745 37.9155 69.6534C37.2163 70.0838 36.8816 70.8769 37.4822 71.6281C38.0828 72.3794 38.6684 72.5526 39.4542 72.9763C40.0757 73.2877 40.8257 73.5733 41.4472 73.8846C41.6115 73.997 41.74 73.9713 41.8685 73.9456C41.997 73.9199 42.0896 73.7561 42.1822 73.5923C42.239 73.2905 42.2599 72.8506 42.4452 72.5231C42.6304 72.1956 42.98 71.9804 43.2728 72.067C43.4372 72.1794 43.4372 72.1794 43.6015 72.2917C43.7658 72.4041 43.8585 72.2403 44.1154 72.1889C44.5009 72.1117 44.8505 71.8966 44.8714 71.4567C44.8355 71.3186 44.7997 71.1806 44.7638 71.0425C44.6772 70.1884 45.5048 69.7324 45.4182 68.8783C45.3674 68.1623 44.1603 67.6777 43.6105 67.6425" fill="#D5DF98"/>
<path d="M42.3481 66.8964C42.0905 66.9487 41.9032 67.2757 41.9735 67.5503C41.9032 67.2757 41.505 66.7788 41.2123 66.6938C40.9196 66.6089 40.4395 66.8508 40.381 67.1516C40.2874 67.3151 40.3577 67.5898 40.3928 67.7271C40.1937 67.4786 40.0298 67.3675 39.8659 67.2563L39.7371 67.2825L39.6083 67.3087C39.3858 67.4983 39.1634 67.688 39.1049 67.9888C39.1752 68.2634 39.2104 68.4007 39.2807 68.6753C38.9879 68.5904 38.824 68.4792 38.4376 68.5577C38.0512 68.6362 37.8991 69.1005 38.0045 69.5125C38.0748 69.7871 38.11 69.9244 38.3091 70.1728C38.473 70.284 38.8009 70.5063 38.8945 70.3428C38.4848 70.8594 38.5084 72.0102 39.2578 72.2913C39.5506 72.3763 39.9369 72.2978 39.9954 71.997C39.9721 72.4351 40.4054 73.0693 40.7918 72.9908C41.2133 73.0496 41.623 72.533 41.3537 72.0099C41.623 72.533 42.3724 72.814 42.7237 72.5982C42.9461 72.4086 43.0398 72.2451 42.9695 71.9705C43.028 71.6697 42.8289 71.4212 42.6298 71.1728C42.7586 71.1466 42.7937 71.2839 42.9225 71.2577C43.2152 71.3427 43.5431 71.565 43.7656 71.3753C43.8943 71.3492 43.988 71.1857 43.9528 71.0484C44.0465 70.8849 44.0698 70.4468 43.8708 70.1983C43.8356 70.061 43.4374 69.5641 43.4374 69.5641C43.695 69.5118 43.8238 69.4856 44.0462 69.2959C44.2335 68.969 44.3857 68.5047 44.1514 68.1189C43.9523 67.8705 43.7532 67.622 43.4605 67.5371C43.1678 67.4521 42.9805 67.7791 42.758 67.9687C42.8165 67.6679 42.875 67.3671 42.676 67.1187C42.9687 67.2036 42.7345 66.8179 42.3481 66.8964Z" fill="white"/>
<path d="M76.4142 99.5294C73.8415 100.793 66.1651 102.542 59.4459 93.7862" stroke="#619B82" stroke-width="0.1824" stroke-miterlimit="10"/>
<path d="M98.5986 102.879C98.3922 101.045 96.0422 98.1981 93.7142 97.511C93.2955 97.4507 93.0045 97.3648 92.6213 97.4417C92.2381 97.5185 91.926 97.8697 92.0326 98.2811C92.0114 98.7181 91.6781 99.5063 92.0402 99.8664C93.0198 100.536 94.4815 99.9538 96.6606 101.104C97.8246 101.447 98.6908 102.716 98.5986 102.879Z" fill="#619B82"/>
<path d="M96.5765 91.6304C96.6764 93.0535 96.8118 94.6137 96.4572 95.8393C96.3438 96.4393 95.776 96.8419 95.3359 97.2187C94.8603 97.4584 93.9658 97.6379 93.4758 97.3032C92.9858 96.9685 92.8792 96.557 93.1559 96.0686C93.4326 95.5801 94.036 95.3148 94.4761 94.9379C94.9161 94.561 95.3206 94.0469 95.5974 93.5585C96.0941 92.8816 96.3353 92.256 96.5765 91.6304Z" fill="#619B82"/>
<path d="M90.4396 101.683C91.225 102.106 92.2316 102.34 93.131 102.159C94.0304 101.979 94.9511 101.359 95.579 100.653C96.2997 99.783 96.492 98.4389 96.0419 97.2236C95.5917 96.0083 94.6634 95.034 93.678 94.3612C93.2211 94.1627 92.7642 93.9642 92.343 93.9036C91.9218 93.843 91.4078 93.946 91.0224 94.0233C89.3521 94.3582 87.8817 94.9432 87.247 96.6662C86.7262 97.786 87.4121 99.3893 88.3404 100.364C88.9616 100.674 89.6542 101.261 90.4396 101.683Z" fill="#DE5E52"/>
<path d="M94.7951 96.1371L94.9217 96.1116L95.0483 96.0862C95.4985 96.2824 95.6955 96.5295 95.9278 96.9129C96.1601 97.2962 96.1392 97.7305 96.1183 98.1648C96.0622 98.4628 95.9708 98.6245 95.8795 98.7862C95.7881 98.948 95.535 98.9989 95.2466 98.9135C95.0848 98.8027 94.923 98.6918 94.8525 98.4193C94.8316 98.8536 94.5575 99.3387 94.213 99.5514C94.0865 99.5768 93.9599 99.6023 93.8333 99.6277C93.5449 99.5423 93.2213 99.3207 93.0243 99.0736C92.5598 98.3068 92.3484 97.4892 92.2636 96.6461C92.2845 96.2118 92.3054 95.7775 92.3263 95.3433C92.3472 94.909 92.6564 94.5601 93.0009 94.3475C92.9096 94.5092 92.8535 94.8072 92.8887 94.9435C92.8469 95.812 92.9317 96.6551 93.3962 97.4219C93.4315 97.5581 93.6285 97.8052 93.7551 97.7798C94.0434 97.8652 94.0996 97.5672 94.1909 97.4054C94.5002 97.0565 94.3241 96.3752 94.7951 96.1371Z" fill="#F0A5B7"/>
<path d="M86.9681 97.478C87.0255 99.7547 88.6859 101.566 90.2267 102.399C92.1455 103.157 92.4406 104.814 92.3847 105.111C92.5458 105.222 93.12 105.392 92.9303 104.143C92.6624 101.051 88.1675 101.098 87.7035 97.759C87.2394 94.4201 91.0485 94.7971 92.6516 94.3312C94.0026 93.9161 94.2819 92.4297 93.462 91.3077L93.336 91.3331C93.5115 92.0128 93.7714 93.5336 92.028 93.4557C89.9065 93.4539 88.3098 92.9174 87.107 95.4479C86.9395 96.3397 86.9681 97.478 86.9681 97.478Z" fill="#619B82"/>
<path d="M89.59 100.237C90.368 100.657 91.2378 100.914 92.1431 101.307C93.013 101.564 93.791 101.984 94.6044 102.54C94.2647 101.745 93.6704 101.001 93.2388 100.368C92.6799 99.7609 92.2483 99.1282 91.6895 98.521C91.2933 98.0251 90.5009 97.0332 89.8856 96.7251C89.3976 96.3915 88.1105 96.0743 87.5449 96.4756C86.8875 97.0392 87.5669 98.6292 87.9631 99.1252C88.232 99.6467 89.1373 100.04 89.59 100.237Z" fill="#619B82"/>
<path d="M76.1678 99.1906C79.1319 97.6157 85.6101 95.5924 88.7935 97.2395" stroke="#619B82" stroke-width="0.1824" stroke-miterlimit="10"/>
<path d="M79.3431 97.8407C81.3644 98.8512 84.679 99.5922 84.4262 102.938C84.4262 102.938 87.3063 99.7606 84.2437 98.3943C81.1811 97.028 79.3431 97.8407 79.3431 97.8407Z" fill="#619B82"/>
<path d="M61.5345 95.1575C62.2851 95.9989 62.9412 97.0026 62.9214 98.0046C63.1048 99.8195 61.835 101.224 60.8219 102.576C59.6466 103.819 58.539 105.332 58.7224 107.147C58.1467 104.844 55.3009 103.726 54.2117 101.53C53.3863 99.8485 53.6827 97.7911 54.6619 96.3042C55.5465 94.9795 56.8234 94.1433 58.2965 93.5513C59.5127 93.0128 60.6217 94.2072 61.5345 95.1575Z" fill="#619B82"/>
<path d="M58.0964 98.106C58.4055 96.191 59.2537 94.3082 58.6452 92.4383C59.4594 91.9869 60.4458 92.2126 61.2144 92.6252C63.199 93.6439 64.6105 96.0618 64.7833 98.3057C64.9905 100.685 64.2112 102.839 62.9502 104.663C62.2738 105.656 61.4023 106.404 60.3358 106.907C59.017 107.462 58.8447 106.785 58.5346 105.566C58.0407 103.103 57.6384 100.479 58.0964 98.106Z" fill="#3B8A64"/>
<path d="M55.2791 104.748C55.913 104.032 56.3085 102.921 57.0722 102.179C57.4253 101.96 57.7785 101.742 58.1317 101.524C58.3912 101.472 58.6146 101.28 58.8742 101.228" stroke="#3B8A64" stroke-width="0.2287" stroke-miterlimit="10"/>
<path d="M54.0605 102.934C54.7158 101.771 55.3348 100.468 56.4882 99.6465C57.1585 99.0697 58.0673 98.8871 58.8674 98.2842" stroke="#3B8A64" stroke-width="0.2287" stroke-miterlimit="10"/>
<path d="M53.0821 100.07C53.816 99.1648 54.5499 98.2593 55.4882 97.6146C56.5576 96.9433 57.7372 96.7031 58.9167 96.4629" stroke="#3B8A64" stroke-width="0.2287" stroke-miterlimit="10"/>
<path d="M54.8141 95.7412C56.2894 94.9356 57.8025 94.2852 59.4476 94.7487" stroke="#3B8A64" stroke-width="0.2287" stroke-miterlimit="10"/>
<path d="M55.2203 82.1326C55.2203 82.1326 57.7921 81.0255 59.9501 80.4335C62.2371 79.8146 65.6832 76.2381 61.899 68.1613C61.899 68.1613 60.7455 68.9732 60.0059 69.2701C59.1713 69.7297 54.6313 71.1033 54.2869 74.6063C53.9424 78.1093 56.0607 79.5272 55.2203 82.1326Z" fill="#619B82"/>
<path d="M56.5234 81.1853C56.5234 81.1853 59.0609 82.5424 61.0759 84.0085C63.0909 85.4746 68.241 86.2865 71.6146 78.3265C71.6146 78.3265 70.2669 77.8822 69.4761 77.4667C68.6852 77.0512 64.2634 74.2008 61.4036 75.9585C58.6745 77.6889 59.0327 80.2263 56.5234 81.1853Z" fill="#619B82"/>
<path d="M69.7645 91.8418C69.7645 91.8418 68.2392 90.1317 67.0093 88.5049C65.9098 86.8509 62.2554 84.8603 57.5387 89.6101C57.5387 89.6101 58.4319 90.4379 58.9265 90.7694C59.4899 91.3763 61.9497 94.6299 64.5594 94.0859C67.2034 93.6795 67.5393 91.7263 69.7645 91.8418Z" fill="#619B82"/>
<path d="M49.8467 90.1196C49.8467 90.1196 47.5817 94.7996 42.0581 97.9822" stroke="#619B82" stroke-width="0.2287" stroke-miterlimit="10"/>
<path d="M45.156 95.219C44.4413 96.6657 44.2539 96.993 44.7584 99.4936C45.2629 101.994 44.49 105.333 41.3258 107.277C38.1615 109.222 35.6532 108.43 34.6925 110.505C34.6925 110.505 34.528 108.803 33.1444 106.047C31.7608 103.292 32.6508 99.3507 35.6157 97.1575C38.6744 94.8006 41.558 96.5285 43.3629 96.1618C44.1013 95.8671 45.156 95.219 45.156 95.219Z" fill="#619B82"/>
<path d="M45.0938 95.2017C45.0938 95.2017 39.16 97.8404 37.2518 101.416C35.6781 104.198 35.06 106.499 34.7793 110.619" stroke="#5A9075" stroke-width="0.2287" stroke-miterlimit="10"/>
<path d="M41.1308 97.6716C41.1308 97.6716 43.7377 99.5305 44.5399 104.726" stroke="#5A9075" stroke-width="0.2287" stroke-miterlimit="10"/>
<path d="M41.2737 97.9116C40.3768 97.6396 39.312 97.2502 38.415 96.9782C37.518 96.7062 36.6579 96.5783 35.6666 96.4771C34.6753 96.3758 33.9255 96.6801 33.2861 97.4166" stroke="#5A9075" stroke-width="0.2287" stroke-miterlimit="10"/>
<path d="M38.6749 99.7834C40.7358 102.163 41.6788 105.481 41.9724 108.655" stroke="#5A9075" stroke-width="0.2287" stroke-miterlimit="10"/>
<path d="M36.1249 102.92C36.9108 104.714 37.3604 106.581 37.7299 108.605C37.8584 109.139 37.8747 109.696 37.6668 110.303" stroke="#5A9075" stroke-width="0.2287" stroke-miterlimit="10"/>
<path d="M38.7866 99.8613C36.4813 98.9519 33.9296 98.7077 31.5629 99.1939C31.2999 99.2479 31.0369 99.3019 30.811 99.502" stroke="#5A9075" stroke-width="0.2287" stroke-miterlimit="10"/>
<path d="M36.3154 103.123C36.2783 102.976 36.1466 103.003 36.0149 103.03C35.1878 103.046 33.6855 102.581 32.8009 102.919C32.048 103.23 31.0689 103.742 30.7649 104.734" stroke="#5A9075" stroke-width="0.2287" stroke-miterlimit="10"/>
<path d="M34.7126 106.182C34.325 106.26 34.325 106.26 33.9734 106.476C33.4927 106.719 33.0841 107.24 32.8047 107.734C32.5253 108.229 32.282 108.863 32.0026 109.358" stroke="#5A9075" stroke-width="0.2287" stroke-miterlimit="10"/>
<path d="M34.7408 106.315C35.3182 108.162 35.5472 110.083 35.3948 111.943" stroke="#5A9075" stroke-width="0.2287" stroke-miterlimit="10"/>
<path d="M46.8446 93.2287C46.8446 93.2287 46.3731 95.0341 45.7985 96.4334C45.2238 97.8328 45.4173 101.211 50.6508 102.986C50.6508 102.986 50.7891 101.961 50.8122 101.529C50.9273 100.936 52.0422 98.0022 50.5164 96.1788C48.9906 94.3554 47.6703 94.9107 46.8446 93.2287Z" fill="#619B82"/>
<path d="M37.7148 89.886C37.7148 89.886 38.6912 91.575 39.3383 93.0405C39.9854 94.506 42.6321 96.8716 47.1835 93.9134C47.1835 93.9134 46.5836 93.1642 46.1836 92.6648C45.7837 92.1653 44.3248 89.1226 42.1136 88.9915C40.0317 88.8341 39.4438 90.2604 37.7148 89.886Z" fill="#619B82"/>
<path d="M30.5385 50.2051C30.5385 50.2051 26.5438 48.8901 23.227 44.8589" stroke="#619B82" stroke-width="0.2287" stroke-miterlimit="10"/>
<path d="M25.5729 47.4884C24.823 47.2071 24.6589 47.0959 23.5694 47.6064C22.4447 47.9795 20.9215 47.8554 19.5973 46.3897C18.273 44.924 18.3431 43.6087 17.1714 43.2685C17.1714 43.2685 17.9446 43.1114 18.9286 42.1886C20.0767 41.3771 21.8928 41.5863 23.3107 42.8884C24.7287 44.1905 24.4361 45.6955 24.8112 46.6313C25.1744 46.9911 25.5729 47.4884 25.5729 47.4884Z" fill="#619B82"/>
<path d="M27.3362 48.2943C27.3362 48.2943 25.9314 48.1428 24.7509 47.7997C23.5704 47.4565 20.9732 47.9858 20.9022 52.5239C20.9022 52.5239 21.7167 52.5038 22.0119 52.5896C22.4368 52.6489 25.0576 53.2823 26.0729 51.908C26.9229 50.4215 26.3445 49.226 27.3362 48.2943Z" fill="#619B82"/>
<path d="M28.3231 40.5641C28.3231 40.5641 27.3548 41.4755 26.3518 42.2513C25.4412 42.8655 24.311 45.2371 27.4335 48.595C27.4335 48.595 27.8025 47.9488 28.1484 47.7354C28.4596 47.3864 30.3387 45.8608 30.0165 44.0714C29.5674 42.3079 28.415 41.9725 28.3231 40.5641Z" fill="#619B82"/>
<path d="M46.8423 87.3809C46.352 87.0528 46.0863 86.5347 45.9498 85.9898C45.2137 84.1361 44.8655 82.2017 44.9053 80.1866C44.9664 79.8872 44.8982 79.6147 44.9935 79.4516C45.1839 79.1253 45.5037 78.7721 45.7282 78.5821C46.5312 77.9851 47.4976 77.4974 48.3347 77.0366C49.0766 76.739 49.9478 76.4144 50.792 76.5256C51.5069 76.6636 52.1606 77.101 52.7192 77.7015C53.2777 78.3021 53.5776 78.9564 53.9115 79.747C54.4089 80.6469 54.9405 81.6831 55.4379 82.5831C55.6695 82.9649 55.9353 83.483 56.0376 83.8918C56.481 85.663 54.9702 86.6939 53.5476 86.9898C52.2543 87.2587 50.9951 87.664 49.5042 87.6873C48.5989 87.8756 47.5302 87.9545 46.8423 87.3809Z" fill="#E0725C"/>
<path d="M65.5126 88.2885C65.0146 88.9629 64.3195 89.3908 63.5896 89.6826C62.6049 90.0263 61.701 89.6373 60.6697 89.2743C59.6384 88.9113 55.8839 86.8107 55.1305 85.9614C54.7712 85.6048 54.3772 85.1121 54.238 84.5675C53.9366 83.9126 54.1101 83.0179 54.1911 82.2852C54.6308 80.3336 55.3603 78.4663 56.4142 76.8194C57.2829 75.4967 58.777 73.4737 60.6195 74.3879C61.2336 74.6926 61.6625 75.3214 61.9987 76.1124C62.5668 77.2859 62.8799 78.5113 63.5754 79.6589C63.8072 80.0414 64.1665 80.398 64.4331 80.9167C65.2561 82.0383 65.9516 83.1859 66.1721 84.5734C66.3926 85.9609 66.1959 87.29 65.5126 88.2885Z" fill="#DE5E52"/>
<path d="M55.0105 86.2329C53.5001 85.6651 51.7894 86.4509 50.598 87.131C49.1469 87.864 47.7548 88.2932 46.2328 88.7488C45.4896 89.046 44.5812 89.2309 44.074 89.9176C43.9797 90.0827 43.7556 90.2742 43.8264 90.5515C43.7321 90.7166 43.803 90.9939 44.0036 91.2448C44.3106 91.9117 45.0069 92.4994 45.6678 92.9484C46.8243 93.7341 47.9809 94.5198 49.1729 95.4442C49.704 95.9197 50.3294 96.23 51.0492 96.3752C52.0285 96.4677 52.6655 95.7545 53.4676 95.1536C54.7534 94.3084 56.2399 93.7141 57.1244 92.3671C57.5961 91.5417 57.7374 90.4918 57.6191 89.4948C57.064 87.8572 56.1905 86.5762 55.0105 86.2329Z" fill="#E0725C"/>
<path d="M58.6706 85.7081C57.8232 85.5859 56.9759 85.4637 56.1645 85.4804C55.3531 85.4971 54.8149 86.0435 54.2047 86.3121C53.372 86.7715 52.4673 86.9531 51.5986 87.2736C50.6007 87.62 49.5096 88.1313 48.95 89.1204C48.2398 90.5781 48.9232 93.2174 50.5033 94.0693C51.2934 94.4953 52.0115 94.6434 52.7656 94.9305C54.6974 95.5656 56.6653 96.3397 58.4465 97.4435C58.4465 97.4435 58.6117 97.5565 58.741 97.5306C58.8702 97.5046 58.8702 97.5046 58.9635 97.3398C59.7815 96.2988 60.5636 95.1189 61.784 94.5817C62.3942 94.3131 63.1696 94.1575 63.7439 93.7499C64.3541 93.4813 64.7631 92.9608 65.0069 92.3274C65.2294 92.1366 65.38 91.668 65.4373 91.3642C65.4586 90.9215 65.1855 90.3918 65.1135 90.114C64.7685 89.3065 64.2942 88.5249 63.6907 87.7692C62.7567 86.7876 61.6003 85.9968 60.2933 85.6746C59.6471 85.8043 59.0942 85.7691 58.6706 85.7081Z" fill="#E9715D"/>
<path d="M63.3935 92.8628C62.9827 93.3872 62.4058 93.7977 61.995 94.3221C61.5842 94.8465 61.0074 95.2571 60.8924 95.8692C60.7412 96.3413 60.756 96.9273 60.7347 97.3733C60.7708 97.5133 60.807 97.6533 60.7133 97.8194C60.6196 97.9855 60.6196 97.9855 60.526 98.1516C59.9853 98.7021 59.5383 99.0865 58.8317 99.5231C58.7019 99.5493 58.7019 99.5493 58.572 99.5754C58.4422 99.6015 58.406 99.4615 58.2762 99.4876C57.9442 99.2599 57.5761 98.8923 57.3378 98.4985C57.2655 98.2186 57.2293 98.0786 57.0272 97.8248C56.6804 97.0111 56.2037 96.2235 55.7271 95.4359C55.2505 94.6483 54.8676 93.6947 54.1674 93.0993C53.0992 92.1363 51.4328 92.0298 50.1345 92.291C49.745 92.3694 49.3555 92.4477 48.9299 92.3861C48.3383 92.2107 47.768 91.5892 47.5872 90.8893C47.4064 90.1895 47.3554 89.4635 47.4704 88.8514C47.5854 88.2393 47.6643 87.4872 47.2961 87.1195C46.6618 87.8361 46.0998 88.8327 45.7975 89.777C45.6463 90.2491 45.4951 90.7213 45.6036 91.1412C45.6184 91.7272 45.7269 92.1471 46.0014 92.6808C47.114 95.4019 49.359 97.7478 51.7765 99.1756C52.5703 99.6049 53.3641 100.034 54.2516 100.297C55.8605 100.71 57.7142 100.484 59.236 100.031C61.7964 99.3684 64.4504 98.54 66.4619 96.8101C68.4733 95.0802 70.0082 92.5627 69.8043 89.6589C70.0639 89.6066 69.464 87.8132 69.3917 87.5332C69.1747 86.6934 68.8066 86.3257 68.2725 85.8442C68.0703 85.5904 67.8682 85.3366 67.5362 85.1089C66.7062 84.5396 65.523 84.1887 64.6142 84.3716C63.1499 84.5189 63.0497 85.717 64.0243 86.8461C64.1903 86.96 64.2264 87.1 64.4286 87.3538C64.6669 87.7476 64.6456 88.1936 64.754 88.6135C65.0647 89.2872 65.469 89.7949 65.354 90.407C65.1453 91.1852 64.6046 91.7357 64.064 92.2862C63.5808 92.5306 63.4872 92.6967 63.3935 92.8628Z" fill="#F0A5B7"/>
<path d="M50.6104 92.3188C51.2839 92.3283 51.7943 92.2261 52.3966 91.9613C52.8714 91.722 53.2186 91.5082 53.6933 91.2689C54.1325 90.8924 54.5716 90.5159 54.8832 90.165C57.2688 86.9461 54.4054 81.6037 50.9011 79.9966C49.8299 79.4897 48.7024 79.2825 47.4828 79.2381C46.9369 79.2031 46.3909 79.1681 45.9518 79.5445C45.6046 79.7583 45.293 80.1092 45.0171 80.5973C44.8331 80.9227 44.6135 81.1109 44.5572 81.4108C44.4444 82.0105 44.4592 82.5846 44.3465 83.1843C44.1418 83.9467 44.029 84.5464 43.8243 85.3088C43.7679 85.6087 43.6195 86.0712 43.5632 86.3711C43.5572 87.3822 44.2249 88.4028 44.8569 89.2863C45.2901 89.921 45.7233 90.5557 46.1565 91.1904C46.5898 91.8251 47.0794 92.1599 47.661 92.3321C48.1149 92.5298 48.5897 92.2904 49.0081 92.351C49.554 92.386 50.1 92.421 50.6104 92.3188Z" fill="#DE5E52"/>
<path d="M48.3674 93.2067C47.922 93.0111 47.5318 92.5191 47.2667 92.0018C46.7365 90.9672 46.2414 90.0683 45.586 89.059C45.356 88.6773 45.0007 88.3209 44.7356 87.8036C44.4006 87.0151 44.441 86.1509 44.5164 85.4223C44.5918 84.6937 44.9174 83.9147 44.9578 83.0505C45.0332 82.322 44.9835 81.6186 45.254 81.1361C45.4343 80.8144 45.7748 80.6031 46.1502 80.5275C46.6158 80.291 46.9913 80.2153 47.4919 80.1144C47.7421 80.064 47.9924 80.0136 48.0826 79.8527C48.1728 79.6919 48.1028 79.4206 47.9427 79.3102C47.7826 79.1998 47.6224 79.0894 47.3721 79.1398C46.8366 79.1051 46.2458 79.3668 45.7802 79.6033C45.1894 79.865 44.5987 80.1268 44.0779 80.6597C43.5571 81.1927 43.1062 81.9969 42.9057 82.7507C42.7052 83.5045 42.6648 84.3687 42.6244 85.2329C42.584 86.0971 42.5786 87.0969 42.6633 87.9358C42.783 88.9104 42.9929 89.7242 43.4881 90.6231C43.9483 91.3864 44.4637 91.8533 45.1392 92.4305C45.8147 93.0078 46.7405 93.5346 47.6515 93.4937" fill="#F0A5B7"/>
<path d="M57.4689 86.1707C56.2768 87.2763 54.395 87.7974 52.7392 87.1172C51.8295 86.7212 51.1041 85.9993 50.4709 85.1144C49.8377 84.2295 49.3323 83.319 48.9548 82.383C48.378 81.1977 47.6735 80.0381 48.2829 78.76C48.6515 78.1082 49.2193 77.7055 49.7872 77.3029C50.355 76.9002 50.9585 76.6349 51.5263 76.2323C51.8741 76.0182 52.1862 75.6667 52.4627 75.1778C52.647 74.8519 52.5965 74.1394 53.2148 74.4492C53.5062 74.5354 53.6697 74.6472 53.961 74.7334C54.7072 75.0177 55.5099 75.0016 56.3482 75.1228C57.1865 75.2441 58.0249 75.3653 58.7146 75.9499C59.2764 76.56 59.6183 77.3587 59.9602 78.1574C60.1029 78.7069 60.1177 79.282 60.1326 79.8571C60.1623 81.0072 59.9721 82.3459 59.547 83.2981C58.994 84.2758 58.3489 85.4165 57.4689 86.1707Z" fill="#E9715D"/>
<path d="M49.4342 80.031C50.0682 79.3136 50.8111 79.0169 51.445 78.2995C52.1153 77.7223 52.5832 76.8908 52.8849 75.9451C52.9422 75.6385 53.093 75.1657 53.4463 74.9472C53.7995 74.7287 54.2979 75.0712 54.5939 75.1592C55.2222 75.4756 55.944 75.6256 56.4634 75.5212C57.4087 75.4789 58.3749 74.9898 59.3564 75.0876C59.0089 74.2724 58.2508 73.9821 57.4927 73.6919C56.4749 73.4538 55.4571 73.2157 54.5118 73.258C53.9561 73.2222 53.5666 73.3004 53.0109 73.2645C51.2865 73.4634 49.7436 74.3634 48.4394 75.658C47.5457 76.4275 46.8181 77.3112 46.7188 78.5113C46.7341 79.0983 46.7494 79.6853 46.8945 80.2462C46.9671 80.5266 47.0759 80.9473 47.2783 81.2017C47.4807 81.456 47.7194 81.8506 47.9219 82.105C48.088 82.2191 48.3267 82.6137 48.5501 82.4213C48.6437 82.255 48.5348 81.8343 48.5921 81.5278C48.6494 81.2213 48.7067 80.9147 48.8003 80.7484C48.9874 80.4158 49.2108 80.2234 49.4342 80.031Z" fill="#F0A5B7"/>
<path d="M55.6389 89.7454C56.0606 89.8009 56.5775 89.6934 56.9311 89.4767C57.543 89.2062 58.1551 88.9357 58.6038 88.5559C59.4671 87.6602 59.5622 87.4972 59.3507 86.109C59.1462 85.2921 58.9418 84.4753 58.5129 83.8484C58.0841 83.2215 57.3969 82.6483 56.5534 82.5372C52.4654 81.9553 51.2314 89.5163 55.6389 89.7454Z" fill="#DE5E52"/>
<path d="M55.02 85.5396C55.3258 86.2032 56.0196 86.7879 56.6429 87.0966C57.2662 87.4053 57.8894 87.714 58.5715 87.7205C59.1241 87.7533 59.6415 87.6481 60.0295 87.5692C61.323 87.3061 62.6752 86.7409 63.3336 85.5909C63.9332 84.7432 64.1329 83.3962 63.7212 82.3187C63.3095 81.2411 62.5097 80.2425 61.4631 79.8747C61.0045 79.6777 60.5812 79.6186 60.1931 79.6975C59.6758 79.8027 59.323 80.0196 58.8762 80.4007C57.7239 81.2157 56.607 82.1686 55.4547 82.9835C54.6552 83.5816 54.4436 84.3504 55.02 85.5396Z" fill="#F3887B"/>
<path d="M58.1254 87.5878C58.1254 87.5878 61.7137 87.7328 63.2005 85.5327C64.7227 83.4713 63.6127 81.8 63.6127 81.8C63.6127 81.8 62.3263 82.6457 62.1379 84.5814C61.9495 86.5172 58.6563 86.458 58.1254 87.5878Z" fill="#F0A5B7"/>
<path d="M60.766 80.8738C60.9655 81.1227 61.0359 81.3979 61.2354 81.6469C62.3502 83.8811 58.8781 85.1657 57.3649 85.618C57.1068 85.6704 56.9778 85.6966 56.7197 85.7491C55.8751 85.6312 54.9715 84.2226 54.5374 83.5871C53.939 82.8402 53.1411 81.8444 53.1879 80.9664C53.2932 79.787 54.6422 79.2233 55.5102 78.9022C56.6363 78.5286 57.5396 78.345 58.6541 78.987C59.5692 79.38 60.2966 80.1007 60.766 80.8738Z" fill="#F0A5B7"/>
<path d="M60.9936 81.396C61.1944 81.6476 61.267 81.9245 61.4679 82.1761C62.598 84.4286 59.1534 85.6933 57.6512 86.1363C57.3948 86.1871 57.2666 86.2125 57.0102 86.2633C56.1683 86.1386 55.256 84.717 54.818 84.0754C54.2155 83.3208 53.4122 82.3145 53.4507 81.4329C53.5449 80.249 54.8825 79.6928 55.7437 79.3766C56.8613 79.0097 57.7587 78.832 58.8741 79.4851C59.8249 80.0252 60.5193 80.616 60.9936 81.396Z" fill="#EE7A6F"/>
<path d="M53.4225 86.6622C53.6544 87.0448 54.2458 87.7841 53.6777 88.1863C53.4574 88.3744 53.2951 88.2642 53.04 88.3161C52.3675 88.3098 51.5326 88.1932 50.8601 88.1868C50.4427 88.1285 50.0601 88.2064 49.7354 87.986C49.2832 87.7915 49.0165 87.2727 48.657 86.9161C48.4251 86.5335 48.1583 86.0147 48.1815 85.5801C48.0075 84.8992 48.193 84.5748 48.5988 84.0624C49.0046 83.55 49.4103 83.0375 49.6538 82.4148C50.0248 81.7662 50.2334 81.0073 50.6044 80.3587C50.9754 79.7101 51.6711 79.2819 52.4132 79.5606C52.8654 79.7551 53.2597 80.2479 53.4916 80.6305C53.7235 81.0132 53.9902 81.532 53.9671 81.9665C54.1179 83.082 53.144 83.9967 52.8774 85.0539C52.9238 85.7608 53.1558 86.1434 53.4225 86.6622Z" fill="#F3887B"/>
<path d="M52.292 87.755C51.7467 87.7227 51.329 87.6644 50.7489 87.4958C50.0063 87.2169 49.4493 86.6136 49.2752 85.9324C49.1011 85.2511 49.1475 84.3816 49.5535 83.869C49.774 83.6808 49.832 83.3823 50.0524 83.1941C50.3888 82.4089 50.2727 81.4292 50.7716 80.7543C51.05 80.2676 51.398 80.0534 51.9085 79.9495C52.419 79.8456 52.8367 79.9039 53.3241 80.2347C53.2196 79.8259 52.8947 79.6054 52.5698 79.3848C52.2449 79.1643 51.8621 79.2422 51.514 79.4564C50.8759 79.5863 50.4002 79.8265 49.7969 80.0926C49.1936 80.3588 48.6251 80.7612 48.0566 81.1636C47.6158 81.54 47.2097 82.0527 46.9313 82.5394C46.7457 82.8638 46.4324 83.2143 46.2816 83.675C46.1657 84.2719 46.0497 84.8689 46.2238 85.5501C46.3979 86.2314 46.6647 86.7504 46.8388 87.4317C47.1057 87.9507 47.3726 88.4697 47.6395 88.9888C47.8716 89.3715 48.3241 89.5661 48.6838 89.9229C49.0087 90.1434 49.3684 90.5002 49.7861 90.5586C50.2038 90.6169 50.4938 90.7012 50.8767 90.6232C51.3872 90.5193 52.0253 90.3894 52.4662 90.013C52.8142 89.7988 53.3479 89.2602 53.3711 88.8254C53.4174 87.956 52.7097 87.8134 52.292 87.755Z" fill="#F0A5B7"/>
<path d="M55.5961 82.5536L54.9597 79.5376L60.8744 78.6185L61.4673 90.3653L54.8235 86.8575L55.5961 82.5536Z" fill="#E8644D"/>
<path d="M55.5247 82.6345C56.1666 82.5041 57.8124 82.6017 57.591 84.375C57.3696 86.1483 56.4126 86.6308 55.4087 86.4028C54.4049 86.1747 53.0503 82.9933 55.5247 82.6345Z" fill="#DA5941"/>
<path d="M55.4329 82.7624C54.4801 83.2433 53.853 85.5238 56.0033 87.0959C58.1536 88.6681 50.1695 87.4212 50.1695 87.4212L51.7949 80.6316L55.4329 82.7624Z" fill="#ED7163"/>
<path d="M35.8567 52.4146C35.8451 51.8456 35.8681 51.4124 35.8565 50.8434C35.8795 50.4101 36.1909 50.0609 36.3408 49.6018C36.6176 49.1168 36.8598 48.496 37.0097 48.0369C37.2519 47.4161 37.621 46.7694 38.2209 46.5042C39.0399 46.0515 40.5513 46.7431 40.9207 47.6677C41.1861 48.185 41.1631 48.6182 41.3016 49.1613C41.4863 50.4093 41.9249 51.6054 42.4904 52.7757L42.525 52.9115L42.4328 53.0732C41.7406 53.5 41.0485 53.9269 40.714 54.7094C40.5295 55.0327 40.3795 55.4918 40.195 55.8151C40.0105 56.1385 39.6644 56.3519 39.3183 56.5653C39.1914 56.5912 38.9722 56.7788 38.8453 56.8047C38.5915 56.8564 38.3954 56.6108 38.1069 56.5267C37.657 56.3328 37.2993 55.9772 36.907 55.4859C36.3531 54.8846 36.0184 54.0958 35.9376 53.2552C35.9029 53.1194 35.926 52.6862 35.8567 52.4146Z" fill="#E9715D"/>
<path d="M39.1749 54.3466C39.523 54.1324 39.7086 53.8079 40.0567 53.5937C40.4048 53.3795 40.5905 53.055 40.9734 52.977C41.2287 52.925 41.484 52.8731 41.7741 52.9574C41.9017 52.9314 41.9017 52.9314 42.0293 52.9054C42.157 52.8794 42.157 52.8794 42.2498 52.7172C42.5979 52.503 42.9112 52.1525 43.0968 51.828L43.1896 51.6658L43.1548 51.5295C42.9576 51.283 42.8879 51.0105 42.5978 50.9262C42.4354 50.8159 42.4354 50.8159 42.2729 50.7056C41.8204 50.5111 41.4606 50.1543 40.9733 49.8234C40.4859 49.4926 39.9985 49.1618 39.7664 48.779C39.3023 48.0134 39.3486 47.1439 39.5227 46.2484C39.5807 45.9499 39.6735 45.7877 39.6039 45.5152C39.4994 45.1064 39.2673 44.7236 38.8496 44.6653C38.4319 44.607 38.1418 44.5227 37.724 44.4644C37.3411 44.5424 36.9234 44.484 36.7261 44.2375C37.167 43.8611 37.7704 43.5949 38.281 43.4909C38.5363 43.439 38.7915 43.387 39.0816 43.4713C39.3717 43.5556 39.6618 43.6399 39.9519 43.7242C41.5068 44.5544 42.5628 46.0596 43.2359 47.6427C43.5028 48.1617 43.6421 48.7068 43.7465 49.1155C43.8974 50.2316 43.5958 51.1531 43.3289 52.2108C42.7836 53.7553 42.2383 55.2997 41.1708 56.3771C40.1033 57.4545 38.5832 58.3373 37.0399 58.0781C36.9471 58.2404 36.0072 57.715 35.8796 57.741C35.427 57.5464 35.2297 57.2999 34.9976 56.9171C34.8352 56.8068 34.8004 56.6706 34.6031 56.424C34.3362 55.905 34.1621 55.2237 34.2781 54.6267C34.4521 53.7312 35.1252 53.7375 35.6822 54.3409C35.717 54.4771 35.8446 54.4511 35.8794 54.5874C36.0419 54.6977 36.332 54.782 36.6221 54.8662C36.947 55.0868 37.1443 55.3333 37.6896 55.3656C38.2002 55.2617 38.5135 54.9112 38.8268 54.5608C39.0821 54.5088 39.082 54.5088 39.1749 54.3466Z" fill="#F0A5B7"/>
<path d="M31.0427 51.6075C31.2291 51.282 31.4155 50.9564 31.7652 50.7415C31.9866 50.5526 32.208 50.3638 32.4644 50.3116C32.6858 50.1228 33.0704 50.0446 33.3268 49.9925C35.7975 49.634 37.7559 52.5442 37.5464 54.8882C37.4649 55.624 37.2203 56.2491 36.9756 56.8742C36.7892 57.1998 36.7309 57.4993 36.3464 57.5775C36.1249 57.7663 35.8686 57.8184 35.5772 57.7338C35.449 57.7599 35.1926 57.812 35.0294 57.7014C34.738 57.6167 34.4117 57.3954 33.9921 57.3369C33.5725 57.2783 33.118 57.0831 32.6984 57.0245C32.5352 56.9139 32.2788 56.966 32.1156 56.8553C31.4979 56.5494 31.1948 55.8918 30.9267 55.371C30.6935 54.9868 30.5886 54.5766 30.3554 54.1925C30.1223 53.8084 30.1805 53.5089 30.2038 53.0726C30.262 52.7731 30.4834 52.5843 30.5766 52.4215C30.798 52.2326 30.9845 51.9071 31.0427 51.6075Z" fill="#DE5E52"/>
<path d="M30.4872 52.2523C30.4287 52.5532 30.663 52.9392 30.8622 53.1877C31.2606 53.6849 31.6941 54.3194 31.9636 54.8427C32.0339 55.1175 32.2331 55.3661 32.4323 55.6146C32.6666 56.0006 33.1235 56.1968 33.7093 56.3668C34.1661 56.563 34.5879 56.6218 35.0448 56.818C35.3728 57.0404 35.8297 57.2366 36.2163 57.158C36.474 57.1057 36.5677 56.9421 36.8254 56.8897C37.0479 56.7 37.2705 56.5102 37.329 56.2093C37.4227 56.0457 37.5516 56.0195 37.6804 55.9933C37.8093 55.9671 37.8445 56.1045 37.8796 56.2419C37.9148 56.3793 37.8211 56.5428 37.8211 56.5428C37.6337 56.87 37.4111 57.0597 37.0597 57.2757C36.7083 57.4916 36.3921 57.8449 36.0055 57.9235C35.4901 58.0282 35.1035 58.1068 34.5178 57.9368C33.932 57.7668 33.604 57.5444 33.1471 57.3482C32.6902 57.152 32.1981 56.8184 31.7412 56.6222C31.2844 56.426 30.886 55.9289 30.6165 55.4055C30.3822 55.0196 30.2415 54.4701 30.136 54.0579C29.9954 53.5084 29.9836 52.9327 30.2646 52.442" fill="#F0A5B7"/>
<path d="M34.8253 46.9481C35.153 47.1703 35.4807 47.3924 35.6796 47.6407C35.8786 47.889 36.0776 48.1373 36.2765 48.3856C36.4755 48.6339 36.5809 49.0456 36.6512 49.3201C37.4474 51.9012 34.7097 53.9011 32.6386 53.7445C31.9599 53.738 31.2109 53.4571 30.5907 53.15C30.2982 53.0651 29.9705 52.8429 29.7715 52.5946C29.5726 52.3463 29.5023 52.0719 29.432 51.7974C29.3618 51.523 29.3266 51.3857 29.4202 51.2224C29.4787 50.9217 29.6307 50.4578 29.5604 50.1833C29.5837 49.7455 29.6071 49.3076 29.6304 48.8698C29.6888 48.5692 29.6537 48.432 29.7473 48.2686C29.9929 47.6412 30.4726 47.3994 31.0458 46.9942C31.3968 46.7785 31.7478 46.5628 32.0988 46.3472C32.4498 46.1315 32.7072 46.0792 33.1285 46.138C33.421 46.2229 33.62 46.4712 33.9125 46.5561C34.2051 46.641 34.5328 46.8632 34.8253 46.9481Z" fill="#DE5E52"/>
<path d="M34.0994 46.4288C33.8088 46.3443 33.4601 46.5588 33.2393 46.7472C32.7977 47.1241 32.2283 47.527 31.7867 47.9039C31.5659 48.0924 31.3102 48.1444 31.0894 48.3328C30.7756 48.6837 30.6247 49.1451 30.4737 49.6064C30.4505 50.0418 30.3344 50.6396 30.3113 51.0749C30.1603 51.5363 29.9744 51.8612 30.0791 52.2706C30.1489 52.5435 30.3116 52.6539 30.5093 52.9008C30.707 53.1477 30.9046 53.3946 31.1952 53.4791C31.358 53.5895 31.3929 53.726 31.3929 53.726C31.4278 53.8624 31.2999 53.8884 31.1721 53.9144C31.0442 53.9404 30.9164 53.9664 30.8815 53.83C30.556 53.6091 30.3583 53.3622 30.0328 53.1413C29.6724 52.7839 29.4399 52.4005 29.2073 52.0172C28.9399 51.4974 28.963 51.062 28.9512 50.4902C28.9744 50.0549 29.0905 49.4571 29.2415 48.9957C29.3924 48.5344 29.5085 47.9366 29.7874 47.4492C30.0662 46.9619 30.38 46.611 30.8216 46.2341C31.1702 46.0196 31.6816 45.9156 32.0651 45.8376C32.5765 45.7336 33.1228 45.7661 33.5762 45.961" fill="#F0A5B7"/>
<path d="M36.594 51.0664C37.8258 51.1056 39.0458 50.5681 39.6087 49.5852C39.8902 49.0937 39.9721 48.3532 39.9603 47.7766C39.9484 47.1999 39.7723 46.5119 39.6315 45.9615C39.4201 45.1358 39.244 44.4478 38.3289 44.0547C37.8713 43.8582 37.3552 43.9631 36.8038 43.9304C36.2876 44.0353 35.9005 44.114 35.3491 44.0813C35.091 44.1337 34.6687 44.0748 34.3754 43.9896C34.0821 43.9045 33.8826 43.6555 33.5659 44.0094C33.4721 44.1732 33.3783 44.337 33.2492 44.3632C32.9678 44.8547 32.4868 45.0972 32.0411 45.4773C31.5954 45.8574 31.2787 46.2113 31.1615 46.8142C31.009 47.2795 31.279 47.8037 31.5137 48.1902C31.7484 48.5768 31.9126 48.6882 32.1473 49.0748C32.6754 49.5466 33.3676 50.1297 33.9895 50.4376C34.9046 50.8307 35.7493 50.9485 36.594 51.0664Z" fill="#E9715D"/>
<path d="M38.3067 45.0597C37.7465 45.0257 37.0912 45.1605 36.5311 45.1264C35.8399 45.1193 35.2438 44.9435 34.7429 44.5987C34.576 44.4838 34.2421 44.254 33.9799 44.3079C33.7178 44.3618 33.6585 44.6725 33.4323 44.8683C33.242 45.206 32.9206 45.5706 32.5633 45.7933C31.9797 46.2118 31.3244 46.3466 30.7409 46.7652C30.6332 46.3396 30.9187 45.8331 31.2042 45.3266C31.6208 44.7932 32.0733 44.4016 32.6568 43.9831C32.883 43.7873 33.1093 43.5915 33.4666 43.3687C34.5385 42.7005 35.7539 42.5997 37.0053 42.6409C37.8276 42.621 38.6857 42.743 39.2225 43.2296C39.5564 43.4594 39.6282 43.7431 39.8669 44.1418C39.9028 44.2836 40.1057 44.5404 40.0105 44.7092C40.0823 44.993 39.9871 45.1618 40.023 45.3037C40.0589 45.4455 39.9996 45.7562 39.8327 45.6413C39.6657 45.5264 39.6298 45.3846 39.4629 45.2696C39.2959 45.1547 39.129 45.0398 38.9979 45.0668C38.7358 45.1207 38.4736 45.1746 38.3067 45.0597Z" fill="#F0A5B7"/>
<path d="M32.104 49.9097C32.1652 49.6099 32.3217 49.1468 32.4171 48.9834C32.7031 48.4933 33.0233 48.1397 33.3435 47.786C34.1818 47.3246 34.2771 47.1613 35.1908 47.5454C35.7771 47.7105 36.2681 48.039 36.7932 48.5039C37.1888 48.9958 37.6186 49.624 37.4962 50.2236C37.5047 53.523 31.7923 53.5628 32.104 49.9097Z" fill="#F0A5B7"/>
<path d="M35.716 51.2836C35.3889 51.0618 35.1201 50.5399 35.0149 50.1289C34.9097 49.7179 34.8045 49.3069 34.8278 48.8697C34.8862 48.5696 34.9445 48.2695 35.1314 47.9433C35.47 47.1538 35.8436 46.5013 36.5444 46.0707C37.1518 45.8031 37.8292 45.8096 38.4484 46.1161C39.0675 46.4227 39.4998 47.0555 39.6752 47.7405C39.7453 48.0145 39.687 48.3147 39.5935 48.4778C39.5352 48.7779 39.3133 48.9671 39.0914 49.1563C38.4257 49.724 37.9235 50.4026 37.2578 50.9703C36.7557 51.6488 36.3702 51.7272 35.716 51.2836Z" fill="#F3887B"/>
<path d="M34.7772 49.2483C34.7772 49.2483 35.0604 47.1357 36.4808 46.2588C37.8066 45.548 38.7068 46.3918 38.7068 46.3918C38.7068 46.3918 38.0677 47.1093 36.9548 47.0428C35.8418 46.9763 35.5586 49.0889 34.7772 49.2483Z" fill="#F0A5B7"/>
<path d="M38.9431 48.2595C38.7801 48.1481 38.7446 48.0111 38.5817 47.8997C37.4057 46.9826 36.3034 48.9324 35.9715 49.7192C35.8796 49.8817 35.9152 50.0187 35.7878 50.0442C35.767 50.4806 36.4897 51.2002 36.7237 51.5856C37.0851 51.9454 37.5175 52.5792 38.0626 52.6141C38.7351 52.6234 39.2299 51.948 39.5055 51.4606C39.8729 50.8107 39.9856 50.2118 39.8079 49.527C39.7013 49.1161 39.3044 48.6194 38.9431 48.2595Z" fill="#F0A5B7"/>
<path d="M38.6002 48.056C38.4373 47.9436 38.4011 47.8062 38.2382 47.6937C37.0616 46.7692 35.9758 48.7171 35.6501 49.5038C35.5596 49.6661 35.5958 49.8035 35.4691 49.8284C35.4511 50.2655 36.1752 50.9901 36.4105 51.3773C36.7726 51.7396 37.207 52.3766 37.7501 52.4143C38.4198 52.427 38.9084 51.7527 39.1798 51.2658C39.5418 50.6165 39.6503 50.017 39.4692 49.3301C39.3606 48.918 38.9623 48.4183 38.6002 48.056Z" fill="#EE7A6F"/>
<path d="M34.8649 51.9145C34.6999 51.8026 34.2994 51.3021 34.1109 51.6314C34.0167 51.7961 34.0521 51.9344 33.9579 52.0991C33.9344 52.5403 33.7813 53.008 33.7578 53.4492C33.6989 53.7522 33.7343 53.8905 33.805 54.1671C33.8757 54.4437 34.076 54.6939 34.4059 54.9178C34.6062 55.168 34.9007 55.2536 35.0656 55.3655C35.3601 55.4511 35.6192 55.3984 35.9726 55.181C36.326 54.9636 36.6793 54.7462 37.068 54.6671C37.4568 54.588 37.975 54.4826 38.3284 54.2652C38.6818 54.0478 38.9998 53.6921 39.0233 53.2508C38.9526 52.9742 38.7523 52.724 38.552 52.4738C38.3517 52.2235 38.0572 52.138 37.8923 52.026C37.3032 51.8549 36.6319 52.428 35.9133 52.2832C35.395 52.3886 35.0652 52.1648 34.8649 51.9145Z" fill="#F3887B"/>
<path d="M34.1544 52.4764C34.0956 52.779 34.0368 53.0817 34.1075 53.358C34.2134 53.7725 34.4842 54.2988 34.9433 54.4961C35.4024 54.6934 35.8262 54.7525 36.1793 54.5353C36.3088 54.509 36.4029 54.3445 36.6619 54.2918C37.1445 54.0483 37.6389 54.3838 38.1215 54.1403C38.3804 54.0876 38.6041 53.8967 38.7924 53.5677C38.9807 53.2388 38.91 52.9624 38.8394 52.6861C39.0042 52.7979 39.2043 53.0479 39.2396 53.1861C39.3103 53.4624 39.2161 53.6269 39.1573 53.9295C38.969 54.2585 38.7807 54.5875 38.5924 54.9165C38.4041 55.2455 38.0863 55.6009 37.7332 55.818C37.5096 56.0089 37.1565 56.226 36.8034 56.4432C36.5444 56.4959 36.3208 56.6867 36.0618 56.7394C35.6734 56.8184 35.3791 56.7329 34.92 56.5356C34.4609 56.3383 34.2961 56.2265 33.9665 56.0029C33.6369 55.7792 33.3073 55.5556 33.1071 55.3056C32.907 55.0556 32.8363 54.7793 32.6362 54.5293C32.5655 54.253 32.3654 54.003 32.3301 53.8649C32.2594 53.5886 32.3536 53.4241 32.4124 53.1214C32.4712 52.8188 32.6595 52.4898 32.8478 52.1608C33.0714 51.9699 33.4245 51.7528 33.6835 51.7001C34.1073 51.7592 34.0838 52.2 34.1544 52.4764Z" fill="#F0A5B7"/>
<path d="M37.437 51.2079L39.0982 51.8807L40.2205 48.3331L33.5993 46.792L34.8869 51.2931L37.437 51.2079Z" fill="#E8644D"/>
<path d="M37.2821 51.202C36.8729 51.718 35.5514 51.8423 34.9079 50.3858C34.2643 48.9293 34.0431 53.8803 34.0431 53.8803L38.1714 53.6186L37.2821 51.202Z" fill="#ED7163"/>
<path d="M37.0685 51.6898C37.4193 51.4743 38.0155 50.6318 37.0682 50.1029C36.121 49.574 35.4779 49.7047 35.3611 50.3055C35.0805 50.7953 35.8292 52.663 37.0685 51.6898Z" fill="#DA5941"/>
<path d="M75.7515 99.2224C75.7515 99.2224 75.8064 101.062 73.1138 101.624C71.3187 101.998 67.7017 103.179 67.1704 106.993C66.5108 110.834 69.1314 114.845 72.1086 116.503C75.0858 118.162 74.1685 119.35 74.1685 119.35C74.1685 119.35 75.2197 115.997 77.0684 114.757C79.0453 113.491 81.5605 108.978 78.8991 104.263C76.3658 99.5216 75.7515 99.2224 75.7515 99.2224Z" fill="#619B82"/>
<path d="M75.6638 99.2847C75.2175 103.198 72.6015 107.277 72.6837 111.223C72.8439 114.444 73.1499 117.211 74.3435 119.37" stroke="#3F934E" stroke-width="0.1971" stroke-miterlimit="10"/>
<path d="M74.7669 101.671C77.7273 103.477 81.2009 107.309 81.4526 110.381" stroke="#3F934E" stroke-width="0.1971" stroke-miterlimit="10"/>
<path d="M73.039 106.965C78.443 110.677 77.8763 112.071 79.8419 116.207" stroke="#3F934E" stroke-width="0.1971" stroke-miterlimit="10"/>
<path d="M74.5862 101.896C72.7987 101.964 71.1432 102.003 69.5965 102.482C68.0499 102.961 66.6121 103.878 65.8472 105.27" stroke="#3F934E" stroke-width="0.1971" stroke-miterlimit="10"/>
<path d="M73.0818 107.243C71.6341 106.95 65.1196 107.25 66.4027 112.294" stroke="#3F934E" stroke-width="0.1971" stroke-miterlimit="10"/>
<path d="M72.1536 111.474C69.9194 112.643 67.6048 116.113 70.3347 118.981" stroke="#3F934E" stroke-width="0.1971" stroke-miterlimit="10"/>
<path d="M72.5188 111.439C74.5236 113.028 76.1369 117.266 78.0724 117.014" stroke="#3F934E" stroke-width="0.1971" stroke-miterlimit="10"/>
<path d="M64.5116 108.44C63.8342 108.435 62.8406 108.782 63.0935 110.31C63.3465 111.838 63.4506 112.248 62.5855 112.569C61.7203 112.889 60.3656 112.88 60.3656 112.88C60.3656 112.88 61.0633 114.029 62.9568 113.498C62.9568 113.498 62.6507 114.423 62.2998 114.638C61.9835 114.99 63.6301 115.084 64.3707 113.209C64.3707 113.209 64.134 114.406 65.9193 115.046C65.9193 115.046 65.0685 114.358 64.8849 113.103C64.7013 111.848 65.4971 111.254 65.5807 110.519C66.0153 109.568 65.4808 108.529 64.5116 108.44Z" fill="#619B82"/>
<path d="M63.1328 97.8596C63.1328 97.8596 65.9743 102.871 64.8441 109.015" stroke="#619B82" stroke-width="0.2287" stroke-miterlimit="10"/>
<path d="M64.6562 102.01C64.8691 103.412 63.2836 104.756 61.5812 104.532C60.7301 104.42 60.0024 103.704 60.0024 103.704C60.0024 103.704 61.3616 105.301 62.8375 105.717C64.3133 106.132 65.0477 104.677 64.9377 103.687C64.8278 102.697 64.6562 102.01 64.6562 102.01Z" fill="#619B82"/>
<path d="M64.7475 101.924C64.7475 101.924 65.9694 104.099 67.103 104.291C68.2366 104.484 68.5489 103.561 68.5489 103.561C68.5489 103.561 68.6371 105.543 67.3745 105.378C66.1119 105.212 64.7475 101.924 64.7475 101.924Z" fill="#619B82"/>
<path d="M89.1043 107.802C87.4093 104.195 81.3117 98.8414 76.9087 98.7976" stroke="#619B82" stroke-width="0.1824" stroke-miterlimit="10"/>
<path d="M103.418 121.504C103.418 121.504 101.44 120.631 98.5067 120.813C95.5735 120.996 90.7225 120.007 89.3523 116.152C87.8534 112.324 88.7178 106.576 88.7178 106.576C88.7178 106.576 96.372 104.696 99.8963 107.96C104.01 111.958 102.109 117.351 103.418 121.504Z" fill="#619B82"/>
<path d="M88.6128 106.481C88.6128 106.481 93.0088 117.086 103.838 121.654" stroke="#3B8A64" stroke-width="0.2287" stroke-miterlimit="10"/>
<path d="M97.4705 118.028C97.4705 118.028 97.5411 120.965 99.4347 122.949" stroke="#3B8A64" stroke-width="0.2287" stroke-miterlimit="10"/>
<path d="M97.4499 117.825C97.4499 117.825 102.035 116.698 103.309 117.932" stroke="#3B8A64" stroke-width="0.2287" stroke-miterlimit="10"/>
<path d="M95.0917 115.415C95.0917 115.415 100.926 113.103 103.338 115.015" stroke="#3B8A64" stroke-width="0.2287" stroke-miterlimit="10"/>
<path d="M92.0952 112.664C94.4699 111.531 98.4248 109.436 102.53 110.865" stroke="#3B8A64" stroke-width="0.2287" stroke-miterlimit="10"/>
<path d="M89.9423 109.349C91.231 108.916 96.3681 105.95 101.24 107.673" stroke="#3B8A64" stroke-width="0.2287" stroke-miterlimit="10"/>
<path d="M89.9122 109.258C89.6017 110.178 87.8587 112.395 87.8192 114.399" stroke="#3B8A64" stroke-width="0.2287" stroke-miterlimit="10"/>
<path d="M92.0309 112.548C91.1544 113.867 89.7158 116.154 90.3609 119.283" stroke="#3B8A64" stroke-width="0.2287" stroke-miterlimit="10"/>
<path d="M94.8434 115.551C94.8838 116.249 93.1288 119.303 94.4133 121.293" stroke="#3B8A64" stroke-width="0.2287" stroke-miterlimit="10"/>
</svg>
