<svg width="163" height="185" viewBox="0 0 163 185" fill="none" xmlns="http://www.w3.org/2000/svg">
<path d="M102.517 98.8742C104.393 98.3077 104.795 98.3411 106.495 96.0737C108.195 93.8063 111.651 92.0061 116.113 93.3409C120.5 94.5089 121.924 97.2771 124.693 96.5439C124.693 96.5439 123.352 97.8776 122.26 101.079C121.168 104.28 117.058 106.347 112.58 105.412C108.103 104.478 106.874 100.843 104.986 99.6417C103.871 99.308 102.517 98.8742 102.517 98.8742Z" fill="#619B82"/>
<path d="M102.498 98.9097C102.498 98.9097 109.893 101.999 114.615 101.256C118.366 100.516 120.835 99.511 124.504 96.8361" stroke="#5A9075" stroke-width="0.2287" stroke-miterlimit="10"/>
<path d="M108.248 100.783C108.248 100.783 107.343 97.0379 111.136 92.5723" stroke="#5A9075" stroke-width="0.2287" stroke-miterlimit="10"/>
<path d="M107.93 100.872C108.37 101.863 109.046 102.952 109.649 103.876C110.251 104.8 110.854 105.724 111.546 106.417C112.238 107.11 113.256 107.67 114.29 107.834" stroke="#5A9075" stroke-width="0.2287" stroke-miterlimit="10"/>
<path d="M111.927 101.153C112.063 97.5713 114.045 94.2246 116.487 91.4758" stroke="#5A9075" stroke-width="0.2287" stroke-miterlimit="10"/>
<path d="M116.402 100.803C117.209 98.71 118.33 96.883 119.689 95.156C120.033 94.6246 120.615 94.1931 121.107 93.9941" stroke="#5A9075" stroke-width="0.2287" stroke-miterlimit="10"/>
<path d="M111.597 101.257C112.772 103.898 114.687 106.043 117.107 107.594C117.416 107.858 117.653 107.957 118.052 107.99" stroke="#5A9075" stroke-width="0.2287" stroke-miterlimit="10"/>
<path d="M116.388 100.57C116.462 100.735 116.462 100.735 116.536 100.901C117.233 101.597 118.302 103.121 119.252 103.52C120.202 103.919 121.389 104.417 122.369 104.022" stroke="#5A9075" stroke-width="0.2287" stroke-miterlimit="10"/>
<path d="M120.343 99.2932C120.656 99.5596 120.656 99.5596 121.133 99.7593C121.849 100.059 122.58 99.9587 123.148 99.9252C123.879 99.8251 124.537 99.5584 125.269 99.4582" stroke="#5A9075" stroke-width="0.2287" stroke-miterlimit="10"/>
<path d="M120.397 99.2993C121.447 97.301 122.884 95.7356 124.707 94.603" stroke="#5A9075" stroke-width="0.2287" stroke-miterlimit="10"/>
<path d="M131.398 99.8813C130.774 99.3502 130.256 98.1889 131.507 97.095C132.832 96.167 133.249 95.8024 132.641 94.8732C132.032 93.9441 131.023 92.9815 131.023 92.9815C131.023 92.9815 132.406 92.6174 133.697 94.6417C133.697 94.6417 134.055 93.7131 133.997 93.1491C133.938 92.5852 135.423 93.747 134.855 95.936C134.855 95.936 135.466 94.7091 137.443 95.6722C137.443 95.6722 136.238 95.572 135.241 96.3675C134.243 97.163 134.598 98.3906 134.091 98.9873C133.405 100.048 132.334 100.678 131.398 99.8813Z" fill="#619B82"/>
<path d="M131.641 99.5157C128.362 105.788 122.138 107.568 122.138 107.568C122.138 107.568 116.244 109.212 111.633 107.571" stroke="#619B82" stroke-width="0.1824" stroke-miterlimit="10"/>
<path d="M126.645 105.256C127.801 104.394 127.259 101.874 125.856 100.88C125.073 100.416 123.875 100.317 123.875 100.317C123.875 100.317 126.05 100.018 127.615 100.946C129.108 101.708 128.793 103.598 127.963 104.328C127.223 104.825 126.645 105.256 126.645 105.256Z" fill="#619B82"/>
<path d="M126.558 105.212C126.558 105.212 129.089 104.378 130.188 105.111C131.287 105.844 130.764 106.844 130.764 106.844C130.764 106.844 132.196 105.277 131.023 104.377C129.923 103.644 126.558 105.212 126.558 105.212Z" fill="#619B82"/>
<path d="M122.368 147.937C120.749 148.203 118.593 149.86 119.996 153.007C121.398 156.155 121.44 157.116 120.101 158.441C119.268 159.17 117.798 159.767 117.798 159.767C117.798 159.767 119.1 161.39 122.105 158.607C122.105 158.607 122.59 160.561 120.861 163.61C120.339 164.604 123.444 163.345 124.435 158.639C124.435 158.639 125.11 161.886 127.856 161.555C127.856 161.555 127.013 160.528 126.069 157.976C125.125 155.425 126.644 153.636 126.633 151.88C126.311 149.859 124.714 147.573 122.368 147.937Z" fill="#619B82"/>
<path d="M110.886 115.41C110.886 115.41 122.963 134.323 122.698 149.229" stroke="#619B82" stroke-width="0.1609" stroke-miterlimit="10"/>
<path d="M119.411 133.091C120.472 136.795 117.933 139.801 114.21 140.138C111.709 140.174 109.732 139.208 109.732 139.208C109.732 139.208 107.604 144.016 114.426 142.808C118 142.137 120.948 136.994 120.151 134.759C120.077 134.592 119.411 133.091 119.411 133.091Z" fill="#619B82"/>
<path d="M121.708 140.944C121.708 140.944 123.377 143.4 125.035 144.097C126.693 144.794 129.124 144.196 129.198 144.362C130.708 144.726 127.636 147.35 125.03 146.255C123.062 145.293 121.708 140.944 121.708 140.944Z" fill="#619B82"/>
<path d="M128.59 132.578C129.645 132.347 131.249 132.482 131.575 134.503C131.9 136.523 132.033 137.252 133.4 137.287C134.767 137.322 135.896 137.258 135.896 137.258C135.896 137.258 133.756 138.513 132.018 137.649C132.018 137.649 132.938 138.843 134.75 139.872C135.299 140.237 132.893 140.035 131.29 137.747C131.29 137.747 132.254 139.901 129.534 141.586C129.534 141.586 130.976 139.634 130.562 137.846C130.147 136.057 128.2 136.451 127.592 135.523C127.058 134.761 127.208 132.94 128.59 132.578Z" fill="#619B82"/>
<path d="M115.45 124.064C115.45 124.064 122.815 126.749 128.883 133.864" stroke="#619B82" stroke-width="0.1609" stroke-miterlimit="10"/>
<path d="M121.782 127.293C123.177 128.693 126.197 127.661 127.405 125.596C127.927 124.596 127.825 123.064 127.825 123.064C127.825 123.064 128.683 125.862 127.877 127.961C127.071 130.059 124.662 129.859 123.653 128.893C122.405 127.826 121.782 127.293 121.782 127.293Z" fill="#619B82"/>
<path d="M122.56 127.999C122.56 127.999 123.979 130.755 123.354 132.382C122.656 133.842 121.292 133.808 121.292 133.808C121.292 133.808 124.093 134.042 125.118 132.449C125.905 130.756 122.56 127.999 122.56 127.999Z" fill="#619B82"/>
<path d="M89.1172 86.1553C90.4912 84.0301 90.8194 83.8976 90.4807 80.1089C90.2164 76.4863 92.0107 71.8361 97.1123 69.383C102.288 67.0961 105.954 68.3632 108 65.5742C108 65.5742 107.908 67.9667 109.603 72.1891C111.298 76.4114 109.234 81.7592 104.192 84.7773C99.0747 87.6292 94.9778 84.9659 92.0552 85.3612C90.6836 85.3264 89.1172 86.1553 89.1172 86.1553Z" fill="#619B82"/>
<path d="M89.1202 86.1709C89.1202 86.1709 98.6337 83.1147 102.548 78.4004C105.533 74.6488 106.872 71.5615 108.085 65.5864" stroke="#00995D" stroke-width="0.1824" stroke-miterlimit="10"/>
<path d="M95.8877 83.2891C95.8877 83.2891 92.0215 80.2184 91.7623 72.5461" stroke="#00995D" stroke-width="0.1824" stroke-miterlimit="10"/>
<path d="M95.5986 83.2352C97.0314 83.8333 98.3898 84.2656 99.8225 84.8636C101.181 85.2959 102.375 85.7943 103.749 85.8287C105.123 85.863 106.423 85.7316 107.589 84.8705" stroke="#00995D" stroke-width="0.1824" stroke-miterlimit="10"/>
<path d="M99.7836 80.4615C96.9867 76.7476 95.8653 71.5679 95.9258 66.8755" stroke="#00995D" stroke-width="0.1824" stroke-miterlimit="10"/>
<path d="M103.893 76.3618C102.882 73.6582 102.361 70.7557 102.24 67.8856C102.273 67.0937 102.233 66.137 102.74 65.5422" stroke="#00995D" stroke-width="0.1824" stroke-miterlimit="10"/>
<path d="M99.5336 80.5904C102.951 82.1514 106.729 82.7841 110.226 82.3552C110.629 82.3886 111.122 82.19 111.451 82.0575" stroke="#00995D" stroke-width="0.1824" stroke-miterlimit="10"/>
<path d="M103.69 76.1549C103.764 76.3208 103.928 76.2538 104.167 76.3528C105.616 76.5478 107.689 77.2726 108.842 76.8038C109.996 76.335 111.718 75.8312 112.173 74.6666" stroke="#00995D" stroke-width="0.1824" stroke-miterlimit="10"/>
<path d="M106.496 71.6983C107.064 71.664 107.064 71.664 107.723 71.397C108.546 71.0632 109.222 70.3974 109.733 69.7985C110.244 69.1995 110.846 68.3678 111.283 67.6028" stroke="#00995D" stroke-width="0.1824" stroke-miterlimit="10"/>
<path d="M106.498 71.5444C105.807 68.7068 105.917 65.9354 106.592 63.1311" stroke="#00995D" stroke-width="0.1824" stroke-miterlimit="10"/>
<path d="M82.2192 68.48C82.2192 68.48 82.8242 71.5566 82.8068 74.1032C82.7894 76.6498 85.647 81.7468 94.86 80.3695C94.86 80.3695 94.3573 78.8144 94.1505 77.9212C93.8697 76.8625 93.5934 71.5042 90.0349 70.0114C86.4763 68.5185 84.7243 70.203 82.2192 68.48Z" fill="#619B82"/>
<path d="M82.2455 68.4815C82.2455 68.4815 84.3379 72.3136 85.9464 74.1966C87.5549 76.0796 89.0898 77.7974 95.0766 80.4402" stroke="#3F934E" stroke-width="0.1824" stroke-miterlimit="10"/>
<path d="M114.374 84.9544C114.374 84.9544 111.528 83.3563 109.487 81.8255C107.373 80.1283 101.678 79.0928 97.4768 87.4654C97.4768 87.4654 99.0714 87.9987 99.861 88.4648C100.815 88.8645 105.373 92.1261 108.67 90.4006C111.894 88.5088 111.674 85.8494 114.374 84.9544Z" fill="#619B82"/>
<path d="M114.389 84.9103C114.389 84.9103 110.138 84.0911 107.628 84.1335C105.119 84.1759 102.848 84.3176 97.4534 87.5085" stroke="#3F934E" stroke-width="0.1824" stroke-miterlimit="10"/>
<path d="M100.093 86.5671C101.138 86.7343 102.183 86.9016 103.079 86.7383C105.604 86.3142 107.324 83.6759 107.267 80.9679C107.238 79.6139 106.807 78.2261 105.792 77.2664C105.404 76.8363 104.688 76.5376 104.135 76.1732C103.344 75.7093 102.389 75.3111 101.672 75.0124C100.881 74.5485 99.9258 74.1503 99.1041 74.4788C98.611 74.6759 98.1925 75.0383 97.6249 75.0702C96.7287 75.2335 95.9376 74.7695 95.1158 75.0981C94.6228 75.2952 94.2043 75.6576 93.8603 76.1852C92.3943 78.5268 92.5259 81.4001 92.7473 84.0423C92.9687 86.6846 98.0021 86.2326 100.093 86.5671Z" fill="#CFD362"/>
<path d="M95.5747 84.8774C95.6928 86.001 96.8567 87.2917 98.0078 86.8312C99.3233 86.305 100.266 84.9521 100.477 83.6969C100.492 83.3005 101.215 79.304 101.05 79.3698C100.647 79.336 100.318 79.4676 100.063 79.7645C99.8091 80.0614 99.7191 80.2925 99.3902 80.4241C98.9714 80.7867 98.4781 80.9841 97.9848 81.1814C97.4016 81.6098 96.8183 82.0383 96.474 82.5663C96.0398 83.3254 95.6055 84.0846 95.5747 84.8774Z" fill="#AEC551"/>
<path d="M100.456 74.9766C100.127 75.11 99.7973 75.2434 99.6326 75.3102C98.883 75.8097 97.9853 75.9773 97.3264 76.2442C96.8323 76.4443 96.5028 76.5777 95.9347 76.6119C95.6052 76.7454 95.2018 76.7128 94.8723 76.8462C93.9747 77.0139 93.3731 77.8453 92.6235 78.3449C91.9073 78.0471 91.2986 77.1181 91.5707 76.42C91.8262 76.1207 92.0816 75.8213 92.337 75.5219C93.6882 74.1909 95.3522 73.1251 97.2381 72.5572C98.7946 72.1227 100.408 72.2528 101.824 73.2469C102.302 73.4454 103.404 74.1743 102.894 74.7731C102.309 75.2059 101.115 74.7097 100.456 74.9766Z" fill="#FAF09E"/>
<path d="M93.3095 83.5379C91.8941 82.543 90.5683 81.3168 89.7344 79.8933C89.2727 79.2972 88.9005 78.4699 88.1108 78.0053C87.634 77.8059 86.9932 77.6723 86.5908 77.6383C84.2508 77.6002 82.1038 78.852 81.0594 80.8335C80.5372 81.8242 80.1639 83.1459 79.8801 84.2363C79.6708 85.4923 79.2974 86.8139 79.6545 88.038C80.0115 89.2621 80.6221 90.1892 81.3071 91.2817C81.9921 92.3742 82.7667 93.2355 83.4517 94.328C83.7645 94.5932 83.9878 95.0896 84.4647 95.289C85.1799 95.5881 85.8359 95.3251 86.3278 95.1277C88.8772 93.9099 91.5161 92.4609 93.6037 90.6469C94.6027 89.8556 96.3472 88.5699 96.3182 87.2143C96.6322 85.3304 94.6504 84.3673 93.3095 83.5379Z" fill="#CFD362"/>
<path d="M82.7397 81.0625C82.4863 81.3594 82.1585 81.4909 82.069 81.722C81.2192 82.8438 82.3653 84.5317 81.9922 85.8529C81.6341 86.7774 80.6507 87.1719 80.4566 88.0307C80.3519 88.6584 80.6495 89.32 80.8727 89.8162C80.932 90.3781 80.9018 91.1712 80.4844 91.5339C80.1717 91.2688 80.023 90.938 79.8742 90.6072C79.071 88.3913 78.4317 86.1096 78.7607 83.83C78.9699 82.5746 79.5814 81.3532 80.2672 80.2971C80.8636 79.4722 81.6238 78.5815 82.4585 77.8563C83.0397 77.4279 84.3811 76.1088 85.1856 76.1767C86.7792 76.7088 83.3209 80.6341 82.7397 81.0625Z" fill="#FAF09E"/>
<path d="M102.449 85.8909C103.506 85.6608 104.8 85.5306 105.663 86.1622C105.976 86.4281 106.288 86.6939 106.363 86.8598C106.824 87.4575 107.449 87.9892 107.91 88.5869C108.758 89.6163 109.918 90.9116 109.709 92.1711C109.589 93.1988 108.756 93.9267 108.011 94.4226C106.687 95.3485 105.451 96.0424 103.903 96.4706C103.248 96.7346 102.355 96.8987 101.477 96.6649C99.7955 96.3634 98.8883 94.7701 98.0555 93.3428C97.297 92.0815 94.6046 88.6613 95.7658 87.8014C96.4358 87.1396 98.0581 86.8774 98.9511 86.7133C100.172 86.4171 101.392 86.121 102.449 85.8909Z" fill="#CFD362"/>
<path d="M101.514 95.4514C102.213 96.1489 102.986 97.0123 103.03 97.9738C103.015 98.3716 102.837 98.8353 102.821 99.2331C102.553 99.9288 102.285 100.624 101.63 100.888C100.886 101.384 99.919 101.382 99.0261 101.547C97.6421 101.909 96.3918 103 95.0078 103.362C93.5494 103.558 91.9574 103.025 90.946 102.062C89.7708 101.164 88.9381 99.7372 88.1797 98.476C87.6443 97.7125 87.1089 96.949 86.9009 96.0536C86.6929 95.1581 86.6487 94.1966 87.0805 93.4349C87.5123 92.6733 88.1672 92.4093 88.9857 92.0793C91.0396 91.0555 93.0191 89.8658 95.073 88.842C95.4004 88.7101 95.8915 88.5121 96.2933 88.546C96.5313 88.6459 96.8437 88.9117 96.9924 89.2435C97.0517 89.8072 101.514 95.4514 101.514 95.4514Z" fill="#CFD362"/>
<path d="M91.699 77.4729C90.5686 77.537 89.5718 78.3304 88.9022 78.9919C88.1433 79.8852 87.5481 80.7125 86.7149 81.4399C86.2983 81.8036 85.8073 82.0015 85.6287 82.4651C84.7062 83.4243 84.5718 84.849 85.1663 86.1757C85.3892 86.6732 85.6121 87.1707 85.8351 87.6682C85.9837 87.9999 85.8944 88.2316 85.805 88.4634C85.8643 89.0269 86.3252 89.6243 86.7118 90.0558C86.0572 90.3197 85.3284 90.4177 84.8375 90.6155C84.6738 90.6815 84.3465 90.8134 84.1829 90.8794C84.0193 90.9454 83.9299 91.1772 83.9149 91.5748C83.4533 93.1314 84.0327 94.8557 85.3711 95.6867C85.6833 95.9524 86.1592 96.1522 86.3078 96.4838C86.3822 96.6497 86.5308 96.9813 86.6051 97.1472C86.9023 97.8105 87.8541 98.21 88.5679 98.5096C89.9213 98.943 91.617 98.8469 92.5395 97.8877C93.3727 97.1602 93.5814 95.9014 94.4889 95.3398C95.262 96.2029 96.1094 97.2318 97.0462 98.0289C97.4328 98.4605 97.8193 98.892 98.2059 99.3235C98.5925 99.7551 98.8154 100.253 99.202 100.684C100.124 101.879 101.879 102.346 103.039 101.487C103.456 101.123 103.709 100.825 104.051 100.296C104.899 99.1708 105.747 98.0457 106.432 96.9866C106.774 96.457 107.117 95.9275 107.221 95.2981C107.415 94.4368 107.132 93.3759 106.434 92.6786C105.735 91.9814 104.872 91.3501 104.158 91.0505C105.542 90.6886 107.089 90.2608 108.547 90.0648C108.71 89.9988 109.037 89.8669 109.201 89.801C109.945 89.3053 109.826 88.1784 109.291 87.4152C108.756 86.652 108.132 86.1206 107.76 85.2914C107.388 84.4622 107.418 83.667 107.047 82.8378C106.512 82.0746 105.724 81.6091 104.92 81.5413C104.117 81.4735 103.299 81.8033 102.481 82.1331C101.99 82.331 101.41 82.7606 100.919 82.9585C99.937 83.3543 98.643 83.4843 97.6018 83.3166C97.7212 82.2896 98.3165 81.4623 98.6738 80.5351C98.9418 79.8397 98.8082 79.1104 97.9307 78.8768C97.4548 78.677 96.9639 78.8749 96.488 78.6752C96.0121 78.4754 95.5362 78.2757 95.0603 78.0759C93.3797 77.7744 92.5915 77.309 91.699 77.4729Z" fill="#FCE96B"/>
<path d="M89.3096 85.5024C89.2202 85.7344 88.8926 85.8664 88.8032 86.0984C88.55 86.3965 88.5349 86.7944 88.5199 87.1924C88.3852 88.6183 87.6105 89.9103 86.6872 90.8704C86.1064 91.3005 86.4782 92.1304 87.0288 92.4962C87.5051 92.6961 87.6538 93.028 87.9663 93.2939C88.8294 93.9257 90.1246 93.7954 90.4964 94.6252C90.5708 94.7912 90.6451 94.9572 90.6451 94.9572C90.7788 95.6871 91.4932 95.9869 92.074 95.5568L92.2378 95.4907C92.4015 95.4247 92.491 95.1927 92.7291 95.2927C92.8929 95.2266 93.2054 95.4925 93.4435 95.5925C94.3961 95.9922 95.2893 95.828 96.0932 95.8958C97.4627 95.9315 98.6685 96.0332 99.9486 96.3009C100.425 96.5008 100.842 96.1367 100.946 95.5068C101.051 94.8768 101.483 94.1148 101.751 93.4188C101.93 92.9548 101.945 92.5568 102.124 92.0929C102.497 90.7669 103.346 89.6408 104.507 88.7806C104.924 88.4166 104.954 87.6206 104.24 87.3208C103.764 87.121 103.213 86.7551 102.99 86.2572C102.767 85.7593 102.469 85.0955 102.083 84.6636C101.309 83.7998 99.9393 83.7641 99.1656 82.9004C98.7788 82.4685 98.5557 81.9706 98.4221 81.2407C98.2884 80.5108 97.4102 80.2771 96.8294 80.7071C95.8166 81.8993 94.3275 82.8915 92.8686 83.0878C92.1391 83.186 91.499 83.0521 90.7846 82.7523C90.0702 82.4525 89.4 83.1146 89.5336 83.8445C89.8311 84.5084 89.8904 85.0723 89.3096 85.5024Z" fill="#CFD362"/>
<path d="M98.9388 95.7326C99.5953 95.4691 100.013 95.106 100.446 94.3458C100.79 93.817 100.746 92.8574 100.851 92.2289C100.971 91.2033 101.419 90.0461 102.255 89.3198C102.673 88.9566 103.255 88.5276 103.121 87.7994C102.972 87.4682 102.898 87.3026 102.749 86.9714C102.525 86.4746 102.392 85.7464 102.332 85.1838C102.422 84.9523 102.437 84.5553 102.363 84.3897C102.214 84.0585 101.826 83.6275 101.424 83.5937C99.8432 82.664 98.0986 81.8002 96.4132 81.4991C94.7279 81.1979 92.6992 81.4255 91.371 82.3494C91.2068 82.4153 91.0427 82.4811 91.1172 82.6467C91.0275 82.8782 91.102 83.0437 91.1765 83.2093C91.4743 83.8717 91.6825 84.7656 91.9803 85.4279C91.6673 85.1626 91.3542 84.8973 91.0412 84.6319C90.3847 84.8953 90.1157 85.5897 89.8467 86.284C89.5777 86.9784 89.5473 87.7725 89.2039 88.3012C88.5169 89.3587 86.9654 89.7858 86.517 90.943C86.4274 91.1745 86.3377 91.4059 86.4866 91.7371C86.5611 91.9027 86.8742 92.1681 87.1127 92.2678C88.6932 93.1974 90.7812 93.5325 92.497 93.0395C92.1535 93.5683 92.2128 94.1309 92.3465 94.8592C92.421 95.0248 92.4954 95.1903 92.734 95.2901C92.9726 95.3898 92.9726 95.3898 93.2112 95.4896C94.822 95.6251 97.2976 96.3911 98.9388 95.7326Z" fill="#FAF09E"/>
<path d="M91.6162 88.4928C90.9445 89.1532 90.4217 90.1449 90.2272 91.0049C90.212 91.4019 89.9582 91.6992 90.1071 92.0304C90.3305 92.5272 90.9718 92.6609 91.5386 92.6289C92.1055 92.5969 93.344 91.9045 93.806 92.501C94.581 93.3629 94.8196 93.4627 95.8636 93.6302C96.8332 93.6321 97.7131 93.8655 98.5337 93.5362C99.2799 93.0413 99.6233 92.5126 99.6537 91.7184C99.7586 91.0899 99.6993 90.5273 99.4759 90.0305C99.1036 89.2025 99.596 89.0049 100.104 88.4103C100.939 87.684 101.224 86.5926 100.284 85.7965C99.3453 85.0005 98.5399 84.9327 97.4214 84.5996C96.5415 84.3662 95.4975 84.1987 94.6176 83.9653C94.379 83.8656 94.2149 83.9315 94.0507 83.9973C93.8866 84.0632 93.797 84.2946 93.7073 84.5261C93.6921 84.9231 93.7514 85.4858 93.572 85.9487C93.3927 86.4116 92.9748 86.7748 92.5721 86.7409C92.3335 86.6411 92.3335 86.6411 92.0949 86.5414C91.8563 86.4417 91.7666 86.6731 91.4384 86.8048C90.946 87.0024 90.5281 87.3656 90.5874 87.9282C90.6618 88.0938 90.7363 88.2594 90.8108 88.425C91.0934 89.4844 90.0935 90.2766 90.3761 91.3361C90.5843 92.2299 92.2696 92.5311 93.0006 92.4333" fill="#D5DF98"/>
<path d="M94.8353 93.0699C95.1627 92.9379 95.3416 92.474 95.1929 92.1421C95.3416 92.474 95.9664 93.0057 96.3683 93.0396C96.7701 93.0735 97.3507 92.6435 97.3658 92.2457C97.4552 92.0137 97.3065 91.6819 97.2322 91.5159C97.5446 91.7818 97.7827 91.8817 98.0208 91.9816L98.1845 91.9156L98.3483 91.8496C98.6014 91.5516 98.8546 91.2537 98.8696 90.8558C98.7209 90.5239 98.6466 90.358 98.4979 90.0261C98.8997 90.0601 99.1378 90.16 99.629 89.962C100.12 89.7639 100.225 89.1341 100.002 88.6363C99.853 88.3044 99.7786 88.1385 99.4662 87.8726C99.2281 87.7727 98.7519 87.5729 98.6625 87.8048C99.0944 87.043 98.8271 85.5835 97.7854 85.4157C97.3835 85.3818 96.8923 85.5799 96.8772 85.9777C96.8179 85.4139 96.1187 84.7163 95.6275 84.9143C95.0619 84.9464 94.6299 85.7083 95.0911 86.306C94.6299 85.7083 93.5882 85.5405 93.1713 85.9045C92.9181 86.2024 92.8287 86.4344 92.9774 86.7662C92.9624 87.1641 93.2748 87.43 93.5873 87.6958C93.4235 87.7618 93.3492 87.5959 93.1854 87.6619C92.7836 87.628 92.3074 87.4282 92.0543 87.7261C91.8905 87.7921 91.8011 88.0241 91.8755 88.19C91.7861 88.4219 91.8454 88.9858 92.1578 89.2516C92.2322 89.4175 92.857 89.9493 92.857 89.9493C92.5295 90.0813 92.3658 90.1473 92.1127 90.4452C91.9339 90.9091 91.8294 91.5389 92.2162 91.9707C92.5287 92.2366 92.8411 92.5025 93.2429 92.5364C93.6448 92.5703 93.8236 92.1064 94.0767 91.8084C94.0617 92.2063 94.0466 92.6042 94.3591 92.8701C93.9572 92.8361 94.344 93.2679 94.8353 93.0699Z" fill="white"/>
<path d="M43.3025 59.0087C46.3741 56.7718 55.9697 52.6637 66.5611 62.136" stroke="#619B82" stroke-width="0.1824" stroke-miterlimit="10"/>
<path d="M13.8108 59.8115C14.45 62.0944 18.1279 65.1108 21.3457 65.3819C21.9118 65.35 22.314 65.3839 22.8058 65.1865C23.2975 64.9891 23.6405 64.4607 23.4173 63.9643C23.3581 63.402 23.6418 62.3114 23.0908 61.9466C21.661 61.3485 19.8428 62.469 16.7297 61.5699C15.1208 61.4344 13.7213 60.0428 13.8108 59.8115Z" fill="#619B82"/>
<path d="M18.915 73.7251C18.4989 71.9386 18.0085 69.9865 18.233 68.3336C18.2633 67.54 18.9342 66.88 19.4411 66.2858C20.0224 65.857 21.17 65.3964 21.885 65.6955C22.5999 65.9945 22.8231 66.491 22.5545 67.1849C22.2859 67.8788 21.5406 68.3733 21.0337 68.9675C20.5267 69.5617 20.0941 70.3214 19.8255 71.0153C19.3034 72.0063 19.1092 72.8657 18.915 73.7251Z" fill="#619B82"/>
<path d="M24.8118 59.3684C23.6937 59.0353 22.3218 58.9996 21.1733 59.4608C20.0247 59.9219 18.9354 60.9458 18.2486 62.0036C17.4723 63.2928 17.4859 65.0469 18.3199 66.4716C19.1539 67.8963 20.5697 68.8919 22.0008 69.4904C22.6419 69.624 23.2831 69.7576 23.8497 69.7256C24.4164 69.6935 25.0727 69.43 25.565 69.2324C27.698 68.376 29.5181 67.2542 30.012 64.9053C30.4754 63.3507 29.254 61.495 27.8381 60.4994C26.9585 60.2661 25.93 59.7015 24.8118 59.3684Z" fill="#DE5E52"/>
<path d="M20.2683 67.51L20.1046 67.5758L19.9409 67.6415C19.3012 67.5083 18.989 67.2434 18.6026 66.8133C18.2161 66.3832 18.157 65.8216 18.098 65.2599C18.1132 64.8635 18.2027 64.6325 18.2922 64.4014C18.3816 64.1703 18.7091 64.0388 19.1107 64.0726C19.3487 64.1721 19.5867 64.2716 19.7352 64.6022C19.6761 64.0405 19.9445 63.3473 20.3614 62.9847C20.5252 62.919 20.6888 62.8532 20.8526 62.7874C21.2542 62.8212 21.7302 63.0202 22.0424 63.2851C22.8153 64.1453 23.2608 65.1371 23.5426 66.1946C23.6016 66.7563 23.6607 67.3179 23.7197 67.8796C23.7787 68.4412 23.4361 68.9691 23.0192 69.3317C23.1086 69.1007 23.1239 68.7043 23.0496 68.539C22.9315 67.4157 22.6498 66.3582 21.8769 65.4979C21.8026 65.3326 21.4904 65.0678 21.3267 65.1336C20.925 65.0998 20.9098 65.4962 20.8203 65.7272C20.4777 66.2551 20.8489 67.0816 20.2683 67.51Z" fill="#F0A5B7"/>
<path d="M30.2913 63.7978C29.7593 60.8911 27.1741 59.005 24.9445 58.3411C22.224 57.8746 21.4976 55.8262 21.5129 55.4299C21.2751 55.3305 20.4723 55.2632 20.9761 56.8159C21.9532 60.7139 27.9617 59.4685 29.2507 63.631C30.5397 67.7936 25.3648 68.3139 23.3117 69.3343C21.5859 70.2231 21.5094 72.2042 22.8314 73.4281L22.995 73.3623C22.6242 72.5362 21.972 70.653 24.3217 70.2935C27.1623 69.7365 29.4073 70.0042 30.5115 66.4397C30.5574 65.2511 30.2913 63.7978 30.2913 63.7978Z" fill="#619B82"/>
<path d="M26.1614 60.9632C25.0449 60.6305 23.8388 60.5289 22.5585 60.262C21.3525 60.1605 20.236 59.8277 19.0451 59.3296C19.655 60.2562 20.5925 61.0513 21.2919 61.7468C22.155 62.3765 22.8544 63.0719 23.7176 63.7016C24.3426 64.2316 25.5926 65.2917 26.471 65.5248C27.1855 65.8237 28.9573 65.8933 29.6278 65.2336C30.3878 64.3427 29.1681 62.4895 28.5431 61.9594C28.0819 61.3636 26.8015 61.0967 26.1614 60.9632Z" fill="#619B82"/>
<path d="M43.7085 59.1778C40.1858 61.8232 32.2335 65.9226 27.8543 64.8054" stroke="#619B82" stroke-width="0.1824" stroke-miterlimit="10"/>
<path d="M39.9155 61.6305C37.0539 60.8321 32.5596 60.6978 32.166 56.3444C32.166 56.3444 29.0878 61.1287 33.3879 62.127C37.6881 63.1252 39.9155 61.6305 39.9155 61.6305Z" fill="#619B82"/>
<path d="M63.4088 61.0381C62.2404 60.1417 61.1611 59.0131 60.9703 57.7193C60.3366 55.43 61.7013 53.3078 62.7401 51.3181C64.0156 49.4281 65.1435 47.2063 64.5099 44.917C65.7646 47.7374 69.7459 48.4697 71.6524 51.0251C73.1007 52.9832 73.1565 55.7034 72.1915 57.859C71.3156 59.7824 69.8187 61.1747 68.0112 62.3015C66.5295 63.2957 64.8139 62.0341 63.4088 61.0381Z" fill="#619B82"/>
<path d="M67.4032 56.3307C67.3855 58.8761 66.6413 61.5199 67.8395 63.7692C66.8454 64.5615 65.4818 64.5268 64.3704 64.1949C61.5105 63.3982 59.127 60.6516 58.4335 57.8078C57.6661 54.7986 58.2624 51.8241 59.5698 49.1479C60.2682 47.6942 61.2775 46.5053 62.5978 45.5813C64.2443 44.5253 64.614 45.3522 65.2793 46.8406C66.4469 49.8833 67.5253 53.1573 67.4032 56.3307Z" fill="#3B8A64"/>
<path d="M69.5006 47.1985C68.8115 48.2588 68.51 49.7505 67.6565 50.8769C67.2375 51.2413 66.8186 51.6056 66.3997 51.9699C66.0708 52.1022 65.8163 52.4004 65.4874 52.5327" stroke="#3B8A64" stroke-width="0.2287" stroke-miterlimit="10"/>
<path d="M71.5281 49.2703C70.8976 50.8944 70.3414 52.6843 68.9944 54.0095C68.2309 54.9041 67.0797 55.3674 66.1517 56.3281" stroke="#3B8A64" stroke-width="0.2287" stroke-miterlimit="10"/>
<path d="M73.4314 52.7551C72.6475 54.0527 71.8635 55.3504 70.7671 56.3829C69.5058 57.4824 68.0229 58.084 66.5401 58.6855" stroke="#3B8A64" stroke-width="0.2287" stroke-miterlimit="10"/>
<path d="M72.1324 58.7313C70.3677 60.0471 68.5316 61.1988 66.3597 61.1321" stroke="#3B8A64" stroke-width="0.2287" stroke-miterlimit="10"/>
<path d="M74.9225 76.4121C74.9225 76.4121 71.7925 78.4685 69.0933 79.7615C66.2309 81.1207 62.4894 86.5636 69.1936 95.9991C69.1936 95.9991 70.5291 94.6719 71.434 94.1081C72.428 93.3119 78.0788 90.4273 77.7727 85.8447C77.4666 81.2621 74.3849 79.9647 74.9225 76.4121Z" fill="#619B82"/>
<path d="M73.3483 77.8496C73.3483 77.8496 69.7633 76.7491 66.8338 75.3816C63.9043 74.0141 57.0419 74.2486 54.3552 85.1922C54.3552 85.1922 56.2004 85.4255 57.3161 85.759C58.4318 86.0925 64.7824 88.6272 68.1226 85.6907C71.299 82.821 70.2932 79.685 73.3483 77.8496Z" fill="#619B82"/>
<path d="M53.6677 67.3409C53.6677 67.3409 56.0155 69.1418 57.9615 70.9093C59.7438 72.7434 64.9189 74.3778 70.0358 67.1755C70.0358 67.1755 68.6981 66.3417 67.9844 66.0415C67.1226 65.4079 63.2305 61.8729 59.9545 63.2065C56.6044 64.3733 56.5849 66.941 53.6677 67.3409Z" fill="#619B82"/>
<path d="M79.7337 64.7876C79.7337 64.7876 81.6799 58.283 88.1788 52.8799" stroke="#619B82" stroke-width="0.2287" stroke-miterlimit="10"/>
<path d="M84.4036 57.103C85.0446 55.081 85.2235 54.617 84.0488 51.5634C82.8742 48.5099 83.2037 44.0661 86.9567 40.7893C90.7097 37.5126 94.1633 37.8838 94.9983 34.9997C94.9983 34.9997 95.563 37.1235 97.9435 40.2787C100.324 43.434 99.9642 48.6738 96.5237 52.2164C92.9938 55.9911 88.8559 54.5241 86.5629 55.4486C85.6546 56.0108 84.4036 57.103 84.4036 57.103Z" fill="#619B82"/>
<path d="M84.4011 57.0859C84.4011 57.0859 91.6978 52.2038 93.5059 47.1782C95.0299 43.2438 95.3899 40.1674 94.946 34.8726" stroke="#5A9075" stroke-width="0.2287" stroke-miterlimit="10"/>
<path d="M89.4004 52.9623C89.4004 52.9623 85.3783 51.2944 83.256 44.7676" stroke="#5A9075" stroke-width="0.2287" stroke-miterlimit="10"/>
<path d="M89.1303 52.9129C90.3405 53.0094 91.7894 53.205 92.9996 53.3016C94.2098 53.3981 95.3462 53.3287 96.6474 53.1924C97.9485 53.0561 98.8633 52.4889 99.5566 51.4238" stroke="#5A9075" stroke-width="0.2287" stroke-miterlimit="10"/>
<path d="M92.0913 49.6646C88.6743 47.1788 86.6975 43.129 85.6853 39.072" stroke="#5A9075" stroke-width="0.2287" stroke-miterlimit="10"/>
<path d="M94.5842 45.0704C93.0858 42.9704 92.0818 40.6647 91.1711 38.1257C90.8842 37.4669 90.7623 36.7395 90.97 35.875" stroke="#5A9075" stroke-width="0.2287" stroke-miterlimit="10"/>
<path d="M91.8953 49.8043C95.0297 50.2883 98.3648 49.9072 101.332 48.697C101.662 48.5626 101.992 48.4281 102.248 48.1278" stroke="#5A9075" stroke-width="0.2287" stroke-miterlimit="10"/>
<path d="M94.2988 44.9227C94.3721 45.0885 94.537 45.021 94.7019 44.9536C95.7646 44.7147 97.7799 44.8689 98.861 44.231C99.7771 43.6606 100.95 42.7896 101.17 41.5254" stroke="#5A9075" stroke-width="0.2287" stroke-miterlimit="10"/>
<path d="M95.5832 40.5156C96.0761 40.3176 96.0761 40.3176 96.4945 39.9539C97.0772 39.5242 97.5111 38.763 97.7806 38.0678C98.0501 37.3726 98.2452 36.5116 98.5147 35.8164" stroke="#5A9075" stroke-width="0.2287" stroke-miterlimit="10"/>
<path d="M95.5172 40.3835C94.3393 38.1455 93.6533 35.7051 93.5316 33.2271" stroke="#5A9075" stroke-width="0.2287" stroke-miterlimit="10"/>
<path d="M82.9341 60.034C82.9341 60.034 83.1895 57.5877 83.6666 55.6375C84.1436 53.6873 83.1863 49.3886 75.8356 48.4563C75.8356 48.4563 75.8633 49.8119 75.9218 50.374C75.891 51.1674 75.0108 55.2331 77.4241 57.1858C79.8374 59.1386 81.4842 58.0821 82.9341 60.034Z" fill="#619B82"/>
<path d="M95.5859 62.1468C95.5859 62.1468 93.9635 60.252 92.8176 58.5572C91.6718 56.8624 87.7257 54.5325 82.3737 59.4375C82.3737 59.4375 83.3117 60.2357 83.937 60.7678C84.5623 61.2999 87.0922 64.7896 90.0125 64.3957C92.7688 64.0679 93.247 62.11 95.5859 62.1468Z" fill="#619B82"/>
<path d="M114.07 112.015C114.07 112.015 119.585 112.717 124.799 117.072" stroke="#619B82" stroke-width="0.2287" stroke-miterlimit="10"/>
<path d="M121.125 114.438C122.167 114.605 122.405 114.705 123.73 113.779C125.13 113.019 127.154 112.79 129.193 114.32C131.232 115.849 131.409 117.541 133.017 117.676C133.017 117.676 132.034 118.073 130.932 119.497C129.592 120.821 127.166 121.015 125.038 119.718C122.91 118.421 122.985 116.431 122.301 115.335C121.75 114.969 121.125 114.438 121.125 114.438Z" fill="#619B82"/>
<path d="M118.574 113.671C118.574 113.671 120.438 113.507 122.048 113.642C123.658 113.776 126.939 112.45 126.112 106.7C126.112 106.7 125.053 106.932 124.651 106.898C124.084 106.931 120.536 106.794 119.49 108.787C118.682 110.88 119.679 112.243 118.574 113.671Z" fill="#619B82"/>
<path d="M119.068 123.871C119.068 123.871 120.167 122.451 121.34 121.196C122.424 120.172 123.436 116.833 118.589 113.32C118.589 113.32 118.232 114.246 117.816 114.609C117.474 115.138 115.291 117.583 116.09 119.8C117.052 121.951 118.654 122.085 119.068 123.871Z" fill="#619B82"/>
<path d="M84.495 67.6773C85.2069 67.9769 85.6662 68.5755 85.9622 69.2405C87.3248 71.435 88.1976 73.8286 88.5806 76.4212C88.5653 76.82 88.7133 77.1525 88.624 77.3851C88.4455 77.8502 88.1036 78.3817 87.8511 78.6806C86.9301 79.6437 85.7719 80.5068 84.7769 81.3037C83.8713 81.8679 82.8023 82.4986 81.6746 82.5641C80.7102 82.5634 79.761 82.1638 78.9012 81.5316C78.0413 80.8995 77.508 80.1347 76.9007 79.2036C76.0561 78.1727 75.1375 76.9755 74.2929 75.9445C73.9076 75.5122 73.4483 74.9136 73.2263 74.4149C72.2642 72.2539 74.0168 70.5603 75.8129 69.8306C77.4457 69.1672 79.0045 68.3376 80.9486 67.9403C82.0916 67.4759 83.4719 67.1114 84.495 67.6773Z" fill="#E0725C"/>
<path d="M59.9808 71.0389C60.501 70.047 61.333 69.3204 62.2392 68.7594C63.4721 68.0666 64.7491 68.3337 66.1896 68.5349C67.63 68.7361 73.0348 70.4668 74.2076 71.3625C74.7569 71.7276 75.3803 72.2582 75.677 72.9207C76.2113 73.6829 76.1662 74.8742 76.2102 75.8341C76.0308 78.4483 75.4504 81.0287 74.3948 83.4097C73.5177 85.3277 71.957 88.3035 69.3287 87.6037C68.4526 87.3704 67.755 86.6742 67.1466 85.7464C66.1522 84.3877 65.4847 82.8971 64.3269 81.6043C63.941 81.1734 63.3917 80.8083 62.9317 80.2118C61.6105 78.9848 60.4528 77.692 59.8745 75.97C59.2961 74.248 59.2821 72.4939 59.9808 71.0389Z" fill="#DE5E52"/>
<path d="M73.857 70.9752C75.9439 71.3102 78.0176 69.8841 79.4351 68.7231C81.1807 67.4296 82.9109 66.5347 84.8053 65.5736C85.7153 65.01 86.8637 64.5463 87.3864 63.5502C87.4761 63.3177 87.7299 63.019 87.5811 62.6866C87.6708 62.4541 87.522 62.1217 87.2092 61.8555C86.6733 61.0906 85.6452 60.5244 84.6914 60.1244C83.0223 59.4245 81.3533 58.7246 79.6098 57.8584C78.8201 57.3922 77.9408 57.1585 76.9717 57.1572C75.6745 57.2885 74.9877 58.3508 74.0624 59.3131C72.5553 60.7067 70.7353 61.834 69.8538 63.7599C69.4054 64.9223 69.4338 66.2846 69.7904 67.5144C70.847 69.4429 72.247 70.8402 73.857 70.9752Z" fill="#E0725C"/>
<path d="M69.2139 72.4249C70.3484 72.36 71.4828 72.2951 72.5429 72.0645C73.603 71.8339 74.2013 71.0064 74.9483 70.5103C75.9495 69.7164 77.0995 69.254 78.1751 68.6259C79.415 67.9316 80.7448 67.0056 81.2842 65.6148C81.929 63.5947 80.5156 60.4457 78.2777 59.7804C77.1587 59.4478 76.1886 59.4466 75.144 59.2797C72.4876 58.9783 69.7568 58.5112 67.2058 57.5805C67.2058 57.5805 66.9672 57.4808 66.8029 57.5469C66.6386 57.6129 66.6386 57.6129 66.5487 57.8447C65.6807 59.3676 64.8872 61.0563 63.3931 62.0483C62.6461 62.5444 61.6604 62.9407 60.9877 63.6025C60.2407 64.0985 59.8067 64.86 59.6114 65.7211C59.3572 66.019 59.2518 66.6483 59.2363 67.0458C59.2952 67.6091 59.757 68.206 59.9058 68.5374C60.5164 69.4658 61.2912 70.3281 62.2304 71.1244C63.6469 72.12 65.3176 72.8177 67.0937 72.8861C67.9151 72.5558 68.6466 72.4573 69.2139 72.4249Z" fill="#E9715D"/>
<path d="M61.6294 64.5696C62.0642 63.8071 62.7377 63.1442 63.1725 62.3817C63.6073 61.6192 64.2808 60.9564 64.3124 60.1605C64.4183 59.5305 64.2854 58.8008 64.2269 58.237C64.1526 58.0712 64.0782 57.9053 64.1684 57.6732C64.2585 57.4411 64.2585 57.4411 64.3486 57.2091C64.9478 56.3803 65.4569 55.7837 66.2948 55.0546C66.4592 54.9883 66.4592 54.9883 66.6237 54.9221C66.7881 54.8559 66.8624 55.0217 67.0269 54.9555C67.5044 55.1547 68.0562 55.5198 68.4436 55.9511C68.5922 56.2828 68.6666 56.4487 68.9796 56.7142C69.59 57.643 70.3648 58.5057 71.1396 59.3683C71.9144 60.231 72.5991 61.3257 73.6284 61.89C75.2096 62.8194 77.4058 62.5222 79.0501 61.8598C79.5434 61.6611 80.0367 61.4624 80.6043 61.4296C81.4107 61.4963 82.2756 62.1269 82.6472 62.9561C83.0188 63.7854 83.226 64.6809 83.1944 65.4768C83.1628 66.2727 83.2056 67.2344 83.7574 67.5995C84.4467 66.5387 84.9874 65.1461 85.1992 63.8861C85.3051 63.2561 85.411 62.626 85.188 62.1285C85.0552 61.3988 84.8322 60.9013 84.3705 60.3041C82.3907 57.1858 79.0054 54.8294 75.5728 53.6668C74.4533 53.3346 73.3338 53.0024 72.1243 52.9022C69.9439 52.8015 67.5675 53.563 65.6687 54.5236C62.4543 56.0142 59.1499 57.7368 56.859 60.4217C54.5681 63.1066 53.052 66.6541 53.8807 70.2361C53.5519 70.3686 54.6825 72.4584 54.8311 72.7901C55.277 73.7852 55.8289 74.1503 56.6194 74.615C56.9325 74.8805 57.2456 75.146 57.7231 75.3452C58.9169 75.8433 60.5296 75.9768 61.6806 75.5132C63.5637 74.9504 63.4625 73.4249 61.9714 72.2634C61.7327 72.1638 61.6583 71.9979 61.3453 71.7325C60.9579 71.3012 60.8993 70.7374 60.6764 70.2398C60.1403 69.4768 59.5142 68.9459 59.5457 68.15C59.6674 67.122 60.2666 66.2933 60.8658 65.4646C61.4492 65.0338 61.5393 64.8017 61.6294 64.5696Z" fill="#F0A5B7"/>
<path d="M78.525 62.3163C77.6308 62.4796 76.975 62.7426 76.2297 63.2368C75.6484 63.6653 75.2309 64.028 74.6496 64.4565C74.1426 65.0504 73.6357 65.6443 73.2927 66.1724C70.7719 70.8938 75.6263 76.9534 80.5877 78.088C82.1074 78.4549 83.6422 78.4252 85.2665 78.1643C85.9967 78.0667 86.7269 77.9691 87.2339 77.3752C87.6513 77.0125 87.9943 76.4844 88.2629 75.7908C88.4419 75.3284 88.6954 75.0314 88.7105 74.6348C88.7408 73.8416 88.6071 73.1141 88.6373 72.3208C88.757 71.2963 88.7872 70.5031 88.907 69.4786C88.9221 69.082 89.0268 68.4542 89.0419 68.0575C88.8489 66.768 87.7617 65.6418 86.749 64.681C86.049 63.9853 85.349 63.2896 84.6491 62.5939C83.9491 61.8983 83.234 61.5992 82.4294 61.5314C81.7887 61.3978 81.2074 61.8262 80.6411 61.8581C79.9109 61.9557 79.1807 62.0532 78.525 62.3163Z" fill="#DE5E52"/>
<path d="M81.131 60.6097C81.77 60.7425 82.3935 61.2713 82.8534 61.8659C83.7732 63.0552 84.6189 64.0793 85.7023 65.2027C86.0882 65.6322 86.6376 65.9959 87.0975 66.5905C87.7056 67.5153 87.8229 68.6375 87.8661 69.5946C87.9093 70.5517 87.6254 71.6403 87.7427 72.7625C87.7859 73.7196 87.9927 74.6109 87.7242 75.3036C87.5451 75.7653 87.1285 76.1278 86.6377 76.3252C86.0574 76.7535 85.5667 76.9508 84.9123 77.214C84.5851 77.3456 84.258 77.4772 84.1684 77.7081C84.0789 77.939 84.2271 78.2692 84.4648 78.3685C84.7024 78.4678 84.9401 78.5671 85.2673 78.4355C85.9957 78.3374 86.7396 77.8434 87.3199 77.4151C88.0637 76.921 88.8076 76.427 89.4033 75.6027C89.999 74.7785 90.4465 73.624 90.5669 72.6011C90.6873 71.5783 90.57 70.4561 90.4527 69.3339C90.3354 68.2117 90.144 66.9244 89.8631 65.868C89.5081 64.6465 89.0636 63.6559 88.2179 62.6318C87.4462 61.7728 86.6591 61.3098 85.6344 60.7475C84.6096 60.1851 83.2577 59.7544 82.0385 60.0498" fill="#F0A5B7"/>
<path d="M70.9944 71.8966C72.3517 70.1802 74.7371 69.0281 77.0621 69.463C78.3438 69.7303 79.4463 70.46 80.4594 71.421C81.4724 72.3821 82.3214 73.4088 83.0065 74.5014C84.0044 75.8591 85.1663 77.1511 84.6138 78.9353C84.2556 79.8603 83.5845 80.5201 82.9134 81.18C82.2423 81.8398 81.4968 82.3341 80.8257 82.9939C80.4082 83.3567 80.0651 83.885 79.7964 84.5787C79.6173 85.0412 79.8255 85.9344 78.9462 85.7011C78.5438 85.6671 78.3054 85.5674 77.903 85.5335C76.8597 85.3659 75.8013 85.5951 74.6685 85.6588C73.5357 85.7224 72.4029 85.7861 71.3748 85.2218C70.5106 84.5918 69.9 83.6647 69.2894 82.7376C68.9917 82.0757 68.8579 81.348 68.7242 80.6203C68.4567 79.165 68.4427 77.4126 68.816 76.0909C69.3534 74.7034 69.9803 73.0847 70.9944 71.8966Z" fill="#E9715D"/>
<path d="M82.8663 77.7897C82.1771 78.8502 81.2647 79.4132 80.5755 80.4737C79.8118 81.3683 79.3614 82.5285 79.1499 83.7884C79.1342 84.1863 79.0284 84.8162 78.6094 85.1806C78.1904 85.545 77.4739 85.246 77.0706 85.2125C76.1896 84.9797 75.2186 84.9789 74.5607 85.2437C73.3351 85.5411 72.1682 86.4023 70.8682 86.5339C71.479 87.4628 72.5244 87.6294 73.5698 87.7961C74.9442 87.8303 76.3186 87.8646 77.5442 87.5672C78.2764 87.4683 78.7698 87.2697 79.502 87.1708C81.7144 86.4763 83.5548 84.9525 85.0076 82.9973C86.0258 81.8044 86.8051 80.5119 86.7034 78.9865C86.5704 78.2569 86.4373 77.5273 86.1398 76.8639C85.991 76.5322 85.7679 76.0346 85.4547 75.7691C85.1415 75.5036 84.7538 75.0722 84.4406 74.8067C84.2018 74.707 83.8142 74.2756 83.5597 74.5738C83.4696 74.8059 83.6927 75.3034 83.677 75.7013C83.6613 76.0992 83.6456 76.4971 83.5555 76.7291C83.3754 77.1932 83.1208 77.4914 82.8663 77.7897Z" fill="#F0A5B7"/>
<path d="M72.4994 66.6866C71.9357 66.7194 71.2828 66.9847 70.867 67.3498C70.1248 67.8476 69.3826 68.3454 68.8777 68.9431C67.9417 70.3046 67.8524 70.5371 68.4291 72.2653C68.873 73.2625 69.3169 74.2596 70.0133 74.9579C70.7097 75.6562 71.7326 76.2218 72.8599 76.1563C78.3336 75.8948 78.3149 65.8938 72.4994 66.6866Z" fill="#DE5E52"/>
<path d="M74.331 71.9012C73.7953 71.1369 72.7679 70.571 71.8891 70.3372C71.0104 70.1035 70.1316 69.8698 69.2377 70.0344C68.5077 70.1328 67.852 70.3973 67.3603 70.5958C65.7211 71.2571 64.0668 72.3168 63.4399 73.9424C62.8283 75.1697 62.8419 76.9291 63.6007 78.1917C64.3595 79.4543 65.6101 80.5185 67.0549 80.7199C67.6954 80.8537 68.2615 80.8214 68.7532 80.623C69.4089 80.3584 69.8263 79.9939 70.3332 79.3972C71.6749 78.0715 72.9422 76.5796 74.2839 75.2539C75.2082 74.2927 75.3281 73.2638 74.331 71.9012Z" fill="#F3887B"/>
<path d="M69.8395 70.0477C69.8395 70.0477 65.1274 70.7733 63.6329 73.9285C62.0641 76.9175 63.8511 78.7473 63.8511 78.7473C63.8511 78.7473 65.3585 77.3533 65.2122 74.8608C65.066 72.3683 69.3755 71.609 69.8395 70.0477Z" fill="#F0A5B7"/>
<path d="M67.7752 79.3633C67.4626 79.0973 67.3139 78.7653 67.0014 78.4994C65.082 75.9416 69.3715 73.4278 71.263 72.4691C71.5906 72.337 71.7544 72.2709 72.0821 72.1388C73.2137 72.0745 74.6869 73.6363 75.3864 74.3342C76.324 75.132 77.5742 76.1958 77.6927 77.3239C77.7961 78.8501 76.1428 79.9088 75.0704 80.5372C73.6704 81.2978 72.5237 81.7602 70.9308 81.2266C69.6504 80.9589 68.549 80.2272 67.7752 79.3633Z" fill="#F0A5B7"/>
<path d="M67.3152 78.7617C67.0019 78.4969 66.8529 78.1663 66.5395 77.9014C64.6154 75.3541 68.9201 72.8518 70.8182 71.8975C71.147 71.766 71.3114 71.7002 71.6401 71.5687C72.7754 71.5048 74.2525 73.0602 74.9538 73.7552C75.8939 74.5498 77.1474 75.6093 77.2657 76.7327C77.3686 78.2524 75.7093 79.3063 74.6332 79.9319C73.2282 80.689 72.0775 81.1492 70.4798 80.6176C69.121 80.1856 68.091 79.6221 67.3152 78.7617Z" fill="#EE7A6F"/>
<path d="M76.0136 70.2051C75.6276 69.7741 74.6923 68.9781 75.361 68.3173C75.6137 68.0199 75.8512 68.1196 76.1781 67.9878C77.0693 67.8239 78.1982 67.7597 79.0894 67.5958C79.6538 67.5637 80.144 67.3659 80.6192 67.5654C81.2578 67.6989 81.7179 68.2955 82.2673 68.6606C82.6532 69.0916 83.1134 69.6882 83.1725 70.251C83.5434 71.0791 83.3649 71.5422 82.9338 72.3027C82.5027 73.0632 82.0716 73.8237 81.8781 74.6839C81.5211 75.61 81.4018 76.6359 81.0448 77.562C80.6879 78.4882 79.8558 79.2149 78.8162 79.0475C78.1776 78.914 77.5541 78.3833 77.1681 77.9523C76.7822 77.5213 76.3221 76.9247 76.2629 76.3619C75.8329 74.971 76.9327 73.5497 77.0671 72.1267C76.8596 71.2327 76.4737 70.8017 76.0136 70.2051Z" fill="#F3887B"/>
<path d="M77.2347 68.5242C77.9626 68.4262 78.5271 68.3941 79.3292 68.4618C80.3689 68.6292 81.2302 69.2596 81.6011 70.0878C81.9721 70.9161 82.0904 72.0417 81.6592 72.8023C81.4066 73.0998 81.3915 73.497 81.1388 73.7944C80.8561 74.8863 81.212 76.1117 80.6916 77.1038C80.4239 77.7985 80.0078 78.1618 79.354 78.4255C78.7003 78.6891 78.1358 78.7212 77.423 78.422C77.6455 78.9189 78.1208 79.1184 78.596 79.3179C79.0713 79.5173 79.5616 79.3196 79.9777 78.9562C80.7948 78.6267 81.3744 78.1974 82.1173 77.7022C82.8603 77.207 83.5291 76.5462 84.1978 75.8854C84.7032 75.2904 85.1343 74.5299 85.4021 73.8352C85.5805 73.3721 85.9224 72.8431 86.0267 72.2143C86.0568 71.42 86.0869 70.6256 85.716 69.7974C85.345 68.9691 84.8848 68.3725 84.5139 67.5443C84.0537 66.9476 83.5935 66.3509 83.1333 65.7543C82.7473 65.3232 82.1086 65.1897 81.5592 64.8246C81.0839 64.6251 80.5345 64.26 79.97 64.2921C79.4055 64.3242 79.0044 64.2903 78.5142 64.4881C77.8604 64.7517 77.0433 65.0812 76.5379 65.6762C76.1218 66.0395 75.5273 66.866 75.5864 67.4288C75.7047 68.5545 76.6702 68.5563 77.2347 68.5242Z" fill="#F0A5B7"/>
<path d="M74.1968 75.852L75.6639 79.5597L68.0037 82.2597L64.7922 67.3339L74.334 70.1288L74.1968 75.852Z" fill="#E8644D"/>
<path d="M74.1963 75.7809C73.3781 76.1107 71.1916 76.4047 71.1181 74.0849C71.0446 71.7651 72.205 70.9058 73.5733 70.9416C74.9416 70.9774 77.3795 74.6935 74.1963 75.7809Z" fill="#DA5941"/>
<path d="M74.2023 75.6758C75.3617 74.8171 75.7196 71.7383 72.5551 70.2755C69.3906 68.8126 80.1937 68.3694 80.1937 68.3694L79.4471 77.4737L74.2023 75.6758Z" fill="#ED7163"/>
<path d="M106.824 110.252C106.957 110.979 107.016 111.542 107.149 112.27C107.208 112.832 106.867 113.361 106.762 113.989C106.495 114.683 106.301 115.543 106.197 116.171C106.003 117.031 105.646 117.957 104.904 118.452C103.909 119.244 101.758 118.745 101.077 117.652C100.617 117.056 100.558 116.493 100.262 115.831C99.7584 114.276 98.9286 112.852 97.9354 111.495L97.8614 111.329L97.9506 111.098C98.782 110.371 99.6135 109.645 99.8962 108.554C100.075 108.091 100.179 107.463 100.357 107C100.536 106.537 100.952 106.174 101.367 105.811C101.531 105.745 101.783 105.448 101.946 105.382C102.273 105.25 102.584 105.515 102.985 105.549C103.623 105.682 104.171 106.047 104.794 106.577C105.654 107.207 106.262 108.134 106.543 109.193C106.617 109.358 106.676 109.921 106.824 110.252Z" fill="#E9715D"/>
<path d="M102.034 108.648C101.618 109.012 101.44 109.475 101.024 109.838C100.608 110.202 100.429 110.665 99.9388 110.862C99.6119 110.994 99.285 111.126 98.884 111.092C98.7205 111.158 98.7206 111.158 98.5571 111.224C98.3937 111.29 98.3937 111.29 98.3044 111.522C97.8883 111.885 97.5464 112.414 97.3679 112.877L97.2787 113.109L97.3529 113.274C97.6647 113.54 97.8131 113.871 98.2142 113.905C98.4518 114.005 98.4518 114.005 98.6894 114.104C99.3281 114.238 99.8775 114.603 100.59 114.902C101.303 115.201 102.016 115.501 102.402 115.932C103.174 116.794 103.293 117.919 103.247 119.111C103.232 119.508 103.143 119.74 103.291 120.071C103.514 120.568 103.9 120.999 104.465 120.967C105.029 120.935 105.43 120.969 105.995 120.937C106.485 120.739 107.049 120.707 107.361 120.972C106.856 121.567 106.113 122.062 105.459 122.326C105.132 122.458 104.805 122.59 104.404 122.556C104.003 122.522 103.602 122.488 103.201 122.454C100.973 121.788 99.2658 120.13 98.0486 118.274C97.5884 117.677 97.2916 117.015 97.0691 116.518C96.639 115.127 96.8476 113.869 96.9819 112.446C97.3841 110.328 97.7861 108.21 98.9753 106.557C100.165 104.904 101.992 103.385 104.087 103.323C104.176 103.091 105.528 103.524 105.691 103.458C106.33 103.591 106.642 103.857 107.028 104.288C107.265 104.388 107.339 104.553 107.651 104.819C108.111 105.415 108.482 106.244 108.452 107.038C108.407 108.23 107.516 108.393 106.655 107.763C106.58 107.597 106.417 107.663 106.343 107.498C106.105 107.398 105.704 107.364 105.303 107.33C104.828 107.131 104.516 106.865 103.788 106.963C103.134 107.227 102.792 107.756 102.45 108.285C102.124 108.417 102.124 108.417 102.034 108.648Z" fill="#F0A5B7"/>
<path d="M113.116 110.141C112.937 110.604 112.758 111.068 112.342 111.431C112.089 111.729 111.836 112.026 111.509 112.158C111.256 112.456 110.765 112.654 110.438 112.786C107.256 113.873 104.075 110.653 103.868 107.605C103.824 106.644 104.017 105.783 104.211 104.922C104.39 104.459 104.405 104.062 104.895 103.864C105.148 103.566 105.475 103.434 105.877 103.468C106.041 103.402 106.368 103.27 106.606 103.37C107.007 103.404 107.483 103.604 108.048 103.572C108.613 103.54 109.252 103.673 109.817 103.641C110.055 103.741 110.382 103.609 110.62 103.709C111.497 103.943 112.032 104.706 112.493 105.303C112.879 105.734 113.102 106.232 113.489 106.663C113.875 107.094 113.86 107.492 113.919 108.055C113.904 108.453 113.651 108.75 113.562 108.982C113.309 109.28 113.131 109.743 113.116 110.141Z" fill="#DE5E52"/>
<path d="M113.67 109.15C113.685 108.752 113.298 108.321 112.986 108.055C112.361 107.523 111.662 106.825 111.201 106.228C111.052 105.896 110.739 105.63 110.427 105.364C110.04 104.932 109.4 104.798 108.596 104.73C107.956 104.597 107.391 104.629 106.751 104.495C106.274 104.295 105.634 104.161 105.143 104.359C104.816 104.491 104.726 104.723 104.399 104.855C104.145 105.153 103.892 105.451 103.877 105.849C103.788 106.081 103.624 106.147 103.46 106.213C103.296 106.279 103.222 106.113 103.148 105.947C103.073 105.781 103.163 105.549 103.163 105.549C103.342 105.085 103.595 104.787 104.012 104.423C104.429 104.059 104.771 103.529 105.263 103.331C105.918 103.067 106.409 102.869 107.213 102.937C108.017 103.005 108.493 103.205 109.133 103.339C109.773 103.472 110.487 103.772 111.127 103.906C111.767 104.04 112.392 104.572 112.853 105.169C113.24 105.601 113.537 106.265 113.761 106.763C114.058 107.427 114.192 108.156 113.923 108.852" fill="#F0A5B7"/>
<path d="M109.179 117.131C108.703 116.931 108.227 116.731 107.915 116.465C107.602 116.2 107.29 115.934 106.978 115.668C106.665 115.402 106.442 114.904 106.294 114.573C104.717 111.486 107.903 108.243 110.656 107.917C111.549 107.753 112.591 107.921 113.469 108.154C113.871 108.188 114.347 108.388 114.659 108.654C114.972 108.92 115.12 109.251 115.269 109.583C115.418 109.915 115.492 110.081 115.403 110.313C115.388 110.711 115.283 111.341 115.432 111.672C115.491 112.236 115.55 112.8 115.61 113.364C115.595 113.761 115.669 113.927 115.58 114.159C115.386 115.021 114.805 115.451 114.135 116.113C113.719 116.476 113.302 116.84 112.885 117.204C112.468 117.568 112.141 117.7 111.575 117.732C111.173 117.698 110.861 117.433 110.459 117.399C110.057 117.365 109.581 117.165 109.179 117.131Z" fill="#DE5E52"/>
<path d="M110.206 117.656C110.608 117.69 111.024 117.326 111.277 117.029C111.782 116.434 112.451 115.773 112.957 115.178C113.209 114.88 113.536 114.748 113.789 114.451C114.131 113.922 114.235 113.293 114.34 112.664C114.28 112.101 114.31 111.306 114.251 110.743C114.355 110.114 114.534 109.651 114.311 109.154C114.163 108.822 113.925 108.723 113.613 108.457C113.301 108.192 112.989 107.926 112.588 107.892C112.35 107.793 112.276 107.627 112.276 107.627C112.202 107.461 112.365 107.395 112.529 107.329C112.692 107.263 112.856 107.197 112.93 107.363C113.405 107.563 113.717 107.828 114.193 108.028C114.742 108.393 115.129 108.824 115.515 109.255C115.975 109.852 116.034 110.415 116.168 111.144C116.227 111.707 116.197 112.502 116.093 113.131C115.989 113.76 115.959 114.554 115.691 115.249C115.423 115.944 115.081 116.473 114.576 117.068C114.159 117.432 113.505 117.695 113.015 117.893C112.361 118.157 111.633 118.255 110.994 118.121" fill="#F0A5B7"/>
<path d="M106.139 112.332C104.516 112.595 103.026 113.587 102.49 114.98C102.221 115.676 102.266 116.638 102.399 117.368C102.533 118.098 102.905 118.928 103.202 119.592C103.648 120.588 104.02 121.418 105.3 121.686C105.941 121.82 106.596 121.555 107.325 121.457C107.981 121.193 108.472 120.995 109.202 120.896C109.529 120.764 110.095 120.732 110.497 120.766C110.899 120.8 111.212 121.066 111.555 120.536C111.644 120.304 111.734 120.072 111.897 120.006C112.166 119.309 112.747 118.879 113.253 118.283C113.76 117.687 114.102 117.156 114.133 116.36C114.237 115.73 113.776 115.132 113.389 114.7C113.002 114.268 112.764 114.168 112.377 113.736C111.588 113.271 110.561 112.705 109.683 112.471C108.402 112.203 107.271 112.268 106.139 112.332Z" fill="#E9715D"/>
<path d="M105.247 120.489C105.979 120.388 106.801 120.054 107.533 119.953C108.43 119.785 109.236 119.851 109.952 120.15C110.19 120.25 110.668 120.449 110.997 120.315C111.326 120.182 111.342 119.781 111.597 119.481C111.778 119.014 112.123 118.48 112.543 118.113C113.217 117.445 114.039 117.111 114.714 116.443C114.936 116.943 114.665 117.644 114.393 118.344C113.958 119.111 113.448 119.712 112.773 120.38C112.519 120.68 112.264 120.981 111.844 121.348C110.586 122.45 109.031 122.885 107.403 123.154C106.341 123.388 105.206 123.456 104.416 122.991C103.939 122.791 103.791 122.458 103.404 122.025C103.33 121.858 103.018 121.592 103.108 121.359C102.96 121.025 103.05 120.792 102.976 120.625C102.902 120.459 102.918 120.059 103.157 120.158C103.396 120.258 103.47 120.425 103.708 120.524C103.947 120.624 104.185 120.724 104.35 120.657C104.679 120.523 105.008 120.389 105.247 120.489Z" fill="#F0A5B7"/>
<path d="M112.164 112.647C112.149 113.046 112.045 113.677 111.955 113.91C111.687 114.608 111.345 115.14 111.003 115.672C110.008 116.469 109.919 116.701 108.642 116.434C107.841 116.367 107.129 116.068 106.343 115.601C105.72 115.069 105.023 114.37 105.053 113.572C104.331 109.349 111.784 107.892 112.164 112.647Z" fill="#F0A5B7"/>
<path d="M107.248 111.76C107.724 111.96 108.185 112.558 108.408 113.055C108.631 113.553 108.854 114.05 108.913 114.614C108.898 115.012 108.883 115.409 108.704 115.873C108.421 116.966 108.064 117.893 107.23 118.621C106.487 119.117 105.594 119.281 104.716 119.047C103.839 118.813 103.14 118.116 102.768 117.287C102.62 116.955 102.635 116.557 102.724 116.325C102.739 115.928 102.992 115.63 103.245 115.332C104.004 114.439 104.525 113.445 105.284 112.552C105.805 111.559 106.296 111.361 107.248 111.76Z" fill="#F3887B"/>
<path d="M108.902 114.185C108.902 114.185 108.957 116.913 107.284 118.375C105.701 119.604 104.359 118.772 104.359 118.772C104.359 118.772 105.047 117.708 106.509 117.509C107.972 117.311 107.916 114.583 108.902 114.185Z" fill="#F0A5B7"/>
<path d="M103.573 116.404C103.811 116.504 103.885 116.669 104.124 116.769C105.866 117.632 106.94 114.858 107.224 113.768C107.313 113.537 107.239 113.371 107.403 113.306C107.344 112.744 106.242 112.014 105.855 111.584C105.304 111.219 104.604 110.524 103.874 110.621C102.98 110.785 102.458 111.775 102.189 112.468C101.831 113.393 101.801 114.186 102.173 115.013C102.396 115.509 103.022 116.039 103.573 116.404Z" fill="#F0A5B7"/>
<path d="M104.038 116.586C104.277 116.685 104.351 116.85 104.59 116.95C106.337 117.81 107.416 115.044 107.701 113.957C107.791 113.727 107.716 113.562 107.881 113.496C107.822 112.936 106.717 112.208 106.329 111.779C105.777 111.415 105.075 110.722 104.343 110.819C103.447 110.982 102.923 111.97 102.653 112.661C102.293 113.583 102.262 114.374 102.635 115.199C102.858 115.694 103.485 116.222 104.038 116.586Z" fill="#EE7A6F"/>
<path d="M108.079 110.671C108.317 110.771 108.943 111.303 109.122 110.839C109.211 110.606 109.137 110.44 109.227 110.208C109.168 109.643 109.272 109.012 109.213 108.447C109.229 108.049 109.154 107.883 109.006 107.55C108.857 107.218 108.544 106.952 108.067 106.752C107.755 106.486 107.352 106.452 107.114 106.352C106.712 106.318 106.384 106.451 105.966 106.816C105.548 107.18 105.131 107.545 104.639 107.744C104.147 107.942 103.491 108.207 103.073 108.572C102.656 108.936 102.312 109.467 102.372 110.032C102.52 110.364 102.833 110.631 103.146 110.897C103.458 111.163 103.861 111.197 104.099 111.297C104.904 111.364 105.665 110.468 106.633 110.47C107.289 110.205 107.766 110.405 108.079 110.671Z" fill="#F3887B"/>
<path d="M108.865 109.767C108.88 109.368 108.895 108.97 108.747 108.637C108.523 108.139 108.062 107.541 107.421 107.407C106.781 107.273 106.215 107.306 105.797 107.67C105.633 107.736 105.544 107.969 105.216 108.101C104.634 108.532 103.919 108.232 103.338 108.663C103.01 108.795 102.756 109.094 102.577 109.558C102.398 110.023 102.547 110.355 102.695 110.687C102.457 110.587 102.144 110.321 102.07 110.155C101.921 109.823 102.011 109.591 102.026 109.192C102.205 108.728 102.384 108.263 102.564 107.798C102.743 107.334 103.086 106.803 103.504 106.438C103.757 106.14 104.175 105.775 104.592 105.411C104.92 105.278 105.174 104.98 105.501 104.847C105.993 104.649 106.396 104.683 107.036 104.816C107.677 104.95 107.915 105.05 108.392 105.25C108.868 105.45 109.345 105.65 109.658 105.916C109.97 106.182 110.119 106.514 110.432 106.78C110.581 107.113 110.893 107.379 110.968 107.545C111.116 107.877 111.027 108.109 111.011 108.508C110.996 108.906 110.817 109.371 110.638 109.836C110.384 110.134 109.967 110.499 109.639 110.631C109.073 110.663 109.014 110.099 108.865 109.767Z" fill="#F0A5B7"/>
<path d="M104.987 112.287L102.666 111.851L101.92 116.657L110.938 116.939L108.321 111.53L104.987 112.287Z" fill="#E8644D"/>
<path d="M105.078 112.236C105.51 111.474 107.222 110.98 108.367 112.673C109.512 114.366 108.785 108 108.785 108L103.413 109.382L105.078 112.236Z" fill="#ED7163"/>
<path d="M105.308 111.565C104.892 111.929 104.281 113.154 105.635 113.587C106.989 114.021 107.807 113.691 107.837 112.895C108.105 112.2 106.737 110.009 105.308 111.565Z" fill="#DA5941"/>
<path d="M44.015 59.0502C44.015 59.0502 43.5447 56.6953 46.9649 55.3043C49.245 54.377 53.7468 51.9585 53.6205 46.9176C53.657 41.8106 49.3421 37.2981 45.0674 35.9029C40.7927 34.5078 41.7422 32.7507 41.7422 32.7507C41.7422 32.7507 41.0849 37.3268 38.9216 39.3818C36.5954 41.503 34.2634 47.9353 38.7843 53.3433C43.1422 58.8176 44.015 59.0502 44.015 59.0502Z" fill="#619B82"/>
<path d="M43.9789 59.0234C43.788 53.8385 46.512 47.8585 45.5964 42.7732C44.7222 38.6456 43.7426 35.1456 41.6806 32.6703" stroke="#3F934E" stroke-width="0.1971" stroke-miterlimit="10"/>
<path d="M44.9833 55.5754C40.6333 54.0204 35.1774 49.9868 34.2072 46.0875" stroke="#3F934E" stroke-width="0.1971" stroke-miterlimit="10"/>
<path d="M45.9898 48.3285C37.946 44.9572 38.4237 43.0082 34.9263 38.1842" stroke="#3F934E" stroke-width="0.1971" stroke-miterlimit="10"/>
<path d="M45.0612 55.3481C47.3499 54.8005 49.4738 54.3207 51.3778 53.3411C53.2817 52.3616 54.9658 50.8825 55.6975 49.0081" stroke="#3F934E" stroke-width="0.1971" stroke-miterlimit="10"/>
<path d="M45.7118 48.0677C47.652 48.068 56.0589 46.0391 53.3852 40.0469" stroke="#3F934E" stroke-width="0.1971" stroke-miterlimit="10"/>
<path d="M45.8822 42.4053C48.6134 40.3257 50.9762 35.2691 46.7514 32.2867" stroke="#3F934E" stroke-width="0.1971" stroke-miterlimit="10"/>
<path d="M45.5937 42.4432C42.5985 40.9175 39.5767 35.8863 37.0543 36.7094" stroke="#3F934E" stroke-width="0.1971" stroke-miterlimit="10"/>
<path d="M56.4959 44.5178C57.3881 44.353 58.6229 43.6581 57.9714 41.7685C57.3199 39.8788 57.0976 39.3815 58.1688 38.7528C59.24 38.1241 61.0243 37.7943 61.0243 37.7943C61.0243 37.7943 59.8665 36.5007 57.4864 37.6585C57.4864 37.6585 57.6962 36.3993 58.113 36.0351C58.4556 35.5052 56.2699 35.8014 55.6867 38.3859C55.6867 38.3859 55.7483 36.7952 53.2662 36.4283C53.2662 36.4283 54.5289 37.0923 55.0322 38.6504C55.5355 40.2086 54.6125 41.1688 54.6558 42.13C54.2823 43.4553 55.2024 44.6492 56.4959 44.5178Z" fill="#619B82"/>
<path d="M60.7888 57.9065C60.7888 57.9065 55.7843 52.1907 56.1785 43.8523" stroke="#619B82" stroke-width="0.2287" stroke-miterlimit="10"/>
<path d="M57.8662 52.8774C57.2892 51.144 59.0633 49.0441 61.3248 48.9109C62.4556 48.8443 63.5551 49.5778 63.5551 49.5778C63.5551 49.5778 61.4457 47.8775 59.4377 47.7107C57.4296 47.5439 56.7863 49.5772 57.141 50.8106C57.4958 52.044 57.8662 52.8774 57.8662 52.8774Z" fill="#619B82"/>
<path d="M57.8336 52.9829C57.8336 52.9829 55.7619 50.4915 54.2351 50.5239C52.7083 50.5564 52.499 51.818 52.499 51.818C52.499 51.818 51.9541 49.2942 53.644 49.1954C55.3339 49.0967 57.8336 52.9829 57.8336 52.9829Z" fill="#619B82"/>
<path d="M24.9495 51.1345C27.9728 55.3849 37.1127 60.8438 42.8424 59.8563" stroke="#619B82" stroke-width="0.1824" stroke-miterlimit="10"/>
<path d="M3.24531 36.8766C3.24531 36.8766 6.02967 37.5091 9.83811 36.5493C13.6466 35.5894 20.2241 35.6604 22.8555 40.2757C25.65 44.8247 25.7595 52.4253 25.7595 52.4253C25.7595 52.4253 16.125 56.7332 10.7958 53.4105C4.53423 49.2906 5.8615 41.8901 3.24531 36.8766Z" fill="#619B82"/>
<path d="M25.9698 52.5249C25.9698 52.5249 17.8844 39.9582 2.62764 36.7696" stroke="#3B8A64" stroke-width="0.2287" stroke-miterlimit="10"/>
<path d="M11.7789 39.801C11.7789 39.801 11.0708 36.0013 8.06148 33.9326" stroke="#3B8A64" stroke-width="0.2287" stroke-miterlimit="10"/>
<path d="M11.8282 40.0154C11.8282 40.0154 6.14206 42.5588 4.25459 41.3584" stroke="#3B8A64" stroke-width="0.2287" stroke-miterlimit="10"/>
<path d="M15.4408 42.5782C15.4408 42.5782 8.38089 46.8851 4.90254 45.1578" stroke="#3B8A64" stroke-width="0.2287" stroke-miterlimit="10"/>
<path d="M19.9833 45.4947C17.1448 47.4684 12.456 51.0039 6.91596 50.3455" stroke="#3B8A64" stroke-width="0.2287" stroke-miterlimit="10"/>
<path d="M23.5292 49.2567C21.9548 50.1099 15.911 54.9996 9.32808 54.1802" stroke="#3B8A64" stroke-width="0.2287" stroke-miterlimit="10"/>
<path d="M23.5168 49.396C23.7257 48.1355 25.5362 44.8524 25.1546 42.2646" stroke="#3B8A64" stroke-width="0.2287" stroke-miterlimit="10"/>
<path d="M19.9947 45.6431C20.8695 43.722 22.2785 40.4098 20.7497 36.5344" stroke="#3B8A64" stroke-width="0.2287" stroke-miterlimit="10"/>
<path d="M15.6746 42.4185C15.4712 41.5255 17.1636 37.1234 15.0206 34.8764" stroke="#3B8A64" stroke-width="0.2287" stroke-miterlimit="10"/>
</svg>
