<svg width="104" height="99" viewBox="0 0 104 99" fill="none" xmlns="http://www.w3.org/2000/svg">
<path d="M70.2665 45.7417C70.6403 44.99 71.3577 44.5574 72.1482 44.3147C74.7686 43.0855 77.6081 42.4261 80.6665 42.3365C81.1347 42.405 81.5299 42.2837 81.8005 42.4129C82.3417 42.6715 82.9558 43.1199 83.2994 43.439C84.4032 44.5865 85.3823 45.9845 86.2884 47.1926C86.924 48.2714 87.6325 49.5402 87.6752 50.8011C87.645 51.872 87.1465 52.8743 86.3775 53.7474C85.6084 54.6205 84.6934 55.1138 83.5808 55.6677C82.3435 56.4722 80.9087 57.3374 79.6714 58.1419C79.1516 58.5139 78.4342 58.9464 77.8414 59.1284C75.2725 59.9171 73.3356 57.7515 72.5327 55.6624C71.8028 53.7632 70.8753 51.9247 70.4677 49.7142C69.9567 48.3848 69.5704 46.8048 70.2665 45.7417Z" fill="#E0725C"/>
<path d="M72.802 73.1742C71.6422 72.4626 70.8051 71.4386 70.166 70.354C69.3799 68.8875 69.7311 67.4994 70.0088 65.9204C70.2865 64.3414 72.4837 58.5463 73.5762 57.3579C74.0234 56.794 74.6686 56.1695 75.4609 55.9267C76.3777 55.4324 77.7866 55.6409 78.924 55.7192C82.0134 56.2664 85.0517 57.2562 87.841 58.749C90.0871 59.9815 93.5664 62.1166 92.6659 64.9535C92.3657 65.8991 91.5224 66.5843 90.4075 67.1394C88.7719 68.0674 86.9893 68.6136 85.4273 69.7325C84.9066 70.1054 84.4594 70.6693 83.7406 71.1029C82.252 72.4127 80.6899 73.5316 78.6358 73.9476C76.5816 74.3637 74.505 74.1463 72.802 73.1742Z" fill="#DE5E52"/>
<path d="M73.4646 58.5165C73.9132 56.2647 72.3069 53.7976 70.9915 52.0869C69.5306 49.998 68.5345 47.978 67.4656 45.7688C66.8332 44.6943 66.324 43.3706 65.1763 42.6656C64.9076 42.5366 64.5661 42.2185 64.1741 42.3387C63.9054 42.2098 63.5134 42.33 63.1941 42.6394C62.2869 43.1291 61.5978 44.1861 61.1048 45.183C60.242 46.9276 59.3792 48.6722 58.3203 50.477C57.7546 51.2848 57.4575 52.2216 57.4292 53.2873C57.5464 54.7313 58.7668 55.6255 59.864 56.7688C61.4481 58.6085 62.713 60.7575 64.9356 61.9785C66.2793 62.6234 67.8695 62.7698 69.3142 62.5381C71.5935 61.6275 73.2625 60.2698 73.4646 58.5165Z" fill="#E0725C"/>
<path d="M74.6375 63.7305C74.5931 62.4747 74.5486 61.2189 74.3079 60.0232C74.0672 58.8275 73.1144 58.0618 72.5541 57.1758C71.6519 55.9714 71.1422 54.6466 70.4362 53.3821C69.6574 51.9282 68.6096 50.3454 66.9953 49.5709C64.6467 48.5985 60.9184 49.7417 60.0767 52.1156C59.6559 53.3025 59.6276 54.3691 59.403 55.4958C58.9761 58.3773 58.3529 61.3189 57.1917 64.0023C57.1917 64.0023 57.0683 64.2517 57.1411 64.441C57.2139 64.6302 57.2139 64.6302 57.4829 64.7593C59.2429 65.9123 61.199 67.005 62.3197 68.7772C62.88 69.6633 63.3169 70.7987 64.0735 71.6246C64.6338 72.5107 65.5138 73.0872 66.5172 73.4142C66.859 73.7325 67.5933 73.9305 68.0586 73.9994C68.7201 74.0082 69.4322 73.5782 69.8247 73.4579C70.9292 72.9076 71.9609 72.1681 72.9198 71.2393C74.1256 69.8117 74.9894 68.0658 75.1189 66.1218C74.7548 65.1756 74.6598 64.3584 74.6375 63.7305Z" fill="#E9715D"/>
<path d="M65.1024 71.0763C64.2256 70.5012 63.4717 69.6771 62.5949 69.1019C61.7181 68.5267 60.9642 67.7027 60.037 67.5652C59.3053 67.3677 58.4506 67.419 57.7915 67.4103C57.5959 67.4703 57.4004 67.5303 57.1323 67.4016C56.8642 67.2728 56.8642 67.2728 56.5962 67.144C55.6468 66.38 54.9655 65.7448 54.1391 64.7319C54.0665 64.5431 54.0665 64.5431 53.9939 64.3543C53.9214 64.1654 54.1169 64.1054 54.0444 63.9166C54.2903 63.4189 54.7317 62.8611 55.2458 62.4922C55.6368 62.3721 55.8323 62.3121 56.1508 62.0032C57.2514 61.4541 58.2795 60.7163 59.3075 59.9784C60.3355 59.2405 61.6317 58.6315 62.3191 57.576C63.4479 55.9628 63.1638 53.5168 62.4382 51.6286C62.2205 51.0621 62.0028 50.4956 61.9807 49.8691C62.0815 48.9938 62.8414 48.1271 63.819 47.8269C64.7967 47.5267 65.8469 47.4154 66.7741 47.5529C67.7013 47.6904 68.8241 47.7679 69.2655 47.2101C68.0481 46.3173 66.4395 45.5446 64.9761 45.1495C64.2444 44.952 63.5127 44.7545 62.9262 44.9346C62.0715 44.9859 61.4849 45.166 60.7754 45.595C57.0825 47.3622 54.2382 50.7687 52.7848 54.3815C52.3655 55.5658 51.9462 56.75 51.795 58.0631C51.6155 60.4403 52.4358 63.1439 53.5021 65.3497C55.1488 69.0661 57.0636 72.9113 60.1295 75.7698C63.1953 78.6283 67.2891 80.7489 71.4899 80.3034C71.635 80.6811 74.1043 79.7118 74.4954 79.5917C75.6685 79.2315 76.11 78.6737 76.6744 77.8671C76.9929 77.5582 77.3114 77.2493 77.5573 76.7516C78.1722 75.5073 78.3738 73.7566 77.8659 72.4349C77.2632 70.2978 75.4813 70.2116 74.0844 71.696C73.9614 71.9449 73.7659 72.0049 73.4474 72.3138C72.9334 72.6827 72.2743 72.674 71.6877 72.8541C70.7826 73.3431 70.1456 73.9609 69.2184 73.8234C68.0231 73.5572 67.0737 72.7931 66.1243 72.0291C65.6385 71.3339 65.3705 71.2051 65.1024 71.0763Z" fill="#F0A5B7"/>
<path d="M63.705 51.8888C63.8746 52.9014 64.1682 53.663 64.7328 54.5547C65.2239 55.2559 65.6416 55.7668 66.1327 56.468C66.8213 57.1088 67.5099 57.7496 68.1251 58.2C73.6388 61.6219 80.9272 57.0496 82.398 51.703C82.8714 50.068 82.8765 48.3633 82.6107 46.5287C82.5145 45.7066 82.4183 44.8845 81.7297 44.2437C81.312 43.7328 80.6968 43.2824 79.8842 42.8925C79.3424 42.6325 78.9981 42.3121 78.5298 42.2425C77.5931 42.1034 76.7299 42.1547 75.7932 42.0156C74.5856 41.7465 73.649 41.6074 72.4414 41.3383C71.9731 41.2688 71.2338 41.0692 70.7655 40.9997C69.2364 41.0418 67.877 42.0966 66.715 43.0908C65.8745 43.7738 65.034 44.4568 64.1936 45.1398C63.3531 45.8228 62.981 46.5754 62.8797 47.4579C62.705 48.15 63.1961 48.8513 63.2189 49.483C63.3151 50.3051 63.4113 51.1272 63.705 51.8888Z" fill="#DE5E52"/>
<path d="M61.9072 48.9694C62.083 48.2714 62.7302 47.6435 63.4513 47.2077C64.8934 46.3361 66.1368 45.5254 67.5051 44.4617C68.0274 44.0868 68.4759 43.5199 69.1969 43.0841C70.3155 42.5264 71.6557 42.5448 72.7972 42.6241C73.9387 42.7035 75.228 43.1669 76.5682 43.1853C77.7097 43.2647 78.7773 43.152 79.5952 43.5453C80.1404 43.8075 80.5608 44.3226 80.7825 44.8987C81.2768 45.6059 81.4985 46.182 81.7941 46.9502C81.9418 47.3343 82.0896 47.7183 82.3622 47.8494C82.6349 47.9805 83.0324 47.8586 83.1572 47.6056C83.2821 47.3527 83.4069 47.0997 83.2591 46.7156C83.1623 45.8865 82.5941 44.9873 82.0998 44.2801C81.5316 43.3808 80.9634 42.4816 79.9978 41.7042C79.0321 40.9269 77.6689 40.2714 76.4535 40C75.2382 39.7287 73.8979 39.7103 72.5577 39.6919C71.2175 39.6734 69.6785 39.716 68.4122 39.8896C66.9471 40.1242 65.7547 40.4898 64.5112 41.3005C63.4666 42.0503 62.8933 42.8702 62.1952 43.9431C61.497 45.0159 60.9466 46.4729 61.2651 47.8781" fill="#F0A5B7"/>
<path d="M74.5528 61.041C72.5622 59.3105 71.2647 56.5171 71.8388 54.0016C72.1879 52.6186 73.0782 51.4953 74.2392 50.5019C75.4002 49.5085 76.6345 48.7053 77.9422 48.0924C79.5711 47.1685 81.1267 46.0543 83.2185 46.903C84.301 47.4225 85.0624 48.2531 85.8237 49.0836C86.585 49.9141 87.1491 50.805 87.9104 51.6355C88.3278 52.1459 88.9424 52.5959 89.7543 52.9855C90.2956 53.2452 91.3554 53.1336 91.0569 54.0757C91.0064 54.5166 90.8824 54.7673 90.8318 55.2082C90.6067 56.3406 90.8495 57.5425 90.8951 58.8048C90.9406 60.0671 90.9861 61.3293 90.2931 62.3922C89.5267 63.2649 88.4163 63.8174 87.3059 64.3699C86.5167 64.6115 85.6542 64.6627 84.7917 64.714C83.0667 64.8165 80.9977 64.5989 79.4472 64.0099C77.8233 63.2306 75.9288 62.3215 74.5528 61.041Z" fill="#E9715D"/>
<path d="M82.0612 48.5439C83.2779 49.4371 83.9088 50.5101 85.1256 51.4033C86.1471 52.3565 87.4865 53.001 88.9486 53.3967C89.4118 53.4657 90.1428 53.6635 90.5559 54.17C90.969 54.6766 90.601 55.4228 90.5509 55.8604C90.2555 56.7954 90.228 57.8593 90.5184 58.6146C90.8313 59.9963 91.8027 61.387 91.9204 62.8285C93.0195 62.2802 93.2423 61.1563 93.4651 60.0325C93.5428 58.531 93.6204 57.0295 93.3074 55.6478C93.2123 54.8326 92.9945 54.2662 92.8993 53.451C92.1507 50.9364 90.4258 48.7215 88.1875 46.8751C86.8255 45.6043 85.3409 44.5821 83.5608 44.4951C82.7071 44.546 81.8534 44.5968 81.0722 44.8365C80.6817 44.9564 80.0958 45.1361 79.7778 45.4448C79.4599 45.7535 78.9466 46.1221 78.6287 46.4307C78.506 46.6795 77.9928 47.048 78.3333 47.3657C78.6011 47.4946 79.187 47.3149 79.6502 47.3839C80.1133 47.4528 80.5765 47.5218 80.8444 47.6507C81.3802 47.9085 81.7207 48.2262 82.0612 48.5439Z" fill="#F0A5B7"/>
<path d="M68.2361 59.0305C68.2574 59.6613 68.5496 60.4214 68.9664 60.9308C69.5292 61.8202 70.0921 62.7096 70.7796 63.3483C72.3524 64.565 72.6231 64.6944 74.6733 64.2774C75.8596 63.9132 77.0458 63.549 77.8883 62.8654C78.7308 62.1818 79.4273 61.1182 79.3845 59.8566C79.2438 53.7389 67.4808 52.4641 68.2361 59.0305Z" fill="#DE5E52"/>
<path d="M74.2603 57.47C73.3505 57.9608 72.6594 59.0198 72.3613 59.9583C72.0633 60.8968 71.7653 61.8354 71.9333 62.8428C72.0284 63.6608 72.32 64.4185 72.5387 64.9868C73.2678 66.8812 74.4629 68.8445 76.3491 69.7487C77.7693 70.584 79.8298 70.7994 81.3293 70.1279C82.8288 69.4564 84.1096 68.2166 84.3854 66.6495C84.5598 65.9607 84.5377 65.3321 84.3189 64.7638C84.0273 64.0061 83.612 63.498 82.9273 62.8608C81.412 61.2075 79.7002 59.6144 78.1849 57.9611C77.0849 56.8158 75.8835 56.5488 74.2603 57.47Z" fill="#F3887B"/>
<path d="M71.8397 62.2302C71.8397 62.2302 72.5539 67.5063 76.192 69.5603C79.6341 71.6744 81.8183 69.9474 81.8183 69.9474C81.8183 69.9474 80.2348 68.1084 77.3236 67.9449C74.4125 67.7814 73.6477 62.9435 71.8397 62.2302Z" fill="#F0A5B7"/>
<path d="M83.0149 65.6025C82.6943 65.9128 82.3006 66.0335 81.9799 66.3438C78.9257 68.128 76.0933 63.0581 75.02 60.8423C74.8739 60.4629 74.8009 60.2732 74.6548 59.8939C74.6103 58.6351 76.4834 57.2129 77.3216 56.5319C78.2835 55.6009 79.5661 54.3596 80.8933 54.3771C82.6872 54.4636 83.8843 56.4294 84.5924 57.6969C85.4466 59.3437 85.9578 60.6715 85.288 62.3612C84.9389 63.7406 84.0499 64.8612 83.0149 65.6025Z" fill="#F0A5B7"/>
<path d="M82.281 66.0485C81.9608 66.3587 81.5674 66.4791 81.2472 66.7893C78.1959 68.5718 75.3607 63.499 74.286 61.2819C74.1397 60.9024 74.0666 60.7126 73.9202 60.3331C73.8747 59.074 75.7457 57.6527 76.5829 56.9722C77.5436 56.0416 78.8246 54.8009 80.1511 54.8192C81.9442 54.9069 83.1423 56.874 83.8511 58.1422C84.7063 59.79 85.2184 61.1184 84.5503 62.808C84.0058 64.2477 83.3149 65.3078 82.281 66.0485Z" fill="#EE7A6F"/>
<path d="M72.8481 55.5971C72.3275 55.97 71.3598 56.9066 70.5963 56.0738C70.2514 55.7528 70.3759 55.5013 70.2289 55.1196C70.0596 54.1048 70.0147 52.8384 69.8453 51.8236C69.8229 51.1904 69.6025 50.6179 69.8516 50.1149C70.0272 49.4211 70.7458 48.9875 71.1929 48.4238C71.7135 48.0509 72.4321 47.6174 73.0997 47.6262C74.0898 47.3228 74.6328 47.5831 75.5208 48.1644C76.4089 48.7456 77.2968 49.3269 78.3094 49.6567C79.3954 50.1773 80.606 50.4464 81.692 50.967C82.7781 51.4876 83.615 52.5112 83.3883 53.6474C83.2127 54.3413 82.5676 54.9656 82.047 55.3385C81.5264 55.7114 80.8078 56.1449 80.1402 56.1361C78.4825 56.4307 76.8311 55.0167 75.151 54.6781C74.0873 54.7907 73.5667 55.1635 72.8481 55.5971Z" fill="#F3887B"/>
<path d="M70.9389 54.105C70.8431 53.2813 70.8207 52.6484 70.9228 51.764C71.1494 50.6282 71.9189 49.7526 72.9087 49.4493C73.8986 49.146 75.2334 49.1636 76.1211 49.7447C76.466 50.0655 76.9354 50.135 77.2803 50.4558C78.5641 50.9156 80.0233 50.6818 81.1825 51.3929C81.9968 51.7833 82.4152 52.2949 82.709 53.0579C83.0029 53.821 83.0253 54.454 82.6518 55.2082C83.2457 55.0262 83.4947 54.5234 83.7437 54.0205C83.9928 53.5177 83.7724 52.9454 83.354 52.4338C82.9867 51.4799 82.4949 50.7776 81.9296 49.8844C81.3643 48.9912 80.6011 48.1587 79.8378 47.3262C79.148 46.6845 78.2602 46.1034 77.4459 45.7131C76.9031 45.4529 76.2867 45.0019 75.5459 44.8023C74.6071 44.6635 73.6683 44.5246 72.6784 44.8279C71.6885 45.1312 70.9701 45.5646 69.9802 45.8678C69.2618 46.3012 68.5434 46.7347 67.8249 47.1681C67.3045 47.5408 67.1289 48.2344 66.6819 48.7979C66.4329 49.3008 65.9859 49.8643 66.0083 50.4972C66.0307 51.1302 65.9797 51.5724 66.2 52.1447C66.4939 52.9077 66.8612 53.8615 67.551 54.5033C67.9694 55.0149 68.9306 55.7868 69.598 55.7955C70.9327 55.8131 70.9614 54.738 70.9389 54.105Z" fill="#F0A5B7"/>
<path d="M78.9439 58.1705L83.3799 57.0245L86.3681 65.9394L68.5855 67.5435L72.1633 57.257L78.9439 58.1705Z" fill="#E8644D"/>
<path d="M79.0282 58.2302C79.3945 59.1812 79.6813 61.6448 76.9461 61.4196C74.2109 61.1943 73.2301 59.7938 73.3095 58.281C73.389 56.7683 77.8337 54.5562 79.0282 58.2302Z" fill="#DA5941"/>
<path d="M79.1551 58.3068C78.1722 56.9032 74.5442 56.0969 72.729 59.4232C70.9138 62.7494 70.686 50.6732 70.686 50.6732L81.4231 52.711L79.1551 58.3068Z" fill="#ED7163"/>
<path d="M57.7807 45.858C60.7064 42.6659 70.609 35.8421 85.2481 43.6213" stroke="#619B82" stroke-width="0.1824" stroke-miterlimit="10"/>
<path d="M23.7668 53.8713C25.0952 56.2175 30.0693 58.6275 33.7964 58.1407C34.4311 57.9678 34.897 57.9069 35.4036 57.5708C35.9101 57.2346 36.1603 56.572 35.7759 56.0823C35.5602 55.4806 35.5948 54.2162 34.8726 53.9505C33.0905 53.6434 31.3205 55.3144 27.5467 55.0874C25.6832 55.3308 23.7261 54.1466 23.7668 53.8713Z" fill="#619B82"/>
<path d="M33.2589 67.7197C32.3148 65.8629 31.2425 63.8428 31.0614 61.9764C30.8864 61.0992 31.4744 60.2123 31.8936 59.4375C32.441 58.826 33.6232 58.0415 34.5144 58.1951C35.4056 58.3487 35.7901 58.8385 35.668 59.6645C35.5459 60.4905 34.8297 61.2141 34.4106 61.9889C33.9914 62.7637 33.7004 63.7018 33.5783 64.5278C33.2467 65.7412 33.2528 66.7305 33.2589 67.7197Z" fill="#619B82"/>
<path d="M36.2539 50.6574C34.8938 50.5644 33.3238 50.8597 32.1391 51.6458C30.9544 52.4319 29.9858 53.8211 29.4842 55.1493C28.9418 56.7534 29.421 58.675 30.7463 60.0352C32.0717 61.3954 33.9455 62.1427 35.7317 62.4506C36.4964 62.4409 37.261 62.4312 37.8972 62.2579C38.5334 62.0846 39.2104 61.6355 39.7181 61.2986C41.9182 59.8387 43.6922 58.1639 43.6331 55.4658C43.7493 53.6468 41.8693 51.9081 39.9955 51.1608C38.9331 51.1191 37.6139 50.7503 36.2539 50.6574Z" fill="#DE5E52"/>
<path d="M33.1752 60.6413L33.0069 60.753L32.8386 60.8647C32.078 60.8744 31.6542 60.6606 31.1025 60.284C30.5509 59.9074 30.3359 59.3074 30.121 58.7074C30.0338 58.2701 30.0743 57.9956 30.1149 57.7211C30.1555 57.4466 30.4921 57.2232 30.9565 57.1625C31.2526 57.2136 31.5487 57.2646 31.8043 57.5901C31.5893 56.9901 31.711 56.1666 32.0882 55.6687C32.2565 55.557 32.4249 55.4453 32.5932 55.3336C33.0576 55.2729 33.6498 55.375 34.0737 55.5888C35.1769 56.342 35.9436 57.3186 36.5418 58.4069C36.7568 59.0069 36.9718 59.6069 37.1867 60.207C37.4017 60.807 37.1522 61.4677 36.775 61.9656C36.8156 61.6911 36.7284 61.2539 36.6006 61.0911C36.1707 59.891 35.5724 58.8027 34.4692 58.0496C34.3414 57.8868 33.9175 57.673 33.7492 57.7847C33.2848 57.8454 33.3719 58.2826 33.3314 58.5571C33.0819 59.2178 33.7208 60.0316 33.1752 60.6413Z" fill="#F0A5B7"/>
<path d="M43.6416 54.2033C42.2726 51.1557 38.8458 49.7215 36.1441 49.5368C32.9381 49.6868 31.5751 47.6243 31.4881 47.1876C31.1924 47.1366 30.2648 47.2578 31.245 48.8326C33.3796 52.8556 39.8605 50.037 42.4183 54.2735C44.9762 58.5101 39.2487 60.334 37.1911 61.9472C35.4696 63.3372 35.905 65.5209 37.7257 66.5378L37.8938 66.4262C37.2558 65.6133 36.0204 63.7134 38.5885 62.7505C41.6608 61.4528 44.2754 61.2007 44.5874 57.0373C44.3261 55.7271 43.6416 54.2033 43.6416 54.2033Z" fill="#619B82"/>
<path d="M38.2301 52.1281C36.8749 52.0355 35.4791 52.2178 33.9552 52.2371C32.5594 52.4194 31.2042 52.3268 29.721 52.0712C30.6576 52.9375 31.9316 53.58 32.9088 54.1714C34.0548 54.6509 35.032 55.2423 36.178 55.7218C37.0272 56.1501 38.7258 57.0069 39.7844 57.0483C40.6743 57.2017 42.704 56.8467 43.2912 55.9611C43.919 54.8005 42.0457 53.0678 41.1965 52.6394C40.5158 52.0992 38.992 52.1185 38.2301 52.1281Z" fill="#619B82"/>
<path d="M58.0866 45.9329C54.7421 49.6844 46.6669 56.0825 41.2736 55.8736" stroke="#619B82" stroke-width="0.1824" stroke-miterlimit="10"/>
<path d="M54.3008 49.5609C50.8226 49.3859 45.6549 50.3322 44.0588 45.6805C44.0588 45.6805 41.8038 51.6463 46.9773 51.6894C52.1509 51.7325 54.3008 49.5609 54.3008 49.5609Z" fill="#619B82"/>
<path d="M58.4692 45.9607C58.4692 45.9607 57.3143 43.5105 60.8486 41.1644C63.2049 39.6003 67.7026 35.8724 66.2341 30.4136C64.934 24.8431 58.8284 20.9777 53.5877 20.4974C48.3469 20.0171 48.9679 17.8728 48.9679 17.8728C48.9679 17.8728 49.4207 23.016 47.4939 25.7797C45.3989 28.655 44.4299 36.2267 51.0056 41.0172C57.413 45.9195 58.4692 45.9607 58.4692 45.9607Z" fill="#619B82"/>
<path d="M58.4064 45.9004C56.8216 40.3138 58.3283 33.1637 55.949 27.8594C53.8694 23.5855 51.836 20.0186 48.8472 17.8247" stroke="#3F934E" stroke-width="0.1971" stroke-miterlimit="10"/>
<path d="M58.5387 41.8655C53.1957 41.2239 45.9459 38.1512 43.8192 34.1404" stroke="#3F934E" stroke-width="0.1971" stroke-miterlimit="10"/>
<path d="M57.7997 33.8403C47.7918 32.1133 47.8201 29.8772 42.5844 25.4722" stroke="#3F934E" stroke-width="0.1971" stroke-miterlimit="10"/>
<path d="M58.7663 41.5882C61.256 40.4367 63.5743 39.3994 65.5021 37.8631C67.4298 36.3269 68.9671 34.2917 69.2977 32.0479" stroke="#3F934E" stroke-width="0.1971" stroke-miterlimit="10"/>
<path d="M57.6178 33.6378C59.8378 33.166 68.9172 28.8912 64.2639 22.9604" stroke="#3F934E" stroke-width="0.1971" stroke-miterlimit="10"/>
<path d="M56.2773 27.5117C58.833 24.5788 60.1879 18.4871 54.6049 16.2595" stroke="#3F934E" stroke-width="0.1971" stroke-miterlimit="10"/>
<path d="M55.8337 27.5841C52.0303 26.6471 47.2752 21.8912 44.6261 23.4025" stroke="#3F934E" stroke-width="0.1971" stroke-miterlimit="10"/>
<path d="M5.59132 31.7371C5.59132 31.7371 8.93416 31.7489 13.0269 29.7761C17.1196 27.8033 24.6424 26.2802 28.8575 30.6697C33.2411 34.9474 35.3634 43.2041 35.3634 43.2041C35.3634 43.2041 25.5036 50.2434 18.5505 47.919C10.3241 44.9526 9.89357 36.5644 5.59132 31.7371Z" fill="#619B82"/>
<path d="M35.6067 43.2543C35.6067 43.2543 23.0887 31.539 4.86018 31.7736" stroke="#3B8A64" stroke-width="0.2287" stroke-miterlimit="10"/>
<path d="M16.0079 32.9485C16.0079 32.9485 14.1939 29.0151 10.2285 27.4944" stroke="#3B8A64" stroke-width="0.2287" stroke-miterlimit="10"/>
<path d="M16.1248 33.1342C16.1248 33.1342 10.2559 37.2927 7.75583 36.4301" stroke="#3B8A64" stroke-width="0.2287" stroke-miterlimit="10"/>
<path d="M20.9773 34.9984C20.9773 34.9984 13.9956 41.4189 9.5106 40.3564" stroke="#3B8A64" stroke-width="0.2287" stroke-miterlimit="10"/>
<path d="M27.0022 37.0031C24.2576 39.848 19.8 44.8502 13.2021 45.4411" stroke="#3B8A64" stroke-width="0.2287" stroke-miterlimit="10"/>
<path d="M32.0985 40.1855C30.5101 41.4981 24.8559 48.3121 17.0085 48.9752" stroke="#3B8A64" stroke-width="0.2287" stroke-miterlimit="10"/>
<path d="M32.1818 40.4268C32.0888 39.0029 33.2909 34.9864 32.1757 32.2603" stroke="#3B8A64" stroke-width="0.2287" stroke-miterlimit="10"/>
<path d="M27.1066 37.2583C27.5984 34.9573 28.333 31.0142 25.5731 27.1707" stroke="#3B8A64" stroke-width="0.2287" stroke-miterlimit="10"/>
<path d="M21.2419 34.8267C20.7753 33.907 21.5413 28.7243 18.5112 26.8032" stroke="#3B8A64" stroke-width="0.2287" stroke-miterlimit="10"/>
</svg>
