<svg width="151" height="100" viewBox="0 0 151 100" fill="none" xmlns="http://www.w3.org/2000/svg">
<path d="M89.4199 36.0535C89.749 34.3536 89.9316 34.0536 88.9592 31.7858C87.9867 29.5179 88.0448 26.073 90.7712 23.1416C93.3476 20.1989 95.9146 20.2345 96.4752 17.7679C96.4752 17.7679 96.9126 19.3685 98.8016 21.5483C100.691 23.728 100.567 27.7952 98.1248 30.9047C95.6823 34.0142 92.5638 33.467 90.9494 34.4435C90.2678 35.1763 89.4199 36.0535 89.4199 36.0535Z" fill="#619B82"/>
<path d="M89.4703 36.0297C89.4703 36.0297 94.4765 31.5426 95.7834 27.5712C96.7166 24.3548 96.97 22.0277 96.5248 18.0868" stroke="#5A9075" stroke-width="0.2287" stroke-miterlimit="10"/>
<path d="M92.9171 32.3354C92.9171 32.3354 89.8263 31.4849 88.0953 26.6061" stroke="#5A9075" stroke-width="0.2287" stroke-miterlimit="10"/>
<path d="M93.0366 32.627C93.9532 32.6922 95.0404 32.6061 95.9749 32.5091C96.9093 32.4121 97.8438 32.3152 98.6433 32.0452C99.4429 31.7753 100.278 31.1811 100.826 30.403" stroke="#5A9075" stroke-width="0.2287" stroke-miterlimit="10"/>
<path d="M94.6619 29.6997C92.1225 28.0996 90.4896 25.1408 89.4735 22.0671" stroke="#5A9075" stroke-width="0.2287" stroke-miterlimit="10"/>
<path d="M96.2527 26.1118C95.0734 24.6133 94.2081 22.9797 93.5084 21.2004C93.2637 20.7113 93.1846 20.0767 93.2365 19.6085" stroke="#5A9075" stroke-width="0.2287" stroke-miterlimit="10"/>
<path d="M94.8246 29.9902C97.2671 30.1634 99.6461 29.5177 101.791 28.2038C102.114 28.0638 102.285 27.9131 102.473 27.6007" stroke="#5A9075" stroke-width="0.2287" stroke-miterlimit="10"/>
<path d="M96.259 26.0367C96.4102 26.0473 96.4102 26.0473 96.5613 26.0579C97.3524 25.7946 98.8994 25.5842 99.5746 24.9943C100.25 24.4043 101.094 23.6668 101.2 22.7184" stroke="#5A9075" stroke-width="0.2287" stroke-miterlimit="10"/>
<path d="M96.8814 22.4646C97.1913 22.3299 97.1912 22.3299 97.5182 22.0398C98.0087 21.6046 98.2234 20.9931 98.4211 20.5371C98.6359 19.9256 98.7043 19.3037 98.919 18.6922" stroke="#5A9075" stroke-width="0.2287" stroke-miterlimit="10"/>
<path d="M96.7668 22.4287C95.7653 20.7902 95.2206 19.0274 95.1329 17.1404" stroke="#5A9075" stroke-width="0.2287" stroke-miterlimit="10"/>
<path d="M101.664 14.3346C101.028 14.6056 99.9748 14.5307 99.6787 13.0867C99.533 11.6533 99.4343 11.172 98.5143 11.2648C97.5943 11.3575 96.4893 11.7533 96.4893 11.7533C96.4893 11.7533 96.7778 10.5089 98.7683 10.3342C98.7683 10.3342 98.2355 9.66387 97.8013 9.47491C97.3672 9.28595 98.8076 8.59773 100.174 9.95971C100.174 9.95971 99.5254 8.96496 101.018 7.80611C101.018 7.80611 100.463 8.71537 100.643 9.83493C100.823 10.9545 101.859 11.1862 102.091 11.8351C102.589 12.8192 102.619 13.9281 101.664 14.3346Z" fill="#619B82"/>
<path d="M101.819 13.8326C104.832 18.8897 103.688 24.4133 103.688 24.4133C103.688 24.4133 102.576 29.6277 99.7229 32.5296" stroke="#619B82" stroke-width="0.1824" stroke-miterlimit="10"/>
<path d="M103.877 20.0922C103.704 18.81 101.621 18.1777 100.319 18.8734C99.6605 19.2999 99.1046 20.2102 99.1046 20.2102C99.1046 20.2102 99.7593 18.3554 101.077 17.5023C102.242 16.6378 103.515 17.6851 103.721 18.6525C103.791 19.4511 103.877 20.0922 103.877 20.0922Z" fill="#619B82"/>
<path d="M103.926 20.1429C103.926 20.1429 104.32 17.8201 105.287 17.2655C106.254 16.7109 106.774 17.5341 106.774 17.5341C106.774 17.5341 106.201 15.766 105.084 16.3093C104.117 16.8639 103.926 20.1429 103.926 20.1429Z" fill="#619B82"/>
<path d="M134.941 40.5823C134.483 41.9792 134.83 44.3868 137.705 44.592C140.58 44.7973 141.303 45.1666 141.735 46.786C141.934 47.7534 141.779 49.172 141.779 49.172C141.779 49.172 143.496 48.8179 142.665 45.2638C142.665 45.2638 144.295 45.6979 145.835 48.3495C146.354 49.1808 146.682 46.186 143.628 43.4264C143.628 43.4264 146.284 44.2514 147.148 41.9303C147.148 41.9303 146.054 42.1699 143.801 41.8502C141.548 41.5305 140.847 39.5742 139.554 38.8465C137.941 38.2548 135.62 38.5656 134.941 40.5823Z" fill="#619B82"/>
<path d="M105.37 36.1616C105.37 36.1616 124.641 34.1817 135.715 41.0908" stroke="#619B82" stroke-width="0.1609" stroke-miterlimit="10"/>
<path d="M122.366 36.78C125.462 37.4834 126.637 40.7038 125.415 43.7434C124.456 45.7067 122.979 46.8479 122.979 46.8479C122.979 46.8479 125.619 50.492 127.431 44.6784C128.353 41.6162 125.794 37.1953 123.863 36.893C123.714 36.8817 122.366 36.78 122.366 36.78Z" fill="#619B82"/>
<path d="M129.203 38.4218C129.203 38.4218 131.684 38.1339 132.862 37.1162C134.041 36.0985 134.574 33.9264 134.726 33.9378C135.601 32.8973 136.304 36.4263 134.452 38.0255C132.953 39.1772 129.203 38.4218 129.203 38.4218Z" fill="#619B82"/>
<path d="M125.683 29.7308C125.94 28.7951 126.684 27.5756 128.291 28.1649C129.898 28.7542 130.484 28.9542 131.06 27.8819C131.636 26.8096 132.043 25.8844 132.043 25.8844C132.043 25.8844 132.099 28.1135 130.768 29.133C130.768 29.133 132.011 28.902 133.492 27.8931C133.98 27.6094 132.863 29.4385 130.547 29.7533C130.547 29.7533 132.508 29.8905 132.644 32.761C132.644 32.761 131.799 30.7946 130.326 30.3735C128.852 29.9525 128.357 31.6662 127.434 31.7606C126.662 31.8655 125.392 30.9819 125.683 29.7308Z" fill="#619B82"/>
<path d="M113.847 36.4309C113.847 36.4309 118.816 31.6505 126.519 29.7868" stroke="#619B82" stroke-width="0.1609" stroke-miterlimit="10"/>
<path d="M118.782 32.8043C120.352 32.2938 120.797 29.5012 119.772 27.6976C119.252 26.8737 118.097 26.3163 118.097 26.3163C118.097 26.3163 120.472 26.808 121.68 28.3113C122.888 29.8146 121.789 31.6164 120.686 32.0048C119.417 32.5378 118.782 32.8043 118.782 32.8043Z" fill="#619B82"/>
<path d="M119.684 32.3775C119.684 32.3775 122.281 32.4134 123.229 33.5902C124.025 34.7556 123.454 35.819 123.454 35.819C123.454 35.819 124.747 33.7035 123.984 32.2245C123.053 30.891 119.684 32.3775 119.684 32.3775Z" fill="#619B82"/>
<path d="M73.8499 41.1501C72.8701 39.1931 72.9048 38.8809 70.0562 37.5792C67.3561 36.2879 64.733 32.9567 64.991 27.94C65.3974 22.9338 67.7539 20.5821 66.5638 17.8236C66.5638 17.8236 68.2417 18.8856 71.9368 19.3028C75.632 19.72 78.6485 23.5509 78.8187 28.7551C78.8404 33.9488 75.3133 36.0608 74.4418 38.517C73.8749 39.5785 73.8499 41.1501 73.8499 41.1501Z" fill="#619B82"/>
<path d="M73.6265 41.0723C73.6265 41.0723 75.2109 32.3859 73.4496 27.399C71.9973 23.5321 70.3656 21.2234 66.6688 17.8329" stroke="#00995D" stroke-width="0.1824" stroke-miterlimit="10"/>
<path d="M74.6481 34.4836C74.6481 34.4836 70.7146 36.4919 64.8786 33.251" stroke="#00995D" stroke-width="0.1824" stroke-miterlimit="10"/>
<path d="M74.6509 34.8717C75.6388 33.9929 76.4802 33.1043 77.4682 32.2255C78.3096 31.3369 79.1329 30.6046 79.6994 29.5401C80.266 28.4755 80.686 27.4012 80.5381 26.1312" stroke="#00995D" stroke-width="0.1824" stroke-miterlimit="10"/>
<path d="M74.0345 30.4607C70.0877 31.2162 65.7563 29.8784 62.2867 27.7402" stroke="#00995D" stroke-width="0.1824" stroke-miterlimit="10"/>
<path d="M72.5529 25.7153C70.1317 25.3858 67.7673 24.5636 65.5931 23.4233C65.0209 23.0536 64.2962 22.6735 64.0669 21.996" stroke="#00995D" stroke-width="0.1824" stroke-miterlimit="10"/>
<path d="M74.2346 30.7915C76.6803 28.7524 78.6139 26.0493 79.6886 23.1312C79.8709 22.8287 79.9252 22.3602 79.9614 22.0479" stroke="#00995D" stroke-width="0.1824" stroke-miterlimit="10"/>
<path d="M72.4984 25.7564C72.6397 25.7662 72.6573 25.611 72.8161 25.4656C73.5039 24.4182 74.7919 23.0996 74.9146 22.0131C75.0372 20.9267 75.3538 19.3844 74.735 18.5595" stroke="#00995D" stroke-width="0.1824" stroke-miterlimit="10"/>
<path d="M70.078 21.7764C70.2739 21.3199 70.2739 21.3199 70.3447 20.6982C70.4332 19.9212 70.2362 19.1246 70.0215 18.4834C69.8068 17.8422 69.467 17.0357 69.1096 16.3848" stroke="#00995D" stroke-width="0.1824" stroke-miterlimit="10"/>
<path d="M69.9468 21.7583C67.574 21.1111 65.58 19.8378 63.7943 18.09" stroke="#00995D" stroke-width="0.1824" stroke-miterlimit="10"/>
<path d="M58.0154 39.0613C58.0154 39.0613 60.5212 39.8765 62.3853 40.9666C64.2494 42.0567 69.1527 41.9202 71.8744 33.954C71.8744 33.954 70.528 33.6998 69.7879 33.4881C68.8962 33.2657 64.8471 31.2229 62.308 33.4442C59.769 35.6655 60.2967 37.7816 58.0154 39.0613Z" fill="#619B82"/>
<path d="M57.9657 39.1095C57.9657 39.1095 61.6585 39.0461 63.7107 38.5433C65.7629 38.0405 67.6627 37.527 72.0699 33.7907" stroke="#3F934E" stroke-width="0.1824" stroke-miterlimit="10"/>
<path d="M83.4171 20.9375C83.4171 20.9375 81.1494 22.5075 79.2477 23.4742C77.1976 24.4305 74.2081 28.4657 78.5444 35.219C78.5444 35.219 79.5558 34.1895 80.2012 33.7632C80.8639 33.1809 84.9987 30.9563 85.0651 27.6586C84.983 24.3503 82.992 23.4237 83.4171 20.9375Z" fill="#619B82"/>
<path d="M83.323 20.9925C83.323 20.9925 81.1346 23.955 80.2045 25.9166C79.2744 27.8782 78.5037 29.6953 78.6343 35.1685" stroke="#3F934E" stroke-width="0.1824" stroke-miterlimit="10"/>
<path d="M78.6152 32.6928C79.1555 31.9314 79.6957 31.17 79.9401 30.3899C80.6539 28.2075 79.4638 25.7454 77.5084 24.6669C76.5307 24.1277 75.3665 23.8949 74.2731 24.303C73.81 24.4328 73.3084 24.8784 72.826 25.1661C72.1764 25.6023 71.5075 26.1965 71.0059 26.6421C70.3563 27.0783 69.6874 27.6724 69.591 28.4619C69.5331 28.9356 69.6232 29.4187 69.4174 29.883C69.173 30.6631 68.5234 31.0993 68.427 31.8888C68.3692 32.3625 68.4592 32.8455 68.6972 33.338C69.7779 35.4749 71.8813 36.5627 73.8559 37.4833C75.8306 38.4039 77.5348 34.2156 78.6152 32.6928Z" fill="#CFD362"/>
<path d="M75.7084 35.5298C76.553 35.9007 77.9352 35.5124 78.0695 34.4103C78.2231 33.1508 77.6407 31.8446 76.8344 31.1588C76.5592 30.9826 74.0123 28.7585 73.9931 28.9159C73.8075 29.2214 73.7691 29.5363 73.8779 29.8606C73.9867 30.1848 74.1147 30.3516 74.0764 30.6665C74.166 31.1481 74.1084 31.6204 74.0508 32.0928C74.1213 32.7319 74.1917 33.371 74.4285 33.862C74.7932 34.5198 75.158 35.1775 75.7084 35.5298Z" fill="#AEC551"/>
<path d="M70.1354 27.6117C70.0999 27.9226 70.0644 28.2335 70.0466 28.3889C70.1005 29.1759 69.869 29.9434 69.798 30.5652C69.7447 31.0315 69.7092 31.3424 69.5132 31.799C69.4777 32.1099 69.2994 32.411 69.2639 32.7219C69.0324 33.4893 69.3718 34.2958 69.4257 35.0828C68.9443 35.5199 68.0703 35.6168 67.6954 35.1213C67.5882 34.8007 67.481 34.48 67.3738 34.1594C66.9806 32.566 66.8905 30.8366 67.2286 29.1365C67.5311 27.7472 68.244 26.5427 69.4745 25.8434C69.7954 25.552 70.7227 24.9887 70.9371 25.63C71.0088 26.2615 70.2064 26.99 70.1354 27.6117Z" fill="#FAF09E"/>
<path d="M73.8893 36.38C72.6015 37.0905 71.1829 37.6332 69.8199 37.7022C69.2038 37.8206 68.457 37.7713 67.8038 38.2054C67.4679 38.5015 67.1135 38.9554 66.927 39.2612C65.9573 41.1065 65.9962 43.3366 67.0056 44.9944C67.5103 45.8233 68.3138 46.672 68.9864 47.3528C69.8084 48.0436 70.6119 48.8923 71.639 49.1192C72.666 49.3462 73.5809 49.2476 74.6451 49.1588C75.7093 49.07 76.6426 48.8135 77.7068 48.7247C78.0241 48.5866 78.4723 48.6162 78.8081 48.3201C79.312 47.8761 79.3862 47.2446 79.4419 46.7709C79.5895 44.2349 79.6063 41.5312 79.1378 39.1135C78.969 37.9886 78.7436 36.0644 77.7536 35.5217C76.5206 34.4855 75.0277 35.6597 73.8893 36.38Z" fill="#CFD362"/>
<path d="M67.7418 43.6205C67.8544 43.947 67.8172 44.2635 67.9484 44.4316C68.4172 45.579 70.1021 45.3713 70.9078 46.222C71.4325 46.8946 71.3208 47.8442 71.8642 48.3585C72.2763 48.7047 72.8755 48.7443 73.3248 48.774C73.7556 48.9619 74.3175 49.318 74.4115 49.8027C74.0933 49.9411 73.7937 49.9214 73.4941 49.9016C71.5655 49.6147 69.6554 49.1695 68.138 47.9529C67.3137 47.2605 66.6765 46.2614 66.189 45.2723C65.8327 44.4513 65.495 43.4721 65.3071 42.5028C65.2317 41.8598 64.8187 40.2377 65.1927 39.6244C66.2218 38.576 67.6665 42.9776 67.7418 43.6205Z" fill="#FAF09E"/>
<path d="M79.5257 30.5604C79.781 29.6292 80.2037 28.5515 81.0062 28.133C81.3236 27.997 81.6411 27.861 81.7911 27.8715C82.4085 27.7565 83.0435 27.4845 83.6609 27.3694C84.7458 27.1289 86.1481 26.7523 86.9778 27.443C87.675 27.9662 87.8697 28.9289 87.932 29.7242C88.0741 31.1577 88.0837 32.4238 87.7759 33.8259C87.7057 34.4537 87.4681 35.228 86.948 35.8243C86.0578 37.0276 84.5406 37.0797 83.1733 37.1424C81.956 37.2155 78.4014 37.9163 78.2418 36.6397C78.0296 35.834 78.4874 34.4423 78.725 33.6681C78.9978 32.5799 79.2705 31.4917 79.5257 30.5604Z" fill="#CFD362"/>
<path d="M86.2248 34.9954C87.0102 34.7338 87.9457 34.4826 88.6609 34.8491C88.9435 35.0271 89.2086 35.3621 89.4911 35.5401C89.8887 36.0426 90.2862 36.5451 90.216 37.1732C90.2783 37.9688 89.8904 38.733 89.6526 39.5076C89.3621 40.7533 89.6544 42.198 89.3639 43.4437C88.9234 44.679 87.9001 45.7153 86.797 46.113C85.6763 46.6677 84.3082 46.7304 83.0901 46.8035C82.3222 46.9081 81.5543 47.0128 80.8216 46.8033C80.0888 46.5939 79.3736 46.2274 78.9936 45.5679C78.6136 44.9083 78.6838 44.2802 78.7715 43.4951C78.8496 41.4433 78.7777 39.381 78.8558 37.3292C78.8909 37.0151 78.9435 36.544 79.1287 36.2405C79.2963 36.0939 79.614 35.9579 79.9141 35.9788C80.3468 36.1673 86.2248 34.9954 86.2248 34.9954Z" fill="#CFD362"/>
<path d="M69.0126 35.3616C68.6065 36.284 68.7841 37.4055 68.9968 38.2127C69.3423 39.1875 69.7053 40.0051 69.9005 40.9695C69.998 41.4516 69.9453 41.9233 70.2108 42.2588C70.5386 43.3908 71.5205 44.0932 72.7231 44.1772C73.174 44.2087 73.6249 44.2401 74.0759 44.2716C74.3765 44.2926 74.5092 44.4603 74.642 44.6281C75.0753 44.8168 75.6942 44.7015 76.1627 44.5758C76.0924 45.2047 75.8718 45.8231 75.819 46.2948C75.8014 46.452 75.7663 46.7665 75.7487 46.9237C75.7311 47.0809 75.8639 47.2487 76.1469 47.4269C77.0936 48.4437 78.5792 48.7059 79.7193 47.9932C80.0375 47.857 80.3733 47.5635 80.6739 47.5845C80.8243 47.595 81.1249 47.616 81.2752 47.6265C81.8765 47.6685 82.548 47.0816 83.0517 46.6414C83.9088 45.7505 84.5179 44.3669 84.1901 43.2349C83.9949 42.2705 83.1633 41.5786 83.1185 40.6248C84.0556 40.3733 85.1429 40.1323 86.0976 39.7236C86.5661 39.5979 87.0346 39.4721 87.5031 39.3464C87.9717 39.2207 88.4226 39.2522 88.8911 39.1264C90.1288 38.8959 91.1713 37.7011 91.0114 36.4223C90.9138 35.9401 90.7986 35.6152 90.5507 35.1225C90.0725 33.9799 89.5943 32.8374 89.0986 31.852C88.8507 31.3593 88.6028 30.8667 88.187 30.5207C87.6385 30.0071 86.7542 29.7869 85.9674 30.0488C85.1807 30.3108 84.3764 30.73 83.8727 31.1702C84.1636 29.9229 84.4722 28.5184 84.9134 27.2815C84.931 27.1243 84.9662 26.8099 84.9838 26.6526C84.9214 25.856 84.0546 25.4786 83.2855 25.5833C82.5163 25.6881 81.8799 25.9606 81.1283 25.9081C80.3767 25.8556 79.8106 25.4992 79.0591 25.4467C78.2899 25.5514 77.6359 25.9811 77.265 26.589C76.894 27.1969 76.8061 27.9831 76.7182 28.7692C76.6655 29.2409 76.7455 29.8803 76.6927 30.352C76.5872 31.2953 76.1635 32.3749 75.6247 33.1296C74.9259 32.6054 74.5628 31.7878 74.0319 31.1169C73.6337 30.6137 73.05 30.4145 72.5287 31.0119C72.1929 31.3054 72.1402 31.7771 71.8044 32.0705C71.4686 32.364 71.1328 32.6575 70.797 32.9509C69.9048 34.1562 69.2508 34.5859 69.0126 35.3616Z" fill="#FCE96B"/>
<path d="M73.8957 40.5814C74.028 40.7487 73.993 41.0624 74.1252 41.2297C74.24 41.5538 74.522 41.7315 74.8041 41.9093C75.7825 42.6099 76.4088 43.76 76.7355 44.8892C76.8152 45.527 77.5642 45.5793 78.0486 45.2971C78.3832 45.0044 78.6828 45.0253 78.9999 44.8894C79.8013 44.4713 80.2235 43.3945 80.9725 43.4468C81.1223 43.4573 81.2721 43.4677 81.2721 43.4677C81.8537 43.6664 82.3556 43.2274 82.2759 42.5896L82.2934 42.4328C82.3109 42.276 82.1787 42.1087 82.346 41.9623C82.3635 41.8055 82.6806 41.6696 82.8479 41.5233C83.5171 40.9378 83.7545 40.1642 84.1241 39.5578C84.6961 38.4914 85.2506 37.5819 85.9548 36.6828C86.2895 36.3901 86.1922 35.9091 85.7779 35.5641C85.3636 35.219 84.9843 34.5603 84.5875 34.0584C84.323 33.7238 84.0409 33.5461 83.7764 33.2115C82.9652 32.3645 82.4887 31.2249 82.3293 29.9493C82.2321 29.4684 81.668 29.1129 81.1661 29.5519C80.8314 29.8447 80.347 30.1269 79.8977 30.0955C79.4483 30.0641 78.8492 30.0222 78.3823 30.1476C77.4485 30.3985 76.8766 31.4648 75.9428 31.7156C75.4759 31.8411 75.0266 31.8097 74.4449 31.6109C73.8633 31.4122 73.3439 32.0081 73.4236 32.6459C73.8826 33.9424 74.007 35.5316 73.5672 36.7653C73.3474 37.3821 72.9953 37.8316 72.4933 38.2707C71.9914 38.7098 72.2034 39.5148 72.785 39.7135C73.3842 39.7554 73.816 39.9436 73.8957 40.5814Z" fill="#CFD362"/>
<path d="M85.0856 37.2132C85.1594 36.5839 85.0661 36.1022 84.694 35.4434C84.4521 34.9518 83.7459 34.588 83.337 34.2438C82.6492 33.7227 81.9984 32.8869 81.8118 31.9234C81.7185 31.4417 81.6437 30.8026 81.0677 30.6059C80.7704 30.5862 80.6218 30.5764 80.3246 30.5567C79.8787 30.5271 79.3027 30.3304 78.8753 30.1436C78.7451 29.9764 78.4663 29.7994 78.3177 29.7896C78.0205 29.7699 77.5562 29.8976 77.3707 30.2024C76.0711 31.0674 74.7531 32.0897 73.8624 33.2989C72.9718 34.5081 72.3231 36.2088 72.4543 37.6443C72.4358 37.8016 72.4174 37.9588 72.566 37.9687C72.6962 38.1358 72.8448 38.1457 72.9934 38.1555C73.5879 38.1949 74.3125 38.4015 74.907 38.4409C74.5913 38.5785 74.2756 38.7161 73.96 38.8537C73.8862 39.4829 74.2767 39.9844 74.6672 40.4858C75.0577 40.9873 75.6153 41.3413 75.8572 41.8329C76.341 42.8161 76.0264 44.2219 76.6773 45.0577C76.8074 45.2248 76.9376 45.392 77.2348 45.4117C77.3834 45.4215 77.6991 45.2839 77.8662 45.1365C79.1658 44.2715 80.2419 42.7575 80.575 41.1944C80.8169 41.686 81.2443 41.8728 81.8203 42.0695C81.9689 42.0794 82.1175 42.0892 82.2846 41.9418C82.4516 41.7943 82.4516 41.7943 82.6187 41.6469C83.3607 40.4278 84.9012 38.7862 85.0856 37.2132Z" fill="#FAF09E"/>
<path d="M76.9657 40.0176C77.1707 40.8238 77.6729 41.6496 78.212 42.1609C78.4907 42.3379 78.6025 42.6623 78.8997 42.682C79.3455 42.7116 79.698 42.2594 79.9019 41.7973C80.1059 41.3353 80.1048 40.0671 80.7177 39.9492C81.6462 39.6937 81.8132 39.5463 82.3512 38.7894C82.7407 38.0226 83.2602 37.423 83.3525 36.6365C83.2961 35.8402 83.0542 35.3486 82.4967 34.9947C82.0877 34.6505 81.6604 34.4637 81.2145 34.4341C80.4715 34.3849 80.5269 33.913 80.3034 33.2642C80.1169 32.3007 79.4476 31.6223 78.5007 32.0351C77.5537 32.4479 77.1827 33.0573 76.4961 33.8044C75.9765 34.404 75.4385 35.161 74.9189 35.7606C74.7519 35.908 74.7334 36.0653 74.715 36.2226C74.6966 36.3799 74.8267 36.547 74.9569 36.7142C75.2357 36.8912 75.663 37.078 75.9233 37.4123C76.1837 37.7466 76.2769 38.2283 76.0914 38.533C75.9244 38.6805 75.9244 38.6805 75.7574 38.8279C75.5903 38.9754 75.7205 39.1425 75.6836 39.4571C75.6283 39.929 75.7215 40.4107 76.1489 40.5975C76.2975 40.6074 76.4461 40.6172 76.5947 40.6271C77.4679 40.8435 77.636 41.9642 78.5092 42.1806C79.2337 42.3871 80.1243 41.178 80.3467 40.5587" fill="#D5DF98"/>
<path d="M81.5697 39.3807C81.6048 39.0668 81.34 38.732 81.0401 38.7111C81.34 38.732 81.9748 38.4601 82.1597 38.1567C82.3447 37.8534 82.2649 37.2152 81.9826 37.0374C81.8502 36.87 81.5504 36.849 81.4005 36.8385C81.7179 36.7025 81.8853 36.5561 82.0528 36.4097L82.0703 36.2527L82.0878 36.0958C81.973 35.7715 81.8581 35.4472 81.5758 35.2693C81.276 35.2484 81.1261 35.2379 80.8262 35.2169C81.0112 34.9136 81.1787 34.7671 81.2313 34.2964C81.2839 33.8256 80.8692 33.4803 80.4194 33.4489C80.1196 33.428 79.9696 33.4175 79.6522 33.5534C79.4848 33.6999 79.1499 33.9928 79.2823 34.1602C78.9026 33.5011 77.7383 33.1034 77.2009 33.8566C77.0159 34.16 76.9633 34.6307 77.2456 34.8086C76.8134 34.6203 76.0287 34.8817 75.9761 35.3525C75.7735 35.8128 76.1532 36.4719 76.7704 36.3569C76.1532 36.4719 75.6157 37.2251 75.713 37.7063C75.8279 38.0306 75.9603 38.198 76.2601 38.219C76.5424 38.3968 76.8598 38.2609 77.1772 38.1249C77.1597 38.2818 77.0098 38.2713 76.9922 38.4282C76.8072 38.7316 76.4723 39.0245 76.5872 39.3488C76.5696 39.5058 76.702 39.6731 76.8519 39.6836C76.9843 39.851 77.4166 40.0394 77.7339 39.9034C77.8839 39.9139 78.5186 39.6419 78.5186 39.6419C78.4836 39.9558 78.466 40.1127 78.5809 40.437C78.8457 40.7718 79.2604 41.1171 79.7277 40.9916C80.045 40.8556 80.3624 40.7196 80.5474 40.4163C80.7324 40.1129 80.4676 39.7781 80.3528 39.4538C80.6351 39.6317 80.9174 39.8095 81.2348 39.6736C81.0498 39.9769 81.5171 39.8515 81.5697 39.3807Z" fill="white"/>
<path d="M34.9882 64.9152C34.5792 61.5947 35.3855 52.4126 46.4097 48.0723" stroke="#619B82" stroke-width="0.1824" stroke-miterlimit="10"/>
<path d="M23.5021 87.6674C25.4103 88.1126 29.0736 86.4458 30.5663 83.9981C30.7713 83.5342 30.9579 83.2283 31.0134 82.7544C31.0688 82.2806 30.825 81.7868 30.3761 81.757C29.9457 81.5692 29.2714 80.8877 28.7856 81.1738C27.7769 82.0619 27.8544 83.9771 25.9498 86.0791C25.2035 87.3029 23.6332 87.8353 23.5021 87.6674Z" fill="#619B82"/>
<path d="M35.9045 89.3877C34.4456 88.9725 32.8372 88.5473 31.733 87.6783C31.1716 87.3227 30.9648 86.5133 30.7395 85.8618C30.6638 85.2203 30.7931 84.1149 31.2973 83.671C31.8014 83.2271 32.2502 83.2569 32.6435 83.7605C33.0368 84.264 33.094 85.0635 33.3193 85.715C33.5446 86.3665 33.9194 87.0279 34.3127 87.5315C34.8187 88.3607 35.3616 88.8742 35.9045 89.3877Z" fill="#619B82"/>
<path d="M27.7304 78.8811C27.0434 79.6281 26.4684 80.6996 26.3397 81.8008C26.2111 82.902 26.5105 84.1902 26.9954 85.1737C27.6107 86.3244 28.8763 87.0428 30.2338 86.9746C31.5913 86.9064 32.8735 86.199 33.8765 85.3146C34.2292 84.8624 34.5819 84.4103 34.7858 83.9482C34.9898 83.4862 35.0632 82.8569 35.1184 82.385C35.3572 80.3399 35.2802 78.4324 33.7905 77.0649C32.8592 76.0517 31.0369 76.2475 29.7547 76.9549C29.2349 77.5544 28.4174 78.1342 27.7304 78.8811Z" fill="#DE5E52"/>
<path d="M31.846 85.7746L31.8274 85.9336L31.8088 86.0926C31.4519 86.5495 31.1322 86.6885 30.6619 86.8175C30.1916 86.9464 29.7584 86.7574 29.3253 86.5684C29.0428 86.3894 28.9108 86.2204 28.7788 86.0514C28.6468 85.8824 28.684 85.5644 28.8718 85.2565C29.041 85.1075 29.2101 84.9585 29.5113 84.9785C29.0781 84.7895 28.6822 84.2825 28.5874 83.7955C28.606 83.6365 28.6246 83.4775 28.6432 83.3185C28.831 83.0105 29.1693 82.7126 29.489 82.5736C30.4297 82.3157 31.3331 82.3757 32.2179 82.5948C32.6511 82.7838 33.0842 82.9728 33.5173 83.1618C33.9504 83.3508 34.1958 83.8478 34.2906 84.3348C34.1586 84.1658 33.876 83.9868 33.7255 83.9768C32.8592 83.5987 31.9744 83.3797 31.0338 83.6376C30.8832 83.6276 30.5635 83.7666 30.5449 83.9256C30.3571 84.2336 30.6396 84.4126 30.7716 84.5816C31.017 85.0786 31.7698 85.1286 31.846 85.7746Z" fill="#F0A5B7"/>
<path d="M33.128 76.3225C30.7877 75.5238 28.356 76.8088 26.9621 78.3237C25.5123 80.3172 23.7198 80.0372 23.4366 79.8576C23.267 80.0071 22.8906 80.6251 24.2303 80.875C27.4762 81.734 29.0156 76.3704 32.582 77.09C36.1483 77.8096 34.419 82.196 34.3275 84.2798C34.2734 86.0447 35.6895 86.9427 37.1224 86.395L37.1411 86.2355C36.3864 86.1853 34.7449 85.9153 35.44 83.8716C36.191 81.3493 37.3016 79.6548 35.1478 77.2608C34.2981 76.7219 33.128 76.3225 33.128 76.3225Z" fill="#619B82"/>
<path d="M29.3338 78.5042C28.6409 79.2561 28.0796 80.1763 27.3683 81.0866C26.807 82.0069 26.1141 82.7588 25.2713 83.5008C26.1901 83.4022 27.1459 82.9869 27.9332 82.72C28.739 82.2948 29.5263 82.0279 30.3321 81.6027C30.9694 81.3258 32.2439 80.7721 32.7681 80.1686C33.2738 79.7234 34.0408 78.3381 33.8333 77.5264C33.4944 76.5463 31.6568 76.7434 31.0195 77.0203C30.4008 77.1388 29.6895 78.049 29.3338 78.5042Z" fill="#619B82"/>
<path d="M35.1192 64.4389C35.5644 68.2079 35.331 75.9692 32.9702 78.8966" stroke="#619B82" stroke-width="0.1824" stroke-miterlimit="10"/>
<path d="M35.3007 68.2602C33.5722 70.1801 31.6799 73.6641 28.3254 72.152C28.3254 72.152 30.6108 76.5793 33.0602 73.6098C35.5095 70.6404 35.3007 68.2602 35.3007 68.2602Z" fill="#619B82"/>
<path d="M44.3524 50.4104C43.2218 50.9594 41.9557 51.34 40.9242 50.9464C38.9803 50.4846 37.9618 48.5084 36.9104 46.8464C36.0275 45.0386 34.8404 43.2082 32.8965 42.7464C35.4817 42.9393 37.6203 40.0901 40.2716 39.6545C42.2981 39.3307 44.3281 40.4323 45.5316 42.1056C46.5996 43.6105 47.0262 45.3842 47.1323 47.2923C47.2713 48.8862 45.6515 49.7155 44.3524 50.4104Z" fill="#619B82"/>
<path d="M42.5283 45.1005C44.3953 46.194 46.0395 47.9136 48.1826 47.9032C48.3619 49.0389 47.7821 50.1214 47.0861 50.8749C45.3371 52.8382 42.3462 53.5915 39.9705 52.9438C37.443 52.2854 35.4952 50.5445 34.0562 48.3579C33.2696 47.1797 32.8044 45.8636 32.6606 44.4095C32.5524 42.637 33.3114 42.6901 34.6777 42.7858C37.3925 43.1364 40.2414 43.6568 42.5283 45.1005Z" fill="#3B8A64"/>
<path d="M36.5733 39.8927C37.0495 40.8695 37.9829 41.7194 38.4409 42.8525C38.5327 43.3311 38.6244 43.8097 38.7162 44.2884C38.6798 44.6009 38.7897 44.9233 38.7534 45.2358" stroke="#3B8A64" stroke-width="0.2287" stroke-miterlimit="10"/>
<path d="M39.0181 39.1736C39.9145 40.3358 40.9572 41.5077 41.3604 43.1093C41.6901 44.0762 41.5628 45.1699 41.8743 46.293" stroke="#3B8A64" stroke-width="0.2287" stroke-miterlimit="10"/>
<path d="M42.4358 39.166C43.0217 40.302 43.6076 41.4379 43.892 42.7097C44.1587 44.1368 43.9997 45.5347 43.8407 46.9326" stroke="#3B8A64" stroke-width="0.2287" stroke-miterlimit="10"/>
<path d="M46.3656 42.6295C46.5564 44.5113 46.6196 46.3834 45.8065 48.0328" stroke="#3B8A64" stroke-width="0.2287" stroke-miterlimit="10"/>
<path d="M61.1506 47.4982C61.1506 47.4982 61.4115 50.8339 61.2832 53.509C61.1384 56.3407 63.6457 61.5811 73.2666 60.2456C73.2666 60.2456 72.8245 58.6335 72.7716 57.682C72.5835 56.5625 72.7213 50.8877 69.2282 49.206C65.7352 47.5242 63.5486 49.4141 61.1506 47.4982Z" fill="#619B82"/>
<path d="M61.3621 49.2967C61.3621 49.2967 59.154 51.638 57.0109 53.3574C54.8677 55.0767 52.3349 60.5274 59.1951 67.1535C59.1951 67.1535 60.0906 65.8106 60.7712 65.0782C61.4519 64.3459 65.7869 60.4407 64.9776 56.6194C64.1521 52.9535 61.487 52.44 61.3621 49.2967Z" fill="#619B82"/>
<path d="M45.4661 60.3699C45.4661 60.3699 47.6977 59.2828 49.7466 58.4957C51.7793 57.8642 55.0054 54.4999 51.8024 47.5176C51.8024 47.5176 50.6703 48.2167 50.1712 48.6497C49.3719 49.0601 45.274 50.6343 44.9486 53.7458C44.4731 56.846 46.3268 57.9257 45.4661 60.3699Z" fill="#619B82"/>
<path d="M53.8417 39.4351C53.8417 39.4351 49.9018 35.2215 48.552 27.9105" stroke="#619B82" stroke-width="0.2287" stroke-miterlimit="10"/>
<path d="M49.6967 32.8912C48.4888 31.5425 48.2243 31.2079 45.5458 30.8626C42.8673 30.5173 39.7824 28.4051 38.9071 24.077C38.0319 19.7488 39.6776 17.1773 37.9231 15.3163C37.9231 15.3163 39.6854 15.7556 42.9183 15.1914C46.1511 14.6273 49.8002 17.095 50.9925 21.2873C52.317 25.6468 49.6054 28.3018 49.3603 30.4972C49.405 31.4485 49.6967 32.8912 49.6967 32.8912Z" fill="#619B82"/>
<path d="M49.592 32.8774C49.592 32.8774 49.0095 25.0687 46.126 21.5476C43.9121 18.7052 41.8479 17.1413 37.8692 15.292" stroke="#5A9075" stroke-width="0.2287" stroke-miterlimit="10"/>
<path d="M48.8965 27.0063C48.8965 27.0063 45.9738 29.6655 40.2399 28.5996" stroke="#5A9075" stroke-width="0.2287" stroke-miterlimit="10"/>
<path d="M48.8829 27.4061C49.4136 26.5037 50.1035 25.4558 50.6342 24.5534C51.1648 23.6509 51.5539 22.7388 51.9605 21.6714C52.3672 20.6039 52.3312 19.6625 51.8703 18.6919" stroke="#5A9075" stroke-width="0.2287" stroke-miterlimit="10"/>
<path d="M47.4866 23.6014C44.1906 25.4443 40.3381 25.3459 36.888 24.4111" stroke="#5A9075" stroke-width="0.2287" stroke-miterlimit="10"/>
<path d="M45.0132 19.9381C42.8029 20.3203 40.6503 20.1604 38.3631 19.8082C37.7481 19.7624 37.1523 19.536 36.595 18.948" stroke="#5A9075" stroke-width="0.2287" stroke-miterlimit="10"/>
<path d="M47.6272 24.0189C49.1402 21.7815 50.1483 19.0402 50.4604 16.2501C50.495 15.9401 50.5297 15.6301 50.4251 15.3103" stroke="#5A9075" stroke-width="0.2287" stroke-miterlimit="10"/>
<path d="M44.807 20.1717C44.9447 20.1815 44.9619 20.0266 44.979 19.8717C45.2197 18.9522 46.0798 17.4522 46.0622 16.3584C46.0274 15.4194 45.8893 14.161 45.1317 13.483" stroke="#5A9075" stroke-width="0.2287" stroke-miterlimit="10"/>
<path d="M41.8693 17.4102C41.9242 16.94 41.9242 16.94 41.8316 16.4601C41.7574 15.8234 41.3882 15.1671 41.0006 14.6676C40.6131 14.168 40.0781 13.6586 39.6905 13.1591" stroke="#5A9075" stroke-width="0.2287" stroke-miterlimit="10"/>
<path d="M41.8033 17.3915C39.6367 17.4119 37.5275 16.915 35.6291 15.9117" stroke="#5A9075" stroke-width="0.2287" stroke-miterlimit="10"/>
<path d="M51.5433 34.9046C51.5433 34.9046 49.8453 33.6626 48.6028 32.4525C47.3603 31.2424 43.8049 30.1908 40.1302 35.7078C40.1302 35.7078 41.1399 36.2599 41.5777 36.451C42.1496 36.812 44.7864 39.2428 47.2057 38.1293C49.625 37.0157 49.5163 35.2436 51.5433 34.9046Z" fill="#619B82"/>
<path d="M58.3191 26.0061C58.3191 26.0061 56.3094 26.4959 54.633 26.6937C52.9566 26.8915 49.7106 29.0292 51.1203 35.2776C51.1203 35.2776 52.068 34.8711 52.6997 34.6C53.3315 34.3289 56.8509 33.7873 57.7266 31.3258C58.5849 29.0207 57.3638 27.8314 58.3191 26.0061Z" fill="#619B82"/>
<path d="M104.082 32.4942C104.082 32.4942 106.801 28.4355 112.086 26.1464" stroke="#619B82" stroke-width="0.2287" stroke-miterlimit="10"/>
<path d="M108.824 28.1403C109.361 27.3875 109.528 27.2411 109.386 25.8086C109.394 24.3865 110.036 22.6926 111.957 21.7204C113.877 20.7483 115.173 21.3131 115.913 20.1003C115.913 20.1003 115.807 21.0413 116.399 22.5053C116.823 24.1157 115.996 26.1128 114.208 27.2523C112.42 28.3918 111.009 27.5028 109.943 27.5863C109.458 27.8685 108.824 28.1403 108.824 28.1403Z" fill="#619B82"/>
<path d="M106.966 29.7288C106.966 29.7288 107.585 28.1993 108.318 26.9923C109.05 25.7854 109.397 22.6634 104.948 20.9342C104.948 20.9342 104.696 21.8603 104.512 22.162C104.312 22.6199 102.812 25.3459 103.827 26.9906C105.008 28.4897 106.38 28.2716 106.966 29.7288Z" fill="#619B82"/>
<path d="M114.896 33.4777C114.896 33.4777 114.297 31.9966 113.85 30.5262C113.537 29.225 111.494 27.0031 106.95 29.4035C106.95 29.4035 107.485 30.0806 107.584 30.5672C107.834 31.0644 108.745 33.8467 110.698 34.1433C112.668 34.2812 113.416 33.0543 114.896 33.4777Z" fill="#619B82"/>
<path d="M58.343 36.69C58.8466 36.2547 59.4687 36.1435 60.0744 36.1887C62.227 36.034 64.3304 36.3485 66.3844 37.1322C66.6708 37.3111 66.9736 37.3337 67.1086 37.5014C67.3786 37.8368 67.6321 38.3286 67.7506 38.6526C68.0898 39.7813 68.2611 41.055 68.4488 42.1724C68.5016 43.1221 68.5379 44.2282 68.1365 45.1439C67.7515 45.9033 67.08 46.4838 66.2737 46.8965C65.4673 47.3092 64.6938 47.4091 63.7688 47.4978C62.6761 47.7315 61.4319 47.954 60.3391 48.1877C59.8684 48.3102 59.2463 48.4215 58.7921 48.3876C56.8237 48.2408 56.2803 46.1511 56.4612 44.4308C56.6256 42.8668 56.6385 41.2916 57.1222 39.5938C57.2373 38.499 57.5202 37.2591 58.343 36.69Z" fill="#E0725C"/>
<path d="M50.9565 57.1442C50.4405 56.3119 50.2444 55.3426 50.1993 54.3839C50.1896 53.1092 50.8999 52.2032 51.6279 51.1392C52.3559 50.0753 55.8017 46.4937 56.9299 45.9354C57.4185 45.651 58.0582 45.3772 58.6625 45.4194C59.4356 45.3141 60.2891 45.8515 61.0092 46.2203C62.8496 47.4636 64.5035 49.0124 65.82 50.8562C66.8696 52.3628 68.4176 54.8598 66.8458 56.6612C66.3219 57.2616 65.5311 57.5249 64.607 57.6196C63.2119 57.8407 61.8521 57.7458 60.4394 58.1249C59.9685 58.2513 59.4799 58.5357 58.8579 58.6515C57.4275 59.1886 56.0147 59.5678 54.5215 59.3042C53.0284 59.0407 51.7393 58.3137 50.9565 57.1442Z" fill="#DE5E52"/>
<path d="M56.0394 46.4557C57.1044 44.9567 56.9021 42.7391 56.6302 41.1462C56.3931 39.241 56.4357 37.5128 56.4956 35.6285C56.4513 34.6811 56.573 33.5879 56.0657 32.7654C55.9345 32.5988 55.8207 32.2761 55.5236 32.2552C55.3925 32.0886 55.0954 32.0678 54.7809 32.2031C54.0209 32.3071 53.2087 32.8796 52.545 33.4625C51.3836 34.4827 50.2222 35.5028 48.9122 36.5125C48.2659 36.9393 47.7508 37.5326 47.3669 38.2926C46.9481 39.3649 47.4381 40.3435 47.7621 41.468C48.1651 43.2274 48.2537 45.1222 49.2856 46.6111C49.9414 47.4441 50.9291 47.9856 51.9515 48.2147C53.7514 48.1837 55.3063 47.6633 56.0394 46.4557Z" fill="#E0725C"/>
<path d="M55.1781 50.5055C55.5827 49.5851 55.9874 48.6647 56.2444 47.7345C56.5014 46.8043 56.1494 45.9912 56.0928 45.1979C55.9249 44.0813 56.0524 42.9845 56.0322 41.8778C56.0302 40.6144 55.8988 39.1845 55.1219 38.1851C53.9383 36.8426 51.132 36.6549 49.7683 38.1427C49.0864 38.8867 48.6999 39.6503 48.1658 40.4041C46.8951 42.3719 45.4767 44.3298 43.7994 45.9546C43.7994 45.9546 43.6334 46.1014 43.6152 46.2581C43.597 46.4148 43.597 46.4148 43.7265 46.5813C44.467 47.8941 45.3551 49.2168 45.4684 50.8034C45.525 51.5967 45.4157 52.5368 45.62 53.34C45.6767 54.1333 46.0469 54.7897 46.583 55.2993C46.6943 55.6226 47.101 55.9656 47.3781 56.142C47.803 56.3284 48.412 56.2112 48.7074 56.231C49.6118 56.1335 50.5345 55.8795 51.4753 55.4687C52.748 54.7643 53.9093 53.7366 54.6641 52.366C54.7552 51.5825 54.9757 50.9657 55.1781 50.5055Z" fill="#E9715D"/>
<path d="M46.5092 53.1741C46.142 52.5197 45.9393 51.7188 45.5721 51.0643C45.2049 50.4099 45.0022 49.609 44.4523 49.2572C44.0489 48.9151 43.481 48.7195 43.0595 48.5337C42.913 48.5239 42.7665 48.514 42.6381 48.3479C42.5096 48.1818 42.5097 48.1818 42.3812 48.0158C42.0321 47.2051 41.8113 46.5605 41.6268 45.6034C41.6448 45.4472 41.6448 45.4472 41.6629 45.2909C41.681 45.1347 41.8275 45.1446 41.8456 44.9883C42.1747 44.6956 42.6504 44.4127 43.108 44.2861C43.401 44.3058 43.5475 44.3156 43.8586 44.1791C44.7557 44.082 45.6709 43.8287 46.5861 43.5753C47.5013 43.322 48.545 43.2348 49.3498 42.6592C50.6303 41.8006 51.2867 39.9555 51.4674 38.3932C51.5217 37.9245 51.5759 37.4559 51.7766 36.9971C52.1419 36.3919 52.9287 35.9724 53.6612 36.0217C54.3938 36.071 55.1082 36.2765 55.6581 36.6284C56.208 36.9802 56.9044 37.3419 57.3801 37.0591C56.9025 36.0823 56.1319 35.0858 55.3251 34.4018C54.9217 34.0598 54.5184 33.7177 54.0788 33.6882C53.5109 33.4925 53.0714 33.463 52.4673 33.5798C49.4829 33.8514 46.4823 35.5388 44.3066 37.7541C43.6302 38.4958 42.9538 39.2375 42.4059 40.1453C41.4745 41.8145 41.075 43.9919 41.0046 45.8764C40.7896 49.0108 40.7031 52.3113 41.6963 55.212C42.6896 58.1128 44.598 60.7602 47.4559 61.5822C47.4198 61.8946 49.3424 61.8665 49.6355 61.8862C50.5145 61.9454 50.9902 61.6625 51.6304 61.2332C51.9415 61.0967 52.2526 60.9602 52.5818 60.6674C53.4047 59.9356 54.1353 58.7252 54.2618 57.6316C54.6071 55.923 53.4893 55.3755 52.0803 56.0679C51.9158 56.2143 51.7693 56.2044 51.4582 56.3409C51.0006 56.4676 50.5791 56.2818 50.1396 56.2522C49.389 56.3592 48.7668 56.6322 48.2169 56.2804C47.5386 55.7624 47.1894 54.9517 46.8403 54.141C46.7661 53.5063 46.6376 53.3402 46.5092 53.1741Z" fill="#F0A5B7"/>
<path d="M51.9691 39.2408C51.7266 40.0212 51.6522 40.6534 51.7089 41.4536C51.7841 42.0957 51.878 42.5798 51.9532 43.2219C52.1781 43.8739 52.4029 44.5259 52.6463 45.0199C55.0424 49.0011 61.3799 47.6677 64.2007 44.1905C65.0787 43.1335 65.6761 41.8987 66.1425 40.4959C66.3664 39.8736 66.5904 39.2512 66.3655 38.5992C66.2717 38.1151 66.0283 37.6212 65.6353 37.1173C65.3733 36.7814 65.2608 36.4554 64.9803 36.2776C64.4191 35.9219 63.8393 35.7243 63.2782 35.3687C62.586 34.8451 62.0248 34.4894 61.3326 33.9658C61.052 33.788 60.6404 33.4422 60.3599 33.2644C59.3499 32.8791 58.0975 33.2742 56.9946 33.6792C56.2096 33.9459 55.4245 34.2126 54.6394 34.4793C53.8543 34.746 53.3498 35.1905 52.9763 35.803C52.6213 36.2574 52.6966 36.8995 52.4912 37.3638C52.2673 37.9862 52.0434 38.6085 51.9691 39.2408Z" fill="#DE5E52"/>
<path d="M51.6222 36.6251C51.9812 36.1641 52.6238 35.8835 53.2476 35.7633C54.4953 35.5229 55.5917 35.2724 56.8582 34.8716C57.3308 34.7414 57.8222 34.4508 58.446 34.3306C59.3724 34.2304 60.2423 34.6113 60.961 34.9822C61.6797 35.353 62.3608 36.0446 63.2308 36.4255C63.9495 36.7963 64.687 37.0068 65.0844 37.518C65.3493 37.8587 65.4442 38.3498 65.3878 38.8308C65.4638 39.4823 65.4074 39.9633 65.3323 40.6047C65.2947 40.9254 65.2571 41.2461 65.3895 41.4165C65.522 41.5868 65.8245 41.6069 65.9946 41.4566C66.1646 41.3063 66.3347 41.156 66.3723 40.8353C66.5987 40.2039 66.5415 39.3921 66.4654 38.7407C66.4081 37.9289 66.3509 37.1172 65.9911 36.2853C65.6313 35.4535 64.969 34.6016 64.2691 34.0704C63.5692 33.5392 62.6992 33.1583 61.8292 32.7774C60.9593 32.3965 59.9381 32.0056 59.0493 31.7851C58.0093 31.5545 57.1017 31.4943 56.0053 31.7448C55.0601 32.0053 54.3987 32.4462 53.5672 33.0374C52.7357 33.6287 51.8666 34.5406 51.5838 35.653" fill="#F0A5B7"/>
<path d="M56.1419 48.973C55.4499 47.1774 55.5789 44.7998 56.8284 43.1325C57.5371 42.2249 58.5073 41.6527 59.6084 41.2483C60.7095 40.8438 61.792 40.5972 62.856 40.5084C64.2372 40.2816 65.6369 39.8969 66.7018 41.0808C67.225 41.7517 67.4309 42.5607 67.6368 43.3697C67.8427 44.1787 67.8993 44.9778 68.1052 45.7868C68.1989 46.2703 68.4419 46.7636 68.8343 47.2667C69.0959 47.6022 69.8241 47.8094 69.3018 48.4112C69.1154 48.717 68.9475 48.865 68.761 49.1708C68.2202 49.9304 67.9595 50.8677 67.5495 51.7951C67.1395 52.7224 66.7295 53.6498 65.9086 54.2318C65.1062 54.656 64.1916 54.7546 63.277 54.8533C62.6796 54.8138 62.1008 54.6164 61.522 54.4191C60.3643 54.0244 59.0944 53.3042 58.2911 52.4557C57.5064 51.4493 56.5909 50.2753 56.1419 48.973Z" fill="#E9715D"/>
<path d="M65.3839 42.1089C65.8594 43.0852 65.8965 44.0323 66.3721 45.0086C66.7015 45.9752 67.3413 46.8051 68.1454 47.4886C68.4195 47.6644 68.8216 48.0061 68.9133 48.4845C69.0049 48.9629 68.512 49.4022 68.3295 49.7049C67.8185 50.3004 67.4354 51.0619 67.3627 51.6867C67.0894 52.7704 67.2364 54.0396 66.817 55.1135C67.7119 55.016 68.2411 54.2643 68.7704 53.5126C69.3359 52.4484 69.9015 51.3843 70.1748 50.3006C70.3935 49.6855 70.448 49.2169 70.6668 48.6018C71.0491 46.5809 70.7007 44.5111 69.8958 42.5682C69.4566 41.2794 68.8531 40.1371 67.7385 39.5902C67.1721 39.3949 66.6058 39.1996 66.0212 39.1605C65.729 39.1409 65.2906 39.1116 64.9802 39.2482C64.6697 39.3849 64.2132 39.5118 63.9027 39.6484C63.7384 39.7949 63.2819 39.9217 63.3917 40.2439C63.5197 40.4099 63.958 40.4393 64.2321 40.615C64.5062 40.7908 64.7803 40.9665 64.9083 41.1325C65.1642 41.4645 65.2741 41.7867 65.3839 42.1089Z" fill="#F0A5B7"/>
<path d="M52.6501 45.5504C52.4492 46.0085 52.3834 46.6345 52.4856 47.1152C52.5548 47.9089 52.6241 48.7026 52.8613 49.3511C53.4873 50.6594 53.6223 50.8272 55.121 51.0967C56.0301 51.1645 56.9391 51.2323 57.7296 50.9758C58.52 50.7193 59.3434 50.1499 59.7451 49.2336C61.7372 44.8087 54.3886 40.6335 52.6501 45.5504Z" fill="#DE5E52"/>
<path d="M57.3176 46.1671C56.5538 46.2713 55.7377 46.8449 55.2202 47.4394C54.7026 48.0339 54.1851 48.6285 53.9487 49.4004C53.7297 50.0159 53.66 50.6418 53.6077 51.1113C53.4334 52.6761 53.5402 54.4183 54.4631 55.587C55.1049 56.5782 56.3786 57.2983 57.5902 57.2256C58.8018 57.1528 60.0657 56.6106 60.7848 55.5571C61.1356 55.1085 61.3372 54.6496 61.3895 54.1801C61.4592 53.5542 61.3622 53.0743 61.1334 52.4274C60.7106 50.8207 60.1385 49.2036 59.7157 47.5969C59.3899 46.4701 58.6959 45.9484 57.3176 46.1671Z" fill="#F3887B"/>
<path d="M54.1502 48.8949C54.1502 48.8949 52.8083 52.8913 54.4786 55.3688C56.0004 57.8358 58.0176 57.191 58.0176 57.191C58.0176 57.191 57.6144 55.432 55.7706 54.5156C53.9269 53.5993 55.0856 49.9047 54.1502 48.8949Z" fill="#F0A5B7"/>
<path d="M60.1972 54.4925C59.8804 54.6283 59.5811 54.6073 59.2643 54.7431C56.6502 55.192 56.5412 50.7618 56.6014 48.8707C56.6364 48.5572 56.6539 48.4005 56.6889 48.087C57.0931 47.1676 58.8093 46.656 59.5925 46.3949C60.5429 45.9875 61.8101 45.4444 62.6731 45.8207C63.8178 46.3746 63.9248 48.1195 63.952 49.2271C63.9443 50.6481 63.8219 51.7451 62.8015 52.7794C62.098 53.6778 61.1301 54.2419 60.1972 54.4925Z" fill="#F0A5B7"/>
<path d="M59.5139 54.6135C59.1994 54.7524 58.9042 54.7337 58.5898 54.8726C56.0035 55.3439 55.9507 50.8923 56.0334 48.9912C56.0718 48.6759 56.091 48.5182 56.1294 48.2029C56.5399 47.2758 58.2404 46.7483 59.0169 46.4799C59.9602 46.0632 61.2179 45.5076 62.0652 45.8791C63.1886 46.427 63.2726 48.1799 63.2858 49.2928C63.2606 50.721 63.1262 51.8245 62.1061 52.8718C61.2528 53.7708 60.4379 54.3545 59.5139 54.6135Z" fill="#EE7A6F"/>
<path d="M56.7206 44.4403C56.2498 44.5666 55.2906 44.9772 55.0769 44.1663C54.9612 43.8398 55.1299 43.6924 55.1652 43.3765C55.4046 42.5972 55.8126 41.6705 56.052 40.8913C56.256 40.4279 56.309 39.954 56.6464 39.6592C57.0014 39.2064 57.6232 39.0907 58.1116 38.8064C58.5824 38.68 59.2042 38.5643 59.6396 38.7539C60.3948 38.8066 60.6615 39.1436 61.0439 39.8071C61.4264 40.4706 61.8088 41.1341 62.36 41.6501C62.8934 42.3242 63.5956 42.8508 64.1291 43.5248C64.6626 44.1989 64.8586 45.1677 64.3172 45.9259C63.9622 46.3787 63.3227 46.6525 62.852 46.7788C62.3812 46.9051 61.7594 47.0209 61.324 46.8313C60.1334 46.5889 59.5372 45.1145 58.5506 44.4089C57.8131 44.1982 57.3424 44.3245 56.7206 44.4403Z" fill="#F3887B"/>
<path d="M55.9441 42.8086C56.1657 42.1876 56.3697 41.7245 56.7422 41.114C57.2834 40.3562 58.0913 39.9352 58.8462 39.9879C59.601 40.0406 60.4716 40.4197 60.8539 41.0829C60.9695 41.4092 61.2538 41.5882 61.3695 41.9145C62.0537 42.5988 63.0929 42.8304 63.6085 43.6621C64.0084 44.1674 64.1064 44.6516 64.0358 45.2831C63.9652 45.9147 63.7612 46.3778 63.2554 46.8199C63.7083 46.8515 64.0455 46.5568 64.3828 46.2621C64.7201 45.9674 64.773 45.4937 64.675 45.0095C64.7633 44.22 64.683 43.5779 64.6203 42.7779C64.5576 41.978 64.3439 41.1674 64.1302 40.3569C63.8989 39.7042 63.5166 39.041 63.1167 38.5357C62.85 38.1989 62.6011 37.7041 62.1835 37.3567C61.6149 36.9988 61.0463 36.6408 60.2914 36.5881C59.5366 36.5354 58.915 36.6511 58.1601 36.5984C57.5386 36.7141 56.917 36.8299 56.2955 36.9456C55.8249 37.0719 55.47 37.5245 54.9817 37.8086C54.6445 38.1033 54.1562 38.3875 53.9523 38.8506C53.7484 39.3137 53.5621 39.619 53.5091 40.0927C53.4385 40.7242 53.3502 41.5137 53.5815 42.1663C53.6795 42.6505 54.0441 43.4716 54.4794 43.6611C55.3499 44.0402 55.7402 43.2718 55.9441 42.8086Z" fill="#F0A5B7"/>
<path d="M60.1117 47.9116L63.4232 48.3026L62.3067 55.5653L50.0652 51.8372L55.9709 45.388L60.1117 47.9116Z" fill="#E8644D"/>
<path d="M60.0504 48.0037C59.9626 48.7899 59.3007 50.6451 57.5845 49.733C55.8683 48.8208 55.7082 47.542 56.2822 46.4728C56.8563 45.4037 60.5347 45.0268 60.0504 48.0037Z" fill="#DA5941"/>
<path d="M59.9816 48.1082C59.821 46.8256 57.7175 45.2484 55.377 47.1509C53.0364 49.0535 57.0576 40.2756 57.0576 40.2756L63.4033 44.6919L59.9816 48.1082Z" fill="#ED7163"/>
<path d="M99.7232 37.0081C100.311 37.209 100.748 37.3993 101.336 37.6001C101.772 37.7904 102.022 38.2871 102.441 38.6359C102.842 39.1433 103.395 39.6612 103.814 40.01C104.366 40.5279 104.901 41.2043 104.964 42.0075C105.143 43.1383 103.906 44.6495 102.828 44.7339C102.205 44.8501 101.768 44.6598 101.162 44.6175C99.8171 44.3637 98.4365 44.4269 97.0381 44.6487L96.8867 44.6381L96.753 44.469C96.5564 43.4967 96.3598 42.5244 95.6734 41.8374C95.406 41.4992 94.9871 41.1504 94.7197 40.8122C94.4522 40.4739 94.3539 39.9878 94.2556 39.5017C94.2733 39.3431 94.1573 39.0155 94.175 38.857C94.2104 38.5399 94.531 38.4026 94.7179 38.0961C95.0739 37.6417 95.5636 37.3564 96.2048 37.0817C97.0151 36.6591 97.9414 36.5641 98.8323 36.7861C98.9838 36.7967 99.4204 36.987 99.7232 37.0081Z" fill="#E9715D"/>
<path d="M96.6552 40.1698C96.7532 40.654 97.0199 40.9908 97.1179 41.475C97.2159 41.9592 97.4825 42.2961 97.4295 42.7697C97.3942 43.0855 97.3589 43.4012 97.1726 43.7064C97.155 43.8643 97.155 43.8643 97.1373 44.0222C97.1197 44.1801 97.1197 44.1801 97.253 44.3485C97.351 44.8327 97.5999 45.3274 97.8666 45.6642L97.9999 45.8327L98.1509 45.8432C98.4704 45.7064 98.7724 45.7275 98.9586 45.4223C99.1273 45.2749 99.1273 45.2749 99.2959 45.1276C99.6508 44.675 100.139 44.3909 100.645 43.9489C101.151 43.5069 101.657 43.0648 102.127 42.9386C103.068 42.6861 103.939 43.0651 104.792 43.602C105.076 43.7809 105.209 43.9493 105.511 43.9704C105.964 44.002 106.435 43.8758 106.639 43.4127C106.842 42.9496 107.029 42.6444 107.233 42.1813C107.286 41.7076 107.49 41.2445 107.809 41.1077C108.04 41.7603 108.103 42.5603 108.033 43.1918C107.997 43.5076 107.962 43.8233 107.776 44.1285C107.589 44.4338 107.403 44.739 107.217 45.0442C105.833 46.5387 103.933 47.2016 102.086 47.3909C101.464 47.5066 100.86 47.4644 100.407 47.4328C99.2173 47.1906 98.3822 46.4958 97.396 45.7905C96.0099 44.5799 94.6238 43.3694 93.8946 41.7273C93.1653 40.0853 92.791 37.9907 93.5891 36.2961C93.4557 36.1277 94.3165 35.2331 94.3342 35.0753C94.6891 34.6227 95.0087 34.4859 95.4792 34.3596C95.6478 34.2123 95.7988 34.2228 96.1184 34.0861C96.7399 33.9703 97.4947 34.023 98.0633 34.381C98.9161 34.9178 98.6769 35.6967 97.8691 36.1176C97.7181 36.1071 97.7005 36.265 97.5495 36.2544C97.3809 36.4018 97.1946 36.707 97.0083 37.0122C96.6711 37.3069 96.3515 37.4437 96.1299 38.0647C96.0593 38.6962 96.3083 39.1909 96.5572 39.6856C96.5219 40.0014 96.5219 40.0014 96.6552 40.1698Z" fill="#F0A5B7"/>
<path d="M102.052 32.2359C102.318 32.5717 102.584 32.9075 102.681 33.3902C102.797 33.7155 102.912 34.0408 102.877 34.3556C102.992 34.6809 102.939 35.1532 102.904 35.468C102.419 38.448 98.799 39.623 96.4964 38.5105C95.7791 38.1431 95.2299 37.6289 94.6806 37.1147C94.4148 36.7789 94.1314 36.6004 94.1842 36.1282C94.0689 35.8029 94.1041 35.4881 94.2898 35.1839C94.3074 35.0265 94.3426 34.7116 94.5108 34.5647C94.6965 34.2604 95.0327 33.9667 95.236 33.505C95.4393 33.0433 95.7932 32.5921 95.9965 32.1304C96.1646 31.9835 96.1998 31.6687 96.3679 31.5218C96.8899 30.9237 97.66 30.8189 98.2797 30.7035C98.7488 30.5776 99.2004 30.6092 99.6695 30.4833C100.139 30.3574 100.422 30.5358 100.856 30.7247C101.139 30.9031 101.255 31.2285 101.388 31.3964C101.503 31.7217 101.769 32.0575 102.052 32.2359Z" fill="#DE5E52"/>
<path d="M101.492 31.4C101.209 31.2222 100.742 31.3476 100.425 31.4835C99.7907 31.7554 99.0064 32.0168 98.3895 32.1318C98.0898 32.1108 97.7725 32.2467 97.4553 32.3827C96.9882 32.5081 96.6359 32.9578 96.2661 33.5643C95.9138 34.014 95.7114 34.4742 95.3591 34.9238C95.0243 35.2166 94.6721 35.6663 94.6195 36.1369C94.5844 36.4506 94.7167 36.618 94.6817 36.9317C94.7965 37.2559 94.9113 37.5802 95.1935 37.758C95.3258 37.9253 95.3083 38.0822 95.2907 38.2391C95.2732 38.3959 95.1234 38.3855 94.9735 38.375C94.8237 38.3645 94.6913 38.1972 94.6913 38.1972C94.4267 37.8625 94.3119 37.5383 94.2146 37.0572C94.1173 36.5761 93.8702 36.0846 93.9228 35.6139C93.9929 34.9865 94.0455 34.5158 94.4153 33.9093C94.7851 33.3027 95.1199 33.01 95.4721 32.5603C95.8244 32.1106 96.3266 31.6714 96.6789 31.2217C97.0311 30.7721 97.6656 30.5002 98.2826 30.3852C98.7496 30.2598 99.349 30.3017 99.7986 30.3331C100.398 30.375 100.98 30.5737 101.377 31.0757" fill="#F0A5B7"/>
<path d="M105.737 38.2875C105.402 38.5805 105.067 38.8735 104.749 39.0096C104.431 39.1456 104.114 39.2816 103.796 39.4176C103.479 39.5536 103.029 39.5222 102.729 39.5012C99.8609 39.4591 98.7817 35.5866 99.6449 33.2738C99.8826 32.4994 100.42 31.7459 100.941 31.1494C101.126 30.8459 101.461 30.5529 101.778 30.4169C102.096 30.2809 102.396 30.3019 102.696 30.3228C102.996 30.3438 103.146 30.3543 103.278 30.5217C103.561 30.6997 103.976 31.0451 104.276 31.0661C104.708 31.2545 105.141 31.4429 105.573 31.6314C105.856 31.8093 106.006 31.8198 106.138 31.9872C106.686 32.5001 106.766 33.1385 106.978 33.9444C107.075 34.4258 107.173 34.9073 107.27 35.3887C107.368 35.8702 107.333 36.1841 107.13 36.6446C106.945 36.9481 106.627 37.0841 106.442 37.3876C106.257 37.6911 105.922 37.9841 105.737 38.2875Z" fill="#DE5E52"/>
<path d="M106.552 37.7603C106.738 37.4555 106.64 36.9719 106.524 36.646C106.293 35.9943 106.08 35.1848 105.849 34.5331C105.733 34.2072 105.768 33.8918 105.653 33.5659C105.404 33.0718 104.987 32.7249 104.57 32.378C104.135 32.1887 103.567 31.8313 103.132 31.642C102.715 31.2951 102.449 30.9586 101.997 30.927C101.695 30.906 101.527 31.0531 101.207 31.1897C100.888 31.3264 100.569 31.463 100.383 31.7678C100.215 31.915 100.064 31.9044 100.064 31.9044C99.9129 31.8939 99.9306 31.7362 99.9482 31.5785C99.9658 31.4209 99.9835 31.2632 100.134 31.2737C100.471 30.9794 100.79 30.8428 101.127 30.5485C101.615 30.2648 102.085 30.1387 102.555 30.0126C103.176 29.897 103.61 30.0863 104.196 30.2861C104.631 30.4753 105.199 30.8328 105.616 31.1797C106.033 31.5267 106.601 31.8841 107 32.3887C107.4 32.8934 107.648 33.3874 107.879 34.0392C107.977 34.5228 107.907 35.1535 107.854 35.6265C107.783 36.2572 107.562 36.8774 107.208 37.3294" fill="#F0A5B7"/>
<path d="M101.174 38.5647C100.718 39.9542 100.842 41.5423 101.635 42.5455C102.032 43.047 102.745 43.4128 103.326 43.6114C103.907 43.81 104.655 43.8624 105.254 43.9042C106.152 43.9671 106.9 44.0194 107.603 43.121C107.955 42.6718 108.025 42.0449 108.245 41.4285C108.315 40.8016 108.367 40.3315 108.587 39.7151C108.622 39.4016 108.824 38.9419 109.008 38.639C109.193 38.336 109.51 38.2002 109.263 37.7091C109.131 37.5419 108.999 37.3747 109.016 37.218C108.62 36.7165 108.54 36.0791 108.311 35.4313C108.081 34.7835 107.835 34.2924 107.271 33.9371C106.857 33.5922 106.241 33.7071 105.774 33.8324C105.308 33.9577 105.141 34.1039 104.675 34.2292C104.023 34.6575 103.205 35.232 102.686 35.8275C101.983 36.7259 101.579 37.6453 101.174 38.5647Z" fill="#E9715D"/>
<path d="M106.898 42.6169C107.111 42.0063 107.196 41.2302 107.409 40.6196C107.639 39.8538 107.997 39.2536 108.483 38.819C108.645 38.6741 108.97 38.3844 109.004 38.0739C109.038 37.7635 108.764 37.5875 108.653 37.2666C108.397 36.9353 108.158 36.4489 108.063 35.9728C107.858 35.1758 107.943 34.3996 107.738 33.6026C108.173 33.6338 108.557 34.1306 108.942 34.6275C109.309 35.2796 109.532 35.9214 109.737 36.7183C109.848 37.0392 109.959 37.3601 110.054 37.8362C110.336 39.2645 110.038 40.6513 109.595 42.0277C109.348 42.9487 108.956 43.8594 108.324 44.2836C108 44.5733 107.71 44.5525 107.258 44.6766C107.112 44.6662 106.805 44.8007 106.677 44.6351C106.387 44.6143 106.259 44.4487 106.114 44.4383C105.968 44.4279 105.695 44.2519 105.857 44.107C106.019 43.9622 106.164 43.9726 106.327 43.8277C106.489 43.6828 106.651 43.538 106.668 43.3827C106.702 43.0723 106.736 42.7618 106.898 42.6169Z" fill="#F0A5B7"/>
<path d="M103.664 33.995C103.95 34.1738 104.371 34.5202 104.506 34.6878C104.91 35.1904 105.163 35.6818 105.417 36.1731C105.604 37.2896 105.739 37.4571 105.036 38.3496C104.667 38.9521 104.164 39.387 103.51 39.8107C102.872 40.0781 102.083 40.3342 101.511 39.9765C98.1305 38.7794 100.03 32.3065 103.664 33.995Z" fill="#F0A5B7"/>
<path d="M101.126 37.3867C101.461 37.0934 102.08 36.9782 102.53 37.0097C102.981 37.0412 103.432 37.0726 103.865 37.2613C104.148 37.4394 104.431 37.6176 104.696 37.9529C105.377 38.6339 105.908 39.3045 106.103 40.2685C106.165 41.0647 105.927 41.84 105.406 42.4372C104.885 43.0343 104.099 43.2962 103.348 43.2437C103.047 43.2227 102.764 43.0446 102.632 42.8769C102.349 42.6988 102.234 42.374 102.118 42.0492C101.773 41.0748 101.26 40.247 100.915 39.2726C100.402 38.4449 100.454 37.9734 101.126 37.3867Z" fill="#F3887B"/>
<path d="M103.628 37.1431C103.628 37.1431 105.592 38.2238 105.975 40.1355C106.228 41.881 105.108 42.5873 105.108 42.5873C105.108 42.5873 104.621 41.6106 105.054 40.3848C105.488 39.1589 103.525 38.0781 103.628 37.1431Z" fill="#F0A5B7"/>
<path d="M102.945 42.2307C103.113 42.0824 103.263 42.0923 103.431 41.9439C104.76 40.9153 103.186 38.8975 102.511 38.215C102.38 38.0468 102.23 38.0369 102.249 37.8787C101.818 37.6907 100.845 38.2644 100.377 38.393C99.8906 38.6798 99.1045 38.9468 98.8802 39.57C98.6374 40.3513 99.1435 41.1822 99.537 41.6866C100.062 42.3592 100.624 42.7153 101.372 42.7648C101.822 42.7945 102.458 42.5175 102.945 42.2307Z" fill="#F0A5B7"/>
<path d="M103.246 41.951C103.415 41.8008 103.563 41.8098 103.732 41.6595C105.06 40.6169 103.521 38.5978 102.86 37.9158C102.732 37.7475 102.584 37.7385 102.604 37.5792C102.179 37.393 101.208 37.9759 100.742 38.1081C100.257 38.3996 99.4746 38.673 99.2455 39.301C98.9962 40.0882 99.4889 40.9205 99.8735 41.4253C100.386 42.0983 100.94 42.4529 101.682 42.4979C102.127 42.5249 102.761 42.2425 103.246 41.951Z" fill="#EE7A6F"/>
<path d="M100.435 36.3558C100.601 36.2099 101.232 35.9392 100.969 35.6056C100.837 35.4389 100.688 35.4284 100.557 35.2616C100.127 35.074 99.7154 34.73 99.286 34.5423C99.0055 34.3651 98.8566 34.3546 98.5587 34.3337C98.2608 34.3128 97.9455 34.4482 97.6129 34.7399C97.2976 34.8753 97.1139 35.1774 96.9476 35.3233C96.7638 35.6255 96.7291 35.9381 96.8258 36.4174C96.9226 36.8968 97.0194 37.3762 96.9672 37.8451C96.915 38.314 96.8455 38.9393 96.9423 39.4186C97.039 39.898 97.2848 40.3879 97.7142 40.5755C98.0121 40.5965 98.3273 40.461 98.6426 40.3256C98.9579 40.1903 99.1416 39.8881 99.3079 39.7423C99.6754 39.1379 99.3329 38.1687 99.7177 37.4081C99.7872 36.7829 100.12 36.4912 100.435 36.3558Z" fill="#F3887B"/>
<path d="M100.052 35.3778C99.7712 35.2005 99.4905 35.0232 99.1923 35.0023C98.745 34.9709 98.1313 35.0855 97.7809 35.5337C97.4305 35.9819 97.2292 36.4406 97.3261 36.9202C97.3087 37.0766 97.4404 37.2434 97.4055 37.5562C97.485 38.1922 96.9855 38.6299 97.065 39.2659C97.0302 39.5787 97.1445 39.9019 97.4078 40.2356C97.6712 40.5692 97.9693 40.5902 98.2675 40.6111C98.101 40.757 97.7854 40.8925 97.6364 40.882C97.3382 40.8611 97.2065 40.6943 96.9257 40.517C96.6624 40.1833 96.399 39.8496 96.1357 39.5159C95.8723 39.1822 95.6264 38.6921 95.5295 38.2125C95.4152 37.8893 95.3184 37.4097 95.2215 36.9301C95.2563 36.6173 95.142 36.2941 95.1768 35.9814C95.229 35.5122 95.4129 35.2099 95.7633 34.7617C96.1137 34.3135 96.2802 34.1676 96.6132 33.8757C96.9462 33.5839 97.2792 33.2921 97.5947 33.1566C97.9103 33.0211 98.2085 33.0421 98.524 32.9066C98.8222 32.9275 99.1378 32.7921 99.2869 32.8025C99.585 32.8235 99.7167 32.9903 99.9975 33.1676C100.278 33.3449 100.542 33.6786 100.805 34.0123C100.919 34.3355 101.016 34.8151 100.981 35.1279C100.78 35.5865 100.35 35.3988 100.052 35.3778Z" fill="#F0A5B7"/>
<path d="M100.583 39.3991L99.3392 41.0529L102.527 43.6492L106.336 36.6362L101.366 36.4473L100.583 39.3991Z" fill="#E8644D"/>
<path d="M100.444 39.3914C100.064 38.7318 100.389 37.1719 102.075 36.9732C103.761 36.7745 98.8515 34.6906 98.8515 34.6906L97.7071 39.5167L100.444 39.3914Z" fill="#ED7163"/>
<path d="M100.106 38.889C100.203 39.3706 100.849 40.3654 101.705 39.4755C102.56 38.5856 102.648 37.8004 102.083 37.4443C101.685 36.9417 99.5486 37.109 100.106 38.889Z" fill="#DA5941"/>
<path d="M34.7864 64.4008C34.7864 64.4008 32.8577 63.7813 33.2047 60.4787C33.4359 58.277 33.4585 53.6822 29.6837 51.657C25.9255 49.4745 20.8577 50.9982 18.109 53.8045C15.3603 56.6109 14.4438 55.1159 14.4438 55.1159C14.4438 55.1159 17.5603 57.5676 18.2091 60.152C18.8413 62.8937 22.6561 67.4579 28.4682 66.1482C34.2638 64.9958 34.7864 64.4008 34.7864 64.4008Z" fill="#619B82"/>
<path d="M34.8067 64.4536C30.8811 62.3821 27.5646 57.5821 23.4148 56.1468C19.9927 55.0892 16.9928 54.3876 14.3081 55.0126" stroke="#3F934E" stroke-width="0.1971" stroke-miterlimit="10"/>
<path d="M32.7477 61.8682C29.822 64.7288 24.6132 67.4291 21.3359 66.5531" stroke="#3F934E" stroke-width="0.1971" stroke-miterlimit="10"/>
<path d="M27.6364 58.1452C21.8511 63.2383 20.6049 62.0181 15.6054 62.7985" stroke="#3F934E" stroke-width="0.1971" stroke-miterlimit="10"/>
<path d="M32.6181 61.9354C33.1111 59.9453 33.5877 58.11 33.6447 56.2435C33.7016 54.377 33.3389 52.4795 32.351 51.1592" stroke="#3F934E" stroke-width="0.1971" stroke-miterlimit="10"/>
<path d="M27.2871 58.517C28.047 57.0022 29.9011 49.6044 24.6101 49.23" stroke="#3F934E" stroke-width="0.1971" stroke-miterlimit="10"/>
<path d="M23.0401 56.1069C22.619 53.0382 19.8616 49.0062 15.9583 51.1327" stroke="#3F934E" stroke-width="0.1971" stroke-miterlimit="10"/>
<path d="M23.0055 56.1035C20.6713 57.8594 15.7511 58.155 15.3337 60.5248" stroke="#3F934E" stroke-width="0.1971" stroke-miterlimit="10"/>
<path d="M28.9524 48.8489C29.1902 48.0732 29.1792 46.8044 27.5398 46.5305C25.9004 46.2566 25.4485 46.2248 25.42 45.1133C25.3915 44.0018 25.8673 42.4503 25.8673 42.4503C25.8673 42.4503 24.4593 42.8267 24.3482 45.1963C24.3482 45.1963 23.5143 44.5036 23.416 44.0212C23.1671 43.5282 22.5058 45.3836 24.1563 46.9263C24.1563 46.9263 23.0211 46.2123 21.7573 48.0253C21.7573 48.0253 22.7483 47.3026 24.0865 47.5553C25.4247 47.8081 25.7544 48.9407 26.4726 49.3083C27.2891 50.1583 28.529 49.9286 28.9524 48.8489Z" fill="#619B82"/>
<path d="M41 50.9539C41 50.9539 34.6234 52.6951 28.5466 48.6614" stroke="#619B82" stroke-width="0.2287" stroke-miterlimit="10"/>
<path d="M35.946 51.1929C34.46 50.9247 33.6365 48.667 34.4329 46.8445C34.8311 45.9332 35.7976 45.3782 35.7976 45.3782C35.7976 45.3782 33.7306 46.3213 32.8165 47.8213C31.9025 49.3214 33.1243 50.6677 34.1596 50.9022C35.1949 51.1366 35.946 51.1929 35.946 51.1929Z" fill="#619B82"/>
<path d="M36.0438 51.1266C36.0438 51.1266 33.3817 51.7175 32.7948 52.937C32.2079 54.1566 33.0526 54.8513 33.0526 54.8513C33.0526 54.8513 30.9774 54.2226 31.5807 52.8464C32.1841 51.4701 36.0438 51.1266 36.0438 51.1266Z" fill="#619B82"/>
<path d="M21.4537 75.6252C25.8256 75.0374 33.5416 70.1735 35.0966 65.2828" stroke="#619B82" stroke-width="0.1824" stroke-miterlimit="10"/>
<path d="M1.88094 86.4696C1.88094 86.4696 3.46232 84.5321 4.28077 81.1147C5.09923 77.6973 7.78634 72.522 12.2406 72.3799C16.7113 72.0809 22.3547 75.1897 22.3547 75.1897C22.3547 75.1897 21.669 84.6252 17.0863 87.4456C11.5428 90.6687 6.62247 86.5071 1.88094 86.4696Z" fill="#619B82"/>
<path d="M22.5607 75.0086C22.5607 75.0086 10.0076 76.1349 1.5054 86.93" stroke="#3B8A64" stroke-width="0.2287" stroke-miterlimit="10"/>
<path d="M7.29152 80.8794C7.29152 80.8794 4.14836 79.8119 1.35252 81.4118" stroke="#3B8A64" stroke-width="0.2287" stroke-miterlimit="10"/>
<path d="M7.44945 80.929C7.44945 80.929 7.04388 86.3502 5.48793 87.3205" stroke="#3B8A64" stroke-width="0.2287" stroke-miterlimit="10"/>
<path d="M10.8822 79.2134C10.8822 79.2134 11.1682 86.3975 8.65848 88.3814" stroke="#3B8A64" stroke-width="0.2287" stroke-miterlimit="10"/>
<path d="M15.0346 76.9513C15.3051 79.928 15.9376 84.9556 13.4258 88.9545" stroke="#3B8A64" stroke-width="0.2287" stroke-miterlimit="10"/>
<path d="M19.3209 75.7745C19.3085 77.329 20.3511 83.945 17.336 88.6825" stroke="#3B8A64" stroke-width="0.2287" stroke-miterlimit="10"/>
<path d="M19.3227 75.9546C18.4764 75.2581 16.7803 72.4399 14.7175 71.6527" stroke="#3B8A64" stroke-width="0.2287" stroke-miterlimit="10"/>
<path d="M15.0206 77.1265C13.9489 75.6124 12.061 73.0812 8.56769 72.6605" stroke="#3B8A64" stroke-width="0.2287" stroke-miterlimit="10"/>
<path d="M10.8339 79.0815C10.085 78.8642 7.49213 75.6118 4.94281 76.3851" stroke="#3B8A64" stroke-width="0.2287" stroke-miterlimit="10"/>
</svg>
