<svg width="165" height="122" viewBox="0 0 165 122" fill="none" xmlns="http://www.w3.org/2000/svg">
<path d="M73.6019 79.1418C73.9244 80.8533 73.8656 81.195 75.6071 83.0274C77.3485 84.8598 78.5676 88.1335 77.1182 91.7741C75.8124 95.3773 73.4145 96.1635 73.8052 98.6732C73.8052 98.6732 72.8074 97.3004 70.247 95.8439C67.6867 94.3874 66.2981 90.5049 67.418 86.7867C68.538 83.0686 71.6372 82.5899 72.776 81.1516C73.1384 80.2415 73.6019 79.1418 73.6019 79.1418Z" fill="#619B82"/>
<path d="M73.5732 79.1935C73.5732 79.1935 70.5698 85.0121 70.8258 89.1666C71.1499 92.4914 71.7779 94.7625 73.6569 98.3301" stroke="#5A9075" stroke-width="0.2287" stroke-miterlimit="10"/>
<path d="M71.7905 83.6763C71.7905 83.6763 74.9979 83.5091 78.4611 87.5847" stroke="#5A9075" stroke-width="0.2287" stroke-miterlimit="10"/>
<path d="M71.6201 83.6213C70.7367 83.8517 69.7504 84.2805 68.9114 84.6708C68.0724 85.0611 67.2333 85.4514 66.5858 85.9633C65.9384 86.4752 65.3796 87.3069 65.1596 88.2218" stroke="#5A9075" stroke-width="0.2287" stroke-miterlimit="10"/>
<path d="M71.0314 86.7427C74.005 87.4572 76.6466 89.7421 78.7563 92.3297" stroke="#5A9075" stroke-width="0.2287" stroke-miterlimit="10"/>
<path d="M70.791 90.7017C72.454 91.7446 73.8752 93.0141 75.1968 94.4733C75.6089 94.8578 75.9215 95.4321 76.0492 95.8904" stroke="#5A9075" stroke-width="0.2287" stroke-miterlimit="10"/>
<path d="M70.8444 86.7119C68.4911 87.325 66.5061 88.6969 64.9922 90.6299C64.7423 90.866 64.6394 91.0637 64.5808 91.4209" stroke="#5A9075" stroke-width="0.2287" stroke-miterlimit="10"/>
<path d="M70.8359 90.89C70.6907 90.9276 70.6907 90.9276 70.5454 90.9652C69.9061 91.4641 68.5405 92.151 68.1332 92.9233C67.7259 93.6955 67.2168 94.6608 67.4773 95.5935" stroke="#5A9075" stroke-width="0.2287" stroke-miterlimit="10"/>
<path d="M71.4868 94.4241C71.2484 94.6491 71.2484 94.6491 71.0521 95.0261C70.7576 95.5915 70.786 96.2358 70.7722 96.7281C70.8006 97.3723 70.9692 97.98 70.9976 98.6243" stroke="#5A9075" stroke-width="0.2287" stroke-miterlimit="10"/>
<path d="M71.5964 94.3652C73.1425 95.5924 74.3093 97.0813 75.0968 98.832" stroke="#5A9075" stroke-width="0.2287" stroke-miterlimit="10"/>
<path d="M69.7617 103.605C70.2542 103.147 71.2659 102.884 72.0848 104.155C72.7591 105.465 73.0321 105.888 73.8565 105.509C74.6808 105.13 75.5641 104.406 75.5641 104.406C75.5641 104.406 75.7621 105.674 73.9688 106.47C73.9688 106.47 74.7181 106.935 75.1945 106.976C75.6709 107.017 74.5842 108.124 72.7964 107.269C72.7964 107.269 73.7759 108.004 72.8176 109.572C72.8176 109.572 72.9943 108.537 72.4056 107.535C71.8169 106.534 70.7624 106.643 70.3021 106.103C69.4671 105.33 69.0229 104.291 69.7617 103.605Z" fill="#619B82"/>
<path d="M70.0751 104.217C65.4009 100.451 64.4643 94.8887 64.4643 94.8887C64.4643 94.8887 63.6099 89.6277 65.2349 85.97" stroke="#619B82" stroke-width="0.1824" stroke-miterlimit="10"/>
<path d="M65.7729 98.9708C66.4105 100.133 68.5907 100.065 69.5472 98.9859C70.004 98.3692 70.185 97.3261 70.185 97.3261C70.185 97.3261 70.2624 99.2981 69.349 100.532C68.582 101.727 67.0051 101.141 66.4536 100.288C66.0917 99.552 65.7729 98.9708 65.7729 98.9708Z" fill="#619B82"/>
<path d="M65.6716 99.0298C65.6716 99.0298 66.1627 101.351 65.4686 102.184C64.7745 103.017 63.9872 102.406 63.9872 102.406C63.9872 102.406 65.1724 103.893 66.0104 103.023C66.7045 102.189 65.6716 99.0298 65.6716 99.0298Z" fill="#619B82"/>
<path d="M29.663 90.659C29.5673 89.1915 28.34 87.0233 25.5738 87.7429C22.8077 88.4624 21.9937 88.3425 20.9815 86.9476C20.4323 86.0955 20.0454 84.7037 20.0454 84.7037C20.0454 84.7037 18.5729 85.5842 20.6835 88.6833C20.6835 88.6833 18.996 88.7907 16.5611 86.7709C15.7637 86.1491 16.5806 89.0873 20.4714 90.7284C20.4714 90.7284 17.6789 90.7915 17.7414 93.2626C17.7414 93.2626 18.6746 92.6882 20.9014 92.2748C23.1282 91.8614 24.5176 93.4898 25.9999 93.7675C27.7304 93.8149 29.7852 92.7829 29.663 90.659Z" fill="#619B82"/>
<path d="M58.9054 84.6824C58.9054 84.6824 41.5167 92.8861 28.6251 90.0532" stroke="#619B82" stroke-width="0.1609" stroke-miterlimit="10"/>
<path d="M42.8092 89.8116C39.6726 90.1403 37.3962 87.4771 37.4133 84.2164C37.5821 82.0559 38.535 80.5052 38.535 80.5052C38.535 80.5052 34.741 77.9117 35.1958 83.9801C35.4654 87.1661 39.4702 90.5187 41.3758 90.1851C41.5191 90.1477 42.8092 89.8116 42.8092 89.8116Z" fill="#619B82"/>
<path d="M35.6301 90.5938C35.6301 90.5938 33.4231 91.6623 32.7012 93.0052C31.9793 94.3481 32.2871 96.5788 32.1411 96.6167C31.7111 97.8838 29.7468 94.7631 30.8813 92.6528C31.8523 91.0801 35.6301 90.5938 35.6301 90.5938Z" fill="#619B82"/>
<path d="M41.966 97.5961C42.0808 98.5634 41.8473 99.9532 40.1231 99.9011C38.3989 99.849 37.7758 99.8441 37.644 101.041C37.5121 102.239 37.482 103.244 37.482 103.244C37.482 103.244 36.5861 101.149 37.4427 99.7642C37.4427 99.7642 36.3697 100.374 35.3682 101.797C35.0199 102.219 35.3702 100.135 37.4145 99.1068C37.4145 99.1068 35.5302 99.5946 34.3163 96.9178C34.3163 96.9178 35.8503 98.5147 37.3863 98.4494C38.9223 98.3841 38.736 96.6044 39.5624 96.2243C40.2438 95.8817 41.7647 96.3188 41.966 97.5961Z" fill="#619B82"/>
<path d="M50.6763 87.2672C50.6763 87.2672 47.8396 93.3756 41.3407 97.5794" stroke="#619B82" stroke-width="0.1609" stroke-miterlimit="10"/>
<path d="M47.3359 92.2365C46.0648 93.2206 46.6853 96.0032 48.3055 97.3815C49.0943 97.9944 50.3746 98.1527 50.3746 98.1527C50.3746 98.1527 47.984 98.4462 46.3047 97.4103C44.6254 96.3744 44.9802 94.3198 45.8615 93.6004C46.8444 92.6911 47.3359 92.2365 47.3359 92.2365Z" fill="#619B82"/>
<path d="M46.7494 93.0043C46.7494 93.0043 44.3147 93.8008 42.9939 92.9875C41.8189 92.1364 41.9556 90.9451 41.9556 90.9451C41.9556 90.9451 41.5365 93.3654 42.7974 94.5245C44.1611 95.4918 46.7494 93.0043 46.7494 93.0043Z" fill="#619B82"/>
<path d="M86.3861 68.8148C88.0363 70.3539 88.1215 70.6597 91.2667 70.9914C94.2696 71.36 97.9688 73.6791 99.6174 78.4971C101.124 83.352 99.8127 86.3147 101.961 88.5443C101.961 88.5443 99.9968 88.0701 96.3956 88.8402C92.7945 89.6103 88.5403 86.9434 86.4221 82.0833C84.4463 77.1863 86.9385 74.0811 86.8259 71.4875C86.9546 70.3066 86.3861 68.8148 86.3861 68.8148Z" fill="#619B82"/>
<path d="M86.5834 68.8036C86.5834 68.8036 88.3894 77.4785 91.9303 81.6178C94.7572 84.8001 97.162 86.4592 101.913 88.4864" stroke="#00995D" stroke-width="0.1824" stroke-miterlimit="10"/>
<path d="M88.283 75.3689C88.283 75.3689 91.2425 72.2169 97.9177 73.3593" stroke="#00995D" stroke-width="0.1824" stroke-miterlimit="10"/>
<path d="M87.9877 75.1824C87.3971 76.3201 86.9474 77.4211 86.3567 78.5588C85.907 79.6598 85.4147 80.6079 85.2895 81.7885C85.1642 82.9691 85.1799 84.1131 85.802 85.2634" stroke="#00995D" stroke-width="0.1824" stroke-miterlimit="10"/>
<path d="M90.2155 78.8977C93.6424 76.9187 98.2099 76.7867 102.266 77.6849" stroke="#00995D" stroke-width="0.1824" stroke-miterlimit="10"/>
<path d="M93.2098 82.8477C95.6075 82.394 98.1392 82.425 100.613 82.8175C101.291 82.9868 102.115 83.1176 102.588 83.6869" stroke="#00995D" stroke-width="0.1824" stroke-miterlimit="10"/>
<path d="M89.7845 78.8663C88.2692 81.5544 87.4862 84.7072 87.5895 87.7933C87.5337 88.1354 87.6611 88.5938 87.746 88.8994" stroke="#00995D" stroke-width="0.1824" stroke-miterlimit="10"/>
<path d="M93.205 82.956C93.0683 82.9919 93.11 83.1433 93.015 83.3307C92.7602 84.5343 92.042 86.1844 92.3339 87.2445C92.6258 88.3045 92.9061 89.8548 93.798 90.4326" stroke="#00995D" stroke-width="0.1824" stroke-miterlimit="10"/>
<path d="M96.8663 85.8135C96.8542 86.3048 96.8542 86.3048 97.0218 86.9118C97.2312 87.6705 97.7163 88.357 98.1595 88.8918C98.6027 89.4266 99.2255 90.077 99.8065 90.5757" stroke="#00995D" stroke-width="0.1824" stroke-miterlimit="10"/>
<path d="M97.0161 85.6914C99.4891 85.5594 101.846 86.1396 104.19 87.235" stroke="#00995D" stroke-width="0.1824" stroke-miterlimit="10"/>
<path d="M102.233 65.6236C102.233 65.6236 99.5808 65.6406 97.4247 65.1943C95.2687 64.7479 90.7362 66.4247 91.2108 74.8437C91.2108 74.8437 92.566 74.6601 93.3382 74.6275C94.2562 74.5571 98.8161 75.2181 100.348 72.3089C101.88 69.3997 100.585 67.5579 102.233 65.6236Z" fill="#619B82"/>
<path d="M102.255 65.5427C102.255 65.5427 98.8216 66.7751 97.0902 67.9045C95.3589 69.0339 93.7742 70.1252 91.0602 75.0763" stroke="#3F934E" stroke-width="0.1824" stroke-miterlimit="10"/>
<path d="M84.9638 91.1617C84.9638 91.1617 86.4874 88.9646 87.8966 87.4522C89.4481 85.903 90.7177 81.1512 84.1365 76.1444C84.1365 76.1444 83.5808 77.4352 83.1394 78.0411C82.7405 78.7998 79.7226 82.2038 80.9006 85.3375C82.2209 88.4342 84.4253 88.6809 84.9638 91.1617Z" fill="#619B82"/>
<path d="M84.9732 91.0733C84.9732 91.0733 85.9263 87.5844 86.0723 85.4411C86.2182 83.2978 86.2685 81.3415 84.1275 76.2366" stroke="#3F934E" stroke-width="0.1824" stroke-miterlimit="10"/>
<path d="M85.0967 78.3611C84.8841 79.2464 84.6714 80.1317 84.744 80.9428C84.919 83.2214 86.9916 85.1728 89.2473 85.5827C90.3752 85.7876 91.5596 85.6458 92.429 84.9218C92.8139 84.6557 93.1127 84.0801 93.4546 83.6593C93.8961 83.0465 94.2945 82.279 94.5933 81.7033C95.0347 81.0906 95.4331 80.323 95.2178 79.549C95.0886 79.0845 94.8167 78.6572 94.8302 78.1556C94.7575 77.3445 95.199 76.7318 94.9837 75.9577C94.8545 75.4933 94.5826 75.0659 94.1681 74.6756C92.3242 72.9968 89.9259 72.624 87.7132 72.3691C85.5006 72.1141 85.522 76.5906 85.0967 78.3611Z" fill="#CFD362"/>
<path d="M86.7988 74.8476C85.8611 74.7606 84.7119 75.5557 85.0122 76.6357C85.3553 77.8699 86.4083 78.9195 87.4318 79.3151C87.7587 79.3955 91.014 80.6996 90.9711 80.5453C91.0273 80.1998 90.9415 79.8913 90.7138 79.6196C90.486 79.348 90.3011 79.2307 90.2153 78.9221C89.9447 78.4962 89.816 78.0334 89.6874 77.5705C89.3738 76.9903 89.0603 76.4101 88.6476 76.0212C88.0501 75.5148 87.4526 75.0085 86.7988 74.8476Z" fill="#AEC551"/>
<path d="M94.9823 80.3342C94.8984 80.0306 94.8146 79.7271 94.7726 79.5753C94.4252 78.8524 94.3533 78.0573 94.1856 77.4502C94.0598 76.9948 93.9759 76.6912 93.9879 76.1998C93.904 75.8962 93.9579 75.5566 93.874 75.253C93.8021 74.458 93.1792 73.8072 92.8317 73.0843C93.1192 72.5208 93.9038 72.1527 94.4429 72.4999C94.6645 72.7674 94.8862 73.0349 95.1078 73.3025C96.0781 74.6761 96.8149 76.2737 97.1384 77.9795C97.3781 79.3816 97.1625 80.7402 96.2701 81.7876C96.0785 82.1633 95.4196 82.9867 94.9764 82.4517C94.6709 81.8806 95.15 80.9414 94.9823 80.3342Z" fill="#FAF09E"/>
<path d="M88.5821 73.436C89.5152 72.3634 90.6351 71.4084 91.8849 70.9185C92.4163 70.6146 93.1346 70.4285 93.5795 69.8147C93.7804 69.4303 93.9379 68.8909 93.9951 68.5437C94.1943 66.4978 93.3013 64.4024 91.7194 63.1503C90.9285 62.5242 89.8502 61.9726 88.9588 61.5387C87.9237 61.1421 86.8454 60.5904 85.7965 60.696C84.7476 60.8015 83.9288 61.1798 82.9664 61.5953C82.004 62.0108 81.2285 62.5441 80.2661 62.9596C80.022 63.1891 79.591 63.3007 79.3902 63.6851C79.089 64.2617 79.262 64.8817 79.3918 65.3466C80.2276 67.7892 81.2503 70.3496 82.6175 72.4883C83.2077 73.4988 84.1578 75.2469 85.2932 75.4514C86.8458 76.0463 87.7927 74.4715 88.5821 73.436Z" fill="#CFD362"/>
<path d="M91.6719 64.5863C91.441 64.3127 91.3543 64.0019 91.1668 63.8838C90.2867 62.945 88.7885 63.6664 87.7071 63.1132C86.9572 62.6408 86.6969 61.7081 85.9904 61.3911C85.4714 61.1922 84.895 61.3415 84.4627 61.4535C83.9871 61.4101 83.324 61.2485 83.0497 60.8195C83.2945 60.5894 83.5827 60.5148 83.8709 60.4401C85.7874 60.1103 87.7473 59.936 89.636 60.6134C90.674 61.0112 91.6548 61.7572 92.4914 62.5406C93.1406 63.2058 93.8332 64.0264 94.3817 64.8844C94.6993 65.4688 95.7095 66.8739 95.5949 67.5703C95.0341 68.8823 91.9895 65.1707 91.6719 64.5863Z" fill="#FAF09E"/>
<path d="M85.0971 80.9551C85.2115 81.9165 85.2251 83.0691 84.6348 83.7173C84.3901 83.9458 84.1454 84.1743 84.0015 84.2115C83.469 84.5145 82.9796 84.9714 82.4471 85.2744C81.5261 85.843 80.3603 86.6402 79.3248 86.2474C78.4763 85.9714 77.9302 85.1217 77.5711 84.3888C76.8959 83.077 76.4076 81.882 76.1641 80.4585C75.9919 79.8424 75.9205 79.035 76.18 78.3072C76.555 76.8889 77.9508 76.3626 79.2026 75.8735C80.3106 75.4217 83.3616 73.6413 83.9937 74.799C84.4967 75.4947 84.5964 76.9555 84.6678 77.7628C84.8252 78.8783 84.9827 79.9937 85.0971 80.9551Z" fill="#CFD362"/>
<path d="M77.4568 78.952C76.8231 79.4465 76.0453 79.9782 75.2392 79.8563C74.9082 79.7766 74.5341 79.5429 74.203 79.4633C73.6418 79.1127 73.0806 78.762 72.9083 78.1455C72.549 77.4122 72.6215 76.567 72.5501 75.7592C72.3495 74.4889 71.5298 73.2135 71.3292 71.9433C71.2726 70.6358 71.8349 69.3334 72.7136 68.6103C73.5492 67.733 74.802 67.2436 75.9108 66.7915C76.5876 66.4511 77.2644 66.1107 78.0274 66.0786C78.7904 66.0465 79.5965 66.1684 80.2008 66.6732C80.805 67.1779 80.9774 67.7944 81.1927 68.5651C81.8967 70.5314 82.7447 72.4605 83.4487 74.4269C83.5349 74.7352 83.6641 75.1976 83.6063 75.5431C83.5054 75.7344 83.2605 75.9631 82.9725 76.0376C82.4975 75.9952 77.4568 78.952 77.4568 78.952Z" fill="#CFD362"/>
<path d="M93.2731 73.0393C93.3027 72.0383 92.7121 71.0322 92.2078 70.3349C91.5161 69.5205 90.8675 68.8605 90.32 68.0088C90.0463 67.583 89.9168 67.1198 89.542 66.8857C88.8071 65.9169 87.6247 65.5606 86.4706 65.8591C86.0378 65.9711 85.605 66.083 85.1722 66.195C84.8837 66.2696 84.6963 66.1525 84.5089 66.0355C84.0329 65.993 83.499 66.2967 83.1094 66.563C82.9368 65.9455 82.9084 65.2906 82.7789 64.8274C82.7358 64.673 82.6495 64.3642 82.6063 64.2099C82.5632 64.0555 82.3757 63.9384 82.0441 63.8586C80.7753 63.1935 79.2895 63.4123 78.4955 64.4455C78.2501 64.6745 78.0479 65.0579 77.7594 65.1326C77.6151 65.1699 77.3266 65.2445 77.1823 65.2819C76.6053 65.4311 76.2009 66.198 75.8976 66.7731C75.4352 67.886 75.3908 69.3875 76.1257 70.3563C76.6732 71.208 77.7114 71.6016 78.1146 72.4907C77.3353 73.0234 76.4118 73.5934 75.6757 74.2805C75.2861 74.5468 74.8965 74.8131 74.5068 75.0795C74.1172 75.3458 73.6844 75.4578 73.2948 75.7241C72.227 76.3315 71.7067 77.7905 72.3405 78.951C72.6142 79.3768 72.8448 79.6483 73.2628 80.0369C74.1419 80.9683 75.0211 81.8998 75.8571 82.6768C76.2751 83.0654 76.6931 83.4539 77.2122 83.6507C77.9187 83.9646 78.8274 83.8951 79.4624 83.3997C80.0974 82.9044 80.6892 82.2546 80.9925 81.6795C81.1935 82.9519 81.4377 84.3788 81.4944 85.6885C81.5376 85.8429 81.6239 86.1517 81.667 86.3061C82.0271 87.0407 82.979 87.1256 83.6571 86.7846C84.3353 86.4436 84.826 85.9856 85.5473 85.799C86.2686 85.6124 86.932 85.7719 87.6533 85.5853C88.3314 85.2443 88.779 84.6319 88.8949 83.9397C89.0108 83.2475 88.795 82.4755 88.5792 81.7036C88.4497 81.2404 88.1328 80.6601 88.0034 80.197C87.7444 79.2706 87.7309 78.1152 87.9479 77.2313C88.7986 77.5079 89.4472 78.1679 90.1969 78.6362C90.7591 78.9874 91.3793 78.9926 91.6395 78.263C91.8417 77.8796 91.7122 77.4164 91.9144 77.033C92.1166 76.6496 92.3188 76.2662 92.5211 75.8828C92.8971 74.4611 93.3447 73.8486 93.2731 73.0393Z" fill="#FCE96B"/>
<path d="M86.7577 69.6193C86.571 69.5026 86.4851 69.1949 86.2984 69.0782C86.0687 68.8077 85.7384 68.7282 85.408 68.6487C84.2303 68.2935 83.2109 67.4024 82.4789 66.4369C82.1633 65.8587 81.4449 66.0446 81.0998 66.4639C80.8984 66.8459 80.6111 66.9203 80.3667 67.1485C79.7773 67.796 79.7909 68.9474 79.0725 69.1333C78.9288 69.1705 78.7851 69.2076 78.7851 69.2076C78.1674 69.2025 77.8654 69.7756 78.181 70.3538L78.224 70.5077C78.267 70.6616 78.4537 70.7783 78.353 70.9693C78.396 71.1231 78.1516 71.3514 78.0509 71.5424C77.6482 72.3065 77.7195 73.113 77.6041 73.8028C77.474 74.9914 77.3009 76.0261 76.9841 77.0979C76.7828 77.48 77.0554 77.9044 77.5725 78.1006C78.0895 78.2967 78.6925 78.8006 79.2525 79.1506C79.6259 79.384 79.9562 79.4635 80.3296 79.6968C81.4066 80.243 82.2823 81.1713 82.9136 82.3278C83.1863 82.7522 83.847 82.9112 84.149 82.3381C84.3504 81.956 84.6955 81.5368 85.1265 81.4252C85.5575 81.3137 86.1323 81.1649 86.5203 80.8995C87.2964 80.3687 87.4265 79.1802 88.2026 78.6494C88.5906 78.384 89.0217 78.2725 89.6394 78.2776C90.2571 78.2827 90.5162 77.5558 90.2005 76.9775C89.2818 75.8954 88.5645 74.4312 88.508 73.1259C88.4797 72.4733 88.638 71.9374 88.9401 71.3643C89.2422 70.7912 88.7398 70.0963 88.1221 70.0911C87.5474 70.2398 87.0734 70.1975 86.7577 69.6193Z" fill="#CFD362"/>
<path d="M77.5871 76.293C77.7592 76.9101 78.0312 77.3359 78.6321 77.8418C79.047 78.2305 79.8476 78.3538 80.3624 78.5512C81.2061 78.8288 82.1358 79.4149 82.6798 80.2664C82.9518 80.6922 83.2669 81.2722 83.8815 81.2783C84.1674 81.2042 84.3103 81.1671 84.5961 81.093C85.0249 80.9819 85.6396 80.9879 86.1113 81.0311C86.2973 81.1483 86.6262 81.2285 86.7691 81.1914C87.0549 81.1173 87.4406 80.8519 87.4975 80.5063C88.3826 79.2843 89.2248 77.908 89.5951 76.4886C89.9655 75.0692 89.9209 73.261 89.2478 71.9467C89.2048 71.7924 89.1618 71.6382 89.0188 71.6752C88.8329 71.558 88.69 71.595 88.5471 71.6321C87.9754 71.7803 87.2178 71.8113 86.6461 71.9595C86.8889 71.7311 87.1317 71.5027 87.3745 71.2743C87.2024 70.6573 86.6446 70.3056 86.0868 69.9539C85.5289 69.6023 84.8712 69.4419 84.4563 69.0532C83.6264 68.2758 83.3821 66.8503 82.4524 66.2642C82.2664 66.147 82.0805 66.0297 81.7947 66.1038C81.6517 66.1409 81.4089 66.3692 81.3091 66.5606C80.4239 67.7826 79.9967 69.5476 80.2841 71.1274C79.8691 70.7387 79.3974 70.6955 78.7827 70.6895C78.6398 70.7265 78.4968 70.7636 78.397 70.9549C78.2971 71.1462 78.2971 71.1462 78.1972 71.3375C77.9697 72.7199 77.1568 74.7503 77.5871 76.293Z" fill="#FAF09E"/>
<path d="M84.0993 71.1186C83.5984 70.4214 82.8116 69.7983 82.1109 69.4837C81.7821 69.4035 81.5531 69.1321 81.2673 69.2062C80.8386 69.3173 80.6819 69.8542 80.6681 70.354C80.6542 70.8538 81.1413 72.0509 80.6127 72.3533C79.8414 72.8841 79.7415 73.0754 79.5279 73.9579C79.4572 74.8032 79.2006 75.5314 79.4157 76.3027C79.7737 77.037 80.1886 77.4256 80.8463 77.586C81.3611 77.7834 81.8328 77.8265 82.2615 77.7153C82.9761 77.5301 83.1051 77.9929 83.563 78.5358C84.107 79.3873 84.9936 79.8191 85.722 79.134C86.4503 78.449 86.564 77.7579 86.9205 76.8384C87.1772 76.1102 87.3907 75.2277 87.6474 74.4996C87.7472 74.3083 87.7042 74.154 87.6612 73.9997C87.6182 73.8455 87.4322 73.7283 87.2463 73.6111C86.9175 73.5309 86.4457 73.4878 86.0739 73.2533C85.702 73.0189 85.43 72.5932 85.4869 72.2476C85.5868 72.0563 85.5868 72.0563 85.6866 71.865C85.7865 71.6737 85.6006 71.5565 85.5145 71.248C85.3855 70.7852 85.1135 70.3595 84.6417 70.3163C84.4988 70.3534 84.3559 70.3904 84.213 70.4275C83.3126 70.4955 82.7256 69.4898 81.8251 69.5578C81.0676 69.5888 80.6972 71.0081 80.7264 71.6622" fill="#D5DF98"/>
<path d="M80.0468 73.1603C80.1329 73.4682 80.5066 73.7018 80.7943 73.6274C80.5066 73.7018 80.0174 74.1586 79.9596 74.5038C79.9018 74.849 80.2178 75.4277 80.5485 75.5072C80.7354 75.624 81.023 75.5496 81.1668 75.5124C80.9222 75.7408 80.8214 75.932 80.7206 76.1232L80.7637 76.2772L80.8067 76.4312C81.0366 76.7019 81.2665 76.9727 81.5972 77.0522C81.8848 76.9778 82.0287 76.9406 82.3163 76.8661C82.2586 77.2113 82.1578 77.4025 82.2869 77.8645C82.416 78.3264 82.9335 78.5227 83.365 78.4111C83.6526 78.3367 83.7965 78.2995 84.0411 78.071C84.1419 77.8798 84.3435 77.4974 84.1566 77.3807C84.7602 77.885 85.9969 77.8952 86.2132 77.0136C86.271 76.6685 86.1419 76.2065 85.8112 76.127C86.2857 76.1693 86.9188 75.6753 86.7897 75.2133C86.8044 74.7141 86.2008 74.2098 85.6685 74.5127C86.2008 74.2098 86.4171 73.3283 86.1442 72.9036C85.9143 72.6328 85.7274 72.516 85.4398 72.5905C85.1091 72.5109 84.8645 72.7393 84.6199 72.9677C84.5768 72.8138 84.7207 72.7765 84.6776 72.6226C84.7354 72.2774 84.937 71.895 84.7071 71.6242C84.664 71.4702 84.4772 71.3535 84.3334 71.3907C84.1465 71.2739 83.672 71.2316 83.4273 71.46C83.2835 71.4972 82.7943 71.954 82.7943 71.954C82.7082 71.6461 82.6652 71.4921 82.4353 71.2213C82.0616 70.9878 81.544 70.7915 81.1556 71.0571C80.9109 71.2855 80.6663 71.5139 80.6086 71.8591C80.5508 72.2043 80.9245 72.4378 81.1544 72.7086C80.8237 72.629 80.493 72.5495 80.2484 72.7779C80.3062 72.4327 79.9177 72.6983 80.0468 73.1603Z" fill="white"/>
<path d="M114.8 33.3397C116.404 36.3444 119.039 45.273 110.396 52.8994" stroke="#619B82" stroke-width="0.1824" stroke-miterlimit="10"/>
<path d="M117.885 8.03943C115.928 8.21429 113.136 10.933 112.677 13.7123C112.663 14.2148 112.605 14.5622 112.735 15.0274C112.865 15.4926 113.282 15.8831 113.714 15.7712C114.189 15.8143 115.082 16.248 115.427 15.826C116.031 14.6718 115.224 12.8858 116.202 10.3046C116.432 8.91497 117.698 7.92168 117.885 8.03943Z" fill="#619B82"/>
<path d="M105.67 10.4902C107.195 10.4273 108.864 10.3271 110.231 10.8038C110.893 10.9646 111.397 11.665 111.858 12.2105C112.175 12.7932 112.477 13.8782 112.175 14.4551C111.874 15.0319 111.442 15.1438 110.881 14.7907C110.319 14.4376 109.959 13.6999 109.499 13.1544C109.038 12.609 108.433 12.1009 107.872 11.7477C107.08 11.1219 106.375 10.8061 105.67 10.4902Z" fill="#619B82"/>
<path d="M117.172 17.7531C117.529 16.8333 117.657 15.6421 117.356 14.5621C117.055 13.4822 116.282 12.3593 115.451 11.5821C114.435 10.6877 112.975 10.4046 111.73 10.8928C110.486 11.381 109.556 12.4492 108.955 13.5974C108.798 14.1345 108.641 14.6715 108.627 15.1714C108.613 15.6714 108.785 16.2885 108.914 16.7513C109.473 18.7568 110.276 20.5339 112.194 21.36C113.454 22.0259 115.085 21.2721 116.014 20.2039C116.271 19.4755 116.815 18.6729 117.172 17.7531Z" fill="#DE5E52"/>
<path d="M110.795 12.5613L110.751 12.405L110.708 12.2487C110.867 11.7048 111.113 11.4734 111.504 11.2044C111.895 10.9354 112.373 10.9789 112.852 11.0225C113.185 11.1036 113.374 11.2223 113.562 11.341C113.75 11.4597 113.838 11.7722 113.78 12.1223C113.679 12.3161 113.577 12.51 113.287 12.5851C113.766 12.6287 114.331 12.9848 114.607 13.416C114.65 13.5723 114.694 13.7285 114.737 13.8848C114.68 14.2349 114.477 14.6226 114.231 14.854C113.449 15.392 112.579 15.6174 111.666 15.6866C111.188 15.6431 110.71 15.5995 110.231 15.556C109.753 15.5125 109.333 15.1188 109.057 14.6876C109.245 14.8063 109.579 14.8874 109.724 14.8498C110.68 14.9369 111.593 14.8677 112.375 14.3297C112.52 14.2922 112.767 14.0607 112.723 13.9045C112.781 13.5544 112.447 13.4732 112.259 13.3545C111.838 12.9609 111.114 13.1488 110.795 12.5613Z" fill="#F0A5B7"/>
<path d="M113.078 21.8538C115.577 21.8781 117.363 19.9009 118.088 18.0307C118.682 15.6899 120.469 15.3944 120.804 15.4758C120.905 15.2813 121.021 14.5785 119.67 14.7608C116.299 14.9627 116.913 20.5223 113.295 20.9564C109.677 21.3905 109.616 16.6967 108.902 14.6952C108.276 13.0073 106.605 12.6 105.472 13.5667L105.516 13.7236C106.242 13.5351 107.884 13.2773 108.016 15.4296C108.28 18.0525 107.889 20.0042 110.825 21.5972C111.828 21.8416 113.078 21.8538 113.078 21.8538Z" fill="#619B82"/>
<path d="M115.763 18.5671C116.124 17.6397 116.296 16.5942 116.614 15.5113C116.786 14.4659 117.147 13.5385 117.652 12.5737C116.829 12.9537 116.093 13.6449 115.458 14.143C114.866 14.7967 114.231 15.2949 113.64 15.9486C113.149 16.4094 112.168 17.3309 111.908 18.0653C111.606 18.6441 111.419 20.1936 111.924 20.8965C112.618 21.7175 114.263 20.9574 114.754 20.4966C115.288 20.1914 115.605 19.1085 115.763 18.5671Z" fill="#619B82"/>
<path d="M115.204 33.7307C113.422 30.3456 110.854 22.9877 112.061 19.4476" stroke="#619B82" stroke-width="0.1824" stroke-miterlimit="10"/>
<path d="M113.727 30.1583C114.625 27.7861 115.096 23.8797 118.782 24.2392C118.782 24.2392 115.011 20.7756 113.83 24.3727C112.65 27.9699 113.727 30.1583 113.727 30.1583Z" fill="#619B82"/>
<path d="M111.141 49.9323C111.991 49.0492 113.03 48.2828 114.139 48.3266C116.124 48.1432 117.809 49.6941 119.408 50.936C120.905 52.3702 122.693 53.7287 124.678 53.5454C122.195 54.1892 121.261 57.579 118.95 58.8407C117.181 59.7966 114.878 59.3999 113.132 58.1958C111.576 57.1084 110.518 55.5606 109.709 53.7825C108.986 52.3133 110.188 51.0077 111.141 49.9323Z" fill="#619B82"/>
<path d="M114.914 54.4177C112.753 53.9688 110.563 52.8547 108.563 53.5413C107.965 52.5192 108.096 51.3079 108.462 50.3725C109.353 47.9554 111.865 46.2955 114.332 46.1604C116.946 45.9876 119.427 47.026 121.602 48.6484C122.785 49.5191 123.719 50.6223 124.404 51.958C125.178 53.6074 124.448 53.7966 123.134 54.1372C120.462 54.6615 117.6 55.0668 114.914 54.4177Z" fill="#3B8A64"/>
<path d="M122.279 57.334C121.46 56.5628 120.262 56.0543 119.401 55.1302C119.133 54.7079 118.864 54.2857 118.596 53.8635C118.511 53.5576 118.285 53.2883 118.2 52.9824" stroke="#3B8A64" stroke-width="0.2287" stroke-miterlimit="10"/>
<path d="M120.263 58.8632C118.98 58.049 117.556 57.2715 116.568 55.8888C115.891 55.0812 115.593 54.0108 114.874 53.0503" stroke="#3B8A64" stroke-width="0.2287" stroke-miterlimit="10"/>
<path d="M117.053 60.0131C116.075 59.1315 115.096 58.25 114.35 57.1449C113.562 55.8882 113.186 54.5237 112.81 53.1592" stroke="#3B8A64" stroke-width="0.2287" stroke-miterlimit="10"/>
<path d="M112.097 58.084C111.226 56.3858 110.482 54.6533 110.676 52.8313" stroke="#3B8A64" stroke-width="0.2287" stroke-miterlimit="10"/>
<path d="M96.6299 58.8158C96.6299 58.8158 95.146 55.7351 94.2705 53.1567C93.3522 50.4245 89.0666 46.2548 80.5983 50.595C80.5983 50.595 81.61 51.983 82.0131 52.8685C82.6048 53.8703 84.5871 59.297 88.4676 59.7763C92.3481 60.2556 93.6826 57.7645 96.6299 58.8158Z" fill="#619B82"/>
<path d="M95.9078 57.0023C95.9078 57.0023 97.0951 54.0851 98.4516 51.7761C99.808 49.467 100.15 43.5092 91.3325 39.4439C91.3325 39.4439 90.9962 40.9986 90.6341 41.9079C90.272 42.8172 87.686 47.8914 89.8477 51.242C91.967 54.4405 94.6321 54.0735 95.9078 57.0023Z" fill="#619B82"/>
<path d="M106.59 41.1727C106.59 41.1727 104.918 42.9128 103.305 44.3112C101.65 45.5573 99.8953 49.7669 105.451 55.341C105.451 55.341 106.244 54.3188 106.548 53.7502C107.139 53.1071 110.365 50.3104 109.518 47.2664C108.815 44.1852 106.693 43.7572 106.59 41.1727Z" fill="#619B82"/>
<path d="M106.005 63.5635C106.005 63.5635 111.221 66.2863 115.176 72.7623" stroke="#619B82" stroke-width="0.2287" stroke-miterlimit="10"/>
<path d="M111.991 68.1544C113.628 69.0504 114.001 69.2837 116.63 68.7683C119.259 68.2528 122.936 69.2808 125.389 73.0998C127.843 76.9187 127.281 79.8685 129.621 81.0773C129.621 81.0773 127.811 81.2159 125.009 82.7659C122.207 84.3159 117.87 83.1289 115.172 79.5382C112.287 75.8308 113.812 72.4669 113.21 70.3132C112.809 69.4273 111.991 68.1544 111.991 68.1544Z" fill="#619B82"/>
<path d="M112.041 68.123C112.041 68.123 115.58 75.3148 119.63 77.7405C122.792 79.7341 125.325 80.5672 129.759 81.0728" stroke="#5A9075" stroke-width="0.2287" stroke-miterlimit="10"/>
<path d="M115.072 73.5247C115.072 73.5247 116.812 70.0799 122.599 69.2641" stroke="#5A9075" stroke-width="0.2287" stroke-miterlimit="10"/>
<path d="M114.785 73.293C114.624 74.31 114.369 75.5145 114.209 76.5316C114.049 77.5486 114.026 78.5297 114.044 79.6624C114.063 80.7951 114.45 81.6685 115.249 82.4341" stroke="#5A9075" stroke-width="0.2287" stroke-miterlimit="10"/>
<path d="M117.552 76.2239C119.964 73.431 123.62 72.2854 127.209 72.0557" stroke="#5A9075" stroke-width="0.2287" stroke-miterlimit="10"/>
<path d="M121.112 78.8617C123.053 77.7862 125.134 77.2314 127.411 76.8107C128.006 76.6522 128.648 76.6673 129.384 77.0297" stroke="#5A9075" stroke-width="0.2287" stroke-miterlimit="10"/>
<path d="M117.144 76.0324C116.55 78.6199 116.621 81.5184 117.368 84.239C117.451 84.5413 117.534 84.8435 117.752 85.1102" stroke="#5A9075" stroke-width="0.2287" stroke-miterlimit="10"/>
<path d="M121.148 78.6545C121.014 78.6899 121.055 78.8408 121.096 78.9918C121.21 79.9328 120.953 81.6192 121.376 82.6404C121.758 83.5106 122.357 84.6473 123.327 85.0386" stroke="#5A9075" stroke-width="0.2287" stroke-miterlimit="10"/>
<path d="M124.865 80.1812C124.993 80.6417 124.993 80.6417 125.263 81.0654C125.576 81.6427 126.173 82.1463 126.727 82.4964C127.281 82.8465 127.976 83.1597 128.53 83.5098" stroke="#5A9075" stroke-width="0.2287" stroke-miterlimit="10"/>
<path d="M124.99 80.1509C127.019 79.4342 129.185 79.2219 131.341 79.5533" stroke="#5A9075" stroke-width="0.2287" stroke-miterlimit="10"/>
<path d="M109.863 66.9674C109.863 66.9674 111.922 67.61 113.542 68.3662C115.163 69.1223 118.887 68.9969 120.235 62.597C120.235 62.597 119.081 62.3919 118.599 62.3488C117.928 62.1869 114.541 60.7124 112.699 62.5345C110.858 64.3565 111.631 66.0048 109.863 66.9674Z" fill="#619B82"/>
<path d="M106.72 77.7256C106.72 77.7256 108.409 76.6303 109.897 75.9158C111.386 75.2013 113.606 72.1597 109.933 66.6982C109.933 66.6982 109.203 67.3806 108.716 67.8356C108.229 68.2906 105.152 69.91 105.265 72.5118C105.334 74.9603 106.922 75.7001 106.72 77.7256Z" fill="#619B82"/>
<path d="M61.2206 87.5307C61.2206 87.5307 60.1965 92.2481 56.1247 96.1067" stroke="#619B82" stroke-width="0.2287" stroke-miterlimit="10"/>
<path d="M58.2227 93.2729C58.0065 94.1539 57.9057 94.345 58.5801 95.6555C59.1108 97.0033 59.1526 98.8076 57.7287 100.331C56.3048 101.855 54.8822 101.728 54.6513 103.108C54.6513 103.108 54.3933 102.184 53.2877 100.985C52.2828 99.5955 52.2988 97.4462 53.5359 95.806C54.7731 94.1657 56.4254 94.5631 57.3885 94.1488C57.7337 93.7295 58.2227 93.2729 58.2227 93.2729Z" fill="#619B82"/>
<path d="M59.4458 91.0046C59.4458 91.0046 59.4445 92.6437 59.2156 94.0141C58.9868 95.3845 59.8385 98.441 64.636 98.671C64.636 98.671 64.5229 97.7171 64.5801 97.3745C64.5947 96.8791 64.9673 93.8326 63.4023 92.6C61.7375 91.5571 60.5411 92.1953 59.4458 91.0046Z" fill="#619B82"/>
<path d="M50.7846 90.123C50.7846 90.123 51.9055 91.3398 52.8806 92.5943C53.6664 93.7304 56.4187 95.1943 59.7574 91.4826C59.7574 91.4826 59.0002 91.0089 58.7237 90.5782C58.3015 90.1852 56.3948 87.8324 54.4571 88.1669C52.5629 88.6576 52.3288 90.0579 50.7846 90.123Z" fill="#619B82"/>
<path d="M102.968 67.9437C102.661 68.517 102.123 68.8209 101.542 68.9715C99.5954 69.8052 97.52 70.1786 95.3161 70.0916C94.9829 70.0134 94.6926 70.0887 94.5046 69.9728C94.1286 69.7412 93.7097 69.356 93.4789 69.0868C92.7437 68.1254 92.1108 66.973 91.5207 65.974C91.1186 65.0909 90.6738 64.0543 90.7072 63.0582C90.7835 62.2157 91.193 61.4513 91.7905 60.8027C92.388 60.1542 93.0711 59.8126 93.8994 59.4333C94.8301 58.863 95.906 58.255 96.8366 57.6847C97.2294 57.4183 97.7673 57.1143 98.2029 57.0014C100.09 56.5122 101.373 58.3191 101.844 60.0072C102.272 61.5418 102.845 63.0388 103.026 64.8021C103.326 65.8763 103.523 67.1417 102.968 67.9437Z" fill="#E0725C"/>
<path d="M102.54 46.2357C103.338 46.8625 103.889 47.7199 104.295 48.6148C104.787 49.8205 104.467 50.9032 104.191 52.1413C103.914 53.3794 102.054 57.8604 101.211 58.7449C100.863 59.1684 100.369 59.6295 99.7886 59.7797C99.1063 60.1229 98.1052 59.882 97.2927 59.7589C95.1019 59.1593 92.9693 58.2112 91.0402 56.8773C89.4883 55.779 87.0952 53.8985 87.8802 51.6956C88.1419 50.9613 88.7807 50.4627 89.6081 50.0819C90.8275 49.4331 92.1338 49.0951 93.3097 48.2909C93.7017 48.0228 94.0502 47.5993 94.5874 47.2937C95.7199 46.334 96.8958 45.5298 98.3906 45.3096C99.8854 45.0895 101.365 45.3731 102.54 46.2357Z" fill="#DE5E52"/>
<path d="M101.463 57.6782C101.035 59.429 102.059 61.4595 102.913 62.8781C103.852 64.6026 104.464 66.248 105.118 68.0464C105.517 68.9271 105.815 69.9977 106.598 70.6147C106.783 70.7307 107.011 70.9997 107.295 70.9259C107.48 71.0419 107.765 70.9681 108.007 70.7414C108.676 70.4039 109.218 69.6076 109.617 68.8482C110.315 67.5193 111.013 66.1904 111.853 64.8246C112.294 64.2181 112.551 63.4957 112.622 62.6572C112.608 61.5128 111.783 60.7428 111.057 59.7829C110.018 58.2483 109.222 56.4868 107.699 55.4056C106.774 54.8255 105.649 54.625 104.61 54.7304C102.944 55.3263 101.691 56.3071 101.463 57.6782Z" fill="#E0725C"/>
<path d="M100.931 53.5507C100.903 54.5453 100.875 55.5399 100.989 56.4975C101.103 57.4552 101.743 58.1117 102.098 58.842C102.681 59.8423 102.98 60.9165 103.421 61.9537C103.905 63.1444 104.573 64.4517 105.682 65.1508C107.302 66.0461 110.002 65.3446 110.712 63.5146C111.067 62.5997 111.137 61.7585 111.35 60.8805C111.79 58.6271 112.371 56.3368 113.322 54.2796C113.322 54.2796 113.422 54.0892 113.379 53.9357C113.336 53.7823 113.336 53.7823 113.152 53.6658C111.957 52.6597 110.621 51.6905 109.91 50.2299C109.555 49.4995 109.298 48.5788 108.801 47.8854C108.445 47.1551 107.848 46.652 107.152 46.3394C106.924 46.0694 106.413 45.8733 106.086 45.7937C105.617 45.751 105.091 46.0521 104.807 46.126C103.997 46.501 103.23 47.0294 102.506 47.7113C101.583 48.774 100.887 50.1067 100.703 51.6355C100.916 52.4027 100.945 53.0535 100.931 53.5507Z" fill="#E9715D"/>
<path d="M108.075 48.2801C108.668 48.7814 109.162 49.4722 109.755 49.9735C110.348 50.4747 110.842 51.1656 111.491 51.3244C111.999 51.52 112.605 51.526 113.071 51.5687C113.212 51.532 113.353 51.4953 113.536 51.6114C113.72 51.7276 113.72 51.7275 113.903 51.8437C114.538 52.4978 114.99 53.0358 115.527 53.8794C115.569 54.0323 115.569 54.0323 115.612 54.1851C115.654 54.338 115.513 54.3747 115.556 54.5275C115.359 54.9066 115.021 55.3225 114.64 55.5855C114.358 55.6589 114.217 55.6956 113.977 55.9219C113.174 56.295 112.413 56.821 111.652 57.3469C110.891 57.8729 109.946 58.2827 109.411 59.0777C108.538 60.2884 108.624 62.2328 109.048 63.7612C109.176 64.2198 109.303 64.6783 109.289 65.1736C109.177 65.8584 108.6 66.5005 107.895 66.6841C107.19 66.8676 106.442 66.8983 105.793 66.7395C105.144 66.5806 104.355 66.4585 104.016 66.8743C104.835 67.6446 105.936 68.3414 106.952 68.7325C107.459 68.9281 107.967 69.1236 108.39 69.0135C108.997 69.0195 109.42 68.9094 109.941 68.6097C112.634 67.4169 114.804 64.8852 116 62.1152C116.352 61.2042 116.703 60.2931 116.872 59.2658C117.11 57.4009 116.656 55.2244 116.006 53.4269C115.016 50.4066 113.843 47.2702 111.81 44.8494C109.776 42.4285 106.982 40.5336 103.992 40.6565C103.908 40.3508 102.117 40.9808 101.835 41.0543C100.989 41.2745 100.651 41.6904 100.214 42.2958C99.9747 42.522 99.7351 42.7483 99.538 43.1274C99.0453 44.0752 98.8209 45.4448 99.118 46.5148C99.444 48.2328 100.699 48.3977 101.756 47.303C101.855 47.1135 101.996 47.0768 102.235 46.8505C102.616 46.5875 103.081 46.6302 103.504 46.5201C104.167 46.1837 104.646 45.7311 105.295 45.89C106.127 46.165 106.762 46.8191 107.398 47.4732C107.708 48.0479 107.892 48.164 108.075 48.2801Z" fill="#F0A5B7"/>
<path d="M107.976 63.4361C107.903 62.6228 107.73 62.002 107.37 61.2632C107.052 60.6797 106.779 60.2513 106.461 59.6678C106 59.1215 105.539 58.5753 105.122 58.1842C101.348 55.1675 95.9259 58.4029 94.6202 62.5689C94.2041 63.8417 94.119 65.1951 94.2211 66.6665C94.2505 67.3246 94.2799 67.9827 94.7409 68.5289C95.0148 68.9573 95.4325 69.3483 95.9941 69.7021C96.3684 69.938 96.599 70.2111 96.93 70.2918C97.5922 70.4531 98.211 70.4592 98.8731 70.6205C99.7225 70.8998 100.385 71.0611 101.234 71.3403C101.565 71.421 102.083 71.6196 102.414 71.7002C103.508 71.7497 104.529 70.9859 105.406 70.2594C106.039 69.7627 106.672 69.2659 107.305 68.7691C107.937 68.2724 108.239 67.6949 108.354 66.9996C108.511 66.4594 108.194 65.8759 108.208 65.373C108.179 64.7149 108.149 64.0569 107.976 63.4361Z" fill="#DE5E52"/>
<path d="M109.155 65.7729C108.995 66.3219 108.501 66.7887 107.962 67.0977C106.885 67.7157 105.953 68.2959 104.92 69.0716C104.527 69.3428 104.178 69.7718 103.639 70.0808C102.81 70.4654 101.848 70.3767 101.032 70.2502C100.216 70.1236 99.3116 69.6815 98.3498 69.5928C97.5337 69.4663 96.7616 69.4975 96.1928 69.1376C95.8136 68.8976 95.5361 68.4621 95.4043 67.9888C95.0828 67.3955 94.951 66.9221 94.7752 66.291C94.6873 65.9754 94.5994 65.6599 94.4098 65.5399C94.2202 65.4199 93.9289 65.4955 93.8272 65.6911C93.7255 65.8867 93.6238 66.0823 93.7117 66.3978C93.7419 67.0668 94.1073 67.8179 94.4287 68.4112C94.7941 69.1623 95.1595 69.9134 95.8162 70.5889C96.4728 71.2644 97.4208 71.8642 98.2809 72.1485C99.1409 72.4329 100.103 72.5216 101.064 72.6103C102.026 72.699 103.134 72.75 104.051 72.6809C105.115 72.5741 105.989 72.3472 106.92 71.767C107.706 71.2247 108.157 70.6001 108.709 69.7799C109.262 68.9598 109.726 67.8241 109.564 66.6818" fill="#F0A5B7"/>
<path d="M100.607 55.6963C101.944 57.1775 102.736 59.4645 102.207 61.4294C101.892 62.508 101.203 63.3511 100.327 64.0764C99.4514 64.8017 98.5325 65.3721 97.5703 65.7875C96.3641 66.4323 95.2011 67.2321 93.7493 66.4451C93.0018 65.9742 92.4983 65.2738 91.9948 64.5735C91.4913 63.8732 91.1314 63.1356 90.6279 62.4353C90.3546 62.0077 89.9376 61.6172 89.3769 61.264C89.0032 61.0286 88.2418 61.0597 88.4997 60.3282C88.5568 59.9811 88.6572 59.789 88.7143 59.4418C88.929 58.5555 88.8132 57.5885 88.841 56.5844C88.8688 55.5803 88.8966 54.5762 89.4417 53.7703C90.0302 53.1194 90.8487 52.7412 91.6673 52.363C92.2418 52.2141 92.8596 52.2203 93.4774 52.2264C94.7129 52.2386 96.1786 52.5235 97.2567 53.075C98.3779 53.7814 99.6861 54.6055 100.607 55.6963Z" fill="#E9715D"/>
<path d="M94.5509 65.1784C93.7335 64.4075 93.3379 63.527 92.5205 62.7561C91.8437 61.9486 90.9282 61.3672 89.9145 60.9752C89.5908 60.8955 89.0839 60.6995 88.8158 60.2775C88.5477 59.8555 88.8421 59.2872 88.8977 58.9449C89.1496 58.2237 89.2183 57.3863 89.0483 56.7748C88.8915 55.6683 88.2703 54.5185 88.254 53.3754C87.4528 53.7477 87.2435 54.6217 87.0341 55.4957C86.9098 56.6754 86.7854 57.8551 86.9423 58.9617C86.9716 59.6097 87.0991 60.0683 87.1285 60.7163C87.5403 62.7401 88.6552 64.5809 90.1495 66.1592C91.0519 67.2358 92.0524 68.123 93.3048 68.289C93.9097 68.2956 94.5147 68.3021 95.0771 68.1559C95.3584 68.0827 95.7802 67.973 96.0189 67.747C96.2577 67.521 96.637 67.2585 96.8757 67.0325C96.9738 66.843 97.3532 66.5805 97.1276 66.3113C96.9445 66.195 96.5226 66.3047 96.1989 66.225C95.8752 66.1453 95.5515 66.0656 95.3684 65.9493C95.0022 65.7167 94.7765 65.4476 94.5509 65.1784Z" fill="#F0A5B7"/>
<path d="M105.16 57.6143C105.177 57.1159 105.006 56.5015 104.732 56.0784C104.372 55.3482 104.013 54.6179 103.551 54.0789C102.482 53.0386 102.293 52.9226 100.797 53.1457C99.9255 53.3717 99.0537 53.5976 98.4128 54.0931C97.772 54.5886 97.2168 55.3912 97.1833 56.3881C96.9728 61.2186 105.369 62.8302 105.16 57.6143Z" fill="#DE5E52"/>
<path d="M100.727 58.5782C101.4 58.2394 101.945 57.4405 102.203 56.7158C102.461 55.991 102.719 55.2663 102.648 54.4623C102.62 53.8117 102.449 53.1982 102.32 52.7381C101.892 51.2043 101.135 49.5913 99.8334 48.7773C98.8609 48.0424 97.4013 47.7626 96.299 48.2126C95.1967 48.6627 94.2229 49.5728 93.95 50.7948C93.7922 51.3291 93.7775 51.8263 93.9059 52.2864C94.0771 52.8999 94.3487 53.323 94.8063 53.8623C95.807 55.2477 96.9508 56.5961 97.9515 57.9816C98.6806 58.9439 99.5248 59.2187 100.727 58.5782Z" fill="#F3887B"/>
<path d="M102.705 54.9597C102.705 54.9597 102.451 50.7637 99.9613 48.9506C97.6139 47.1007 95.9766 48.3449 95.9766 48.3449C95.9766 48.3449 97.0148 49.8788 99.0783 50.1632C101.142 50.4476 101.453 54.3009 102.705 54.9597Z" fill="#F0A5B7"/>
<path d="M94.8319 51.6806C95.076 51.4525 95.3631 51.3782 95.6072 51.1502C97.8757 49.9037 99.6521 54.059 100.311 55.8664C100.397 56.1738 100.44 56.3275 100.526 56.6349C100.496 57.6315 99.0889 58.6551 98.4571 59.1483C97.7247 59.8324 96.7481 60.7445 95.801 60.6601C94.5238 60.4962 93.7644 58.8797 93.3203 57.8408C92.7903 56.4946 92.4898 55.4186 93.0504 54.1197C93.367 53.0487 94.0565 52.2109 94.8319 51.6806Z" fill="#F0A5B7"/>
<path d="M95.3927 51.3481C95.6345 51.1195 95.9192 51.0455 96.161 50.8169C98.4095 49.5695 100.182 53.7479 100.84 55.565C100.926 55.8741 100.969 56.0286 101.055 56.3376C101.028 57.3387 99.6333 58.364 99.0074 58.8581C98.282 59.5438 97.3149 60.458 96.3747 60.3711C95.1069 60.2037 94.3496 58.5781 93.9065 57.5335C93.3775 56.1799 93.0768 55.0983 93.6303 53.7945C94.0844 52.6824 94.6244 51.8792 95.3927 51.3481Z" fill="#EE7A6F"/>
<path d="M101.625 60.0338C102.016 59.7658 102.757 59.0746 103.264 59.7762C103.496 60.0493 103.394 60.2421 103.481 60.5528C103.553 61.367 103.523 62.374 103.595 63.1882C103.58 63.6917 103.711 64.1577 103.507 64.5435C103.347 65.0845 102.81 65.39 102.462 65.8133C102.07 66.0812 101.533 66.3867 101.054 66.344C100.329 66.5317 99.9521 66.2961 99.3432 65.7874C98.7343 65.2787 98.1255 64.7701 97.4149 64.4542C96.661 63.9831 95.8053 63.7048 95.0514 63.2337C94.2974 62.7625 93.7468 61.9056 93.965 61.0164C94.1249 60.4753 94.6184 60.0145 95.0103 59.7465C95.4021 59.4786 95.939 59.1731 96.4177 59.2158C97.6217 59.0708 98.7378 60.2811 99.927 60.6396C100.696 60.6072 101.088 60.3393 101.625 60.0338Z" fill="#F3887B"/>
<path d="M102.929 61.3029C102.957 61.9614 102.942 62.4646 102.826 63.1606C102.608 64.0493 102.013 64.7027 101.288 64.8903C100.563 65.0779 99.6059 64.9925 98.9973 64.4841C98.7655 64.2112 98.4321 64.131 98.2003 63.858C97.3017 63.4247 96.2432 63.5321 95.4462 62.906C94.881 62.5528 94.6058 62.1246 94.4323 61.5036C94.2588 60.8827 94.2736 60.3794 94.5785 59.8012C94.1435 59.9137 93.9402 60.2993 93.7369 60.6848C93.5337 61.0703 93.6638 61.536 93.939 61.9642C94.1559 62.7404 94.4745 63.3238 94.8364 64.0625C95.1984 64.8012 95.7053 65.5024 96.2123 66.2035C96.6759 66.7494 97.2845 67.2578 97.8497 67.611C98.2265 67.8464 98.6467 68.2371 99.1685 68.435C99.8353 68.5954 100.502 68.7558 101.227 68.5682C101.952 68.3806 102.489 68.0753 103.214 67.8877C103.751 67.5823 104.287 67.277 104.824 66.9717C105.216 66.7039 105.376 66.1631 105.724 65.7401C105.927 65.3546 106.275 64.9315 106.29 64.4283C106.305 63.925 106.363 63.577 106.233 63.1113C106.06 62.4904 105.843 61.7142 105.379 61.1682C105.104 60.74 104.452 60.0764 103.974 60.0337C103.017 59.9484 102.944 60.7996 102.929 61.3029Z" fill="#F0A5B7"/>
<path d="M97.4211 57.7846L94.1782 58.457L92.4671 51.2147L105.321 50.8946L102.248 58.8741L97.4211 57.7846Z" fill="#E8644D"/>
<path d="M97.3522 57.6898C97.1364 56.9179 97.0515 54.9531 98.9987 55.2772C100.946 55.6012 101.58 56.7617 101.449 57.9544C101.318 59.1472 98.0278 60.6607 97.3522 57.6898Z" fill="#DA5941"/>
<path d="M97.244 57.5729C97.8802 58.7379 100.442 59.5707 101.907 57.0313C103.371 54.4918 102.944 64.0757 102.944 64.0757L95.3439 61.8871L97.244 57.5729Z" fill="#ED7163"/>
<path d="M64.013 81.7577C63.3872 81.7524 62.9069 81.7095 62.2811 81.7042C61.8009 81.6613 61.3791 81.2686 60.8552 81.0696C60.2878 80.7146 59.5749 80.3973 59.0511 80.1984C58.3381 79.8811 57.5816 79.4077 57.2182 78.6654C56.622 77.6486 57.2052 75.8246 58.1805 75.4048C58.7192 75.0981 59.1995 75.141 59.7817 74.9903C61.1353 74.8071 62.4017 74.3119 63.6246 73.6607L63.7702 73.623L63.9593 73.7413C64.5119 74.602 65.0644 75.4628 65.9665 75.8984C66.3448 76.1351 66.8686 76.334 67.2469 76.5707C67.6251 76.8073 67.9014 77.2377 68.1777 77.6681C68.2213 77.8241 68.454 78.0984 68.4975 78.2544C68.5847 78.5665 68.3371 78.7979 68.2787 79.1476C68.1183 79.691 67.7688 80.1161 67.2737 80.5789C66.6766 81.2354 65.8469 81.6175 64.9299 81.6876C64.7844 81.7253 64.3041 81.6823 64.013 81.7577Z" fill="#E9715D"/>
<path d="M65.6768 77.8208C65.4017 77.3927 65.0249 77.1572 64.7497 76.7291C64.4746 76.3009 64.0978 76.0655 63.9677 75.5998C63.8809 75.2894 63.7941 74.9789 63.8524 74.631C63.809 74.4757 63.809 74.4757 63.7656 74.3205C63.7222 74.1653 63.7222 74.1653 63.5338 74.0476C63.2587 73.6194 62.8385 73.2288 62.4618 72.9934L62.2734 72.8757L62.1284 72.9132C61.8817 73.1435 61.5917 73.2185 61.5335 73.5665C61.4318 73.7592 61.4318 73.7592 61.3302 73.952C61.1703 74.4927 60.8221 74.9157 60.5172 75.4939C60.2123 76.0721 59.9074 76.6504 59.5158 76.9182C58.7325 77.4537 57.7757 77.3684 56.7755 77.1278C56.4421 77.0476 56.2537 76.9299 55.9637 77.005C55.5287 77.1175 55.137 77.3853 55.1222 77.8885C55.1073 78.3917 55.0491 78.7397 55.0342 79.2429C55.1644 79.7085 55.1495 80.2117 54.9029 80.442C54.4393 79.8961 54.0774 79.1575 53.9039 78.5366C53.8171 78.2262 53.7303 77.9157 53.7886 77.5678C53.8468 77.2198 53.9051 76.8718 53.9633 76.5239C54.6896 74.6715 56.2128 73.4451 57.8661 72.6844C58.4027 72.3791 58.9828 72.229 59.4178 72.1165C60.6212 71.9716 61.6648 72.3674 62.8534 72.7256C64.6071 73.437 66.3609 74.1484 67.6648 75.4755C68.9686 76.8026 70.1126 78.6705 70.0098 80.528C70.1982 80.6457 69.7334 81.7647 69.7768 81.9199C69.6169 82.4606 69.3703 82.6909 68.9787 82.9587C68.877 83.1514 68.732 83.1889 68.4854 83.4192C67.9487 83.7245 67.2237 83.9121 66.5569 83.7517C65.5567 83.5112 65.4848 82.6975 66.0797 82.0442C66.2247 82.0067 66.1813 81.8515 66.3263 81.814C66.428 81.6212 66.4862 81.2733 66.5445 80.9253C66.7477 80.5398 66.9943 80.3095 66.9658 79.6511C66.7923 79.0302 66.3721 78.6396 65.952 78.2489C65.8652 77.9385 65.8652 77.9385 65.6768 77.8208Z" fill="#F0A5B7"/>
<path d="M63.4366 86.9246C63.0612 86.6901 62.6858 86.4556 62.4117 86.0292C62.1807 85.7573 61.9498 85.4854 61.8634 85.1762C61.6324 84.9044 61.5028 84.4405 61.4163 84.1312C60.7396 81.1561 63.6737 78.905 66.2447 79.2347C67.0536 79.3571 67.7612 79.6714 68.4687 79.9858C68.8442 80.2203 69.1763 80.3001 69.306 80.764C69.5369 81.0359 69.6234 81.3451 69.5653 81.6917C69.6086 81.8463 69.695 82.1556 69.5937 82.3475C69.5357 82.6942 69.3332 83.0781 69.3184 83.5794C69.3036 84.0806 69.1443 84.6192 69.1294 85.1204C69.0282 85.3124 69.1146 85.6217 69.0134 85.8136C68.7528 86.5442 68.0736 86.8857 67.5389 87.1898C67.1487 87.4566 66.7152 87.5687 66.325 87.8354C65.9348 88.1022 65.6026 88.0223 65.126 87.9798C64.7938 87.8999 64.5628 87.6281 64.3751 87.5108C64.1442 87.239 63.7688 87.0045 63.4366 86.9246Z" fill="#DE5E52"/>
<path d="M64.2731 87.5047C64.6036 87.5842 64.9918 87.3187 65.2363 87.0904C65.7253 86.6338 66.3581 86.14 66.8901 85.8373C67.1776 85.7629 67.4221 85.5345 67.6666 85.3062C68.0548 85.0407 68.2133 84.5046 68.3287 83.8145C68.4872 83.2783 68.5019 82.7794 68.6604 82.2432C68.8618 81.861 69.0203 81.3249 68.8913 80.8631C68.8052 80.5553 68.6185 80.4385 68.5325 80.1307C68.3027 79.8601 68.0729 79.5894 67.7424 79.5099C67.5556 79.3932 67.5126 79.2392 67.4696 79.0853C67.4266 78.9314 67.5703 78.8942 67.7141 78.857C67.8578 78.8198 68.0446 78.9365 68.0446 78.9365C68.4181 79.17 68.6479 79.4406 68.9207 79.8652C69.1935 80.2897 69.61 80.6771 69.7391 81.1388C69.9111 81.7545 70.0402 82.2163 69.9247 82.9064C69.8093 83.5964 69.6078 83.9787 69.4493 84.5148C69.2908 85.051 68.9886 85.6243 68.8302 86.1605C68.6717 86.6966 68.1827 87.1532 67.6507 87.456C67.2625 87.7215 66.6874 87.8703 66.2562 87.9819C65.6812 88.1307 65.0632 88.1255 64.5029 87.7754" fill="#F0A5B7"/>
<path d="M57.6912 82.4976C57.8929 82.1149 58.0946 81.7323 58.3394 81.5038C58.5842 81.2752 58.829 81.0467 59.0738 80.8181C59.3186 80.5896 59.7504 80.4778 60.0383 80.4034C62.7299 79.5417 65.2025 82.8669 65.2726 85.3269C65.344 86.1345 65.1275 87.0166 64.868 87.7445C64.8101 88.0899 64.6084 88.4725 64.3636 88.7011C64.1188 88.9296 63.8309 89.0041 63.5431 89.0786C63.2552 89.1531 63.1113 89.1903 62.9243 89.0735C62.5934 88.9939 62.0755 88.7975 61.7876 88.872C61.3128 88.8296 60.838 88.7873 60.3631 88.7449C60.0322 88.6653 59.8883 88.7026 59.7013 88.5858C58.9964 88.2725 58.6803 87.6935 58.1771 86.9976C57.904 86.5727 57.6309 86.1477 57.3578 85.7227C57.0847 85.2978 56.9986 84.9896 57.0134 84.4902C57.0712 84.1448 57.316 83.9163 57.3738 83.5709C57.4316 83.2255 57.6333 82.8429 57.6912 82.4976Z" fill="#DE5E52"/>
<path d="M57.0832 83.2544C57.025 83.6018 57.2998 84.0292 57.5312 84.3017C57.9941 84.8467 58.5002 85.5466 58.9631 86.0916C59.1945 86.3641 59.2812 86.674 59.5126 86.9465C59.9321 87.3365 60.4532 87.5341 60.9742 87.7316C61.4519 87.7742 62.1178 87.9343 62.5955 87.9769C63.1165 88.1744 63.4927 88.4095 63.9272 88.2971C64.2168 88.2222 64.3182 88.0297 64.5645 87.7998C64.8108 87.5699 65.0571 87.34 65.1153 86.9926C65.2168 86.8002 65.3616 86.7627 65.3616 86.7627C65.5064 86.7253 65.5497 86.8802 65.593 87.0352C65.6363 87.1902 65.6796 87.3452 65.5348 87.3826C65.3318 87.7675 65.0856 87.9974 64.8826 88.3823C64.5348 88.8046 64.1437 89.0719 63.7526 89.3393C63.2167 89.6441 62.739 89.6015 62.1165 89.5964C61.6388 89.5538 60.973 89.3937 60.4519 89.1962C59.9309 88.9986 59.2651 88.8385 58.7007 88.486C58.1364 88.1335 57.7168 87.7435 57.2539 87.1985C56.9792 86.771 56.8059 86.1512 56.676 85.6862C56.5027 85.0663 56.4743 84.409 56.6339 83.8691" fill="#F0A5B7"/>
<path d="M61.9616 80.8805C61.8622 79.4228 61.1458 77.9601 60.027 77.2608C59.4676 76.9111 58.6641 76.7895 58.0471 76.7844C57.43 76.7793 56.7124 76.9651 56.1382 77.1137C55.2771 77.3366 54.5594 77.5224 54.2429 78.5933C54.0847 79.1287 54.2564 79.7435 54.2846 80.3955C54.4564 81.0103 54.5852 81.4714 54.6134 82.1234C54.6993 82.4308 54.6846 82.9291 54.6269 83.2737C54.5693 83.6182 54.3251 83.8463 54.741 84.2331C54.9275 84.3496 55.1139 84.4662 55.1569 84.6199C55.7163 84.9695 56.0315 85.5472 56.4903 86.0877C56.9491 86.6282 57.365 87.0151 58.025 87.1739C58.5415 87.3698 59.0726 87.0675 59.4603 86.8023C59.8479 86.5371 59.9485 86.3463 60.3362 86.0811C60.7815 85.4714 61.3274 84.6708 61.5862 83.9445C61.9027 82.8736 61.9322 81.8771 61.9616 80.8805Z" fill="#E9715D"/>
<path d="M55.1073 78.9525C55.136 79.5951 55.3458 80.3529 55.3745 80.9955C55.4451 81.7897 55.3347 82.4687 55.043 83.0325C54.9458 83.2204 54.7514 83.5962 54.8353 83.8994C54.9192 84.2025 55.2396 84.2814 55.4627 84.5482C55.825 84.7787 56.2293 85.1607 56.4944 85.579C56.9826 86.2642 57.1924 87.022 57.6806 87.7072C57.2631 87.8162 56.7196 87.4706 56.1762 87.1249C55.5907 86.6277 55.1445 86.0941 54.6563 85.4089C54.4332 85.1421 54.21 84.8753 53.9449 84.4569C53.1497 83.2018 52.9111 81.8014 52.8118 80.3645C52.6992 79.4188 52.7257 78.4366 53.1565 77.8365C53.351 77.4607 53.6293 77.388 54.0049 77.1274C54.1441 77.0911 54.3805 76.8668 54.5617 76.982C54.84 76.9093 55.0212 77.0245 55.1604 76.9882C55.2996 76.9519 55.6199 77.0308 55.5227 77.2187C55.4255 77.4066 55.2863 77.4429 55.1891 77.6308C55.0919 77.8188 54.9946 78.0067 55.0366 78.1583C55.1205 78.4614 55.2045 78.7645 55.1073 78.9525Z" fill="#F0A5B7"/>
<path d="M61.3041 85.909C60.9713 85.8309 60.4509 85.6371 60.2631 85.5214C59.6999 85.1743 59.2817 84.7897 58.8634 84.4051C58.2741 83.4074 58.0864 83.2917 58.4098 82.2217C58.5287 81.5335 58.8354 80.9609 59.2871 80.3508C59.7815 79.8939 60.421 79.3995 61.0864 79.5557C64.6776 79.6109 65.3135 86.3488 61.3041 85.909Z" fill="#F0A5B7"/>
<path d="M62.5152 81.9361C62.3131 82.3193 61.7795 82.6228 61.347 82.7347C60.9145 82.8466 60.4819 82.9585 60.0063 82.9161C59.6748 82.8364 59.3433 82.7567 58.9687 82.5227C58.0753 82.092 57.326 81.624 56.7789 80.7728C56.4191 80.0386 56.3476 79.2297 56.6076 78.5006C56.8676 77.7715 57.5023 77.2764 58.2232 77.0899C58.5115 77.0153 58.843 77.095 59.0303 77.212C59.3618 77.2917 59.5922 77.563 59.8227 77.8343C60.514 78.6482 61.3064 79.2706 61.9977 80.0845C62.79 80.7068 62.9194 81.1697 62.5152 81.9361Z" fill="#F3887B"/>
<path d="M60.2448 82.9845C60.2448 82.9845 58.0091 82.584 56.9337 80.9013C56.0422 79.3344 56.8203 78.3148 56.8203 78.3148C56.8203 78.3148 57.641 79.0827 57.6977 80.3759C57.7544 81.6692 59.99 82.0696 60.2448 82.9845Z" fill="#F0A5B7"/>
<path d="M58.982 77.8654C58.8813 78.0582 58.7372 78.0955 58.6366 78.2882C57.7876 79.6749 60.0372 81.0922 60.9311 81.5273C61.1186 81.6454 61.2627 81.6081 61.3061 81.7635C61.7817 81.807 62.4727 80.9613 62.8615 80.6939C63.207 80.2711 63.8406 79.7736 63.8112 79.1145C63.7383 78.3 62.9451 77.6722 62.3827 77.3178C61.6328 76.8454 60.9697 76.6838 60.2493 76.8704C59.8171 76.9824 59.3275 77.4426 58.982 77.8654Z" fill="#F0A5B7"/>
<path d="M58.772 78.2372C58.672 78.4307 58.5286 78.468 58.4285 78.6615C57.5846 80.0533 59.8252 81.4788 60.7155 81.9166C60.9022 82.0353 61.0456 81.998 61.0889 82.1541C61.5624 82.1982 62.2494 81.3495 62.6363 81.0814C62.9798 80.657 63.6101 80.158 63.5802 79.4961C63.507 78.678 62.7168 78.0467 62.1567 77.6904C61.4098 77.2152 60.7496 77.0524 60.0327 77.2391C59.6025 77.3512 59.1156 77.8129 58.772 78.2372Z" fill="#EE7A6F"/>
<path d="M63.4836 82.5386C63.3835 82.7287 62.8978 83.183 63.2688 83.4153C63.4544 83.5314 63.5972 83.4944 63.7827 83.6105C64.2538 83.6526 64.7676 83.8479 65.2387 83.89C65.567 83.9691 65.7098 83.932 65.9954 83.858C66.281 83.784 66.5239 83.5568 66.724 83.1766C66.9669 82.9494 67.0242 82.6061 67.1243 82.416C67.1817 82.0727 67.0962 81.7664 66.8253 81.344C66.5543 80.9216 66.2834 80.4993 66.1552 80.0399C66.027 79.5805 65.8561 78.9679 65.5852 78.5455C65.3142 78.1232 64.9004 77.7378 64.4293 77.6957C64.1437 77.7697 63.9009 77.9969 63.658 78.224C63.4151 78.4512 63.3578 78.7945 63.2577 78.9846C63.143 79.6712 63.8277 80.4789 63.7557 81.3186C63.9266 81.9311 63.7265 82.3114 63.4836 82.5386Z" fill="#F3887B"/>
<path d="M64.1921 83.3152C64.5208 83.3944 64.8494 83.4735 65.1353 83.3994C65.5642 83.2883 66.0932 82.9869 66.2508 82.4531C66.4084 81.9193 66.4231 81.4226 66.1519 80.9999C66.1091 80.8467 65.9234 80.7305 65.8379 80.424C65.5239 79.8481 65.8245 79.2773 65.5105 78.7014C65.4249 78.3949 65.1965 78.1255 64.8251 77.8931C64.4537 77.6607 64.1678 77.7348 63.8819 77.8089C63.9821 77.6186 64.2252 77.3913 64.3681 77.3542C64.654 77.2801 64.8397 77.3963 65.1684 77.4755C65.5398 77.7079 65.9112 77.9403 66.2826 78.1726C66.654 78.405 67.0682 78.7907 67.3394 79.2133C67.5679 79.4827 67.8391 79.9054 68.1104 80.3281C68.1959 80.6345 68.4243 80.904 68.5099 81.2104C68.6381 81.6701 68.5807 82.0137 68.4231 82.5474C68.2655 83.0812 68.1653 83.2715 67.9649 83.6521C67.7646 84.0326 67.5642 84.4132 67.321 84.6405C67.0779 84.8678 66.792 84.9419 66.5489 85.1692C66.263 85.2433 66.0199 85.4706 65.8769 85.5077C65.591 85.5818 65.4053 85.4656 65.0767 85.3864C64.748 85.3073 64.3766 85.0749 64.0052 84.8425C63.7767 84.5731 63.5055 84.1504 63.42 83.8439C63.4347 83.3472 63.9062 83.3893 64.1921 83.3152Z" fill="#F0A5B7"/>
<path d="M62.258 79.8426L62.792 77.8867L58.8345 76.4318L57.9364 84.2658L62.6444 82.8825L62.258 79.8426Z" fill="#E8644D"/>
<path d="M62.3092 79.7107C62.9135 80.2154 63.2003 81.794 61.7024 82.5121C60.2046 83.2302 65.5745 83.659 65.5745 83.659L64.815 78.7318L62.3092 79.7107Z" fill="#ED7163"/>
<path d="M62.8525 80.1195C62.5792 79.6943 61.6005 78.9556 61.1389 80.0669C60.6773 81.1782 60.8927 81.9491 61.555 82.1083C62.1164 82.459 64.0466 81.629 62.8525 80.1195Z" fill="#DA5941"/>
<path d="M115.32 33.3591C115.32 33.3591 117.35 33.3302 118.256 36.5785C118.86 38.7441 120.549 43.116 124.824 43.8316C129.143 44.7019 133.303 41.6324 134.823 38.0868C136.343 34.5411 137.754 35.6678 137.754 35.6678C137.754 35.6678 133.934 34.3365 132.367 32.0891C130.757 29.687 125.499 26.5724 120.564 29.6768C115.586 32.6266 115.32 33.3591 115.32 33.3591Z" fill="#619B82"/>
<path d="M115.25 33.2988C119.709 34.0197 124.627 37.5303 129.055 37.5744C132.66 37.491 135.735 37.2033 138.014 35.7538" stroke="#3F934E" stroke-width="0.1971" stroke-miterlimit="10"/>
<path d="M118.314 35.2132C119.969 31.567 123.822 27.3503 127.221 27.1449" stroke="#3F934E" stroke-width="0.1971" stroke-miterlimit="10"/>
<path d="M124.391 36.9448C127.88 30.2672 129.509 31.0323 133.893 28.7047" stroke="#3F934E" stroke-width="0.1971" stroke-miterlimit="10"/>
<path d="M118.193 35.2322C118.459 37.2619 118.684 39.141 119.315 40.9131C119.945 42.6853 120.981 44.3505 122.392 45.2705" stroke="#3F934E" stroke-width="0.1971" stroke-miterlimit="10"/>
<path d="M124.36 36.5612C124.219 38.2294 125.264 45.7899 130.335 44.4712" stroke="#3F934E" stroke-width="0.1971" stroke-miterlimit="10"/>
<path d="M129.225 37.2817C130.782 40.0618 134.889 43.0193 137.732 39.7698" stroke="#3F934E" stroke-width="0.1971" stroke-miterlimit="10"/>
<path d="M129.439 37.3153C130.955 34.9125 135.442 33.0802 134.934 30.6993" stroke="#3F934E" stroke-width="0.1971" stroke-miterlimit="10"/>
<path d="M126.18 46.1466C126.25 46.9557 126.739 48.1528 128.374 47.8944C130.009 47.6359 130.443 47.5233 130.889 48.5661C131.335 49.6089 131.476 51.2272 131.476 51.2272C131.476 51.2272 132.649 50.4265 131.859 48.1491C131.859 48.1491 132.899 48.5412 133.173 48.9667C133.592 49.3546 133.509 47.3901 131.386 46.4515C131.386 46.4515 132.715 46.7686 133.212 44.654C133.212 44.654 132.559 45.6508 131.213 45.8342C129.868 46.0176 129.133 45.0499 128.323 44.9288C127.24 44.3823 126.168 44.9912 126.18 46.1466Z" fill="#619B82"/>
<path d="M114.203 48.3113C114.203 48.3113 119.551 44.5875 126.735 46.4167" stroke="#619B82" stroke-width="0.2287" stroke-miterlimit="10"/>
<path d="M118.821 46.4092C120.301 46.188 121.901 48.0586 121.835 50.0354C121.801 51.0238 121.108 51.8571 121.108 51.8571C121.108 51.8571 122.681 50.3056 122.976 48.5959C123.271 46.8863 121.637 46.0042 120.589 46.1133C119.54 46.2225 118.821 46.4092 118.821 46.4092Z" fill="#619B82"/>
<path d="M118.881 46.521C118.881 46.521 121.142 45.1095 121.236 43.7652C121.33 42.421 120.284 42.0321 120.284 42.0321C120.284 42.0321 122.452 41.9649 122.401 43.463C122.35 44.9612 118.881 46.521 118.881 46.521Z" fill="#619B82"/>
<path d="M123.953 18.6056C120.089 20.5968 114.651 27.7346 114.967 32.8761" stroke="#619B82" stroke-width="0.1824" stroke-miterlimit="10"/>
<path d="M138.497 1.81298C138.497 1.81298 137.743 4.15719 138.252 7.66197C138.76 11.1668 138.181 16.9372 134.082 18.4958C130.025 20.2086 123.608 19.0622 123.608 19.0622C123.608 19.0622 120.736 9.88859 123.959 5.74712C127.927 0.916387 134.062 3.29308 138.497 1.81298Z" fill="#619B82"/>
<path d="M123.487 19.3185C123.487 19.3185 134.784 14.2265 138.7 1.24197" stroke="#3B8A64" stroke-width="0.2287" stroke-miterlimit="10"/>
<path d="M135.585 8.6881C135.585 8.6881 138.923 8.67615 140.958 6.23292" stroke="#3B8A64" stroke-width="0.2287" stroke-miterlimit="10"/>
<path d="M135.479 8.72765C135.479 8.72765 133.894 3.4962 134.988 2.07851" stroke="#3B8A64" stroke-width="0.2287" stroke-miterlimit="10"/>
<path d="M132.862 11.5211C132.862 11.5211 130.008 4.85963 131.628 2.1753" stroke="#3B8A64" stroke-width="0.2287" stroke-miterlimit="10"/>
<path d="M129.737 15.0828C128.422 12.3759 126.036 7.86207 126.957 3.27416" stroke="#3B8A64" stroke-width="0.2287" stroke-miterlimit="10"/>
<path d="M126.126 17.6593C125.583 16.1947 122.245 10.3235 123.37 4.87643" stroke="#3B8A64" stroke-width="0.2287" stroke-miterlimit="10"/>
<path d="M125.928 17.418C126.977 17.8086 129.607 19.9422 131.824 20.0298" stroke="#3B8A64" stroke-width="0.2287" stroke-miterlimit="10"/>
<path d="M129.564 14.814C131.128 15.9107 133.834 17.7131 137.253 16.9918" stroke="#3B8A64" stroke-width="0.2287" stroke-miterlimit="10"/>
<path d="M132.84 11.5576C133.621 11.5229 137.254 13.7868 139.352 12.2256" stroke="#3B8A64" stroke-width="0.2287" stroke-miterlimit="10"/>
</svg>
