<svg width="177" height="250" viewBox="0 0 177 250" fill="none" xmlns="http://www.w3.org/2000/svg">
<path d="M65.6395 100.582C62.9242 99.9992 62.4585 99.6845 58.6857 101.308C54.913 102.932 49.3457 102.786 44.8936 98.1089C40.4072 93.6866 40.7383 89.3204 36.8074 88.3335C36.8074 88.3335 39.4436 87.6111 43.1715 84.4273C46.8994 81.2435 53.4665 81.5081 58.237 85.705C63.0074 89.9019 61.7898 95.1991 63.1977 97.9585C64.3107 99.1279 65.6395 100.582 65.6395 100.582Z" fill="#619B82"/>
<path d="M65.663 100.62C65.663 100.62 58.9861 91.6913 52.6867 89.3711C47.5691 87.7158 43.8138 87.2718 37.3452 88.0824" stroke="#5A9075" stroke-width="0.2287" stroke-miterlimit="10"/>
<path d="M60.173 94.4414C60.173 94.4414 58.4495 99.6692 50.4804 102.613" stroke="#5A9075" stroke-width="0.2287" stroke-miterlimit="10"/>
<path d="M60.3094 94.5686C60.5145 93.0509 60.5092 91.2514 60.4698 89.7047C60.4303 88.1581 60.3909 86.6115 60.0727 85.2888C59.7545 83.9662 58.9472 82.5856 57.827 81.6819" stroke="#5A9075" stroke-width="0.2287" stroke-miterlimit="10"/>
<path d="M55.9624 91.3213C53.0962 95.6483 48.1655 98.4379 43.1255 100.178" stroke="#5A9075" stroke-width="0.2287" stroke-miterlimit="10"/>
<path d="M50.1803 88.5659C47.6208 90.6059 44.8817 92.1047 41.928 93.3182C41.1098 93.7423 40.077 93.8811 39.3286 93.7932" stroke="#5A9075" stroke-width="0.2287" stroke-miterlimit="10"/>
<path d="M56.0991 91.4787C56.647 87.4303 55.9362 83.49 54.1772 79.94C54.0008 79.405 53.7901 79.123 53.3346 78.812" stroke="#5A9075" stroke-width="0.2287" stroke-miterlimit="10"/>
<path d="M49.8114 88.8888C49.846 88.6348 49.846 88.6348 49.8807 88.3807C49.559 87.0523 49.4107 84.4536 48.5589 83.3211C47.7072 82.1886 46.6425 80.7729 45.1568 80.5985" stroke="#5A9075" stroke-width="0.2287" stroke-miterlimit="10"/>
<path d="M44.1413 87.6531C43.9612 87.1091 43.9612 87.1091 43.5311 86.5357C42.8859 85.6756 41.9208 85.3005 41.2057 84.9549C40.2405 84.5798 39.2404 84.462 38.2753 84.0869" stroke="#5A9075" stroke-width="0.2287" stroke-miterlimit="10"/>
<path d="M44.1754 87.5742C41.3959 89.3369 38.4713 90.2987 35.4017 90.4597" stroke="#5A9075" stroke-width="0.2287" stroke-miterlimit="10"/>
<path d="M31.1895 79.0127C31.5486 80.0895 31.3063 81.8713 28.9639 82.3711C26.6561 82.6164 25.8754 82.783 25.9165 84.3396C25.9576 85.8962 26.4616 87.766 26.4616 87.766C26.4616 87.766 24.5063 87.2769 24.4587 83.9092C24.4587 83.9092 23.3253 84.8101 22.9728 85.5444C22.6203 86.2787 21.688 83.8412 24.0239 81.5303C24.0239 81.5303 22.3585 82.6271 20.68 80.1017C20.68 80.1017 22.0687 81.0412 23.879 80.7373C25.6893 80.4334 26.1802 78.6809 27.2444 78.2891C28.8752 77.4468 30.6509 77.3974 31.1895 79.0127Z" fill="#619B82"/>
<path d="M30.3921 79.7041C39.0374 74.1152 47.9319 76.2435 47.9319 76.2435C47.9319 76.2435 56.3245 78.3115 60.7189 83.6105" stroke="#619B82" stroke-width="0.1824" stroke-miterlimit="10"/>
<path d="M40.8064 75.9286C38.7523 76.1981 37.533 79.656 38.5033 81.831C39.1126 82.9333 40.5007 83.8712 40.5007 83.8712C40.5007 83.8712 37.6229 82.7554 36.4043 80.5507C35.1517 78.5994 36.9464 76.4972 38.504 76.1684C39.7793 76.0634 40.8064 75.9286 40.8064 75.9286Z" fill="#619B82"/>
<path d="M40.7573 75.9675C40.7573 75.9675 37.0424 75.2651 36.2473 73.6164C35.4522 71.9677 36.8383 71.0973 36.8383 71.0973C36.8383 71.0973 33.9185 72.0436 34.6795 73.9472C35.4746 75.5959 40.7573 75.9675 40.7573 75.9675Z" fill="#619B82"/>
<path d="M76.1138 26.8221C78.28 27.5948 82.1418 27.0211 82.7932 22.1982C83.4446 17.3754 84.1127 16.1651 86.7329 15.4442C88.2913 15.1132 90.5261 15.3782 90.5261 15.3782C90.5261 15.3782 90.1583 12.4977 84.4212 13.8806C84.4212 13.8806 85.2949 11.1473 89.6793 8.57242C91.058 7.7043 86.3401 7.14489 81.6129 12.2581C81.6129 12.2581 83.2233 7.80691 79.6358 6.34994C79.6358 6.34994 79.8924 8.18566 79.1298 11.9637C78.3673 15.7418 75.1819 16.9115 73.8801 19.0782C72.758 21.782 72.9887 25.6778 76.1138 26.8221Z" fill="#619B82"/>
<path d="M66.9687 74.7175C66.9687 74.7175 66.2009 43.1123 77.1295 24.9751" stroke="#619B82" stroke-width="0.1609" stroke-miterlimit="10"/>
<path d="M69.241 47.1945C70.7069 41.9247 76.0511 39.9713 80.8504 42.1013C83.9324 43.7665 85.6272 46.3029 85.6272 46.3029C85.6272 46.3029 91.8125 41.8572 82.5782 38.6779C77.7108 37.0583 70.2747 41.3544 69.5816 44.6423C69.5476 44.8975 69.241 47.1945 69.241 47.1945Z" fill="#619B82"/>
<path d="M72.1258 35.6717C72.1258 35.6717 71.9217 31.5245 70.4168 29.541C68.9119 27.5575 65.4952 26.6339 65.5291 26.3802C63.9564 24.9039 69.6694 23.7829 72.0342 26.8998C73.7202 29.4204 72.1258 35.6717 72.1258 35.6717Z" fill="#619B82"/>
<path d="M57.6434 41.0503C56.1901 40.6212 54.3447 39.3712 55.4702 36.6624C56.5956 33.9536 56.9823 32.9659 55.3503 31.9993C53.7183 31.0326 52.2996 30.3493 52.2996 30.3493C52.2996 30.3493 55.841 30.249 57.2997 32.4866C57.2997 32.4866 57.0811 30.3947 55.6571 27.9028C55.2651 27.0819 58.0331 28.9569 58.257 32.8574C58.257 32.8574 58.7078 29.5528 63.2759 29.3148C63.2759 29.3148 60.0571 30.7445 59.2144 33.2282C58.3716 35.712 61.0303 36.541 61.0702 38.0954C61.1449 39.3955 59.5928 41.5376 57.6434 41.0503Z" fill="#619B82"/>
<path d="M67.5572 60.6998C67.5572 60.6998 60.6566 52.4148 58.6437 39.5521" stroke="#619B82" stroke-width="0.1609" stroke-miterlimit="10"/>
<path d="M62.387 52.3211C61.7293 49.6548 57.2676 48.8642 54.247 50.5744C52.8616 51.4444 51.8392 53.3929 51.8392 53.3929C51.8392 53.3929 52.8849 49.3769 55.44 47.3524C57.9952 45.3279 60.7877 47.2135 61.298 49.0858C62.024 51.2427 62.387 52.3211 62.387 52.3211Z" fill="#619B82"/>
<path d="M61.8268 51.0342C61.8268 51.0342 62.1562 46.6908 64.1362 45.1222C66.0822 43.8073 67.7221 44.7761 67.7221 44.7761C67.7221 44.7761 64.4764 42.5847 62.0327 43.8402C59.8039 45.3792 61.8268 51.0342 61.8268 51.0342Z" fill="#619B82"/>
<path d="M73.2528 125.607C69.9806 127.303 69.4818 127.244 67.0375 132.156C64.628 136.813 58.9416 141.344 50.8912 140.919C42.8758 140.238 39.3746 136.188 34.7857 138.249C34.7857 138.249 36.7012 135.354 37.8239 128.987C38.9466 122.62 45.486 117.409 53.8905 117.095C62.2601 117.038 65.2325 123.106 69.083 124.598C70.7239 125.57 73.2528 125.607 73.2528 125.607Z" fill="#619B82"/>
<path d="M73.3259 125.49C73.3259 125.49 59.486 122.828 51.1775 126.051C44.7234 128.703 40.7661 131.647 34.7778 138.284" stroke="#00995D" stroke-width="0.1824" stroke-miterlimit="10"/>
<path d="M62.8101 124.782C62.8101 124.782 65.0984 131.21 59.9532 140.847" stroke="#00995D" stroke-width="0.1824" stroke-miterlimit="10"/>
<path d="M62.8647 124.83C61.5823 123.115 60.2645 121.657 58.9821 119.942C57.6642 118.484 56.5956 117.056 54.9575 116.082C53.3194 115.109 51.6458 114.392 49.581 114.674" stroke="#00995D" stroke-width="0.1824" stroke-miterlimit="10"/>
<path d="M56.0391 125.44C56.6302 131.924 54.2118 139.076 50.7651 144.822" stroke="#00995D" stroke-width="0.1824" stroke-miterlimit="10"/>
<path d="M48.0818 127.485C47.2863 131.505 45.7616 135.439 43.7854 139.063C43.1612 140.018 42.5025 141.226 41.4612 141.618" stroke="#00995D" stroke-width="0.1824" stroke-miterlimit="10"/>
<path d="M56.1718 125.263C53.2137 121.001 49.1161 117.652 44.5563 115.816C44.0931 115.501 43.3451 115.413 42.8464 115.355" stroke="#00995D" stroke-width="0.1824" stroke-miterlimit="10"/>
<path d="M47.9961 127.803C48.0316 127.543 47.7813 127.513 47.5665 127.224C45.9566 125.978 43.988 123.634 42.236 123.428C40.484 123.222 38.0167 122.669 36.5877 123.822" stroke="#00995D" stroke-width="0.1824" stroke-miterlimit="10"/>
<path d="M41.4675 131.242C40.7528 130.895 40.7527 130.895 39.7524 130.777C38.502 130.631 37.1806 131.003 36.1093 131.404C35.0379 131.805 33.6809 132.436 32.5741 133.096" stroke="#00995D" stroke-width="0.1824" stroke-miterlimit="10"/>
<path d="M41.44 131.506C40.148 135.475 37.9464 138.824 35.0453 141.833" stroke="#00995D" stroke-width="0.1824" stroke-miterlimit="10"/>
<path d="M68.5182 152.454C68.5182 152.454 70.0948 148.256 72.0274 145.132C73.9599 142.008 74.3251 133.8 62.135 129.273C62.135 129.273 61.5766 131.527 61.1565 132.767C60.7018 134.261 57.0147 141.046 60.2033 145.288C63.392 149.531 66.778 148.64 68.5182 152.454Z" fill="#619B82"/>
<path d="M68.4847 152.42C68.4847 152.42 68.8174 146.286 68.2811 142.878C67.7448 139.47 67.1741 136.316 61.9249 129.008" stroke="#3F934E" stroke-width="0.1824" stroke-miterlimit="10"/>
<path d="M41.2641 109.845C41.2641 109.845 43.5195 113.75 44.8469 117.026C46.1393 120.559 52.2816 125.701 63.6967 118.201C63.6967 118.201 62.1599 116.46 61.5511 115.348C60.6929 114.207 57.609 107.084 52.3004 106.981C46.9568 107.133 45.2207 110.569 41.2641 109.845Z" fill="#619B82"/>
<path d="M41.2085 109.781C41.2085 109.781 45.7668 113.752 48.8502 115.437C51.9336 117.122 54.8012 118.518 63.7474 118.262" stroke="#3F934E" stroke-width="0.1824" stroke-miterlimit="10"/>
<path d="M60.1323 117.656C59.0008 116.746 57.8693 115.836 56.6662 115.438C53.3046 114.27 49.2302 116.397 47.2425 119.804C46.2487 121.507 45.7147 123.523 46.2075 125.398C46.348 126.193 46.9839 127.046 47.3721 127.87C47.9723 128.978 48.8203 130.115 49.4562 130.967C50.0564 132.075 50.9044 133.212 52.1433 133.355C52.8866 133.441 53.6657 133.271 54.3733 133.613C55.5764 134.011 56.1766 135.119 57.4155 135.262C58.1588 135.348 58.9379 135.178 59.7528 134.753C63.2959 132.824 65.3193 129.162 67.0592 125.727C68.799 122.292 62.3954 119.475 60.1323 117.656Z" fill="#CFD362"/>
<path d="M64.1926 122.87C64.9039 121.391 64.4819 119.001 62.7447 118.801C60.7593 118.572 58.5947 119.623 57.387 121.044C57.0671 121.527 53.16 126.019 53.4082 126.048C53.8687 126.361 54.3651 126.419 54.8973 126.22C55.4294 126.021 55.7135 125.794 56.2098 125.851C56.9902 125.681 57.7347 125.767 58.4792 125.853C59.5077 125.711 60.5363 125.57 61.3525 125.144C62.4527 124.49 63.5529 123.837 64.1926 122.87Z" fill="#AEC551"/>
<path d="M51.1834 131.762C51.6835 131.821 52.1836 131.879 52.4337 131.909C53.7195 131.796 54.9343 132.201 55.9346 132.318C56.6848 132.406 57.1849 132.465 57.8995 132.811C58.3997 132.87 58.8642 133.188 59.3644 133.246C60.5791 133.651 61.9361 133.021 63.2219 132.908C63.8655 133.773 63.9023 135.356 63.0455 136.046C62.5099 136.246 61.9742 136.447 61.4385 136.647C58.7958 137.391 55.974 137.587 53.2589 137.006C51.0438 136.484 49.1855 135.213 48.2195 132.995C47.7904 132.418 47.0034 130.747 48.0747 130.346C49.1105 130.204 50.1831 131.645 51.1834 131.762Z" fill="#FAF09E"/>
<path d="M65.9933 126.573C66.9494 128.756 67.6225 131.166 67.5522 133.49C67.6586 134.538 67.4819 135.813 68.0839 136.919C68.5087 137.487 69.1814 138.083 69.6416 138.396C72.4383 140.016 75.9779 139.909 78.7384 138.157C80.1187 137.281 81.5697 135.895 82.7375 134.735C83.9407 133.32 85.3916 131.934 85.8868 130.178C86.382 128.422 86.3463 126.864 86.3459 125.05C86.3455 123.236 86.062 121.649 86.0616 119.835C85.8845 119.297 85.9906 118.532 85.5657 117.964C84.9284 117.113 83.9372 116.998 83.1939 116.912C79.1941 116.706 74.9111 116.727 71.0177 117.57C69.2125 117.879 66.1331 118.298 65.1424 119.997C63.3376 122.119 65.0018 124.644 65.9933 126.573Z" fill="#CFD362"/>
<path d="M77.0413 136.898C77.5715 136.7 78.0664 136.758 78.3492 136.532C80.2226 135.714 80.1159 132.855 81.565 131.47C82.696 130.566 84.1807 130.739 85.0643 129.806C85.6651 129.1 85.8062 128.081 85.9121 127.317C86.2655 126.581 86.9016 125.62 87.6792 125.451C87.8561 125.989 87.7855 126.499 87.7149 127.008C87.0086 130.291 86.0548 133.545 83.9344 136.145C82.7328 137.559 81.0716 138.66 79.4456 139.506C78.1025 140.127 76.5118 140.718 74.9565 141.055C73.9314 141.195 71.3156 141.926 70.3964 141.302C68.876 139.573 76.0162 137.037 77.0413 136.898Z" fill="#FAF09E"/>
<path d="M56.2852 116.924C54.8283 116.494 53.1578 115.781 52.5862 114.419C52.4073 113.88 52.2283 113.341 52.2632 113.086C52.154 112.038 51.7962 110.96 51.687 109.912C51.4337 108.069 51.0015 105.688 52.2051 104.276C53.1251 103.089 54.6866 102.754 55.9645 102.645C58.2717 102.397 60.2954 102.376 62.4981 102.893C63.4926 103.01 64.7008 103.41 65.5907 104.291C67.4053 105.799 67.3055 108.376 67.2404 110.699C67.2102 112.767 67.9003 118.804 65.8417 119.08C64.529 119.444 62.3611 118.672 61.1529 118.272C59.4475 117.813 57.742 117.354 56.2852 116.924Z" fill="#CFD362"/>
<path d="M64.4822 106.133C64.1593 104.801 63.8713 103.214 64.5426 101.998C64.8609 101.518 65.4276 101.067 65.7459 100.586C66.596 99.9091 67.4462 99.2322 68.4404 99.3487C69.718 99.2397 70.8911 99.8949 72.099 100.295C74.0526 100.783 76.3941 100.281 78.3476 100.769C80.2663 101.512 81.7971 103.245 82.2989 105.116C83.0492 107.016 82.9842 109.338 82.954 111.405C83.0283 112.708 83.1027 114.012 82.6799 115.256C82.2571 116.501 81.5858 117.717 80.4871 118.365C79.3884 119.012 78.3941 118.896 77.1514 118.75C73.8854 118.626 70.5846 118.757 67.3186 118.633C66.8215 118.575 66.0758 118.487 65.6135 118.174C65.3998 117.89 65.2209 117.351 65.2906 116.842C65.6437 116.107 64.4822 106.133 64.4822 106.133Z" fill="#CFD362"/>
<path d="M63.0919 134.802C64.5125 135.486 66.3207 135.181 67.6322 134.817C69.2269 134.228 70.5732 133.61 72.1331 133.275C72.913 133.108 73.6581 133.196 74.2245 132.745C76.0676 132.185 77.3048 130.519 77.5833 128.482C77.6878 127.718 77.7922 126.954 77.8967 126.19C77.9663 125.681 78.2495 125.455 78.5327 125.23C78.8855 124.495 78.7764 123.448 78.6325 122.655C79.626 122.771 80.5847 123.142 81.3298 123.229C81.5781 123.259 82.0749 123.317 82.3233 123.346C82.5717 123.375 82.8548 123.15 83.1729 122.669C84.9068 121.062 85.5034 118.545 84.5052 116.617C84.3265 116.078 83.8994 115.511 83.969 115.002C84.0038 114.747 84.0735 114.238 84.1083 113.983C84.2476 112.965 83.3934 111.83 82.7527 110.978C81.4366 109.531 79.3057 108.505 77.4626 109.065C75.9027 109.399 74.7003 110.81 73.1753 110.89C72.8875 109.304 72.6344 107.464 72.0982 105.849C71.9543 105.056 71.8104 104.263 71.6665 103.47C71.5226 102.677 71.627 101.913 71.4831 101.12C71.2649 99.0246 69.4868 97.2639 67.4302 97.5401C66.6503 97.7074 66.1187 97.9038 65.304 98.3257C63.4261 99.1403 61.5482 99.9549 59.9187 100.799C59.104 101.221 58.2892 101.642 57.688 102.348C56.8036 103.279 56.3463 104.778 56.669 106.109C56.9916 107.441 57.5627 108.801 58.2033 109.652C56.2512 109.165 54.0507 108.648 52.1333 107.906C51.8849 107.877 51.3882 107.818 51.1398 107.789C49.8632 107.898 49.1575 109.368 49.2318 110.67C49.3061 111.972 49.6635 113.049 49.4894 114.322C49.3154 115.595 48.6793 116.555 48.5053 117.829C48.5795 119.131 49.1853 120.237 50.1092 120.862C51.033 121.488 52.2749 121.634 53.5168 121.779C54.2619 121.867 55.2902 121.729 56.0353 121.816C57.5256 121.991 59.1945 122.704 60.3319 123.613C59.4127 124.799 58.0664 125.417 56.9336 126.319C56.0841 126.996 55.6964 127.985 56.5854 128.865C57.0125 129.433 57.7577 129.52 58.1848 130.088C58.6119 130.655 59.039 131.223 59.4661 131.79C61.279 133.296 61.8848 134.402 63.0919 134.802Z" fill="#FCE96B"/>
<path d="M72.0741 126.549C72.3577 126.323 72.8552 126.382 73.1388 126.156C73.6711 125.959 73.9896 125.479 74.308 124.998C75.547 123.33 77.4625 122.259 79.3082 121.698C80.338 121.56 80.5123 120.285 80.1195 119.461C79.6917 118.893 79.7615 118.383 79.5825 117.844C79.0106 116.482 77.3392 115.768 77.5135 114.493C77.5484 114.238 77.5833 113.983 77.5833 113.983C77.9715 112.992 77.3299 112.14 76.3001 112.278L76.0513 112.249C75.8026 112.22 75.519 112.445 75.3051 112.161C75.0564 112.132 74.8774 111.593 74.6636 111.309C73.8081 110.172 72.5993 109.771 71.6741 109.145C70.0376 108.176 68.6498 107.236 67.2968 106.041C66.8691 105.473 66.088 105.64 65.486 106.347C64.8839 107.053 63.7844 107.702 62.9336 108.379C62.3664 108.831 62.0479 109.312 61.4807 109.763C60.0279 111.147 58.1473 111.963 56.0877 112.24C55.3066 112.407 54.6697 113.369 55.3113 114.221C55.739 114.789 56.1319 115.613 56.0273 116.378C55.9227 117.143 55.7832 118.163 55.9274 118.957C56.2157 120.545 57.8522 121.514 58.1404 123.102C58.2846 123.896 58.18 124.661 57.7918 125.652C57.4036 126.643 58.2939 127.524 59.3237 127.386C61.453 126.599 64.0101 126.381 65.9302 127.124C66.8903 127.496 67.5667 128.093 68.2083 128.946C68.8499 129.798 70.1633 129.434 70.5515 128.443C70.691 127.423 71.0443 126.688 72.0741 126.549Z" fill="#CFD362"/>
<path d="M68.1586 107.41C67.1654 107.295 66.3851 107.464 65.2858 108.115C64.4701 108.539 63.7965 109.759 63.1937 110.468C62.2717 111.659 60.8533 112.792 59.2927 113.13C58.5125 113.299 57.4839 113.439 57.094 114.432C57.0231 114.943 56.9877 115.198 56.9169 115.709C56.8107 116.475 56.4207 117.469 56.0662 118.206C55.7825 118.433 55.4634 118.915 55.428 119.17C55.3571 119.681 55.4992 120.476 55.9603 120.79C57.1668 123.006 58.6215 125.252 60.4307 126.76C62.2399 128.267 64.8648 129.351 67.1702 129.099C67.4184 129.128 67.6667 129.157 67.7021 128.902C67.9858 128.675 68.0212 128.42 68.0566 128.164C68.1983 127.142 68.6237 125.894 68.7653 124.872C68.9428 125.412 69.1202 125.951 69.2977 126.491C70.2908 126.607 71.1419 125.927 71.993 125.247C72.8441 124.567 73.4823 123.603 74.298 123.178C75.9294 122.329 78.1285 122.844 79.547 121.711C79.8307 121.484 80.1144 121.258 80.1852 120.747C80.2206 120.491 80.0432 119.952 79.8303 119.667C78.6239 117.451 76.3535 115.63 73.9061 115.086C74.7218 114.661 75.0763 113.924 75.4662 112.931C75.5016 112.675 75.537 112.42 75.3242 112.136C75.1113 111.851 75.1113 111.851 74.8984 111.567C73.0538 110.315 70.6414 107.698 68.1586 107.41Z" fill="#FAF09E"/>
<path d="M71.5182 121.297C72.8305 120.93 74.2136 120.053 75.1001 119.117C75.4192 118.635 75.9512 118.437 76.0221 117.926C76.1283 117.16 75.4543 116.562 74.7448 116.22C74.0353 115.879 72.0136 115.903 71.907 114.853C71.6229 113.262 71.41 112.978 70.2748 112.067C69.1042 111.412 68.2173 110.531 66.9758 110.386C65.699 110.498 64.8833 110.922 64.245 111.886C63.6422 112.595 63.2877 113.333 63.1814 114.099C63.0044 115.377 62.2595 115.29 61.1955 115.686C59.635 116.024 58.4647 117.186 58.9971 118.805C59.5295 120.424 60.4518 121.051 61.5516 122.217C62.4385 123.098 63.5738 124.009 64.4607 124.891C64.6736 125.175 64.9219 125.204 65.1701 125.232C65.4184 125.261 65.7021 125.035 65.9858 124.808C66.3049 124.326 66.6595 123.588 67.2269 123.135C67.7943 122.682 68.5746 122.513 69.0357 122.826C69.2486 123.11 69.2486 123.11 69.4615 123.394C69.6744 123.679 69.9581 123.452 70.4547 123.51C71.1995 123.596 71.9798 123.427 72.3343 122.69C72.3697 122.434 72.4052 122.179 72.4406 121.923C72.9013 120.419 74.7102 120.11 75.171 118.606C75.5963 117.358 73.7871 115.85 72.8293 115.479" fill="#D5DF98"/>
<path d="M71.0801 113.474C70.5828 113.416 70.0158 113.867 69.9461 114.377C70.0158 113.867 69.658 112.79 69.1955 112.476C68.7331 112.163 67.7037 112.301 67.3853 112.782C67.1018 113.008 67.0321 113.518 66.9972 113.772C66.8183 113.234 66.6045 112.949 66.3907 112.665L66.1421 112.636L65.8934 112.607C65.3613 112.804 64.8291 113 64.5108 113.481C64.4411 113.991 64.4062 114.246 64.3365 114.755C63.8741 114.442 63.6603 114.158 62.9144 114.071C62.1684 113.983 61.5666 114.69 61.462 115.454C61.3923 115.964 61.3574 116.219 61.5364 116.758C61.7502 117.042 62.1778 117.61 62.4613 117.384C61.3621 118.032 60.586 120.013 61.7246 120.924C62.1871 121.237 62.933 121.324 63.2514 120.844C62.8982 121.579 63.2212 122.912 63.9671 122.999C64.6782 123.342 65.7773 122.694 65.6681 121.645C65.7773 122.694 66.916 123.604 67.6968 123.437C68.2289 123.24 68.5124 123.014 68.5821 122.504C68.9005 122.024 68.7215 121.485 68.5426 120.946C68.7912 120.975 68.7564 121.23 69.005 121.259C69.4675 121.572 69.895 122.14 70.4272 121.944C70.6758 121.973 70.9593 121.747 70.9942 121.492C71.2777 121.267 71.6309 120.531 71.452 119.992C71.4868 119.737 71.129 118.659 71.129 118.659C71.6263 118.718 71.8749 118.747 72.407 118.55C72.974 118.099 73.5759 117.393 73.4318 116.599C73.2529 116.06 73.0739 115.521 72.6115 115.208C72.1491 114.894 71.5821 115.346 71.0499 115.542C71.3683 115.062 71.6866 114.581 71.5077 114.042C71.9701 114.355 71.8261 113.562 71.0801 113.474Z" fill="white"/>
<path d="M109.604 191.626C104.182 192.275 89.3924 190.768 83.5292 171.918" stroke="#619B82" stroke-width="0.1824" stroke-miterlimit="10"/>
<path d="M146.144 211.857C147.098 208.602 144.936 202.395 141.254 199.895C140.546 199.554 140.086 199.242 139.343 199.155C138.599 199.069 137.786 199.492 137.68 200.256C137.326 200.992 136.159 202.151 136.549 202.973C137.824 204.675 140.867 204.511 143.948 207.718C145.788 208.968 146.427 211.631 146.144 211.857Z" fill="#619B82"/>
<path d="M150.168 191.25C149.32 193.741 148.437 196.486 146.915 198.381C146.279 199.343 144.969 199.709 143.908 200.103C142.881 200.243 141.147 200.041 140.509 199.19C139.872 198.339 139.978 197.574 140.827 196.896C141.676 196.218 142.95 196.107 144.012 195.713C145.073 195.318 146.17 194.669 147.019 193.991C148.399 193.116 149.284 192.183 150.168 191.25Z" fill="#619B82"/>
<path d="M132.357 204.847C133.457 206.013 135.089 206.981 136.828 207.183C138.566 207.385 140.658 206.85 142.289 206.002C144.204 204.927 145.515 202.744 145.585 200.417C145.655 198.09 144.696 195.903 143.418 194.198C142.744 193.601 142.07 193.003 141.36 192.661C140.65 192.319 139.657 192.204 138.912 192.117C135.684 191.742 132.634 191.906 130.259 194.484C128.522 196.098 128.594 199.22 129.553 201.407C130.44 202.289 131.257 203.681 132.357 204.847Z" fill="#DE5E52"/>
<path d="M143.949 197.967L144.196 197.995L144.443 198.024C145.113 198.619 145.29 199.156 145.431 199.948C145.573 200.739 145.221 201.473 144.868 202.207C144.551 202.687 144.269 202.912 143.987 203.138C143.705 203.363 143.211 203.306 142.753 202.994C142.541 202.711 142.329 202.428 142.4 201.92C142.047 202.654 141.201 203.33 140.426 203.498C140.179 203.469 139.932 203.441 139.685 203.412C139.226 203.1 138.803 202.534 138.626 201.997C138.343 200.414 138.554 198.888 139.012 197.392C139.364 196.658 139.716 195.924 140.068 195.19C140.421 194.456 141.232 194.034 142.007 193.866C141.725 194.091 141.408 194.571 141.373 194.825C140.669 196.293 140.211 197.79 140.494 199.373C140.459 199.627 140.635 200.164 140.882 200.193C141.341 200.505 141.658 200.025 141.94 199.799C142.751 199.377 142.926 198.106 143.949 197.967Z" fill="#F0A5B7"/>
<path d="M129.14 195.65C127.593 199.599 129.285 203.668 131.469 205.988C134.392 208.393 133.725 211.413 133.409 211.892C133.62 212.175 134.535 212.798 135.097 210.54C136.855 205.067 128.686 202.566 130.267 196.556C131.848 190.545 138.467 193.382 141.706 193.501C144.452 193.563 146.035 191.166 145.364 188.765L145.118 188.737C144.943 190.007 144.311 192.772 141.212 191.637C137.374 190.415 134.874 188.575 130.863 192.237C129.913 193.675 129.14 195.65 129.14 195.65Z" fill="#619B82"/>
<path d="M132.012 201.896C133.108 203.058 134.486 203.994 135.83 205.185C137.209 206.122 138.305 207.284 139.366 208.701C139.33 207.145 138.799 205.531 138.48 204.2C137.914 202.841 137.595 201.511 137.029 200.152C136.675 199.076 135.967 196.924 135.083 196.045C134.447 195.195 132.361 193.918 131.053 194.283C129.463 194.874 129.536 197.987 129.89 199.062C129.996 200.109 131.34 201.3 132.012 201.896Z" fill="#619B82"/>
<path d="M109.272 191.622C115.507 190.782 128.203 191.262 132.713 195.812" stroke="#619B82" stroke-width="0.1824" stroke-miterlimit="10"/>
<path d="M115.77 191.351C118.669 194.277 124.059 197.5 121.283 203.103C121.283 203.103 128.623 199.334 124.116 195.185C119.609 191.035 115.77 191.351 115.77 191.351Z" fill="#619B82"/>
<path d="M86.7703 175.048C87.5264 176.941 88 179.058 87.265 180.774C86.3259 184.011 83.0717 185.685 80.3144 187.417C77.3427 188.866 74.3029 190.823 73.3639 194.06C73.9419 189.749 69.6279 186.144 69.2117 181.715C68.9081 178.329 70.8752 174.957 73.6665 172.971C76.1752 171.209 79.0449 170.52 82.0952 170.369C84.6485 170.158 85.7996 172.871 86.7703 175.048Z" fill="#619B82"/>
<path d="M78.3659 178.213C80.2954 175.09 83.1773 172.337 83.4143 168.758C85.2105 168.454 86.8339 169.418 87.9292 170.577C90.7911 173.491 91.6149 178.483 90.3219 182.454C88.9943 186.678 86.0433 189.938 82.4558 192.35C80.5214 193.669 78.4094 194.451 76.1198 194.697C73.3368 194.885 73.5095 193.617 73.8205 191.334C74.6892 186.799 75.8392 182.038 78.3659 178.213Z" fill="#3B8A64"/>
<path d="M69.1034 187.866C70.741 187.013 72.2357 185.36 74.1224 184.536C74.9057 184.367 75.689 184.197 76.4723 184.027C76.9708 184.085 77.5048 183.886 78.0034 183.944" stroke="#3B8A64" stroke-width="0.2287" stroke-miterlimit="10"/>
<path d="M68.0723 183.928C70.0657 182.334 72.0945 180.482 74.7293 179.745C76.3315 179.148 78.0765 179.352 79.928 178.784" stroke="#3B8A64" stroke-width="0.2287" stroke-miterlimit="10"/>
<path d="M68.2689 178.321C70.1977 177.23 72.1266 176.138 74.2346 175.594C76.5928 175.08 78.8445 175.344 81.0962 175.608" stroke="#3B8A64" stroke-width="0.2287" stroke-miterlimit="10"/>
<path d="M74.1883 171.833C77.3077 171.395 80.3919 171.224 82.979 172.897" stroke="#3B8A64" stroke-width="0.2287" stroke-miterlimit="10"/>
<path d="M83.0618 148.256C83.0618 148.256 88.425 147.863 92.6904 148.113C97.2047 148.393 105.851 144.265 104.726 128.141C104.726 128.141 102.101 128.86 100.574 128.936C98.7632 129.236 89.7005 128.931 86.643 134.756C83.5856 140.582 86.3786 144.267 83.0618 148.256Z" fill="#619B82"/>
<path d="M86.2663 147.81C86.2663 147.81 89.823 151.606 92.3794 155.281C94.9359 158.957 103.493 163.349 114.953 151.752C114.953 151.752 112.874 150.207 111.76 149.037C110.647 147.867 104.784 140.426 98.5092 141.752C92.4848 143.107 91.3698 147.642 86.2663 147.81Z" fill="#619B82"/>
<path d="M102.91 174.124C102.91 174.124 101.388 170.315 100.333 166.821C99.5271 163.356 94.4273 157.825 82.7912 163.174C82.7912 163.174 83.8018 165.109 84.4492 165.963C85.0282 167.328 87.1394 174.317 92.1384 174.913C97.1033 175.764 99.0471 172.627 102.91 174.124Z" fill="#619B82"/>
<path d="M69.4211 158.76C69.4211 158.76 62.1795 165.415 50.2006 167.617" stroke="#619B82" stroke-width="0.2287" stroke-miterlimit="10"/>
<path d="M58.4185 164.656C56.1148 166.717 55.5476 167.169 54.6712 171.73C53.7948 176.29 50.0427 181.55 43.0128 183.058C35.9829 184.565 32.0681 181.775 28.8787 184.769C28.8787 184.769 29.7946 181.767 29.2831 176.266C28.7717 170.766 33.1607 164.544 40.0116 162.498C47.1461 160.225 51.0655 164.83 54.5479 165.238C56.0752 165.158 58.4185 164.656 58.4185 164.656Z" fill="#619B82"/>
<path d="M58.4306 164.614C58.4306 164.614 45.9129 165.756 39.9209 170.77C35.0989 174.623 32.3336 178.195 28.8597 185.058" stroke="#5A9075" stroke-width="0.2287" stroke-miterlimit="10"/>
<path d="M49.1706 166.558C49.1706 166.558 52.6934 171.34 50.4259 180.832" stroke="#5A9075" stroke-width="0.2287" stroke-miterlimit="10"/>
<path d="M49.2148 166.595C47.8201 165.64 46.2107 164.395 44.816 163.44C43.4213 162.485 41.9911 161.79 40.3106 161.065C38.6302 160.34 37.0933 160.424 35.4499 161.286" stroke="#5A9075" stroke-width="0.2287" stroke-miterlimit="10"/>
<path d="M43.5384 168.661C45.733 174.053 45.1273 180.394 43.3933 186.087" stroke="#5A9075" stroke-width="0.2287" stroke-miterlimit="10"/>
<path d="M37.084 172.458C37.3288 176.075 36.8656 179.606 36.1333 183.361C36.001 184.369 35.6326 185.35 34.7923 186.273" stroke="#5A9075" stroke-width="0.2287" stroke-miterlimit="10"/>
<path d="M43.6298 168.445C40.1917 165.652 35.8602 163.815 31.3512 163.283C30.8502 163.224 30.3493 163.165 29.8128 163.368" stroke="#5A9075" stroke-width="0.2287" stroke-miterlimit="10"/>
<path d="M37.2385 172.721C37.2739 172.459 37.0233 172.429 36.7727 172.4C35.3044 171.96 32.9754 170.353 31.1855 170.408C29.6462 170.492 27.5702 170.779 26.3549 172.233" stroke="#5A9075" stroke-width="0.2287" stroke-miterlimit="10"/>
<path d="M32.6008 177.204C31.8543 177.117 31.8544 177.117 31.0724 177.286C30.0416 177.427 28.9398 178.08 28.0869 178.762C27.234 179.443 26.3456 180.381 25.4927 181.063" stroke="#5A9075" stroke-width="0.2287" stroke-miterlimit="10"/>
<path d="M32.5737 177.51C32.3404 181.073 31.3909 184.55 29.7586 187.689" stroke="#5A9075" stroke-width="0.2287" stroke-miterlimit="10"/>
<path d="M62.1731 162.521C62.1731 162.521 60.0315 165.361 57.9934 167.439C55.9552 169.518 53.8932 175.458 62.088 181.576C62.088 181.576 63.0699 179.888 63.4202 179.157C64.0518 178.2 68.1626 173.79 66.7057 169.754C65.2488 165.717 62.465 165.905 62.1731 162.521Z" fill="#619B82"/>
<path d="M48.0704 151.069C48.0704 151.069 48.613 154.506 48.7273 157.374C48.8416 160.241 51.8797 165.787 62.0821 163.351C62.0821 163.351 61.5442 161.731 61.1857 160.651C60.8271 159.571 60.3844 153.552 56.5388 152.063C52.9424 150.603 50.8848 152.697 48.0704 151.069Z" fill="#619B82"/>
<path d="M60.8136 76.4644C60.8136 76.4644 54.6024 71.8555 51.4941 62.9729" stroke="#619B82" stroke-width="0.2287" stroke-miterlimit="10"/>
<path d="M53.868 68.4284C52.729 67.5178 52.5152 67.2336 50.207 67.4811C47.9338 67.4736 45.3025 66.388 43.9799 63.1244C42.6573 59.8608 43.7172 57.6537 41.867 56.4006C41.867 56.4006 43.3592 56.5756 45.7719 55.5632C48.3985 54.835 51.4923 56.2339 53.0985 59.2717C54.7047 62.3095 53.1125 64.7132 53.1172 66.5271C53.51 67.3503 53.868 68.4284 53.868 68.4284Z" fill="#619B82"/>
<path d="M56.6863 71.2213C56.6863 71.2213 54.2969 70.1608 52.4413 68.9031C50.5856 67.6454 45.5974 67.0595 42.2705 74.7271C42.2705 74.7271 43.7321 75.1587 44.196 75.4731C44.9093 75.8169 49.1194 78.3909 51.8928 76.6371C54.4517 74.5981 54.2671 72.2369 56.6863 71.2213Z" fill="#619B82"/>
<path d="M63.458 58.5263C63.458 58.5263 61.0604 59.5335 58.6974 60.287C56.6161 60.8158 52.8839 64.2445 56.1174 71.8441C56.1174 71.8441 57.2446 70.9453 58.0207 70.7788C58.8314 70.3584 63.3102 68.8224 64.0071 65.5525C64.4568 62.2535 62.6177 61.0058 63.458 58.5263Z" fill="#619B82"/>
<path d="M65.1976 152.113C64.5524 151.262 64.4396 150.216 64.576 149.2C64.5549 145.584 65.2814 142.056 66.7554 138.618C67.0728 138.14 67.141 137.631 67.4242 137.407C67.9908 136.958 68.8065 136.539 69.3389 136.344C71.1854 135.79 73.247 135.519 75.0593 135.218C76.5885 135.142 78.3668 135.096 79.7936 135.782C80.9713 136.439 81.8316 137.574 82.4087 138.933C82.9857 140.292 83.0644 141.592 83.109 143.146C83.3687 144.984 83.5943 147.076 83.854 148.914C84.0009 149.706 84.1137 150.752 84.0114 151.514C83.5682 154.817 80.1585 155.702 77.4176 155.375C74.9258 155.078 72.4 155.036 69.7273 154.201C67.9831 153.994 66.0238 153.502 65.1976 152.113Z" fill="#E0725C"/>
<path d="M97.5114 165.066C96.1342 165.938 94.5788 166.271 93.058 166.351C91.0419 166.373 89.6948 165.182 88.1 163.962C86.5051 162.742 81.2554 156.963 80.5078 155.068C80.1166 154.247 79.7601 153.173 79.899 152.156C79.8249 150.857 80.7762 149.419 81.4452 148.207C83.6302 145.107 86.2758 142.319 89.3474 140.098C91.8541 138.327 95.9858 135.713 98.6454 138.349C99.5319 139.228 99.8537 140.556 99.893 142.11C100.076 144.455 99.7635 146.742 100.194 149.116C100.338 149.907 100.729 150.728 100.837 151.773C101.516 154.177 101.946 156.551 101.351 159.063C100.757 161.575 99.4534 163.745 97.5114 165.066Z" fill="#DE5E52"/>
<path d="M81.1073 155.296C78.8234 153.468 75.2277 153.826 72.6293 154.301C69.5323 154.717 66.7545 154.651 63.7273 154.556C62.1962 154.636 60.4508 154.431 59.0643 155.308C58.78 155.535 58.2463 155.732 58.1765 156.244C57.8922 156.47 57.8223 156.982 58.0018 157.523C58.0764 158.831 58.8991 160.227 59.7568 161.367C61.2577 163.363 62.7586 165.359 64.2246 167.61C64.8329 168.721 65.7255 169.605 66.9024 170.263C68.578 170.98 70.2138 170.132 72.0641 169.57C74.9467 168.868 78.0088 168.708 80.5325 166.925C81.954 165.792 82.9466 164.089 83.4405 162.327C83.6105 159.228 82.9624 156.553 81.1073 155.296Z" fill="#E0725C"/>
<path d="M87.8703 156.905C86.448 156.22 85.0257 155.534 83.568 155.104C82.1103 154.674 80.7599 155.298 79.4802 155.409C77.6674 155.719 75.9254 155.516 74.1481 155.57C72.1218 155.594 69.8113 155.846 68.1058 157.208C65.7963 159.281 65.1234 164.146 67.3287 166.484C68.4313 167.653 69.6047 168.31 70.7428 169.223C73.7299 171.392 76.6818 173.816 79.065 176.695C79.065 176.695 79.2785 176.98 79.5273 177.009C79.7762 177.038 79.7761 177.038 80.0604 176.811C82.2637 175.506 84.5024 173.945 87.0617 173.723C88.3414 173.611 89.8345 173.785 91.1496 173.418C92.4292 173.306 93.5309 172.654 94.4191 171.717C94.9522 171.518 95.5561 170.808 95.8758 170.325C96.2309 169.586 96.1237 168.533 96.1945 168.02C96.1581 166.455 95.8729 164.861 95.3388 163.238C94.3778 161.045 92.8837 159.05 90.7857 157.765C89.5415 157.62 88.5815 157.248 87.8703 156.905Z" fill="#E9715D"/>
<path d="M91.1797 171.842C90.0761 172.496 88.7588 172.865 87.6553 173.519C86.5518 174.173 85.2344 174.541 84.594 175.511C83.9891 176.223 83.598 177.221 83.2424 177.962C83.2069 178.219 83.1714 178.476 82.8867 178.704C82.6019 178.932 82.602 178.932 82.3172 179.159C80.9644 179.785 79.8963 180.182 78.3297 180.521C78.0804 180.492 78.0804 180.492 77.8311 180.463C77.5818 180.434 77.6173 180.177 77.368 180.148C76.9403 179.577 76.5481 178.748 76.4052 177.949C76.4761 177.435 76.5115 177.179 76.3331 176.636C76.2965 175.066 76.0106 173.467 75.7248 171.868C75.4389 170.27 75.4377 168.443 74.6178 167.043C73.4057 164.814 70.5205 163.696 68.0276 163.405C67.2798 163.318 66.5319 163.231 65.8195 162.887C64.8932 162.257 64.3226 160.886 64.4998 159.602C64.6771 158.318 65.1036 157.063 65.744 156.094C66.3844 155.125 67.0602 153.899 66.668 153.071C65.0304 153.924 63.322 155.29 62.1122 156.715C61.5072 157.427 60.9023 158.14 60.7959 158.91C60.4048 159.908 60.2985 160.679 60.406 161.735C60.4448 166.958 62.7628 172.185 66.0413 175.959C67.1459 177.131 68.2506 178.304 69.64 179.248C72.2049 180.852 75.6595 181.515 78.6865 181.607C83.7077 181.93 89.0138 182.027 93.8201 180.238C98.6264 178.449 103.147 175.062 104.853 170.042C105.351 170.1 105.563 166.733 105.634 166.219C105.847 164.679 105.454 163.85 104.848 162.736C104.67 162.193 104.492 161.651 104.064 161.079C102.995 159.65 101.142 158.39 99.3972 158.187C96.6904 157.611 95.6589 159.578 96.5863 162.035C96.8002 162.32 96.7647 162.577 96.9431 163.12C97.086 163.919 96.7304 164.661 96.624 165.431C96.6961 166.744 97.0529 167.829 96.4125 168.798C95.4874 169.995 94.1345 170.62 92.7817 171.246C91.7491 171.386 91.4644 171.614 91.1797 171.842Z" fill="#F0A5B7"/>
<path d="M68.5436 162.802C69.7464 163.201 70.7369 163.316 72.0103 163.205C73.0361 163.065 73.8143 162.896 74.8401 162.757C75.9013 162.362 76.9624 161.967 77.7759 161.544C84.3899 157.392 83.1144 146.627 77.9843 141.888C76.4276 140.412 74.5526 139.418 72.3947 138.649C71.4395 138.279 70.4844 137.909 69.4232 138.304C68.645 138.473 67.8315 138.896 66.9827 139.574C66.4168 140.027 65.8862 140.224 65.5679 140.705C64.9314 141.667 64.5425 142.657 63.906 143.619C62.9865 144.807 62.35 145.769 61.4305 146.957C61.1122 147.438 60.511 148.145 60.1927 148.626C59.4502 150.352 59.9105 152.477 60.4061 154.348C60.7247 155.679 61.0433 157.011 61.3619 158.343C61.6805 159.675 62.3175 160.525 63.2373 161.15C63.9095 161.746 64.9353 161.606 65.6428 161.947C66.598 162.317 67.5532 162.687 68.5436 162.802Z" fill="#DE5E52"/>
<path d="M64.1382 162.946C63.471 162.353 63.1196 161.28 63.014 160.236C62.8027 158.149 62.5564 156.315 62.0994 154.198C61.9588 153.408 61.5723 152.59 61.4667 151.546C61.4311 149.994 62.1328 148.529 62.7995 147.317C63.4661 146.105 64.6243 144.951 65.326 143.485C65.9927 142.273 66.4136 141.033 67.2559 140.357C67.8175 139.907 68.5898 139.739 69.3271 139.825C70.3451 139.686 71.0824 139.772 72.0654 139.887C72.5569 139.944 73.0484 140.001 73.3292 139.776C73.61 139.551 73.6801 139.043 73.4693 138.761C73.2586 138.478 73.0479 138.196 72.5564 138.138C71.6084 137.77 70.3446 137.881 69.3265 138.02C68.0627 138.13 66.7989 138.241 65.465 138.859C64.1312 139.477 62.7272 140.603 61.8148 141.786C60.9024 142.969 60.2007 144.435 59.499 145.901C58.7973 147.366 58.0606 149.085 57.6047 150.58C57.1137 152.328 56.9035 153.851 57.1498 155.684C57.4311 157.265 58.0283 158.366 58.8362 159.749C59.644 161.133 60.9434 162.574 62.6287 163.028" fill="#F0A5B7"/>
<path d="M84.6457 156.337C81.7077 157.551 77.9554 157.374 75.477 155.273C74.1316 154.08 73.3525 152.435 72.8565 150.564C72.3606 148.692 72.1124 146.85 72.1121 145.036C71.9346 142.683 71.5094 140.302 73.5268 138.463C74.6594 137.559 75.9691 137.192 77.2788 136.826C78.5885 136.46 79.8629 136.349 81.1726 135.983C81.9513 135.814 82.7654 135.391 83.6149 134.712C84.1812 134.26 84.6057 133.013 85.4909 133.893C85.9511 134.206 86.1636 134.49 86.6239 134.802C87.7568 135.711 89.2083 136.139 90.6244 136.821C92.0405 137.504 93.4566 138.187 94.2711 139.577C94.8377 140.938 94.8734 142.497 94.9091 144.056C94.7677 145.076 94.3785 146.067 93.9893 147.058C93.2109 149.04 91.9015 151.22 90.4504 152.606C88.7515 153.964 86.7695 155.547 84.6457 156.337Z" fill="#E9715D"/>
<path d="M74.536 141.02C76.1739 140.166 77.7053 140.083 79.3432 139.229C80.9456 138.632 82.3697 137.492 83.58 136.067C83.9004 135.582 84.5055 134.869 85.2889 134.699C86.0724 134.529 86.7137 135.387 87.1768 135.702C88.0675 136.589 89.243 137.248 90.2402 137.364C91.9498 137.824 94.0153 137.542 95.6894 138.259C95.6532 136.688 94.5132 135.772 93.3733 134.856C91.7347 133.882 90.0961 132.908 88.3865 132.448C87.4248 132.075 86.6768 131.988 85.7151 131.615C82.5097 130.981 79.1267 131.632 75.8864 133.082C73.7499 133.878 71.8272 134.96 70.7951 136.929C70.4037 137.928 70.0123 138.927 69.8703 139.955C69.7992 140.469 69.6927 141.239 69.8709 141.782C70.0492 142.325 70.192 143.125 70.3702 143.668C70.584 143.954 70.7268 144.754 71.2609 144.555C71.5457 144.327 71.6523 143.556 71.9726 143.071C72.293 142.586 72.6133 142.101 72.8981 141.873C73.4678 141.418 74.0019 141.219 74.536 141.02Z" fill="#F0A5B7"/>
<path d="M79.262 161.756C79.9752 162.099 80.9716 162.218 81.7529 162.053C83.0325 161.947 84.312 161.842 85.3765 161.452C87.5397 160.419 87.8228 160.195 88.4127 157.685C88.6172 156.161 88.8217 154.637 88.494 153.308C88.1662 151.978 87.3403 150.59 85.9139 149.904C79.0311 146.504 71.5639 158.775 79.262 161.756Z" fill="#DE5E52"/>
<path d="M80.8213 154.301C80.8958 155.607 81.7175 157.001 82.609 157.884C83.5005 158.766 84.392 159.649 85.6024 160.051C86.5637 160.423 87.5598 160.54 88.307 160.627C90.7974 160.919 93.6067 160.73 95.5943 159.147C97.2631 158.046 98.5733 155.865 98.6034 153.793C98.6335 151.721 97.9165 149.561 96.3127 148.335C95.6354 147.737 94.9232 147.394 94.176 147.306C93.1798 147.19 92.3978 147.357 91.3318 147.751C88.7018 148.48 86.0368 149.465 83.4068 150.194C81.5588 150.756 80.6372 151.945 80.8213 154.301Z" fill="#F3887B"/>
<path d="M84.9359 159.706C84.9359 159.706 91.2105 162.003 95.4055 159.116C99.5656 156.484 98.7727 153.012 98.7727 153.012C98.7727 153.012 95.8897 153.713 94.1886 156.893C92.4875 160.073 86.6768 158.091 84.9359 159.706Z" fill="#F0A5B7"/>
<path d="M94.3134 149.434C94.4925 149.974 94.4227 150.484 94.6018 151.023C95.0042 155.476 87.8976 155.68 84.8768 155.585C84.3791 155.526 84.1303 155.497 83.6326 155.439C82.2094 154.754 81.5978 151.831 81.2745 150.497C80.7373 148.879 80.021 146.722 80.7279 145.25C81.7534 143.297 84.5602 143.107 86.3369 143.057C88.6112 143.064 90.353 143.268 91.8855 145.003C93.2389 146.198 94.025 147.846 94.3134 149.434Z" fill="#F0A5B7"/>
<path d="M94.4178 150.456C94.5942 150.997 94.5226 151.508 94.6989 152.048C95.0822 156.511 87.9955 156.733 84.984 156.645C84.488 156.588 84.24 156.56 83.7441 156.502C82.3278 155.819 81.7298 152.891 81.4128 151.555C80.8837 149.934 80.1782 147.773 80.889 146.296C81.9194 144.335 84.7188 144.139 86.4904 144.083C88.7581 144.085 90.4939 144.285 92.0149 146.02C93.3238 147.471 94.1367 148.864 94.4178 150.456Z" fill="#EE7A6F"/>
<path d="M77.5017 154.832C77.6453 155.624 78.1802 157.236 76.8721 157.599C76.3419 157.794 76.1289 157.511 75.6334 157.453C74.4294 157.054 73.0124 156.371 71.8084 155.971C71.0999 155.63 70.3566 155.543 69.9306 154.976C69.2568 154.381 69.1479 153.335 68.7566 152.515C68.613 151.723 68.5041 150.678 68.856 149.944C69.0296 148.674 69.5945 148.224 70.6896 147.578C71.7848 146.932 72.8798 146.285 73.7619 145.356C74.8918 144.456 75.8086 143.273 76.9384 142.372C78.0682 141.472 79.6241 141.138 80.7587 142.046C81.4325 142.642 81.7891 143.716 81.9327 144.508C82.0763 145.299 82.1851 146.345 81.8333 147.078C81.3078 149.082 78.9046 150.091 77.6706 151.754C77.2493 152.995 77.3928 153.787 77.5017 154.832Z" fill="#F3887B"/>
<path d="M74.8045 156.034C73.8481 155.663 73.1394 155.322 72.2177 154.697C71.0829 153.789 70.5131 152.431 70.6867 151.16C70.8603 149.89 71.5643 148.423 72.6597 147.777C73.19 147.581 73.5072 147.101 74.0375 146.905C75.2024 145.751 75.6932 144.001 77.0711 143.129C77.9187 142.454 78.6968 142.287 79.688 142.404C80.6792 142.52 81.3879 142.861 82.0271 143.711C82.1313 142.949 81.7051 142.382 81.2789 141.816C80.8528 141.249 80.1094 141.162 79.3313 141.329C78.0923 141.183 77.0664 141.321 75.7927 141.43C74.5189 141.539 73.2105 141.902 71.9021 142.265C70.8414 142.657 69.746 143.303 68.8985 143.978C68.3334 144.428 67.5206 144.849 66.9208 145.554C66.2863 146.512 65.6518 147.471 65.4782 148.742C65.3046 150.012 65.4135 151.058 65.2398 152.329C65.3487 153.375 65.4577 154.42 65.5666 155.466C65.7102 156.258 66.3841 156.853 66.7756 157.674C67.2017 158.241 67.5931 159.061 68.3018 159.403C69.0105 159.744 69.4713 160.056 70.2147 160.144C71.2059 160.26 72.4449 160.405 73.5056 160.013C74.2837 159.846 75.6268 159.229 75.9788 158.496C76.6828 157.029 75.5132 156.375 74.8045 156.034Z" fill="#F0A5B7"/>
<path d="M84.032 149.474L85.0422 143.916L96.3531 145.76L89.0219 166.315L79.5628 156.432L84.032 149.474Z" fill="#E8644D"/>
<path d="M83.9447 149.434C85.1864 149.579 88.0622 150.692 86.4026 153.602C84.7431 156.512 82.6866 156.788 81.0526 155.82C79.4186 154.853 79.2608 148.626 83.9447 149.434Z" fill="#DA5941"/>
<path d="M83.8419 149.388C81.7887 149.664 79.0357 153.217 81.7725 157.155C84.5092 161.093 71.0712 154.349 71.0712 154.349L78.8342 143.633L83.8419 149.388Z" fill="#ED7163"/>
<path d="M68.4961 84.1266C68.8819 83.1402 69.2331 82.4077 69.619 81.4214C69.9702 80.6888 70.7812 80.2683 71.3797 79.5648C72.2254 78.8904 73.1058 77.9621 73.7042 77.2586C74.5846 76.3304 75.7122 75.4311 76.9832 75.3225C78.7833 75.0182 81.0135 77.0856 81.0183 78.8916C81.127 79.9361 80.7758 80.6686 80.6372 81.684C80.0782 83.9397 80.0137 86.2534 80.1964 88.5962L80.1618 88.85L79.8799 89.0748C78.327 89.4083 76.7741 89.7417 75.6119 90.8948C75.0481 91.3444 74.4496 92.0478 73.8858 92.4975C73.322 92.9471 72.5456 93.1138 71.7691 93.2805C71.5219 93.2514 70.9927 93.4472 70.7454 93.4182C70.2509 93.3601 70.0729 92.8233 69.613 92.5114C68.9405 91.9165 68.5499 91.0969 68.1939 90.0233C67.6253 88.6669 67.5859 87.1148 68.041 85.6207C68.0756 85.3668 68.4268 84.6343 68.4961 84.1266Z" fill="#E9715D"/>
<path d="M73.0424 89.3269C73.8205 89.16 74.3856 88.7098 75.1638 88.5428C75.9419 88.3759 76.507 87.9257 77.2504 88.013C77.746 88.0711 78.2417 88.1293 78.7026 88.4416C78.9504 88.4707 78.9504 88.4707 79.1982 88.4998C79.446 88.5289 79.446 88.5289 79.7285 88.3038C80.5067 88.1369 81.3196 87.7158 81.8846 87.2656L82.1671 87.0405L82.2019 86.7863C82.0235 86.2489 82.093 85.7405 81.6321 85.4282C81.419 85.145 81.419 85.145 81.2059 84.8617C80.5319 84.2661 80.1405 83.4454 79.5012 82.5957C78.862 81.7459 78.2227 80.8961 78.079 80.1045C77.7918 78.5213 78.4957 77.0545 79.4475 75.6167C79.7648 75.1374 80.0473 74.9123 80.1168 74.404C80.2209 73.6414 80.0773 72.8498 79.3686 72.5084C78.6599 72.167 78.199 71.8547 77.4903 71.5133C76.7468 71.426 76.0381 71.0846 75.8598 70.5472C76.9205 70.1551 78.1943 70.0464 79.1855 70.1627C79.6811 70.2209 80.1767 70.279 80.6376 70.5914C81.0985 70.9037 81.5594 71.216 82.0203 71.5284C84.2206 73.8526 85.043 77.0481 85.1219 80.1563C85.2308 81.2021 85.0919 82.2188 84.9878 82.9813C84.4622 84.9856 83.2626 86.3943 82.0282 88.0572C79.9463 90.3953 77.8644 92.7335 75.178 93.9677C72.4915 95.2019 69.1311 95.8406 66.5441 94.504C66.2616 94.7291 64.9483 93.2837 64.7005 93.2546C64.0265 92.6591 63.8482 92.1216 63.7045 91.33C63.4914 91.0468 63.5262 90.7926 63.3478 90.2552C63.2389 89.2094 63.4125 87.9385 64.047 86.98C64.9988 85.5422 66.2031 85.9418 66.7729 87.2999C66.7382 87.5541 66.986 87.5831 66.9513 87.8373C67.1644 88.1206 67.6253 88.4329 68.0862 88.7452C68.5123 89.3118 68.6907 89.8492 69.6472 90.2197C70.6385 90.336 71.4514 89.9149 72.2642 89.4938C72.7599 89.552 72.7598 89.552 73.0424 89.3269Z" fill="#F0A5B7"/>
<path d="M60.8808 79.7573C61.4468 79.3066 62.0128 78.8558 62.7923 78.6886C63.3235 78.4924 63.8547 78.2961 64.3511 78.3543C64.8823 78.158 65.627 78.2453 66.1235 78.3036C70.8048 79.1111 72.2384 85.2264 70.1924 89.1236C69.522 90.3378 68.6381 91.2684 67.7543 92.1991C67.1883 92.6499 66.8705 93.1297 66.1258 93.0424C65.5946 93.2387 65.0982 93.1805 64.6366 92.8678C64.3883 92.8386 63.8919 92.7804 63.6785 92.4968C63.2168 92.1841 62.79 91.6169 62.0801 91.2751C61.3703 90.9333 60.6952 90.337 59.9854 89.9952C59.772 89.7116 59.2755 89.6534 59.0621 89.3698C58.1736 88.4899 58.0994 87.1883 57.9904 86.1412C57.8465 85.3487 57.9509 84.5852 57.8071 83.7926C57.6633 83 57.9811 82.5201 58.3337 81.7858C58.6515 81.3059 59.1827 81.1096 59.4657 80.8843C59.9969 80.688 60.563 80.2372 60.8808 79.7573Z" fill="#DE5E52"/>
<path d="M59.508 80.5973C59.1896 81.078 59.3337 81.872 59.5127 82.411C59.8706 83.489 60.1937 84.822 60.3029 85.8709C60.2332 86.3808 60.4122 86.9198 60.5912 87.4589C60.7353 88.2528 61.4116 88.8502 62.3367 89.4767C63.0131 90.074 63.7243 90.4164 64.4006 91.0138C64.8283 91.582 65.5046 92.1793 66.2507 92.2668C66.7481 92.3251 67.0317 92.0993 67.529 92.1576C68.0613 91.961 68.5935 91.7644 68.9119 91.2837C69.1955 91.0579 69.4442 91.0871 69.6929 91.1162C69.9416 91.1454 69.9067 91.4003 69.8719 91.6553C69.837 91.9102 69.5534 92.136 69.5534 92.136C68.9863 92.5875 68.4541 92.7842 67.6732 92.9516C66.8922 93.1191 66.0764 93.5415 65.3304 93.454C64.3356 93.3373 63.5895 93.2499 62.6645 92.6234C61.7394 91.9968 61.3118 91.4287 60.6354 90.8313C59.9591 90.234 59.3175 89.3817 58.6412 88.7843C57.9648 88.187 57.6069 87.1089 57.4976 86.0601C57.3535 85.2661 57.4929 84.2464 57.5975 83.4815C57.737 82.4618 58.1251 81.4712 58.9757 80.7939" fill="#F0A5B7"/>
<path d="M70.7049 73.7537C71.1324 74.3216 71.5599 74.8896 71.7388 75.4284C71.9177 75.9672 72.0966 76.506 72.2754 77.0448C72.4543 77.5836 72.3498 78.3481 72.2801 78.8578C71.8666 83.7287 65.5519 85.5775 61.9624 84.121C60.7543 83.7205 59.6159 82.8103 58.7261 81.9292C58.2638 81.6161 57.8363 81.0481 57.6574 80.5093C57.4785 79.9705 57.5482 79.4609 57.6179 78.9512C57.6876 78.4416 57.7224 78.1867 58.0059 77.961C58.3242 77.4805 58.9259 76.7743 58.9956 76.2647C59.3488 75.5293 59.7019 74.794 60.055 74.0586C60.3733 73.5781 60.4082 73.3233 60.6916 73.0976C61.5768 72.1657 62.606 72.0274 63.9186 71.6635C64.6992 71.4961 65.4799 71.3287 66.2605 71.1613C67.0411 70.9939 67.5383 71.0522 68.2492 71.3945C68.7116 71.7076 68.8905 72.2464 69.3528 72.5595C69.8151 72.8726 70.2426 73.4406 70.7049 73.7537Z" fill="#DE5E52"/>
<path d="M69.8375 72.3597C69.3764 72.0472 68.5977 72.2143 68.067 72.4104C67.0057 72.8027 65.6963 73.1659 64.6349 73.5581C64.1042 73.7543 63.6083 73.6961 63.0776 73.8923C62.2642 74.3136 61.664 75.0183 61.0638 75.7231C60.7115 76.4569 60.0766 77.416 59.7243 78.1498C59.1241 78.8545 58.5586 79.305 58.4543 80.0679C58.3848 80.5765 58.598 80.8599 58.7764 81.3975C58.9549 81.9352 59.1333 82.4729 59.5945 82.7854C59.8077 83.0688 59.7729 83.3231 59.7729 83.3231C59.7382 83.5774 59.4902 83.5483 59.2422 83.5192C58.9943 83.4901 58.7463 83.461 58.7811 83.2067C58.3547 82.64 58.1762 82.1023 57.7498 81.5355C57.3582 80.7144 57.2145 79.9224 57.0709 79.1305C56.962 78.0842 57.3142 77.3503 57.7012 76.3622C58.0534 75.6284 58.6884 74.6693 59.2886 73.9646C59.8889 73.2599 60.5238 72.3008 61.372 71.6252C62.2202 70.9495 63.0336 70.5282 64.095 70.1359C64.8736 69.9688 65.8655 70.0852 66.6094 70.1724C67.6012 70.2888 68.5583 70.6594 69.2327 71.2552" fill="#F0A5B7"/>
<path d="M70.6463 81.8789C72.816 82.6516 75.374 82.4332 77.0763 81.0778C77.9274 80.4 78.5994 79.183 78.9877 78.1918C79.3761 77.2006 79.5505 75.9252 79.69 74.9049C79.8992 73.3744 80.0736 72.0989 78.7201 70.9035C78.0434 70.3058 77.0481 70.1891 76.0877 69.8173C75.0924 69.7006 74.3459 69.6131 73.3854 69.2413C72.8878 69.183 72.1762 68.8404 71.7134 68.5269C71.2506 68.2135 71.0715 67.6741 70.2553 68.0968C69.9716 68.3227 69.6879 68.5486 69.439 68.5194C68.5879 69.1971 67.5578 69.3355 66.4927 69.729C65.4276 70.1225 64.6114 70.5451 63.9742 71.5071C63.3719 72.214 63.4812 73.2635 63.6254 74.0579C63.7696 74.8524 63.9836 75.1366 64.1278 75.9311C64.7347 77.0389 65.5557 78.4311 66.4464 79.313C67.7998 80.5084 69.2231 81.1937 70.6463 81.8789Z" fill="#E9715D"/>
<path d="M77.7366 72.4436C76.7706 72.0674 75.5194 71.9196 74.5533 71.5434C73.3371 71.1376 72.406 70.5033 71.7602 69.6405C71.5449 69.3529 71.1144 68.7776 70.6139 68.7186C70.1134 68.6595 69.7931 69.1461 69.2576 69.345C68.6872 69.8021 67.8665 70.2296 67.0807 70.399C65.7595 70.7674 64.5082 70.6197 63.187 70.9881C63.2919 70.2139 64.1476 69.5283 65.0033 68.8428C66.1093 68.1868 67.1803 67.7888 68.5015 67.4204C69.037 67.2214 69.5725 67.0224 70.3582 66.853C72.7155 66.3447 74.9328 66.8687 77.1151 67.6507C78.5816 68.086 80.0132 68.7794 80.624 69.9003C81.0545 70.4755 80.9846 70.9917 81.1299 71.7954C81.0949 72.0535 81.2752 72.5992 80.9899 72.8277C80.92 73.3438 80.6348 73.5723 80.5998 73.8304C80.5648 74.0885 80.2445 74.575 80.0293 74.2874C79.814 73.9998 79.849 73.7418 79.6337 73.4542C79.4184 73.1665 79.2032 72.8789 78.9529 72.8494C78.4524 72.7903 77.9519 72.7312 77.7366 72.4436Z" fill="#F0A5B7"/>
<path d="M63.682 77.345C63.9995 76.8663 64.6004 76.1631 64.8838 75.9386C65.734 75.2651 66.55 74.8457 67.3661 74.4264C69.1794 74.1258 69.4628 73.9012 70.8221 75.0961C71.751 75.7232 72.3966 76.5748 73.008 77.6806C73.3701 78.7568 73.6982 80.0871 73.0631 81.0445C70.7829 86.7128 60.5856 83.4327 63.682 77.345Z" fill="#F0A5B7"/>
<path d="M68.9393 81.9127C68.5121 81.3451 68.403 80.2973 68.5075 79.5333C68.612 78.7693 68.7165 78.0052 69.0694 77.2703C69.3874 76.7901 69.7055 76.3099 70.272 75.8588C71.4399 74.7019 72.5728 73.7997 74.133 73.4651C75.41 73.3561 76.6172 73.7564 77.5064 74.6369C78.3956 75.5174 78.7183 76.8491 78.5442 78.1225C78.4745 78.6318 78.1565 79.112 77.8732 79.3376C77.5552 79.8178 77.0235 80.0142 76.4918 80.2106C74.8968 80.7999 73.5154 81.673 71.9204 82.2623C70.539 83.1353 69.7937 83.0479 68.9393 81.9127Z" fill="#F3887B"/>
<path d="M68.6932 77.7827C68.6932 77.7827 70.6807 74.369 73.8166 73.6954C76.6679 73.2489 77.6715 75.1904 77.6715 75.1904C77.6715 75.1904 76.0337 76.04 74.1062 75.2925C72.1788 74.545 70.1912 77.9587 68.6932 77.7827Z" fill="#F0A5B7"/>
<path d="M76.9857 78.6788C76.7735 78.3953 76.8088 78.1406 76.5967 77.8571C75.1467 75.6181 71.7536 78.3297 70.5873 79.4883C70.3045 79.7142 70.2692 79.9689 70.0218 79.9402C69.6684 80.6756 70.4466 82.3189 70.5882 83.1118C70.9772 83.9335 71.2957 85.2645 72.2503 85.6343C73.4523 86.0327 74.8308 85.1576 75.6791 84.4797C76.8101 83.5759 77.4463 82.6145 77.6227 81.3409C77.7286 80.5768 77.3748 79.5004 76.9857 78.6788Z" fill="#F0A5B7"/>
<path d="M76.5447 78.1038C76.3339 77.8204 76.3698 77.5653 76.159 77.2818C74.7193 75.0425 71.3277 77.762 70.1613 78.9235C69.8786 79.1502 69.8427 79.4052 69.596 79.3768C69.2416 80.1135 70.0129 81.7575 70.1519 82.5511C70.5376 83.3731 70.8515 84.7052 71.8025 85.074C73.0002 85.4712 74.3774 84.5931 75.2253 83.9132C76.3558 83.0067 76.9929 82.0433 77.1725 80.7681C77.2802 80.0029 76.9304 78.9259 76.5447 78.1038Z" fill="#EE7A6F"/>
<path d="M67.3517 82.6213C67.1375 82.3365 66.7787 81.2558 66.2105 81.7084C65.9264 81.9347 65.8915 82.1903 65.6073 82.4166C65.2534 83.1541 64.6503 83.8623 64.2963 84.5997C63.9773 85.0816 63.9424 85.3372 63.8726 85.8483C63.8028 86.3594 63.9821 86.8998 64.4107 87.4694C64.5901 88.0098 65.0536 88.3238 65.2679 88.6086C65.7314 88.9227 66.2298 88.9812 67.0123 88.8133C67.7948 88.6455 68.5773 88.4776 69.3249 88.5654C70.0725 88.6531 71.0694 88.7701 71.8519 88.6022C72.6344 88.4344 73.4518 88.011 73.8058 87.2735C73.8756 86.7624 73.6962 86.222 73.5168 85.6816C73.3374 85.1413 72.8739 84.8272 72.6596 84.5424C71.7327 83.9143 70.1327 84.5056 68.9565 83.8482C67.9597 83.7313 67.5311 83.1617 67.3517 82.6213Z" fill="#F3887B"/>
<path d="M65.7596 83.1841C65.4407 83.6658 65.1217 84.1475 65.0519 84.6584C64.9472 85.4248 65.0567 86.4759 65.7344 87.0745C66.412 87.6731 67.1245 88.0163 67.9068 87.8485C68.156 87.8778 68.44 87.6515 68.9383 87.71C69.9697 87.5714 70.6125 88.4255 71.6439 88.287C72.1422 88.3454 72.6753 88.1484 73.2434 87.696C73.8115 87.2435 73.8813 86.7326 73.9511 86.2216C74.1654 86.5063 74.3447 87.0465 74.3098 87.3019C74.24 87.8129 73.956 88.0391 73.637 88.5208C73.0689 88.9733 72.5008 89.4257 71.9328 89.8782C71.3647 90.3307 70.5475 90.7539 69.7651 90.9217C69.232 91.1187 68.4496 91.2865 67.6673 91.4542C67.169 91.3958 66.6359 91.5928 66.1376 91.5343C65.3902 91.4466 64.9268 91.1327 64.2492 90.5341C63.5716 89.9355 63.3573 89.6508 62.9289 89.0814C62.5004 88.512 62.0719 87.9426 61.8926 87.4025C61.7132 86.8623 61.7831 86.3514 61.6037 85.8112C61.6735 85.3003 61.4942 84.7602 61.5291 84.5047C61.5989 83.9938 61.883 83.7675 62.2019 83.2858C62.5208 82.8041 63.0889 82.3517 63.657 81.8992C64.1902 81.7022 64.9725 81.5344 65.4708 81.5929C66.1833 81.936 65.8294 82.6732 65.7596 83.1841Z" fill="#F0A5B7"/>
<path d="M72.1081 82.7911L74.5983 84.8953L79.1282 79.472L68.3913 73.0355L67.49 81.473L72.1081 82.7911Z" fill="#E8644D"/>
<path d="M72.1127 82.6948C71.014 83.3426 68.5635 82.7965 68.4497 79.9355C68.3359 77.0746 64.4173 85.4168 64.4173 85.4168L71.9826 87.3392L72.1127 82.6948Z" fill="#ED7163"/>
<path d="M71.2635 83.4133C72.0439 83.2459 73.7092 82.1469 72.3923 80.6983C71.0753 79.2496 69.8327 79.1039 69.1963 80.0647C68.3463 80.7416 68.3555 84.3666 71.2635 83.4133Z" fill="#DA5941"/>
<path d="M109.302 191.38C109.302 191.38 108.115 194.586 102.899 193.965C99.4214 193.55 92.1158 193.452 88.5 199.717C84.6358 205.953 86.5293 214.42 90.7054 219.038C94.8814 223.657 92.4079 225.165 92.4079 225.165C92.4079 225.165 96.6331 220.002 100.811 218.955C105.238 217.937 112.896 211.639 111.421 201.934C110.194 192.259 109.302 191.38 109.302 191.38Z" fill="#619B82"/>
<path d="M109.252 191.413C105.635 197.925 97.9238 203.439 95.2518 210.32C93.2406 215.994 91.8216 220.968 92.464 225.413" stroke="#3F934E" stroke-width="0.1971" stroke-miterlimit="10"/>
<path d="M105.414 195.146C109.503 200.003 113.075 208.661 111.334 214.118" stroke="#3F934E" stroke-width="0.1971" stroke-miterlimit="10"/>
<path d="M99.025 203.293C106.211 212.889 104.181 214.965 104.801 223.272" stroke="#3F934E" stroke-width="0.1971" stroke-miterlimit="10"/>
<path d="M104.96 195.025C101.769 194.113 98.8284 193.231 95.7833 193.132C92.7383 193.034 89.5886 193.719 87.3026 195.57" stroke="#3F934E" stroke-width="0.1971" stroke-miterlimit="10"/>
<path d="M99.0348 203.459C96.6758 202.138 84.9265 198.929 83.6681 208.175" stroke="#3F934E" stroke-width="0.1971" stroke-miterlimit="10"/>
<path d="M94.8542 210.38C89.9861 211.097 83.3288 215.729 86.2049 222.255" stroke="#3F934E" stroke-width="0.1971" stroke-miterlimit="10"/>
<path d="M95.2108 210.753C97.692 214.655 97.573 222.892 101.245 223.581" stroke="#3F934E" stroke-width="0.1971" stroke-miterlimit="10"/>
<path d="M83.3775 200.222C82.1698 199.821 80.1475 199.841 79.5185 202.61C78.8895 205.378 78.7857 206.141 77.0119 206.191C75.238 206.24 72.8225 205.439 72.8225 205.439C72.8225 205.439 73.2566 207.815 77.0182 208C77.0182 208 75.8168 209.409 75.0368 209.576C74.2222 209.997 77.1 211.111 79.7513 208.322C79.7513 208.322 78.4807 210.24 81.2201 212.372C81.2201 212.372 80.1854 210.699 80.7452 208.439C81.305 206.18 83.148 205.622 83.8179 204.408C85.2678 203.029 85.0476 200.935 83.3775 200.222Z" fill="#619B82"/>
<path d="M87.643 180.875C87.643 180.875 89.446 191.347 82.983 201.332" stroke="#619B82" stroke-width="0.2287" stroke-miterlimit="10"/>
<path d="M87.5891 189.012C86.9977 191.531 83.2601 192.898 80.3979 191.521C78.9667 190.832 78.172 189.184 78.172 189.184C78.172 189.184 79.4774 192.706 81.8057 194.279C84.134 195.852 86.4405 193.796 86.9294 192.041C87.4183 190.286 87.5891 189.012 87.5891 189.012Z" fill="#619B82"/>
<path d="M87.655 189.084C87.655 189.084 88.3213 193.547 90.2106 194.546C92.0999 195.544 93.2997 194.14 93.2997 194.14C93.2997 194.14 92.0767 197.605 89.9384 196.576C87.8002 195.548 87.655 189.084 87.655 189.084Z" fill="#619B82"/>
<path d="M126.445 214.478C125.871 207.209 118.674 194.249 110.904 191.502" stroke="#619B82" stroke-width="0.1824" stroke-miterlimit="10"/>
<path d="M142.599 247.265C142.599 247.265 139.671 244.596 134.301 243.183C128.931 241.77 120.95 237.211 121.191 229.764C121.183 222.288 126.738 212.897 126.738 212.897C126.738 212.897 141.731 214.168 145.753 221.864C150.317 231.172 143.156 239.34 142.599 247.265Z" fill="#619B82"/>
<path d="M126.552 212.643C126.552 212.643 127.029 233.551 143.269 247.845" stroke="#3B8A64" stroke-width="0.2287" stroke-miterlimit="10"/>
<path d="M134.615 238C134.615 238 132.698 243.152 134.816 247.767" stroke="#3B8A64" stroke-width="0.2287" stroke-miterlimit="10"/>
<path d="M134.624 237.752C134.624 237.752 143.442 238.553 144.857 241.354" stroke="#3B8A64" stroke-width="0.2287" stroke-miterlimit="10"/>
<path d="M132.023 232.062C132.023 232.062 143.81 231.643 146.778 236.224" stroke="#3B8A64" stroke-width="0.2287" stroke-miterlimit="10"/>
<path d="M128.527 225.27C133.437 224.806 141.749 223.695 148.021 228.448" stroke="#3B8A64" stroke-width="0.2287" stroke-miterlimit="10"/>
<path d="M126.875 218.142C129.422 218.188 140.382 216.337 147.807 222.025" stroke="#3B8A64" stroke-width="0.2287" stroke-miterlimit="10"/>
<path d="M127.143 217.821C125.945 219.224 121.278 222.017 119.808 225.448" stroke="#3B8A64" stroke-width="0.2287" stroke-miterlimit="10"/>
<path d="M128.8 224.937C126.299 226.696 122.109 229.797 121.083 235.59" stroke="#3B8A64" stroke-width="0.2287" stroke-miterlimit="10"/>
<path d="M131.747 231.983C131.332 233.217 126.008 237.459 126.949 241.681" stroke="#3B8A64" stroke-width="0.2287" stroke-miterlimit="10"/>
</svg>
