<svg width="163" height="106" viewBox="0 0 163 106" fill="none" xmlns="http://www.w3.org/2000/svg">
<path d="M68.2221 70.2315C68.1265 72.1321 67.9679 72.4834 69.447 74.8374C70.9261 77.1915 71.4255 80.9647 68.8036 84.5197C66.3543 88.0678 63.4267 88.359 63.1935 91.1274C63.1935 91.1274 62.433 89.434 59.9251 87.2941C57.4173 85.1543 56.8899 80.6925 59.1595 76.9793C61.4291 73.2661 65.0683 73.4633 66.7455 72.1882C67.401 71.2994 68.2221 70.2315 68.2221 70.2315Z" fill="#619B82"/>
<path d="M68.2084 70.2333C68.2084 70.2333 63.0862 75.7828 62.2373 80.3002C61.6975 83.9431 61.8044 86.5256 63.0167 90.7886" stroke="#5A9075" stroke-width="0.2287" stroke-miterlimit="10"/>
<path d="M64.767 74.6777C64.767 74.6777 68.4194 75.221 71.2205 80.2828" stroke="#5A9075" stroke-width="0.2287" stroke-miterlimit="10"/>
<path d="M64.7648 74.5082C63.7295 74.5494 62.5287 74.77 61.5005 74.9837C60.4723 75.1975 59.4441 75.4112 58.5956 75.7907C57.7471 76.1702 56.9128 76.8949 56.4309 77.7785" stroke="#5A9075" stroke-width="0.2287" stroke-miterlimit="10"/>
<path d="M63.1687 77.8491C66.3388 79.274 68.7097 82.283 70.3974 85.492" stroke="#5A9075" stroke-width="0.2287" stroke-miterlimit="10"/>
<path d="M61.9592 82.0396C63.5759 83.5268 64.8546 85.2 65.9678 87.0524C66.3341 87.555 66.535 88.2368 66.5563 88.7533" stroke="#5A9075" stroke-width="0.2287" stroke-miterlimit="10"/>
<path d="M63.1673 77.6787C60.4062 77.7886 57.8534 78.7543 55.6743 80.3964C55.3363 80.5827 55.1709 80.7621 55.0126 81.114" stroke="#5A9075" stroke-width="0.2287" stroke-miterlimit="10"/>
<path d="M62.1433 82.2068C61.9706 82.2137 61.9706 82.2137 61.798 82.2206C60.9491 82.5996 59.2372 83.0132 58.5751 83.7297C57.913 84.4461 57.0854 85.3416 57.1278 86.3747" stroke="#5A9075" stroke-width="0.2287" stroke-miterlimit="10"/>
<path d="M61.9579 86.1825C61.6199 86.3685 61.6199 86.3685 61.289 86.7265C60.7927 87.2637 60.6485 87.9591 60.4973 88.4825C60.3532 89.178 60.3816 89.8666 60.2375 90.562" stroke="#5A9075" stroke-width="0.2287" stroke-miterlimit="10"/>
<path d="M61.9567 86.1807C63.4075 87.8472 64.3479 89.7065 64.7781 91.7586" stroke="#5A9075" stroke-width="0.2287" stroke-miterlimit="10"/>
<path d="M57.6856 95.8426C58.3615 95.4706 59.5692 95.4223 60.1508 96.9517C60.5599 98.488 60.7538 98.9977 61.7818 98.7841C62.8099 98.5705 63.9962 98.0056 63.9962 98.0056C63.9962 98.0056 63.8806 99.3903 61.652 99.8244C61.652 99.8244 62.3706 100.486 62.8953 100.637C63.42 100.789 61.9028 101.712 60.1206 100.403C60.1206 100.403 61.026 101.402 59.5302 102.842C59.5302 102.842 60.0051 101.788 59.6102 100.596C59.2153 99.4042 58.0005 99.2803 57.627 98.6051C56.8942 97.5993 56.6718 96.4006 57.6856 95.8426Z" fill="#619B82"/>
<path d="M58.0573 96.3476C53.5426 91.1775 53.9694 84.9519 53.9694 84.9519C53.9694 84.9519 54.4107 79.0706 57.3559 75.5061" stroke="#619B82" stroke-width="0.1824" stroke-miterlimit="10"/>
<path d="M54.5018 89.763C54.9031 91.1262 57.3405 91.5447 58.6861 90.628C59.3554 90.0836 59.8311 89.0297 59.8311 89.0297C59.8311 89.0297 59.3975 91.1165 58.0589 92.2054C56.8928 93.2872 55.2974 92.3173 54.9101 91.2984C54.7024 90.4446 54.5018 89.763 54.5018 89.763Z" fill="#619B82"/>
<path d="M54.5058 89.7653C54.5058 89.7653 54.4384 92.3544 53.4306 93.0849C52.4229 93.8154 51.6972 92.9827 51.6972 92.9827C51.6972 92.9827 52.6376 94.8412 53.818 94.1037C54.8258 93.3732 54.5058 89.7653 54.5058 89.7653Z" fill="#619B82"/>
<path d="M17.4924 71.615C17.7731 70.0505 16.9759 67.4934 13.6982 67.6239C10.4206 67.7545 9.54376 67.4442 8.78226 65.7486C8.39437 64.7285 8.33005 63.1777 8.33005 63.1777C8.33005 63.1777 6.4539 63.7702 7.99118 67.506C7.99118 67.506 6.0793 67.237 3.89487 64.5625C3.1691 63.7284 3.30488 67.0023 7.2144 69.608C7.2144 69.608 4.08066 69.0424 3.49782 71.6545C3.49782 71.6545 4.69109 71.2618 7.28586 71.3311C9.88063 71.4004 11.0014 73.4268 12.5826 74.0542C14.5016 74.4956 17.0678 73.8756 17.4924 71.615Z" fill="#619B82"/>
<path d="M50.6888 72.3729C50.6888 72.3729 29.6192 76.7061 16.2515 71.0684" stroke="#619B82" stroke-width="0.1609" stroke-miterlimit="10"/>
<path d="M31.9234 73.9486C28.278 73.5788 26.4116 70.2054 27.3065 66.7202C28.0781 64.4472 29.5751 63.007 29.5751 63.007C29.5751 63.007 25.9688 59.3592 24.8552 65.9572C24.3054 69.4284 27.9469 73.9371 30.1975 74.0185C30.3701 74.0115 31.9234 73.9486 31.9234 73.9486Z" fill="#619B82"/>
<path d="M23.9497 73.2428C23.9497 73.2428 21.2091 73.8712 20.05 75.1252C18.8909 76.3792 18.644 78.8031 18.4714 78.8101C17.6575 80.0501 16.2949 76.312 18.1163 74.3414C19.6136 72.9013 23.9497 73.2428 23.9497 73.2428Z" fill="#619B82"/>
<path d="M29.1567 82.348C29.0267 83.3883 28.3931 84.7937 26.4735 84.3532C24.554 83.9127 23.8566 83.7681 23.3885 84.9944C22.9204 86.2207 22.6178 87.2678 22.6178 87.2678C22.6178 87.2678 22.1734 84.8706 23.5044 83.6098C23.5044 83.6098 22.138 84.0095 20.6345 85.2774C20.1309 85.6425 21.0813 83.5344 23.6486 82.914C23.6486 82.914 21.4052 83.0039 20.7599 79.9248C20.7599 79.9248 22.0529 81.943 23.7928 82.2182C25.5327 82.4934 25.7999 80.5852 26.8282 80.3714C27.684 80.1646 29.2726 80.9634 29.1567 82.348Z" fill="#619B82"/>
<path d="M41.2287 73.4023C41.2287 73.4023 36.4514 79.1161 28.102 82.039" stroke="#619B82" stroke-width="0.1609" stroke-miterlimit="10"/>
<path d="M36.2304 77.917C34.5319 78.6757 34.4853 81.781 35.9436 83.6184C36.6692 84.451 38.0714 84.9113 38.0714 84.9113C38.0714 84.9113 35.295 84.6792 33.6781 83.1931C32.0613 81.707 33.0131 79.5994 34.2006 79.0339C35.5538 78.2893 36.2304 77.917 36.2304 77.917Z" fill="#619B82"/>
<path d="M35.3898 78.4664C35.3898 78.4664 32.4622 78.7578 31.2048 77.602C30.1201 76.4392 30.5889 75.2133 30.5889 75.2133C30.5889 75.2133 29.4786 77.6721 30.5773 79.1791C31.8417 80.5071 35.3898 78.4664 35.3898 78.4664Z" fill="#619B82"/>
<path d="M84.2971 62.3247C85.7625 64.3353 85.7767 64.6797 89.2773 65.7464C92.6054 66.8201 96.1981 70.125 96.7699 75.6204C97.1692 81.1227 94.8668 83.9741 96.7127 86.8317C96.7127 86.8317 94.5996 85.8818 90.2787 85.8826C85.9578 85.8834 81.8261 82.0828 80.7296 76.436C79.8056 70.7823 83.4955 68.0476 84.0724 65.2653C84.5404 64.0394 84.2971 62.3247 84.2971 62.3247Z" fill="#619B82"/>
<path d="M84.2955 62.3163C84.2955 62.3163 84.0107 71.986 86.9909 77.2156C89.4036 81.2602 91.7442 83.583 96.7121 86.8373" stroke="#00995D" stroke-width="0.1824" stroke-miterlimit="10"/>
<path d="M84.7691 69.5367C84.7691 69.5367 88.8126 67.0921 95.8328 69.6453" stroke="#00995D" stroke-width="0.1824" stroke-miterlimit="10"/>
<path d="M84.7577 69.3822C83.7667 70.4561 82.9481 71.5233 81.9571 72.5973C81.1385 73.6645 80.3127 74.5594 79.846 75.7852C79.3794 77.011 79.0851 78.23 79.4875 79.594" stroke="#00995D" stroke-width="0.1824" stroke-miterlimit="10"/>
<path d="M85.9836 73.9578C90.2525 72.7452 95.3002 73.6012 99.5222 75.3632" stroke="#00995D" stroke-width="0.1824" stroke-miterlimit="10"/>
<path d="M88.2637 79.0508C91.0317 79.1163 93.8216 79.7009 96.4534 80.6382C97.1582 80.9574 98.0355 81.2698 98.4097 81.9484" stroke="#00995D" stroke-width="0.1824" stroke-miterlimit="10"/>
<path d="M85.8023 73.8253C83.3179 76.3379 81.5518 79.5121 80.827 82.8177C80.669 83.1689 80.6907 83.6855 80.7051 84.0299" stroke="#00995D" stroke-width="0.1824" stroke-miterlimit="10"/>
<path d="M88.4326 79.0645C88.2607 79.0712 88.2679 79.2433 88.1032 79.4222C87.4663 80.6542 86.1561 82.2574 86.2069 83.4627C86.2577 84.668 86.1583 86.3965 87.0543 87.2239" stroke="#00995D" stroke-width="0.1824" stroke-miterlimit="10"/>
<path d="M91.54 83.0738C91.3897 83.5971 91.3897 83.5971 91.4186 84.2859C91.4548 85.1468 91.8353 85.9943 92.2084 86.6696C92.5816 87.3449 93.1341 88.1857 93.6794 88.8543" stroke="#00995D" stroke-width="0.1824" stroke-miterlimit="10"/>
<path d="M91.7101 83.0576C94.4925 83.4672 96.9588 84.5808 99.2743 86.219" stroke="#00995D" stroke-width="0.1824" stroke-miterlimit="10"/>
<path d="M102.622 62.4423C102.622 62.4423 99.6597 61.8708 97.3736 60.9271C95.0876 59.9834 89.5864 60.7215 87.8772 69.5901C87.8772 69.5901 89.4375 69.7001 90.3075 69.8378C91.35 69.9686 96.2602 71.6699 98.7424 68.9822C101.225 66.2944 100.27 64.0895 102.622 62.4423Z" fill="#619B82"/>
<path d="M102.621 62.4402C102.621 62.4402 98.4932 62.9503 96.2784 63.7295C94.0635 64.5087 92.0212 65.281 87.7125 69.7708" stroke="#3F934E" stroke-width="0.1824" stroke-miterlimit="10"/>
<path d="M77.1416 85.7286C77.1416 85.7286 79.4792 83.738 81.5 82.4499C83.6934 81.1549 86.4352 76.3889 80.2781 69.5652C80.2781 69.5652 79.2925 70.8118 78.6236 71.356C77.9618 72.0723 73.5892 75.0066 74.0832 78.6082C74.7497 82.2029 77.2007 82.967 77.1416 85.7286Z" fill="#619B82"/>
<path d="M77.149 85.727C77.149 85.727 79.2442 82.1952 80.0121 79.923C80.7799 77.6508 81.3828 75.5576 80.2716 69.5657" stroke="#3F934E" stroke-width="0.1824" stroke-miterlimit="10"/>
<path d="M80.3854 72.1319C79.905 73.0136 79.4247 73.8954 79.2891 74.7637C78.8748 77.1965 80.7084 79.7147 83.1654 80.6552C84.3939 81.1254 85.7801 81.2442 86.9645 80.6804C87.4742 80.488 87.9693 79.9509 88.4716 79.5862C89.139 79.0424 89.7991 78.3263 90.2941 77.7892C90.9615 77.2455 91.6215 76.5294 91.5848 75.6677C91.5628 75.1507 91.3684 74.6403 91.5187 74.1166C91.6544 73.2483 92.3217 72.7045 92.285 71.8428C92.263 71.3258 92.0686 70.8155 91.7019 70.3118C90.0553 68.1316 87.4259 67.1979 84.9763 66.4298C82.5266 65.6617 81.3461 70.3684 80.3854 72.1319Z" fill="#CFD362"/>
<path d="M83.3499 68.7429C82.3014 68.4383 80.7726 69.0154 80.824 70.2215C80.8827 71.5999 81.803 72.9449 82.8663 73.594C83.2182 73.753 86.5876 75.8659 86.5802 75.6936C86.7379 75.3423 86.7232 74.9977 86.5362 74.6598C86.3492 74.3219 86.1695 74.1563 86.1548 73.8117C85.9605 73.3014 85.9385 72.7846 85.9164 72.2676C85.7148 71.5851 85.5131 70.9026 85.1464 70.399C84.6001 69.7299 84.0538 69.0607 83.3499 68.7429Z" fill="#AEC551"/>
<path d="M90.7631 76.5475C90.7486 76.2031 90.7342 75.8588 90.7269 75.6866C90.5186 74.8324 90.6546 73.9648 90.6256 73.2761C90.6039 72.7595 90.5894 72.4152 90.7398 71.8919C90.7254 71.5476 90.883 71.1965 90.8685 70.8521C91.0045 69.9845 90.4519 69.1438 90.2437 68.2897C90.7383 67.7529 91.7637 67.5404 92.3017 68.0367C92.4883 68.3744 92.6749 68.712 92.8615 69.0496C93.6223 70.7445 94.0461 72.625 93.9536 74.5257C93.8466 76.082 93.2161 77.4863 91.8754 78.4011C91.5456 78.7589 90.5419 79.4879 90.1688 78.8127C89.9677 78.1307 90.7921 77.2362 90.7631 76.5475Z" fill="#FAF09E"/>
<path d="M85.5473 67.2753C86.8914 66.3594 88.4151 65.609 89.9605 65.3753C90.6433 65.1758 91.5058 65.1416 92.1742 64.5976C92.5049 64.2394 92.8283 63.7089 92.9864 63.3576C93.7626 61.2563 93.3168 58.8581 91.8649 57.19C91.1389 56.356 90.0679 55.5356 89.1766 54.8806C88.1128 54.2324 87.0418 53.412 85.8271 53.2875C84.6123 53.163 83.5845 53.3762 82.3842 53.5962C81.1838 53.8162 80.1632 54.2016 78.9629 54.4216C78.6251 54.6075 78.1076 54.628 77.7769 54.9862C77.281 55.5234 77.3098 56.2125 77.3314 56.7293C77.619 59.4788 78.0863 62.3937 79.0568 64.9436C79.4521 66.1359 80.056 68.1826 81.2851 68.6517C82.8808 69.6239 84.3758 68.1844 85.5473 67.2753Z" fill="#CFD362"/>
<path d="M91.2344 58.5919C91.0475 58.2541 91.0331 57.9096 90.8534 57.7441C90.1129 56.5653 88.2297 56.9849 87.1586 56.1644C86.4398 55.5025 86.3966 54.4687 85.685 53.9791C85.153 53.655 84.463 53.6823 83.9454 53.7027C83.4207 53.5509 82.7162 53.2336 82.5221 52.7236C82.86 52.5376 83.205 52.524 83.55 52.5104C85.7999 52.594 88.057 52.8499 90.005 53.981C91.0689 54.6292 91.9746 55.6289 92.7079 56.6353C93.2614 57.4763 93.8221 58.4896 94.2103 59.5097C94.4116 60.1921 95.1736 61.8877 94.8574 62.5905C93.8727 63.8375 91.4357 59.2742 91.2344 58.5919Z" fill="#FAF09E"/>
<path d="M80.15 74.7435C80.0199 75.7835 79.7242 77.0026 78.8826 77.5538C78.5445 77.7398 78.2064 77.9259 78.0338 77.9328C77.3505 78.1328 76.6744 78.5048 75.9911 78.7047C74.7972 79.0976 73.2652 79.6766 72.2014 79.0295C71.3172 78.5476 70.9296 77.5284 70.7217 76.6744C70.3128 75.1387 70.0837 73.7682 70.1926 72.2117C70.1643 71.523 70.3015 70.6551 70.7909 69.9456C71.5972 68.5335 73.316 68.292 74.8621 68.0574C76.2357 67.8298 80.1627 66.6373 80.5644 68.0008C80.945 68.8478 80.6635 70.4113 80.5263 71.2791C80.4032 72.4913 80.2801 73.7035 80.15 74.7435Z" fill="#CFD362"/>
<path d="M72.031 70.5837C71.1823 70.9627 70.1609 71.3487 69.2839 71.039C68.9316 70.8807 68.5723 70.5502 68.2201 70.3919C67.6811 69.8961 67.1422 69.4004 67.1139 68.7117C66.9059 67.8577 67.2157 66.983 67.3529 66.1151C67.4689 64.7308 66.8875 63.202 67.0034 61.8176C67.292 60.4263 68.278 59.1795 69.4648 58.6144C70.6446 57.8772 72.1908 57.6426 73.5643 57.415C74.4202 57.2081 75.276 57.0013 76.146 57.1388C77.016 57.2763 77.893 57.586 78.4391 58.2539C78.9851 58.9218 79.0134 59.6105 79.0488 60.4714C79.3133 62.7028 79.7505 64.9272 80.015 67.1586C80.0292 67.503 80.0504 68.0195 79.892 68.3708C79.7265 68.5499 79.3884 68.736 79.0432 68.7498C78.5184 68.5985 72.031 70.5837 72.031 70.5837Z" fill="#CFD362"/>
<path d="M91.2846 68.0834C91.5873 67.0364 91.1926 65.845 90.8121 64.9979C90.2519 63.9856 89.6988 63.1455 89.3111 62.1263C89.1173 61.6167 89.0961 61.1001 88.7368 60.7696C88.1695 59.5851 86.9331 58.9449 85.5525 59.0004C85.0347 59.0212 84.5169 59.042 83.9992 59.0628C83.654 59.0767 83.4744 58.9114 83.2947 58.7462C82.7699 58.5948 82.0866 58.7947 81.576 58.9877C81.5477 58.2989 81.6919 57.6033 81.6707 57.0867C81.6636 56.9145 81.6495 56.5702 81.6424 56.398C81.6353 56.2258 81.4557 56.0605 81.1034 55.9022C79.8529 54.9176 78.12 54.8148 76.9473 55.7242C76.6092 55.9103 76.2782 56.2685 75.933 56.2824C75.7604 56.2893 75.4152 56.3032 75.2427 56.3101C74.5523 56.3379 73.8903 57.0543 73.3938 57.5917C72.5733 58.6595 72.1192 60.2299 72.6865 61.4144C73.0741 62.4336 74.1379 63.0808 74.3529 64.107C73.3316 64.4929 72.1377 64.8858 71.1234 65.444C70.6127 65.637 70.102 65.8299 69.5913 66.0229C69.0807 66.2159 68.5629 66.2367 68.0522 66.4297C66.6857 66.8295 65.7068 68.2486 66.1086 69.6122C66.3024 70.1218 66.4891 70.4593 66.8555 70.962C67.5954 72.1395 68.3352 73.3171 69.068 74.3224C69.4344 74.8251 69.8008 75.3278 70.3327 75.6514C71.0443 76.1402 72.0869 76.2708 72.9356 75.8918C73.7844 75.5127 74.6261 74.9615 75.1226 74.4241C75.0066 75.8085 74.8977 77.3651 74.6091 78.7565C74.6162 78.9287 74.6304 79.273 74.6374 79.4452C74.8454 80.2992 75.8951 80.602 76.7509 80.3951C77.6067 80.1883 78.2829 79.8162 79.1459 79.7815C80.0088 79.7468 80.7133 80.0635 81.5762 80.0288C82.432 79.8219 83.1011 79.2777 83.418 78.5751C83.7349 77.8725 83.6995 77.0115 83.6641 76.1506C83.6429 75.6341 83.442 74.9523 83.4208 74.4357C83.3783 73.4026 83.674 72.1834 84.1564 71.3017C85.0405 71.7836 85.5936 72.6238 86.3123 73.2848C86.8512 73.7805 87.5486 73.925 88.0381 73.2154C88.3691 72.8572 88.3479 72.3406 88.6789 71.9824C89.0099 71.6241 89.3409 71.2659 89.672 70.9077C90.4783 69.4956 91.1474 68.9513 91.2846 68.0834Z" fill="#FCE96B"/>
<path d="M84.8517 62.9948C84.6721 62.8296 84.6579 62.4852 84.4783 62.32C84.2916 61.9826 83.9393 61.8243 83.5871 61.666C82.3507 61.0258 81.4383 59.8552 80.871 58.6708C80.6701 57.989 79.8072 58.0237 79.3036 58.3889C78.9726 58.7471 78.6275 58.7609 78.2894 58.947C77.4477 59.4982 77.1521 60.7172 76.2892 60.7519C76.1166 60.7588 75.944 60.7658 75.944 60.7658C75.2466 60.6213 74.7501 61.1586 74.951 61.8404L74.958 62.0126C74.9651 62.1847 75.1448 62.35 74.9793 62.5291C74.9863 62.7013 74.6483 62.8873 74.4827 63.0664C73.8207 63.7828 73.6835 64.6506 73.3667 65.3532C72.8984 66.5792 72.4232 67.6331 71.7753 68.6938C71.4443 69.0521 71.6381 69.5616 72.17 69.8852C72.7019 70.2087 73.2479 70.8766 73.7869 71.3723C74.1462 71.7028 74.4984 71.8611 74.8577 72.1916C75.9286 73.0109 76.6684 74.1884 77.0702 75.5519C77.264 76.0615 77.9685 76.3781 78.465 75.8408C78.796 75.4826 79.2996 75.1174 79.8173 75.0967C80.3351 75.0759 81.0254 75.0481 81.5361 74.8551C82.5574 74.4692 83.0256 73.2432 84.047 72.8573C84.5576 72.6643 85.0754 72.6435 85.7728 72.7879C86.4702 72.9324 86.9596 72.2229 86.7587 71.5411C86.0118 70.1915 85.5959 68.4836 85.8845 67.0923C86.0287 66.3967 86.3527 65.8663 86.8492 65.329C87.3457 64.7917 86.9652 63.9447 86.2678 63.8002C85.5775 63.828 85.0526 63.6766 84.8517 62.9948Z" fill="#CFD362"/>
<path d="M72.6147 67.9657C72.6435 68.6546 72.8376 69.1645 73.3838 69.833C73.7503 70.3361 74.6271 70.6465 75.1589 70.9705C76.0429 71.4531 76.9412 72.2802 77.3293 73.3C77.5234 73.8099 77.7246 74.492 78.4217 74.637C78.7667 74.6233 78.9392 74.6165 79.2841 74.6029C79.8016 74.5824 80.4987 74.7274 81.0233 74.8792C81.203 75.0446 81.5551 75.2032 81.7276 75.1964C82.0725 75.1828 82.5828 74.9901 82.7409 74.6388C84.0775 73.5508 85.407 72.2906 86.2118 70.8786C87.0166 69.4666 87.4549 67.5516 87.0452 66.0151C87.038 65.8428 87.0308 65.6706 86.8583 65.6774C86.6787 65.512 86.5062 65.5189 86.3337 65.5257C85.6438 65.5529 84.7742 65.4148 84.0843 65.4421C84.4221 65.2562 84.7598 65.0703 85.0976 64.8844C85.0688 64.1955 84.5298 63.6992 83.9908 63.203C83.4518 62.7067 82.7475 62.3895 82.381 61.8864C81.6479 60.8803 81.7556 59.3233 80.8573 58.4962C80.6776 58.3308 80.4979 58.1654 80.153 58.1791C79.9805 58.1859 79.6427 58.3717 79.4774 58.5508C78.1408 59.6388 77.1779 61.402 77.0773 63.1312C76.7108 62.6281 76.1862 62.4764 75.4891 62.3314C75.3166 62.3382 75.1441 62.345 74.9788 62.5241C74.8136 62.7032 74.8136 62.7032 74.6483 62.8822C74.0159 64.2874 72.5428 66.2433 72.6147 67.9657Z" fill="#FAF09E"/>
<path d="M81.4321 63.9943C81.0511 63.1468 80.3253 62.3129 79.6138 61.8234C79.2616 61.6648 79.0748 61.3271 78.7298 61.3408C78.2124 61.3612 77.889 61.8916 77.7381 62.4151C77.5872 62.9387 77.8172 64.3097 77.1345 64.5093C76.1141 64.8946 75.9488 65.0737 75.4673 65.9553C75.1583 66.8302 74.6697 67.5396 74.7057 68.4007C74.9141 69.2551 75.2806 69.7582 75.9849 70.0754C76.5168 70.3994 77.0414 70.5512 77.5588 70.5308C78.4212 70.4967 78.4428 71.0134 78.8165 71.6887C79.2046 72.7085 80.0958 73.3633 81.1091 72.8057C82.1224 72.2481 82.4385 71.5455 83.0925 70.6571C83.5811 69.9477 84.0626 69.066 84.5512 68.3566C84.7165 68.1775 84.7093 68.0053 84.7021 67.8331C84.6949 67.6608 84.5153 67.4954 84.3356 67.33C83.9834 67.1714 83.4588 67.0196 83.0995 66.6888C82.7401 66.3579 82.5461 65.848 82.7042 65.4967C82.8694 65.3177 82.8694 65.3177 83.0347 65.1386C83.2 64.9596 83.0203 64.7941 83.0059 64.4497C82.9844 63.933 82.7903 63.4231 82.2657 63.2713C82.0932 63.2781 81.9207 63.2849 81.7482 63.2917C80.7062 63.1604 80.3109 61.9684 79.2688 61.8371C78.3992 61.6989 77.5944 63.1109 77.4507 63.8066" fill="#D5DF98"/>
<path d="M76.3003 65.2355C76.3145 65.5799 76.6738 65.9104 77.0189 65.8965C76.6738 65.9104 75.9976 66.2824 75.8392 66.6337C75.6807 66.985 75.8816 67.6667 76.2338 67.8251C76.4135 67.9903 76.7587 67.9764 76.9312 67.9695C76.5932 68.1555 76.4277 68.3347 76.2621 68.5138L76.2692 68.6859L76.2763 68.8581C76.463 69.1955 76.6498 69.5329 77.002 69.6912C77.3471 69.6774 77.5197 69.6704 77.8649 69.6566C77.7065 70.0079 77.5409 70.187 77.5622 70.7035C77.5834 71.22 78.1153 71.5435 78.633 71.5227C78.9782 71.5089 79.1508 71.502 79.4888 71.3159C79.6543 71.1368 79.9854 70.7786 79.8057 70.6133C80.3517 71.2812 81.7465 71.5701 82.2289 70.6885C82.3873 70.3372 82.3661 69.8207 82.0139 69.6623C82.5387 69.8137 83.3874 69.4347 83.3662 68.9182C83.5176 68.3947 82.9715 67.7268 82.2883 67.9267C82.9715 67.7268 83.4539 66.8452 83.2601 66.3356C83.0733 65.9982 82.8937 65.8329 82.5485 65.8468C82.1963 65.6885 81.8582 65.8745 81.5201 66.0606C81.5131 65.8884 81.6856 65.8815 81.6786 65.7093C81.837 65.358 82.168 64.9998 81.9813 64.6624C81.9742 64.4902 81.7945 64.325 81.622 64.3319C81.4423 64.1667 80.9175 64.0153 80.5794 64.2013C80.4068 64.2083 79.7307 64.5803 79.7307 64.5803C79.7165 64.236 79.7094 64.0638 79.5227 63.7264C79.1634 63.3959 78.6315 63.0724 78.1209 63.2654C77.7828 63.4514 77.4447 63.6374 77.2863 63.9887C77.1278 64.34 77.4871 64.6705 77.6739 65.0079C77.3216 64.8496 76.9694 64.6913 76.6313 64.8773C76.7897 64.526 76.2791 64.719 76.3003 65.2355Z" fill="white"/>
<path d="M124.293 30.503C125.303 34.0833 125.89 44.2335 114.039 50.4042" stroke="#619B82" stroke-width="0.1824" stroke-miterlimit="10"/>
<path d="M133.727 3.71891C131.47 3.46287 127.59 5.68701 126.325 8.49813C126.174 9.02181 126.016 9.37321 126.038 9.89008C126.059 10.407 126.426 10.9102 126.943 10.8898C127.468 11.0416 128.359 11.6967 128.862 11.3317C129.854 10.2571 129.423 8.20325 131.219 5.71628C131.852 4.31071 133.548 3.55344 133.727 3.71891Z" fill="#619B82"/>
<path d="M119.55 3.42578C121.289 3.70224 123.201 3.9719 124.617 4.77881C125.322 5.09613 125.703 5.94389 126.076 6.61939C126.278 7.3017 126.328 8.50767 125.832 9.04494C125.337 9.58222 124.819 9.60265 124.28 9.10624C123.741 8.60983 123.532 7.75525 123.159 7.07975C122.785 6.40425 122.238 5.73555 121.699 5.23914C120.973 4.40499 120.262 3.91538 119.55 3.42578Z" fill="#619B82"/>
<path d="M130.52 13.8579C131.174 12.9694 131.641 11.7432 131.59 10.5375C131.54 9.3317 130.965 7.97412 130.232 6.96785C129.319 5.79614 127.738 5.16843 126.193 5.40196C124.648 5.6355 123.304 6.55122 122.313 7.62558C121.989 8.15595 121.666 8.68634 121.515 9.2099C121.364 9.73346 121.393 10.4225 121.415 10.9392C121.509 13.1785 121.94 15.2319 123.895 16.535C125.145 17.5208 127.2 17.0946 128.544 16.1788C129.033 15.4694 129.866 14.7464 130.52 13.8579Z" fill="#DE5E52"/>
<path d="M124.701 6.84197L124.694 6.66959L124.687 6.49723C125.01 5.96651 125.348 5.78053 125.858 5.58775C126.369 5.39497 126.894 5.54692 127.418 5.69888C127.771 5.85765 127.95 6.02322 128.13 6.18879C128.31 6.35436 128.324 6.6991 128.166 7.05065C128.001 7.22982 127.836 7.40899 127.491 7.4226C128.015 7.57456 128.555 8.07129 128.749 8.5816C128.756 8.75397 128.763 8.92632 128.77 9.09869C128.612 9.45024 128.282 9.80859 127.944 9.99457C126.923 10.3801 125.888 10.421 124.846 10.2894C124.321 10.1374 123.796 9.98547 123.271 9.83351C122.747 9.68155 122.38 9.17804 122.186 8.66773C122.365 8.8333 122.718 8.99206 122.89 8.98526C123.94 9.28918 124.982 9.42075 126.003 9.03519C126.175 9.02838 126.513 8.84241 126.506 8.67004C126.664 8.31849 126.312 8.15971 126.132 7.99414C125.765 7.49063 124.903 7.52465 124.701 6.84197Z" fill="#F0A5B7"/>
<path d="M124.785 17.1939C127.574 17.7748 130.097 16.1211 131.405 14.3426C132.691 12.0469 134.769 12.1378 135.121 12.2966C135.287 12.1174 135.603 11.4142 134.043 11.3029C130.218 10.7628 129.429 16.6656 125.266 16.3114C121.104 15.9573 122.282 11.0754 122.016 8.84082C121.764 6.95108 120.002 6.15696 118.479 6.90777L118.486 7.08019C119.348 7.04622 121.253 7.14386 120.83 9.40561C120.428 12.1846 119.472 14.1219 122.334 16.4269C123.39 16.9034 124.785 17.1939 124.785 17.1939Z" fill="#619B82"/>
<path d="M128.643 14.4481C129.297 13.5593 129.771 12.505 130.418 11.4439C130.892 10.3896 131.546 9.5008 132.373 8.60519C131.345 8.81836 130.331 9.37616 129.483 9.75483C128.642 10.3058 127.794 10.6845 126.953 11.2355C126.278 11.6073 124.926 12.351 124.438 13.0607C123.942 13.5981 123.317 15.1761 123.698 16.0241C124.259 17.0375 126.314 16.6112 126.99 16.2394C127.673 16.0398 128.319 14.9787 128.643 14.4481Z" fill="#619B82"/>
<path d="M124.318 30.8407C123.124 26.7454 122.077 18.1595 124.468 14.6196" stroke="#619B82" stroke-width="0.1824" stroke-miterlimit="10"/>
<path d="M123.432 26.5608C125.067 24.2527 126.632 20.223 130.657 21.4391C130.657 21.4391 127.361 16.917 125.085 20.4582C122.809 23.9995 123.432 26.5608 123.432 26.5608Z" fill="#619B82"/>
<path d="M115.833 47.7519C117.013 47.0142 118.373 46.4416 119.595 46.7368C121.853 46.99 123.317 48.9997 124.768 50.6652C126.053 52.5098 127.684 54.3404 129.942 54.5935C127.007 54.7127 125.069 58.0678 122.163 58.8756C119.94 59.4832 117.482 58.5485 115.859 56.89C114.415 55.3967 113.647 53.5311 113.218 51.4793C112.803 49.7718 114.487 48.6687 115.833 47.7519Z" fill="#619B82"/>
<path d="M118.821 53.1492C116.535 52.2053 114.393 50.5653 111.984 50.8344C111.589 49.6422 112.057 48.4154 112.712 47.5263C114.346 45.2174 117.582 44.0523 120.364 44.4586C123.32 44.8579 125.807 46.4841 127.797 48.6478C128.882 49.8124 129.629 51.1631 130.038 52.6999C130.462 54.5813 129.599 54.6158 128.045 54.678C124.932 54.6302 121.639 54.4169 118.821 53.1492Z" fill="#3B8A64"/>
<path d="M126.283 58.1948C125.551 57.1887 124.308 56.3753 123.568 55.197C123.374 54.6872 123.18 54.1774 122.986 53.6676C122.972 53.3231 122.785 52.9855 122.771 52.6411" stroke="#3B8A64" stroke-width="0.2287" stroke-miterlimit="10"/>
<path d="M123.74 59.3343C122.483 58.1764 121.053 57.0254 120.292 55.3305C119.731 54.3177 119.681 53.1123 119.113 51.9272" stroke="#3B8A64" stroke-width="0.2287" stroke-miterlimit="10"/>
<path d="M119.959 59.8325C119.048 58.6607 118.137 57.489 117.563 56.1317C116.982 54.6022 116.917 53.0526 116.851 51.5029" stroke="#3B8A64" stroke-width="0.2287" stroke-miterlimit="10"/>
<path d="M114.988 56.5843C114.393 54.5369 113.967 52.4832 114.731 50.5574" stroke="#3B8A64" stroke-width="0.2287" stroke-miterlimit="10"/>
<path d="M98.1046 53.3026C98.1046 53.3026 97.2672 49.7156 96.9757 46.7962C96.6771 43.7046 93.001 38.3363 82.3902 41.0092C82.3902 41.0092 83.1506 42.7025 83.3652 43.7284C83.7594 44.9194 84.5292 51.0955 88.7348 52.4764C92.9404 53.8573 95.0933 51.5283 98.1046 53.3026Z" fill="#619B82"/>
<path d="M97.4953 51.2541C97.4953 51.2541 99.6272 48.4087 101.787 46.2519C103.947 44.0951 105.938 37.8067 97.0341 31.4428C97.0341 31.4428 96.2341 33.0271 95.5787 33.9159C94.9233 34.8046 90.6246 39.6347 92.1739 43.7103C93.7161 47.6138 96.8372 47.8321 97.4953 51.2541Z" fill="#619B82"/>
<path d="M113.328 36.9881C113.328 36.9881 110.968 38.4634 108.766 39.5873C106.557 40.5391 103.438 44.6316 108.228 51.8518C108.228 51.8518 109.401 50.9421 109.898 50.4046C110.74 49.8531 115.144 47.6052 115.004 44.1623C115.036 40.7123 112.75 39.7705 113.328 36.9881Z" fill="#619B82"/>
<path d="M106.884 61.23C106.884 61.23 112.065 65.3305 114.804 73.1512" stroke="#619B82" stroke-width="0.2287" stroke-miterlimit="10"/>
<path d="M112.161 67.9119C113.771 69.2269 114.13 69.5574 117.243 69.6048C120.357 69.6522 124.239 71.5657 125.983 76.152C127.727 80.7383 126.294 83.7276 128.615 85.5314C128.615 85.5314 126.53 85.2702 122.942 86.2766C119.353 87.2831 114.767 85.0529 112.684 80.6527C110.422 76.0872 113.056 72.8772 112.957 70.4668C112.742 69.4407 112.161 67.9119 112.161 67.9119Z" fill="#619B82"/>
<path d="M112.159 67.9023C112.159 67.9023 114.236 76.2738 118.182 79.7408C121.236 82.553 123.888 84.0008 128.79 85.5323" stroke="#5A9075" stroke-width="0.2287" stroke-miterlimit="10"/>
<path d="M114.318 74.0339C114.318 74.0339 117.127 70.9706 123.713 71.4111" stroke="#5A9075" stroke-width="0.2287" stroke-miterlimit="10"/>
<path d="M114.302 73.8681C113.829 74.9213 113.192 76.1533 112.72 77.2065C112.247 78.2597 111.947 79.3062 111.653 80.5248C111.36 81.7435 111.575 82.7698 112.307 83.7761" stroke="#5A9075" stroke-width="0.2287" stroke-miterlimit="10"/>
<path d="M116.363 77.5741C119.725 75.345 124.03 75.0053 128.028 75.5526" stroke="#5A9075" stroke-width="0.2287" stroke-miterlimit="10"/>
<path d="M119.628 81.3973C122.02 80.7708 124.435 80.6797 127.031 80.7606C127.721 80.7346 128.418 80.8871 129.131 81.3965" stroke="#5A9075" stroke-width="0.2287" stroke-miterlimit="10"/>
<path d="M116.172 77.4147C114.736 80.0572 114.008 83.1897 114.139 86.2889C114.153 86.6333 114.168 86.9776 114.354 87.3153" stroke="#5A9075" stroke-width="0.2287" stroke-miterlimit="10"/>
<path d="M119.788 81.2329C119.616 81.2395 119.624 81.4117 119.631 81.5839C119.503 82.6236 118.718 84.3784 118.941 85.5771C119.156 86.6035 119.557 87.9678 120.616 88.6168" stroke="#5A9075" stroke-width="0.2287" stroke-miterlimit="10"/>
<path d="M123.354 83.8442C123.376 84.3609 123.376 84.3609 123.57 84.8707C123.771 85.5527 124.317 86.2212 124.856 86.7174C125.395 87.2136 126.106 87.703 126.645 88.1992" stroke="#5A9075" stroke-width="0.2287" stroke-miterlimit="10"/>
<path d="M123.526 83.8211C125.934 83.5539 128.364 83.8117 130.644 84.6013" stroke="#5A9075" stroke-width="0.2287" stroke-miterlimit="10"/>
<path d="M110.176 65.7462C110.176 65.7462 112.296 66.8695 113.899 68.0135C115.502 69.1575 119.679 69.8534 122.875 63.5122C122.875 63.5122 121.646 63.0436 121.121 62.892C120.416 62.575 117.038 60.2939 114.506 61.7759C111.975 63.258 112.398 65.1395 110.176 65.7462Z" fill="#619B82"/>
<path d="M104.055 76.5207C104.055 76.5207 106.27 75.742 108.154 75.3214C110.038 74.9009 113.383 72.1798 110.691 65.5622C110.691 65.5622 109.677 66.1203 109.001 66.4923C108.325 66.8644 104.391 67.8845 103.814 70.6669C103.23 73.2772 104.833 74.42 104.055 76.5207Z" fill="#619B82"/>
<path d="M52.573 76.2155C52.573 76.2155 50.1728 80.9686 44.5956 84.1266" stroke="#619B82" stroke-width="0.2287" stroke-miterlimit="10"/>
<path d="M47.96 81.7536C47.4776 82.6353 47.3121 82.8144 47.7209 84.3501C47.9572 85.8927 47.5173 87.8074 45.4959 89.0958C43.4744 90.3842 41.9 89.9301 41.2663 91.3352C41.2663 91.3352 41.2238 90.3021 40.2972 88.7872C39.5362 87.0932 40.1345 84.8273 41.9763 83.3736C43.818 81.92 45.5792 82.7115 46.7802 82.4908C47.2838 82.1257 47.96 81.7536 47.96 81.7536Z" fill="#619B82"/>
<path d="M49.5956 79.6127C49.5956 79.6127 49.1488 81.3551 48.5154 82.7601C47.8819 84.165 48.0237 87.6083 53.4363 88.9434C53.4363 88.9434 53.5663 87.9035 53.7246 87.5523C53.8759 87.0289 55.1287 83.8746 53.6775 82.2083C52.0608 80.7211 50.5221 81.1276 49.5956 79.6127Z" fill="#619B82"/>
<path d="M40.3134 76.5365C40.3134 76.5365 41.2401 78.0523 41.9943 79.5749C42.5687 80.9323 45.2495 83.068 49.9611 79.9459C49.9611 79.9459 49.2424 79.2845 49.0486 78.7746C48.6821 78.2717 47.181 75.3986 44.9304 75.3162C42.6869 75.4061 42.0534 76.8118 40.3134 76.5365Z" fill="#619B82"/>
<path d="M102.72 64.8464C102.223 65.3839 101.54 65.5841 100.849 65.6121C98.4465 66.0547 96.0229 65.9808 93.5783 65.3904C93.2261 65.2323 92.8809 65.2464 92.7013 65.0812C92.342 64.751 91.9758 64.2486 91.7892 63.9113C91.2224 62.7273 90.8212 61.3642 90.427 60.1732C90.2124 59.1474 89.9908 57.9494 90.294 56.9025C90.6043 56.0277 91.2668 55.3111 92.1089 54.7595C92.9509 54.208 93.807 54.0008 94.8357 53.7865C96.03 53.3931 97.3969 52.9927 98.5913 52.5993C99.1021 52.4061 99.7856 52.2059 100.303 52.1848C102.547 52.0936 103.501 54.2964 103.578 56.19C103.648 57.9115 103.891 59.6259 103.623 61.5335C103.672 62.7385 103.555 64.1227 102.72 64.8464Z" fill="#E0725C"/>
<path d="M107.815 41.5281C108.54 42.3615 108.928 43.3809 109.143 44.4073C109.372 45.7781 108.724 46.8391 108.084 48.0724C107.443 49.3056 104.161 53.5774 102.981 54.3148C102.478 54.68 101.802 55.0521 101.111 55.0798C100.255 55.2867 99.1986 54.8116 98.3215 54.5018C96.0284 53.3864 93.8937 51.9196 92.0899 50.0945C90.6455 48.5999 88.4683 46.0998 89.9367 43.9709C90.4261 43.2612 91.2749 42.8821 92.3033 42.6683C93.8424 42.2615 95.3957 42.1992 96.9277 41.6202C97.4384 41.4272 97.9419 41.062 98.6252 40.862C100.15 40.1108 101.682 39.5318 103.415 39.6347C105.148 39.7376 106.73 40.3642 107.815 41.5281Z" fill="#DE5E52"/>
<path d="M103.295 53.7825C102.331 55.5456 102.948 57.9352 103.536 59.636C104.139 61.6812 104.389 63.568 104.647 65.627C104.862 66.6531 104.911 67.8582 105.637 68.6913C105.817 68.8566 106.003 69.194 106.348 69.1801C106.528 69.3454 106.873 69.3315 107.211 69.1455C108.067 68.9387 108.901 68.2155 109.563 67.4992C110.722 66.2456 111.88 64.992 113.211 63.7315C113.88 63.1873 114.369 62.4779 114.679 61.6032C114.974 60.3842 114.242 59.379 113.674 58.1946C112.906 56.3285 112.476 54.2764 111.032 52.7823C110.134 51.9561 108.905 51.4881 107.69 51.3644C105.626 51.6196 103.929 52.3775 103.295 53.7825Z" fill="#E0725C"/>
<path d="M103.625 49.1021C103.324 50.1491 103.022 51.196 102.893 52.2362C102.764 53.2763 103.317 54.117 103.525 54.9714C103.921 56.1633 103.971 57.3689 104.194 58.5677C104.424 59.9387 104.834 61.4751 105.911 62.4676C107.521 63.7843 110.797 63.6551 112.104 61.8785C112.758 60.9902 113.067 60.1154 113.548 59.2339C114.661 56.9474 115.947 54.6541 117.591 52.6917C117.591 52.6917 117.757 52.5126 117.749 52.3404C117.742 52.1682 117.742 52.1682 117.563 52.0028C116.47 50.6658 115.206 49.3356 114.789 47.6269C114.581 46.7726 114.537 45.7393 114.156 44.8917C113.948 44.0374 113.402 43.3689 112.691 42.8794C112.504 42.5418 111.972 42.2177 111.62 42.0591C111.096 41.9073 110.413 42.1067 110.068 42.1203C109.041 42.3333 108.021 42.7185 107.008 43.276C105.665 44.1915 104.508 45.4447 103.883 47.0219C103.919 47.883 103.776 48.5787 103.625 49.1021Z" fill="#E9715D"/>
<path d="M113.13 45.1032C113.676 45.7717 114.057 46.6192 114.603 47.2877C115.149 47.9561 115.53 48.8036 116.233 49.1209C116.765 49.445 117.462 49.59 117.986 49.7419C118.158 49.7351 118.331 49.7283 118.51 49.8938C118.69 50.0592 118.69 50.0592 118.869 50.2246C119.422 51.0653 119.796 51.7405 120.184 52.7602C120.191 52.9324 120.191 52.9324 120.198 53.1046C120.206 53.2768 120.033 53.2836 120.04 53.4558C119.71 53.8138 119.208 54.1786 118.698 54.3711C118.353 54.3847 118.181 54.3915 117.843 54.5772C116.816 54.7901 115.796 55.1752 114.777 55.5604C113.757 55.9455 112.558 56.1651 111.725 56.8879C110.389 57.9754 109.959 60.0622 110.031 61.7843C110.053 62.3009 110.074 62.8175 109.924 63.3409C109.608 64.0433 108.768 64.5938 107.906 64.6278C107.044 64.6617 106.175 64.5234 105.471 64.2061C104.767 63.8888 103.891 63.5783 103.389 63.9431C104.121 64.9492 105.199 65.9417 106.262 66.5898C106.793 66.9139 107.325 67.238 107.842 67.2176C108.538 67.3627 109.055 67.3424 109.738 67.143C113.163 66.4908 116.351 64.2954 118.484 61.6241C119.137 60.736 119.79 59.8478 120.264 58.7942C121.046 56.866 121.118 54.4484 120.859 52.3887C120.542 48.9513 120.046 45.3486 118.365 42.3099C116.684 39.2712 113.983 36.6177 110.507 36.0645C110.493 35.7201 108.259 35.9805 107.915 35.994C106.881 36.0347 106.378 36.3995 105.71 36.9432C105.373 37.129 105.035 37.3148 104.705 37.6727C103.879 38.5677 103.247 39.9725 103.298 41.1779C103.205 43.079 104.605 43.5413 106.121 42.6193C106.286 42.4403 106.458 42.4335 106.796 42.2477C107.305 42.0552 107.83 42.207 108.347 42.1867C109.201 41.9806 109.876 41.609 110.58 41.9263C111.464 42.409 112.017 43.2497 112.57 44.0904C112.771 44.7724 112.951 44.9378 113.13 45.1032Z" fill="#F0A5B7"/>
<path d="M109.484 61.3051C109.62 60.4369 109.592 59.7478 109.383 58.8932C109.182 58.2109 108.988 57.7009 108.786 57.0186C108.413 56.3432 108.039 55.6677 107.672 55.1645C104.222 51.1595 97.2281 53.3341 94.6334 57.4056C93.8212 58.6456 93.3612 60.0443 93.081 61.6084C92.9372 62.3043 92.7935 63.0003 93.1673 63.6757C93.3614 64.1857 93.728 64.6889 94.2671 65.1853C94.6265 65.5162 94.8134 65.854 95.1656 66.0126C95.8701 66.3299 96.5673 66.4749 97.2717 66.7921C98.1559 67.2749 98.8603 67.5921 99.7444 68.0749C100.097 68.2335 100.629 68.5576 100.981 68.7162C102.203 69.013 103.561 68.4416 104.747 67.8771C105.595 67.4984 106.444 67.1198 107.292 66.7411C108.14 66.3625 108.636 65.8252 108.952 65.1224C109.275 64.592 109.074 63.9097 109.225 63.386C109.369 62.6901 109.513 61.9942 109.484 61.3051Z" fill="#DE5E52"/>
<path d="M110.121 64.2123C109.798 64.7433 109.122 65.1154 108.439 65.315C107.073 65.7143 105.88 66.1068 104.521 66.6785C104.011 66.8714 103.507 67.2367 102.825 67.4364C101.796 67.6496 100.747 67.3454 99.8696 67.0345C98.9925 66.7235 98.1009 66.0676 97.0512 65.7634C96.174 65.4525 95.3041 65.314 94.7648 64.817C94.4053 64.4856 94.2111 63.975 94.1894 63.4576C93.988 62.7746 93.9664 62.2571 93.9375 61.5673C93.9231 61.2224 93.9086 60.8774 93.7289 60.7117C93.5491 60.5461 93.204 60.5597 93.0387 60.7389C92.8734 60.9182 92.708 61.0974 92.7225 61.4424C92.5788 62.139 92.7874 62.9946 92.9889 63.6776C93.1975 64.5332 93.4061 65.3887 93.9599 66.2307C94.5136 67.0726 95.4124 67.901 96.2968 68.3844C97.1811 68.8678 98.2308 69.172 99.2805 69.4762C100.33 69.7803 101.552 70.0777 102.595 70.2094C103.81 70.3343 104.845 70.2936 106.039 69.9011C107.059 69.5154 107.728 68.9708 108.562 68.2469C109.396 67.5231 110.215 66.4544 110.337 65.2403" fill="#F0A5B7"/>
<path d="M103.368 51.2011C104.482 53.055 104.763 55.6322 103.634 57.5748C102.987 58.6357 101.981 59.3656 100.795 59.9302C99.6092 60.4947 98.4161 60.887 97.2157 61.107C95.6776 61.5129 94.1466 62.0911 92.7162 60.9398C91.9974 60.278 91.6165 59.4303 91.2355 58.5826C90.8545 57.735 90.646 56.8805 90.265 56.0328C90.0709 55.5228 89.7044 55.0197 89.1653 54.5234C88.8059 54.1925 87.9361 54.0543 88.4249 53.3448C88.583 52.9934 88.7483 52.8144 88.9064 52.463C89.3879 51.5812 89.5173 50.5408 89.8191 49.4936C90.121 48.4464 90.4228 47.3992 91.2565 46.676C92.0975 46.1251 93.1253 45.9119 94.1532 45.6988C94.8432 45.6715 95.5404 45.8165 96.2376 45.9614C97.632 46.2514 99.2133 46.8791 100.284 47.6995C101.363 48.6922 102.62 49.8502 103.368 51.2011Z" fill="#E9715D"/>
<path d="M94.2247 59.8488C93.492 58.8428 93.2764 57.8164 92.5437 56.8104C91.9833 55.7976 91.0855 54.9706 90.0225 54.3226C89.6706 54.1639 89.1391 53.8399 88.9451 53.3302C88.7511 52.8204 89.2466 52.2834 89.4045 51.9322C89.8928 51.2231 90.2015 50.3485 90.1727 49.6597C90.2946 48.4476 89.8922 47.0836 90.1865 45.8646C89.1595 46.0776 88.6785 46.9589 88.1974 47.8403C87.7308 49.066 87.2641 50.2918 87.1422 51.5039C86.9986 52.1995 87.0203 52.7161 86.8767 53.4117C86.798 55.657 87.5812 57.8683 88.8742 59.8871C89.6213 61.2375 90.5335 62.4089 91.9341 62.8712C92.6307 63.0162 93.3274 63.1612 94.0168 63.1341C94.3616 63.1205 94.8786 63.1001 95.2162 62.9143C95.5537 62.7286 96.0636 62.536 96.4011 62.3502C96.5663 62.1712 97.0761 61.9787 96.8894 61.6411C96.7098 61.4757 96.1927 61.496 95.8408 61.3374C95.4888 61.1788 95.1369 61.0202 94.9573 60.8548C94.5982 60.524 94.4114 60.1864 94.2247 59.8488Z" fill="#F0A5B7"/>
<path d="M107.643 54.2959C107.795 53.7725 107.767 53.0839 107.573 52.5745C107.366 51.7208 107.158 50.867 106.785 50.1925C105.866 48.8504 105.686 48.6853 103.953 48.5833C102.918 48.6254 101.882 48.6675 101.033 49.0469C100.184 49.4263 99.3487 50.15 99.0454 51.1969C97.5222 56.2592 106.486 59.8607 107.643 54.2959Z" fill="#DE5E52"/>
<path d="M102.454 54.1608C103.31 53.954 104.145 53.2307 104.634 52.5213C105.124 51.8118 105.613 51.1024 105.75 50.2346C105.894 49.5391 105.866 48.8504 105.845 48.3339C105.774 46.6123 105.351 44.7323 104.094 43.5757C103.188 42.5773 101.607 41.951 100.233 42.1786C98.8598 42.4061 97.5076 43.1502 96.8668 44.3831C96.5429 44.9134 96.3916 45.4369 96.4128 45.9533C96.4411 46.642 96.6349 47.1516 97.0084 47.8264C97.7695 49.5203 98.7031 51.2073 99.4642 52.9013C100.031 54.0856 100.916 54.5675 102.454 54.1608Z" fill="#F3887B"/>
<path d="M105.598 50.7566C105.598 50.7566 106.449 46.2389 104.099 43.7464C101.923 41.247 99.7148 42.1978 99.7148 42.1978C99.7148 42.1978 100.483 44.0639 102.762 44.8347C105.04 45.6056 104.347 49.7721 105.598 50.7566Z" fill="#F0A5B7"/>
<path d="M97.7808 45.556C98.1189 45.37 98.4641 45.3561 98.8021 45.1701C101.708 44.3636 102.596 49.1567 102.853 51.2158C102.868 51.5602 102.875 51.7323 102.889 52.0767C102.586 53.1236 100.716 53.8885 99.8674 54.2675C98.8532 54.8256 97.5009 55.5698 96.4513 55.267C95.0495 54.806 94.6265 52.9259 94.4044 51.7276C94.1682 50.185 94.1186 48.9798 95.1046 47.733C95.7524 46.6722 96.7595 45.942 97.7808 45.556Z" fill="#F0A5B7"/>
<path d="M98.4574 45.3513C98.7947 45.1656 99.1394 45.1522 99.4767 44.9666C102.377 44.1637 103.272 48.962 103.532 51.0232C103.547 51.3679 103.554 51.5402 103.569 51.8848C103.268 52.9321 101.402 53.6949 100.555 54.073C99.5433 54.6301 98.1941 55.3728 97.1454 55.0683C95.7447 54.6048 95.3193 52.7225 95.0955 51.523C94.8571 49.9787 94.8057 48.7725 95.7882 47.5261C96.6058 46.4587 97.4381 45.736 98.4574 45.3513Z" fill="#EE7A6F"/>
<path d="M103.228 56.2041C103.739 56.0111 104.753 55.4529 105.134 56.3001C105.321 56.6376 105.155 56.8167 105.169 57.1611C105.032 58.0291 104.729 59.0763 104.592 59.9443C104.441 60.4679 104.462 60.9845 104.131 61.3428C103.807 61.8733 103.124 62.0732 102.62 62.4384C102.11 62.6314 101.427 62.8314 100.902 62.6799C100.039 62.7146 99.6795 62.384 99.1334 61.7159C98.5874 61.0479 98.0413 60.3798 97.3298 59.8909C96.6111 59.2297 95.727 58.7477 95.0083 58.0866C94.2897 57.4254 93.9021 56.406 94.3844 55.5241C94.7083 54.9936 95.3845 54.6215 95.8952 54.4285C96.4058 54.2355 97.0891 54.0356 97.6139 54.187C99.0016 54.3038 99.9282 55.8191 101.165 56.4594C102.035 56.597 102.545 56.404 103.228 56.2041Z" fill="#F3887B"/>
<path d="M104.334 57.8846C104.189 58.5804 104.038 59.1039 103.721 59.8066C103.239 60.6885 102.397 61.2398 101.534 61.2744C100.671 61.3091 99.6217 61.0062 99.0756 60.3381C98.8889 60.0006 98.5366 59.8423 98.3499 59.5048C97.4586 58.8506 96.2435 58.7269 95.5177 57.8935C94.9787 57.3977 94.7849 56.888 94.7566 56.1991C94.7283 55.5103 94.8796 54.9867 95.3761 54.4493C94.8584 54.4701 94.5274 54.8284 94.1964 55.1867C93.8653 55.5449 93.8866 56.0616 94.0804 56.5713C94.1158 57.4324 94.3167 58.1143 94.5247 58.9684C94.7327 59.8225 95.1132 60.6697 95.4938 61.5169C95.8673 62.1919 96.4134 62.86 96.9523 63.3558C97.3117 63.6864 97.6781 64.1892 98.21 64.5128C98.9145 64.8295 99.619 65.1462 100.482 65.1116C101.345 65.0769 102.028 64.877 102.891 64.8424C103.574 64.6424 104.258 64.4425 104.941 64.2426C105.451 64.0496 105.775 63.5191 106.279 63.1539C106.61 62.7956 107.114 62.4304 107.265 61.9068C107.416 61.3832 107.575 61.0319 107.554 60.5152C107.525 59.8264 107.49 58.9653 107.116 58.2903C106.922 57.7806 106.369 56.9404 105.845 56.789C104.795 56.4861 104.485 57.361 104.334 57.8846Z" fill="#F0A5B7"/>
<path d="M98.931 52.5789L95.1271 52.5591L95.1464 44.6224L109.598 47.1478L104.035 54.7894L98.931 52.5789Z" fill="#E8644D"/>
<path d="M98.931 52.5793C98.8956 51.7186 99.3286 49.632 101.435 50.4095C103.542 51.187 103.944 52.5504 103.476 53.7762C103.007 55.0021 98.8928 55.8571 98.931 52.5793Z" fill="#DA5941"/>
<path d="M98.931 52.5816C99.3328 53.9454 101.985 55.3913 104.309 53.0556C106.634 50.7199 103.585 60.6741 103.585 60.6741L95.642 56.6809L98.931 52.5816Z" fill="#ED7163"/>
<path d="M56.8216 70.346C56.1242 70.2015 55.5993 70.05 54.9019 69.9054C54.3771 69.7539 54.0107 69.251 53.4788 68.9273C52.9398 68.4313 52.2282 67.9423 51.6963 67.6186C50.9847 67.1295 50.2661 66.4682 50.058 65.6139C49.6633 64.422 50.8005 62.6511 52.0015 62.4304C52.6847 62.2305 53.2095 62.382 53.8998 62.3543C55.4602 62.4642 57.0063 62.2297 58.5453 61.8229L58.7179 61.816L58.8976 61.9813C59.2853 63.0009 59.6729 64.0206 60.5642 64.675C60.9235 65.0056 61.4554 65.3293 61.8147 65.66C62.1741 65.9906 62.3679 66.5004 62.5617 67.0102C62.5688 67.1825 62.7556 67.5201 62.7627 67.6923C62.7768 68.0368 62.4388 68.2229 62.2804 68.5743C61.9565 69.1049 61.4529 69.4702 60.7767 69.8423C59.9351 70.3937 58.9067 70.6075 57.8641 70.4767C57.6915 70.4837 57.1667 70.3322 56.8216 70.346Z" fill="#E9715D"/>
<path d="M59.78 66.6048C59.5862 66.0951 59.2269 65.7646 59.033 65.2549C58.8392 64.7451 58.4799 64.4146 58.4587 63.8979C58.4445 63.5535 58.4304 63.2091 58.5888 62.8577C58.5817 62.6855 58.5817 62.6855 58.5746 62.5133C58.5675 62.3411 58.5675 62.3411 58.3879 62.1758C58.1941 61.6661 57.8277 61.1633 57.4683 60.8328L57.2887 60.6675L57.1161 60.6744C56.778 60.8605 56.4328 60.8743 56.2744 61.2257C56.1089 61.4048 56.1089 61.4049 55.9434 61.584C55.6195 62.1145 55.1159 62.4797 54.6194 63.0171C54.1229 63.5545 53.6264 64.092 53.1157 64.285C52.0944 64.671 51.0447 64.3681 49.988 63.893C49.6358 63.7347 49.4561 63.5694 49.1109 63.5833C48.5932 63.604 48.0825 63.797 47.9312 64.3206C47.7798 64.8442 47.6214 65.1955 47.4701 65.7191C47.4913 66.2357 47.34 66.7593 47.0019 66.9453C46.6284 66.2704 46.4204 65.4162 46.3921 64.7274C46.3779 64.383 46.3638 64.0385 46.5222 63.6872C46.6806 63.3358 46.8391 62.9845 46.9975 62.6331C48.3073 60.8556 50.3429 59.9114 52.3997 59.4838C53.083 59.2839 53.7733 59.2562 54.2911 59.2354C55.6788 59.3522 56.7426 59.9995 57.979 60.6398C59.7544 61.776 61.5297 62.9122 62.636 64.5927C63.7423 66.2733 64.5247 68.4843 63.9122 70.4063C64.0919 70.5716 63.2714 71.6395 63.2785 71.8117C62.9546 72.3422 62.6165 72.5283 62.1058 72.7213C61.9403 72.9004 61.7678 72.9073 61.4297 73.0934C60.7464 73.2933 59.8835 73.328 59.179 73.0113C58.1223 72.5362 58.2595 71.6682 59.1012 71.117C59.2737 71.11 59.2667 70.9378 59.4392 70.9309C59.6048 70.7518 59.7632 70.4004 59.9216 70.0491C60.2526 69.6908 60.5907 69.5047 60.735 68.8089C60.7066 68.1201 60.3402 67.6173 59.9738 67.1145C59.9597 66.7701 59.9597 66.7701 59.78 66.6048Z" fill="#F0A5B7"/>
<path d="M54.8011 75.9458C54.4417 75.6153 54.0824 75.2848 53.8886 74.7752C53.7019 74.4377 53.5151 74.1003 53.501 73.7559C53.3142 73.4185 53.293 72.9019 53.2788 72.5575C53.317 69.279 57.2228 67.5698 60.0267 68.4921C60.9037 68.8018 61.6153 69.2906 62.3269 69.7795C62.6862 70.11 63.0385 70.2683 63.0597 70.7849C63.2464 71.1223 63.2606 71.4667 63.1022 71.818C63.1092 71.9902 63.1234 72.3346 62.9579 72.5137C62.7994 72.865 62.4684 73.2232 62.3171 73.7467C62.1657 74.2702 61.8418 74.8007 61.6904 75.3242C61.5249 75.5033 61.539 75.8477 61.3735 76.0268C60.8841 76.7364 60.0282 76.9432 59.3449 77.1431C58.8343 77.3361 58.3165 77.3569 57.8058 77.5499C57.2951 77.7429 56.9429 77.5845 56.418 77.4331C56.0658 77.2748 55.8791 76.9374 55.6994 76.7721C55.5126 76.4347 55.1533 76.1041 54.8011 75.9458Z" fill="#DE5E52"/>
<path d="M55.5257 76.7783C55.8779 76.9366 56.3886 76.7437 56.7267 76.5576C57.4028 76.1856 58.2516 75.8065 58.9348 75.6066C59.28 75.5928 59.6181 75.4067 59.9561 75.2207C60.4668 75.0277 60.7907 74.4973 61.1076 73.7947C61.4315 73.2644 61.5829 72.7409 61.9068 72.2105C62.2378 71.8523 62.5617 71.3219 62.5405 70.8054C62.5264 70.461 62.3467 70.2958 62.3326 69.9514C62.1458 69.614 61.9591 69.2766 61.6069 69.1183C61.4272 68.953 61.4201 68.7808 61.4131 68.6087C61.406 68.4365 61.5786 68.4295 61.7511 68.4226C61.9237 68.4157 62.1034 68.5809 62.1034 68.5809C62.4627 68.9114 62.6494 69.2488 62.8432 69.7584C63.037 70.268 63.4034 70.7707 63.4246 71.2872C63.4529 71.9759 63.4742 72.4925 63.1573 73.195C62.8405 73.8976 62.5094 74.2558 62.1855 74.7862C61.8616 75.3166 61.3651 75.8539 61.0411 76.3843C60.7172 76.9147 60.041 77.2868 59.3578 77.4867C58.8471 77.6797 58.1568 77.7074 57.6391 77.7282C56.9488 77.7559 56.2514 77.6115 55.7124 77.1158" fill="#F0A5B7"/>
<path d="M49.7183 69.9448C50.0493 69.5866 50.3803 69.2284 50.7184 69.0424C51.0565 68.8563 51.3946 68.6703 51.7326 68.4842C52.0707 68.2982 52.5885 68.2774 52.9336 68.2635C56.2056 67.9596 58.1012 72.0225 57.517 74.6329C57.3798 75.5007 56.8974 76.3824 56.4079 77.0919C56.2495 77.4432 55.9185 77.8014 55.5804 77.9875C55.2423 78.1735 54.8972 78.1874 54.552 78.2012C54.2068 78.2151 54.0343 78.2221 53.8546 78.0568C53.5024 77.8985 52.9705 77.5749 52.6253 77.5888C52.1005 77.4374 51.5757 77.286 51.0509 77.1347C50.6986 76.9764 50.5261 76.9833 50.3464 76.8181C49.6349 76.3293 49.434 75.6475 49.0535 74.8005C48.8597 74.2909 48.6658 73.7813 48.472 73.2717C48.2782 72.7621 48.2641 72.4177 48.4155 71.8942C48.5739 71.543 48.912 71.3569 49.0704 71.0056C49.2288 70.6543 49.5598 70.2961 49.7183 69.9448Z" fill="#DE5E52"/>
<path d="M48.8835 70.6678C48.7251 71.0191 48.9189 71.5288 49.1057 71.8663C49.4791 72.5412 49.8597 73.3884 50.2332 74.0633C50.4199 74.4008 50.4341 74.7452 50.6208 75.0827C50.9872 75.5854 51.5191 75.9091 52.051 76.2327C52.5759 76.3841 53.2804 76.7007 53.8052 76.8522C54.3371 77.1758 54.6964 77.5063 55.2142 77.4855C55.5594 77.4717 55.7249 77.2925 56.063 77.1065C56.4011 76.9204 56.7392 76.7343 56.8976 76.383C57.0631 76.2038 57.2357 76.1969 57.2357 76.1969C57.4083 76.19 57.4154 76.3622 57.4224 76.5344C57.4295 76.7066 57.4366 76.8788 57.264 76.8857C56.933 77.244 56.5949 77.4301 56.2639 77.7883C55.7603 78.1535 55.2496 78.3465 54.7389 78.5395C54.0556 78.7395 53.5308 78.5881 52.8334 78.4436C52.3085 78.2922 51.604 77.9755 51.0721 77.6519C50.5402 77.3283 49.8357 77.0116 49.2967 76.5158C48.7577 76.02 48.3913 75.5172 48.0179 74.8423C47.824 74.3326 47.7957 73.6438 47.7745 73.1272C47.7462 72.4384 47.8905 71.7426 48.2144 71.2121" fill="#F0A5B7"/>
<path d="M55.0426 69.0414C55.3241 67.478 54.9082 65.7702 53.8302 64.7788C53.2913 64.283 52.4142 63.9734 51.7168 63.8289C51.0194 63.6845 50.1565 63.7191 49.4662 63.7469C48.4307 63.7884 47.5678 63.8231 46.92 64.8839C46.596 65.4142 46.6243 66.1029 46.4801 66.7985C46.5084 67.4872 46.5296 68.0037 46.3853 68.6993C46.3995 69.0437 46.2481 69.5671 46.0897 69.9184C45.9312 70.2696 45.5932 70.4557 45.9596 70.9583C46.1392 71.1236 46.3189 71.2888 46.3259 71.461C46.8649 71.9567 47.0658 72.6384 47.4393 73.3132C47.8127 73.9881 48.1791 74.4907 48.8836 74.8073C49.4155 75.1309 50.0987 74.931 50.6094 74.738C51.12 74.5451 51.2855 74.366 51.7962 74.173C52.4653 73.6288 53.2999 72.9054 53.7893 72.1959C54.4372 71.1352 54.7399 70.0883 55.0426 69.0414Z" fill="#E9715D"/>
<path d="M47.9776 65.3612C47.8336 66.0567 47.8692 66.9175 47.7253 67.613C47.5885 68.4807 47.2721 69.1831 46.7762 69.7202C46.6109 69.8992 46.2803 70.2573 46.2946 70.6016C46.3088 70.946 46.6608 71.1044 46.8474 71.4419C47.2065 71.7724 47.5726 72.2752 47.7664 72.7848C48.1468 73.6319 48.1824 74.4927 48.5628 75.3398C48.0456 75.3604 47.507 74.8645 46.9684 74.3686C46.4227 73.7006 46.0494 73.0256 45.669 72.1785C45.4823 71.8411 45.2957 71.5036 45.1019 70.994C44.5206 69.4651 44.629 67.9088 44.9098 66.3456C45.0395 65.3057 45.3416 64.259 46.0099 63.7151C46.3405 63.357 46.6853 63.3433 47.1954 63.1505C47.3678 63.1437 47.7055 62.9578 47.8851 63.1231C48.2299 63.1093 48.4094 63.2746 48.5818 63.2678C48.7542 63.2609 49.1062 63.4194 48.9409 63.5984C48.7756 63.7774 48.6032 63.7843 48.4379 63.9633C48.2726 64.1423 48.1073 64.3214 48.1144 64.4935C48.1286 64.8378 48.1429 65.1822 47.9776 65.3612Z" fill="#F0A5B7"/>
<path d="M52.8347 74.301C52.4824 74.1429 51.9505 73.8197 51.7709 73.6546C51.2319 73.1593 50.8657 72.657 50.4994 72.1547C50.1051 70.9639 49.9255 70.7988 50.5741 69.738C50.8914 69.0355 51.3883 68.4981 52.0579 67.9537C52.7345 67.5814 53.5838 67.202 54.2884 67.5182C58.3012 68.3895 57.2139 75.6746 52.8347 74.301Z" fill="#F0A5B7"/>
<path d="M55.2639 70.2376C54.9329 70.5958 54.2496 70.7957 53.7319 70.8165C53.2141 70.8373 52.6963 70.8581 52.1715 70.7067C51.8193 70.5484 51.467 70.3901 51.1077 70.0596C50.2165 69.4055 49.4978 68.7445 49.1102 67.7253C48.9022 66.8713 49.0394 66.0034 49.5289 65.2939C50.0183 64.5844 50.8671 64.2053 51.7301 64.1707C52.0752 64.1568 52.4275 64.3151 52.6071 64.4804C52.9594 64.6387 53.1461 64.9761 53.3329 65.3135C53.8931 66.3258 54.6188 67.159 55.179 68.1713C55.9047 69.0045 55.9259 69.5211 55.2639 70.2376Z" fill="#F3887B"/>
<path d="M52.5247 70.8659C52.5247 70.8659 50.0667 69.9297 49.2915 67.8915C48.6959 66.0185 49.8682 65.1093 49.8682 65.1093C49.8682 65.1093 50.6009 66.1146 50.3125 67.5057C50.0241 68.8968 52.4822 69.833 52.5247 70.8659Z" fill="#F0A5B7"/>
<path d="M52.2879 65.1798C52.1226 65.3589 51.9501 65.3657 51.7848 65.5448C50.455 66.8054 52.6115 68.791 53.5029 69.4461C53.6826 69.6116 53.8551 69.6047 53.8623 69.777C54.387 69.9289 55.3933 69.1988 55.9037 69.006C56.4068 68.641 57.255 68.2623 57.3987 67.5664C57.5352 66.6981 56.8092 65.8639 56.2701 65.3675C55.5512 64.7056 54.8468 64.3883 53.9842 64.4224C53.4667 64.4428 52.791 64.8147 52.2879 65.1798Z" fill="#F0A5B7"/>
<path d="M51.9562 65.532C51.7914 65.7111 51.6192 65.7176 51.4544 65.8967C50.1288 67.1569 52.2864 69.1491 53.1778 69.8066C53.3576 69.9726 53.5299 69.9661 53.5374 70.1386C54.0618 70.2916 55.0654 69.5621 55.5747 69.37C56.0765 69.0052 56.9229 68.6274 57.0651 67.9306C57.1998 67.0613 56.4731 66.2247 55.9337 65.7267C55.2145 65.0626 54.5103 64.7437 53.6489 64.7764C53.1321 64.796 52.458 65.1673 51.9562 65.532Z" fill="#EE7A6F"/>
<path d="M55.9922 71.2399C55.8267 71.4189 55.1506 71.791 55.5099 72.1214C55.6896 72.2867 55.8621 72.2798 56.0418 72.445C56.5666 72.5964 57.0984 72.92 57.6232 73.0714C57.9754 73.2297 58.148 73.2227 58.4931 73.2089C58.8382 73.195 59.1763 73.009 59.5073 72.6509C59.8453 72.4649 60.0037 72.1136 60.1692 71.9345C60.3276 71.5833 60.3134 71.2389 60.1196 70.7294C59.9258 70.2198 59.732 69.7102 59.7108 69.1937C59.6895 68.6772 59.6612 67.9886 59.4674 67.479C59.2736 66.9695 58.9072 66.4668 58.3824 66.3154C58.0373 66.3292 57.6992 66.5153 57.3612 66.7013C57.0231 66.8873 56.8647 67.2385 56.6993 67.4176C56.3824 68.1201 56.9426 69.1323 56.6329 70.007C56.6612 70.6957 56.3303 71.0538 55.9922 71.2399Z" fill="#F3887B"/>
<path d="M56.5514 72.2522C56.9036 72.4105 57.2558 72.5688 57.6009 72.5549C58.1186 72.5342 58.8018 72.3343 59.1257 71.8039C59.4496 71.2736 59.6009 70.7502 59.4071 70.2406C59.4 70.0684 59.2204 69.9032 59.2062 69.5589C59.0053 68.8771 59.5018 68.3398 59.3009 67.6581C59.2867 67.3138 59.1 66.9764 58.7407 66.6459C58.3814 66.3154 58.0363 66.3292 57.6912 66.3431C57.8567 66.164 58.1947 65.978 58.3673 65.971C58.7124 65.9572 58.892 66.1224 59.2442 66.2807C59.6035 66.6112 59.9628 66.9417 60.3221 67.2722C60.6814 67.6027 61.0477 68.1053 61.2415 68.6149C61.4283 68.9523 61.6221 69.4619 61.8159 69.9715C61.83 70.3158 62.0168 70.6532 62.0309 70.9975C62.0522 71.514 61.8938 71.8653 61.5699 72.3956C61.246 72.926 61.0805 73.1051 60.7495 73.4633C60.4186 73.8215 60.0876 74.1797 59.7496 74.3657C59.4115 74.5517 59.0664 74.5655 58.7283 74.7516C58.3832 74.7654 58.0452 74.9514 57.8726 74.9583C57.5275 74.9722 57.3478 74.8069 56.9956 74.6486C56.6434 74.4903 56.2841 74.1598 55.9249 73.8293C55.7381 73.4919 55.5443 72.9824 55.5302 72.638C55.6815 72.1146 56.2063 72.266 56.5514 72.2522Z" fill="#F0A5B7"/>
<path d="M55.5167 67.9848L56.6469 66.0423L52.5714 63.6191L49.4451 71.6779L55.1333 71.277L55.5167 67.9848Z" fill="#E8644D"/>
<path d="M55.5136 67.9836C56.0597 68.6515 55.9578 70.3802 54.0736 70.8009C52.1893 71.2215 58.1349 72.8798 58.1349 72.8798L58.6059 67.5144L55.5136 67.9836Z" fill="#ED7163"/>
<path d="M56.0542 68.4797C55.8604 67.9702 54.9549 66.9719 54.1342 68.0395C53.3135 69.1071 53.3489 69.9678 54.0535 70.2844C54.5926 70.78 56.9951 70.3386 56.0542 68.4797Z" fill="#DA5941"/>
<path d="M124.292 30.8424C124.292 30.8424 126.556 31.2678 126.703 34.8831C126.801 37.2934 127.522 42.265 132.087 43.9765C136.658 45.8602 142.097 43.57 144.726 40.1868C147.354 36.8035 148.626 38.3039 148.626 38.3039C148.626 38.3039 144.73 36.0479 143.583 33.3354C142.428 30.4507 137.406 25.9986 131.097 28.1517C124.781 30.1327 124.292 30.8424 124.292 30.8424Z" fill="#619B82"/>
<path d="M124.29 30.8218C129.028 32.5344 133.542 37.194 138.424 38.2096C142.428 38.9144 145.901 39.2947 148.799 38.3153" stroke="#3F934E" stroke-width="0.1971" stroke-miterlimit="10"/>
<path d="M127.156 33.1374C129.954 29.7451 135.341 26.2494 139.166 26.7872" stroke="#3F934E" stroke-width="0.1971" stroke-miterlimit="10"/>
<path d="M133.339 36.5083C138.964 30.4123 140.567 31.5571 146.04 30.1298" stroke="#3F934E" stroke-width="0.1971" stroke-miterlimit="10"/>
<path d="M127.163 33.3139C126.912 35.5657 126.655 37.6453 126.913 39.7046C127.171 41.7639 127.944 43.803 129.377 45.1265" stroke="#3F934E" stroke-width="0.1971" stroke-miterlimit="10"/>
<path d="M133.505 36.3324C132.886 38.0816 132.019 46.3937 138.229 46.1454" stroke="#3F934E" stroke-width="0.1971" stroke-miterlimit="10"/>
<path d="M138.596 38.3633C139.593 41.6017 143.388 45.5908 147.423 42.8408" stroke="#3F934E" stroke-width="0.1971" stroke-miterlimit="10"/>
<path d="M138.763 38.1848C141.094 36.0208 146.588 35.1104 146.655 32.5196" stroke="#3F934E" stroke-width="0.1971" stroke-miterlimit="10"/>
<path d="M133.084 47.2155C132.947 48.0835 133.177 49.4544 135.082 49.5507C136.987 49.647 137.504 49.6263 137.727 50.8249C137.949 52.0236 137.675 53.7597 137.675 53.7597C137.675 53.7597 139.207 53.1809 138.927 50.6044C138.927 50.6044 139.991 51.2519 140.185 51.7616C140.551 52.2645 140.984 50.1771 138.849 48.7099C138.849 48.7099 140.258 49.3436 141.381 47.2285C141.381 47.2285 140.381 48.1311 138.821 48.021C137.261 47.9109 136.694 46.726 135.817 46.4161C134.746 45.5964 133.38 45.9961 133.084 47.2155Z" fill="#619B82"/>
<path d="M119.585 46.5448C119.585 46.5448 126.391 44.0106 133.789 47.3876" stroke="#619B82" stroke-width="0.2287" stroke-miterlimit="10"/>
<path d="M125.077 45.6489C126.81 45.751 128.117 48.1118 127.51 50.2054C127.207 51.2522 126.199 51.9828 126.199 51.9828C126.199 51.9828 128.394 50.6868 129.188 48.9304C129.981 47.1741 128.371 45.8601 127.155 45.737C125.94 45.6139 125.077 45.6489 125.077 45.6489Z" fill="#619B82"/>
<path d="M125.075 45.6455C125.075 45.6455 127.975 44.6656 128.437 43.2676C128.899 41.8695 127.835 41.2231 127.835 41.2231C127.835 41.2231 130.273 41.6413 129.818 43.2115C129.363 44.7817 125.075 45.6455 125.075 45.6455Z" fill="#619B82"/>
<path d="M137.721 16.6669C132.931 17.8974 125.064 24.2545 124.079 29.8129" stroke="#619B82" stroke-width="0.1824" stroke-miterlimit="10"/>
<path d="M157.856 2.046C157.856 2.046 156.393 4.34705 156.029 8.15535C155.666 11.9636 153.487 17.9149 148.503 18.6347C143.525 19.5267 136.675 16.8738 136.675 16.8738C136.675 16.8738 135.91 6.55893 140.602 2.91957C146.31 -1.27831 152.519 2.60773 157.856 2.046Z" fill="#619B82"/>
<path d="M136.51 17.0526C136.51 17.0526 150.399 14.2469 158.179 1.51456" stroke="#3B8A64" stroke-width="0.2287" stroke-miterlimit="10"/>
<path d="M152.585 8.6367C152.585 8.6367 156.244 9.35572 159.099 7.33801" stroke="#3B8A64" stroke-width="0.2287" stroke-miterlimit="10"/>
<path d="M152.415 8.64306C152.415 8.64306 151.995 2.62401 153.67 1.34977" stroke="#3B8A64" stroke-width="0.2287" stroke-miterlimit="10"/>
<path d="M148.887 11.03C148.887 11.03 147.355 3.15766 150.011 0.637176" stroke="#3B8A64" stroke-width="0.2287" stroke-miterlimit="10"/>
<path d="M144.695 14.1351C143.873 10.8905 142.271 5.43449 144.654 0.683318" stroke="#3B8A64" stroke-width="0.2287" stroke-miterlimit="10"/>
<path d="M140.111 16.0471C139.868 14.332 137.507 7.18142 140.37 1.54881" stroke="#3B8A64" stroke-width="0.2287" stroke-miterlimit="10"/>
<path d="M139.925 15.8848C140.989 16.5312 143.352 19.3662 145.796 19.9565" stroke="#3B8A64" stroke-width="0.2287" stroke-miterlimit="10"/>
<path d="M144.51 13.9707C145.954 15.4645 148.475 17.9495 152.452 17.9607" stroke="#3B8A64" stroke-width="0.2287" stroke-miterlimit="10"/>
<path d="M148.889 11.2026C149.759 11.34 153.171 14.4803 155.89 13.3353" stroke="#3B8A64" stroke-width="0.2287" stroke-miterlimit="10"/>
</svg>
