<svg width="127" height="184" viewBox="0 0 127 184" fill="none" xmlns="http://www.w3.org/2000/svg">
<path d="M81.0233 109.209C83.0681 109.588 83.4239 109.813 86.2078 108.53C88.9917 107.246 93.1595 107.243 96.6 110.634C100.06 113.834 99.9152 117.089 102.879 117.745C102.879 117.745 100.924 118.335 98.2104 120.779C95.4968 123.222 90.5782 123.157 86.911 120.13C83.2437 117.103 84.0298 113.137 82.9117 111.112C82.0516 110.265 81.0233 109.209 81.0233 109.209Z" fill="#619B82"/>
<path d="M81.0139 109.188C81.0139 109.188 86.2152 115.685 90.9792 117.282C94.8441 118.408 97.662 118.662 102.479 117.93" stroke="#5A9075" stroke-width="0.2287" stroke-miterlimit="10"/>
<path d="M85.2698 113.66C85.2698 113.66 86.4362 109.734 92.3358 107.383" stroke="#5A9075" stroke-width="0.2287" stroke-miterlimit="10"/>
<path d="M85.1514 113.59C85.0332 114.725 85.0795 116.067 85.1456 117.22C85.2116 118.372 85.2777 119.525 85.5478 120.504C85.8179 121.484 86.4567 122.497 87.3193 123.148" stroke="#5A9075" stroke-width="0.2287" stroke-miterlimit="10"/>
<path d="M88.4801 115.893C90.5231 112.616 94.1486 110.442 97.881 109.046" stroke="#5A9075" stroke-width="0.2287" stroke-miterlimit="10"/>
<path d="M92.8577 117.83C94.7245 116.262 96.7385 115.092 98.9198 114.131C99.5221 113.8 100.292 113.676 100.854 113.726" stroke="#5A9075" stroke-width="0.2287" stroke-miterlimit="10"/>
<path d="M88.3615 115.805C88.0456 118.835 88.6724 121.758 90.0769 124.369C90.2219 124.765 90.3868 124.971 90.7362 125.193" stroke="#5A9075" stroke-width="0.2287" stroke-miterlimit="10"/>
<path d="M93.1144 117.601C93.0944 117.791 93.0944 117.791 93.0745 117.981C93.3473 118.964 93.5204 120.897 94.1858 121.723C94.8511 122.55 95.6828 123.583 96.8006 123.683" stroke="#5A9075" stroke-width="0.2287" stroke-miterlimit="10"/>
<path d="M97.3828 118.399C97.5304 118.799 97.5304 118.799 97.8656 119.217C98.3684 119.843 99.0991 120.103 99.6421 120.345C100.373 120.604 101.124 120.672 101.854 120.931" stroke="#5A9075" stroke-width="0.2287" stroke-miterlimit="10"/>
<path d="M97.3633 118.444C99.4005 117.079 101.565 116.306 103.857 116.125" stroke="#5A9075" stroke-width="0.2287" stroke-miterlimit="10"/>
<path d="M107.242 124.55C106.948 123.756 107.088 122.424 108.829 122.005C110.552 121.776 111.132 121.636 111.065 120.478C110.997 119.32 110.576 117.938 110.576 117.938C110.576 117.938 112.051 118.263 112.166 120.769C112.166 120.769 112.994 120.076 113.24 119.522C113.487 118.968 114.242 120.764 112.548 122.532C112.548 122.532 113.769 121.682 115.085 123.529C115.085 123.529 114.023 122.857 112.675 123.12C111.327 123.382 111.001 124.697 110.213 125.01C109.012 125.67 107.684 125.742 107.242 124.55Z" fill="#619B82"/>
<path d="M107.836 124.052C101.504 128.383 94.8094 126.986 94.8094 126.986C94.8094 126.986 88.4915 125.623 85.0874 121.778" stroke="#619B82" stroke-width="0.1824" stroke-miterlimit="10"/>
<path d="M100.135 127.07C101.668 126.828 102.5 124.226 101.722 122.624C101.239 121.815 100.177 121.144 100.177 121.144C100.177 121.144 102.36 121.918 103.325 123.536C104.309 124.965 103.014 126.568 101.854 126.845C100.901 126.949 100.135 127.07 100.135 127.07Z" fill="#619B82"/>
<path d="M100.162 127.05C100.162 127.05 102.957 127.498 103.59 128.709C104.224 129.92 103.207 130.595 103.207 130.595C103.207 130.595 105.369 129.832 104.755 128.431C104.122 127.22 100.162 127.05 100.162 127.05Z" fill="#619B82"/>
<path d="M74.8381 164.531C73.1979 163.999 70.3195 164.505 69.9443 168.111C69.5691 171.718 69.097 172.634 67.1517 173.224C65.9925 173.502 64.3128 173.35 64.3128 173.35C64.3128 173.35 64.6555 175.489 68.9193 174.342C68.9193 174.342 68.3288 176.396 65.1058 178.404C64.0936 179.079 67.6396 179.4 71.0601 175.494C71.0601 175.494 69.9581 178.843 72.6786 179.856C72.6786 179.856 72.4436 178.493 72.9265 175.663C73.4093 172.832 75.7674 171.896 76.6916 170.255C77.4687 168.218 77.2051 165.32 74.8381 164.531Z" fill="#619B82"/>
<path d="M80.6266 128.561C80.6266 128.561 81.9044 152.13 74.1203 165.898" stroke="#619B82" stroke-width="0.1609" stroke-miterlimit="10"/>
<path d="M79.5342 149.173C78.5611 153.124 74.6103 154.685 70.9717 153.197C68.628 152.021 67.3013 150.168 67.3013 150.168C67.3013 150.168 62.7799 153.6 69.7596 155.779C73.4373 156.886 78.8977 153.539 79.3391 151.079C79.3586 150.889 79.5342 149.173 79.5342 149.173Z" fill="#619B82"/>
<path d="M77.609 157.817C77.609 157.817 77.8591 160.903 79.0325 162.351C80.2059 163.798 82.7859 164.418 82.7664 164.607C83.9787 165.675 79.7272 166.626 77.8833 164.351C76.5618 162.507 77.609 157.817 77.609 157.817Z" fill="#619B82"/>
<path d="M88.3068 153.495C89.4058 153.786 90.8181 154.68 90.0393 156.72C89.2605 158.76 88.9942 159.503 90.2399 160.19C91.4856 160.878 92.5648 161.358 92.5648 161.358C92.5648 161.358 89.9138 161.504 88.7678 159.866C88.7678 159.866 88.9813 161.42 90.1074 163.247C90.4206 163.851 88.3022 162.51 88.0417 159.609C88.0417 159.609 87.7825 162.079 84.3656 162.348C84.3656 162.348 86.7433 161.219 87.3157 159.352C87.8881 157.485 85.8764 156.921 85.8095 155.764C85.7227 154.797 86.8347 153.171 88.3068 153.495Z" fill="#619B82"/>
<path d="M80.4576 139.036C80.4576 139.036 85.8284 145.072 87.6428 154.616" stroke="#619B82" stroke-width="0.1609" stroke-miterlimit="10"/>
<path d="M84.5236 145.169C85.0785 147.14 88.4352 147.639 90.6548 146.306C91.6709 145.63 92.3899 144.16 92.3899 144.16C92.3899 144.16 91.7021 147.17 89.8381 148.728C87.9741 150.286 85.8405 148.938 85.4145 147.555C84.8206 145.964 84.5236 145.169 84.5236 145.169Z" fill="#619B82"/>
<path d="M84.9798 146.13C84.9798 146.13 84.8355 149.373 83.3897 150.581C81.9634 151.6 80.7125 150.911 80.7125 150.911C80.7125 150.911 83.1948 152.478 84.9953 151.494C86.6281 150.303 84.9798 146.13 84.9798 146.13Z" fill="#619B82"/>
<path d="M74.8057 90.6483C77.214 89.3222 77.5887 89.3558 79.3011 85.6538C80.9934 82.1429 85.1411 78.6595 91.1755 78.8155C97.19 79.1626 99.9064 82.1053 103.291 80.4813C103.291 80.4813 101.927 82.6722 101.238 87.43C100.549 92.1877 95.7796 96.1936 89.4976 96.5937C83.2357 96.8028 80.867 92.349 77.9501 91.316C76.699 90.6254 74.8057 90.6483 74.8057 90.6483Z" fill="#619B82"/>
<path d="M74.7634 90.729C74.7634 90.729 85.1786 92.4292 91.3176 89.8677C96.0828 87.7667 98.9736 85.4995 103.297 80.4474" stroke="#00995D" stroke-width="0.1824" stroke-miterlimit="10"/>
<path d="M82.6486 91.0777C82.6486 91.0777 80.7879 86.3304 84.4306 79.0314" stroke="#00995D" stroke-width="0.1824" stroke-miterlimit="10"/>
<path d="M82.5822 91.0524C83.5824 92.3017 84.6031 93.3593 85.6033 94.6086C86.624 95.6662 87.4575 96.7073 88.7063 97.3982C89.9552 98.0891 91.2245 98.5884 92.763 98.3377" stroke="#00995D" stroke-width="0.1824" stroke-miterlimit="10"/>
<path d="M87.687 90.4357C87.0954 85.6109 88.7481 80.2256 91.2048 75.8671" stroke="#00995D" stroke-width="0.1824" stroke-miterlimit="10"/>
<path d="M93.5805 88.7334C94.0838 85.7199 95.1367 82.7555 96.5359 80.0132C96.9823 79.2884 97.4486 78.3743 98.2213 78.061" stroke="#00995D" stroke-width="0.1824" stroke-miterlimit="10"/>
<path d="M87.5707 90.5838C89.8849 93.6927 93.0301 96.1007 96.4854 97.3747C96.8394 97.5997 97.4011 97.6494 97.7756 97.6826" stroke="#00995D" stroke-width="0.1824" stroke-miterlimit="10"/>
<path d="M93.6303 88.5077C93.6098 88.7015 93.7976 88.7182 93.9649 88.9288C95.1976 89.8212 96.7238 91.5223 98.0384 91.6395C99.353 91.7567 101.211 92.1178 102.252 91.2325" stroke="#00995D" stroke-width="0.1824" stroke-miterlimit="10"/>
<path d="M98.4358 85.7863C98.9783 86.0296 98.9784 86.0296 99.7291 86.0963C100.667 86.1798 101.647 85.8769 102.439 85.5573C103.23 85.2377 104.23 84.7416 105.042 84.2288" stroke="#00995D" stroke-width="0.1824" stroke-miterlimit="10"/>
<path d="M98.4518 85.5864C99.3277 82.6018 100.901 80.062 103.007 77.7609" stroke="#00995D" stroke-width="0.1824" stroke-miterlimit="10"/>
<path d="M77.7514 70.5591C77.7514 70.5591 76.6691 73.718 75.2944 76.0844C73.9198 78.4509 73.841 84.5731 83.0882 87.7029C83.0882 87.7029 83.4533 86.0118 83.7388 85.0798C84.0442 83.958 86.6473 78.8289 84.1558 75.7318C81.6643 72.6347 79.1468 73.3661 77.7514 70.5591Z" fill="#619B82"/>
<path d="M77.7734 70.5785C77.7734 70.5785 77.6687 75.1584 78.1517 77.6878C78.6348 80.2173 79.1377 82.5573 83.25 87.8999" stroke="#3F934E" stroke-width="0.1824" stroke-miterlimit="10"/>
<path d="M99.0842 101.773C99.0842 101.773 97.3038 98.9131 96.2328 96.5029C95.1818 93.9017 90.4637 90.1998 82.1002 96.005C82.1002 96.005 83.2914 97.269 83.7734 98.0836C84.4426 98.915 86.9193 104.151 90.8941 104.122C94.8889 103.903 96.1064 101.312 99.0842 101.773Z" fill="#619B82"/>
<path d="M99.1152 101.809C99.1152 101.809 95.6159 98.9539 93.2721 97.7653C90.9284 96.5767 88.7525 95.5986 82.0719 95.97" stroke="#3F934E" stroke-width="0.1824" stroke-miterlimit="10"/>
<path d="M84.8054 96.3214C85.6743 96.9757 86.5431 97.63 87.4535 97.9024C89.9984 98.7034 92.9996 97.0384 94.4077 94.463C95.1118 93.1754 95.4642 91.6641 95.0509 90.2786C94.927 89.6895 94.4306 89.0678 94.1204 88.4624C93.6448 87.6498 92.983 86.8208 92.4866 86.1991C92.011 85.3864 91.3491 84.5575 90.418 84.476C89.8593 84.4271 89.2798 84.5692 88.7419 84.3294C87.8315 84.0569 87.3559 83.2443 86.4247 83.1628C85.8661 83.1139 85.2866 83.256 84.6864 83.589C82.0785 85.0956 80.6495 87.8619 79.4276 90.4536C78.2057 93.0453 83.0678 95.0128 84.8054 96.3214Z" fill="#CFD362"/>
<path d="M81.6438 92.5323C81.1461 93.647 81.5184 95.4169 82.8238 95.5311C84.3157 95.6616 85.9115 94.8361 86.7822 93.7541C87.0102 93.3879 89.8296 89.9669 89.6431 89.9506C89.291 89.7268 88.918 89.6941 88.5242 89.8527C88.1305 90.0113 87.9232 90.1862 87.5502 90.1536C86.97 90.2958 86.4105 90.2469 85.8511 90.1979C85.0844 90.3239 84.3176 90.4498 83.7166 90.7833C82.9083 91.2917 82.1 91.8 81.6438 92.5323Z" fill="#AEC551"/>
<path d="M91.1836 85.6152C90.8083 85.5818 90.4329 85.5484 90.2452 85.5318C89.2863 85.6415 88.3684 85.3649 87.6177 85.2981C87.0547 85.2481 86.6793 85.2147 86.1368 84.9715C85.7615 84.9381 85.4066 84.7116 85.0313 84.6782C84.1134 84.4016 83.1135 84.8977 82.1546 85.0074C81.6531 84.3779 81.5885 83.2023 82.213 82.6729C82.6089 82.5131 83.0048 82.3534 83.4006 82.1936C85.3594 81.5879 87.4649 81.3851 89.5088 81.7618C91.1774 82.1052 92.5968 83.0112 93.3711 84.6398C93.7054 85.0595 94.3331 86.2851 93.5414 86.6047C92.7701 86.7311 91.9343 85.6819 91.1836 85.6152Z" fill="#FAF09E"/>
<path d="M80.2554 89.8277C79.4871 88.2213 78.9255 86.4409 78.9228 84.7099C78.8181 83.9314 78.9202 82.9789 78.4428 82.1674C78.111 81.7534 77.5929 81.323 77.2407 81.0995C75.107 79.9493 72.4579 80.0995 70.4316 81.4587C69.4184 82.1384 68.3644 83.199 67.5172 84.0856C66.6495 85.1626 65.5955 86.2233 65.2664 87.5403C64.9372 88.8573 65.0011 90.0168 65.0446 91.3668C65.0881 92.7168 65.3382 93.8928 65.3817 95.2428C65.5272 95.6403 65.466 96.2118 65.7978 96.6258C66.2955 97.2467 67.0408 97.3126 67.5997 97.3621C70.601 97.4353 73.8091 97.3344 76.7058 96.6291C78.0507 96.3635 80.3477 95.9897 81.0494 94.7057C82.3509 93.09 81.0441 91.2437 80.2554 89.8277Z" fill="#CFD362"/>
<path d="M71.7555 82.357C71.3629 82.5144 70.9907 82.4815 70.7842 82.6553C69.3999 83.3015 69.5479 85.4282 68.4951 86.488C67.6691 87.1835 66.5525 87.0847 65.9126 87.7967C65.4792 88.3348 65.3977 89.0962 65.3366 89.6672C65.0893 90.2218 64.6356 90.9502 64.0569 91.0912C63.9115 90.694 63.9523 90.3133 63.993 89.9326C64.4441 87.4746 65.0813 85.033 66.6083 83.0544C67.475 81.9782 68.6936 81.1253 69.8918 80.4627C70.8835 79.974 72.0613 79.5018 73.2187 79.2199C73.9835 79.0954 75.9261 78.4987 76.6298 78.9452C77.8102 80.2026 72.5203 82.2325 71.7555 82.357Z" fill="#FAF09E"/>
<path d="M87.6811 96.8277C88.7824 97.1186 90.0505 97.6167 90.511 98.6189C90.6578 99.0164 90.8047 99.4139 90.7847 99.6043C90.8915 100.383 91.1851 101.178 91.2919 101.956C91.5256 103.322 91.906 105.086 91.0384 106.161C90.3777 107.063 89.2164 107.343 88.262 107.449C86.5401 107.679 85.025 107.736 83.3632 107.394C82.6157 107.327 81.7013 107.053 81.0139 106.415C79.619 105.329 79.6323 103.409 79.6256 101.678C79.5988 100.139 78.938 95.6592 80.473 95.4125C81.4475 95.1156 83.0893 95.6472 84.0037 95.9213C85.2918 96.229 86.5799 96.5368 87.6811 96.8277Z" fill="#CFD362"/>
<path d="M81.8303 105.05C82.1039 106.036 82.3575 107.211 81.8837 108.129C81.6568 108.493 81.2431 108.841 81.0163 109.205C80.3957 109.725 79.7752 110.246 79.0278 110.179C78.0736 110.286 77.1794 109.821 76.2652 109.547C74.7905 109.223 73.049 109.643 71.5743 109.318C70.1196 108.804 68.9318 107.544 68.5114 106.162C67.9041 104.762 67.8974 103.032 67.8707 101.493C67.784 100.524 67.6972 99.5559 67.9841 98.6209C68.271 97.686 68.7448 96.7678 69.5522 96.2638C70.3596 95.7598 71.1069 95.8268 72.0411 95.9106C74.49 95.9381 76.959 95.7752 79.4079 95.8027C79.7816 95.8362 80.3421 95.8865 80.6958 96.1104C80.8626 96.3175 81.0094 96.7149 80.9694 97.0956C80.7225 97.6499 81.8303 105.05 81.8303 105.05Z" fill="#CFD362"/>
<path d="M82.1873 83.6536C81.1069 83.1726 79.7597 83.4358 78.786 83.7326C77.6056 84.2028 76.6119 84.6898 75.4515 84.9698C74.8713 85.1098 74.3111 85.0596 73.8976 85.4066C72.5305 85.8601 71.6435 87.1248 71.4835 88.6467C71.4235 89.2175 71.3635 89.7882 71.3035 90.359C71.2635 90.7394 71.0567 90.9129 70.85 91.0864C70.6032 91.6404 70.7099 92.4182 70.8367 93.0056C70.0897 92.9386 69.3628 92.6814 68.8026 92.6312C68.6159 92.6144 68.2424 92.5809 68.0556 92.5642C67.8689 92.5474 67.6622 92.7209 67.4354 93.0847C66.175 94.3159 65.7882 96.2016 66.5819 97.617C66.7286 98.0143 67.062 98.4283 67.022 98.8088C67.002 98.999 66.962 99.3795 66.942 99.5697C66.862 100.331 67.5289 101.159 68.0291 101.78C69.0495 102.831 70.6701 103.553 72.0372 103.099C73.1977 102.819 74.0646 101.745 75.2051 101.655C75.4585 102.83 75.6919 104.195 76.1321 105.387C76.2588 105.975 76.3856 106.562 76.5123 107.149C76.639 107.737 76.579 108.308 76.7057 108.895C76.9191 110.451 78.293 111.726 79.8269 111.48C80.4071 111.34 80.8006 111.183 81.4008 110.853C82.7879 110.209 84.1751 109.565 85.3755 108.905C85.9757 108.574 86.576 108.244 87.0094 107.707C87.6497 106.996 87.9564 105.871 87.683 104.887C87.4095 103.902 86.9493 102.901 86.4491 102.28C87.923 102.604 89.5836 102.945 91.0375 103.459C91.2242 103.476 91.5977 103.509 91.7844 103.526C92.7381 103.42 93.2316 102.312 93.1449 101.344C93.0582 100.376 92.7647 99.5813 92.8647 98.6301C92.9647 97.6789 93.4182 96.9514 93.5182 96.0002C93.4315 95.0322 92.9514 94.2209 92.2444 93.7735C91.5375 93.326 90.6038 93.2422 89.6701 93.1585C89.1099 93.1083 88.343 93.2315 87.7828 93.1813C86.6624 93.0808 85.3952 92.583 84.5216 91.9286C85.1818 91.0276 86.1755 90.5406 87.0025 89.8466C87.6227 89.3261 87.8894 88.5819 87.2025 87.9442C86.8691 87.5302 86.3088 87.4799 85.9754 87.0659C85.6419 86.6519 85.3085 86.238 84.975 85.824C83.5811 84.7388 83.101 83.9275 82.1873 83.6536Z" fill="#FCE96B"/>
<path d="M75.6615 89.977C75.4545 90.1507 75.0806 90.1171 74.8736 90.2908C74.4797 90.4478 74.2527 90.8119 74.0257 91.176C73.1378 92.4421 71.729 93.2771 70.3603 93.7311C69.5925 93.8544 69.4924 94.8067 69.8062 95.4116C70.14 95.826 70.1 96.207 70.2469 96.6046C70.7076 97.6072 71.9761 98.1055 71.876 99.0577C71.856 99.2482 71.836 99.4386 71.836 99.4386C71.5689 100.184 72.0697 100.805 72.8375 100.682L73.0244 100.699C73.2114 100.715 73.4183 100.542 73.5853 100.749C73.7722 100.766 73.9191 101.163 74.086 101.371C74.7537 102.2 75.6684 102.474 76.3761 102.922C77.6247 103.611 78.6863 104.283 79.7279 105.145C80.0617 105.559 80.6426 105.419 81.0766 104.881C81.5105 104.344 82.3184 103.839 82.9393 103.318C83.3532 102.971 83.5802 102.607 83.9942 102.259C85.0491 101.2 86.4378 100.556 87.9734 100.309C88.5543 100.169 89.0083 99.4408 88.5075 98.8191C88.1737 98.4046 87.8599 97.7998 87.92 97.2284C87.98 96.657 88.0601 95.8952 87.9333 95.3071C87.6795 94.1308 86.431 93.4421 86.1773 92.2658C86.0504 91.6777 86.1105 91.1064 86.3775 90.3613C86.6446 89.6163 85.9569 88.9778 85.1891 89.1012C83.6134 89.7289 81.7038 89.9422 80.2483 89.4271C79.5206 89.1696 78.9998 88.7384 78.499 88.1167C77.9983 87.4951 77.0235 87.7921 76.7564 88.5372C76.6763 89.299 76.4293 89.8536 75.6615 89.977Z" fill="#CFD362"/>
<path d="M79.0522 104.141C79.7987 104.207 80.379 104.066 81.1868 103.559C81.7875 103.227 82.2629 102.306 82.6975 101.767C83.3595 100.862 84.3948 99.991 85.5554 99.7084C86.1357 99.5671 86.9026 99.4423 87.171 98.6956C87.2118 98.314 87.2323 98.1232 87.2731 97.7416C87.3345 97.1692 87.6028 96.4225 87.8508 95.8666C88.0578 95.6923 88.2853 95.3272 88.3058 95.1364C88.3467 94.7548 88.2213 94.1659 87.8685 93.9421C86.9123 92.3167 85.7695 90.6747 84.3788 89.5887C82.988 88.5027 80.9965 87.7487 79.2761 87.9818C79.0895 87.9653 78.9029 87.9488 78.8824 88.1396C78.6754 88.3139 78.6549 88.5047 78.6345 88.6955C78.5527 89.4587 78.2639 90.3962 78.1822 91.1594C78.0364 90.7613 77.8907 90.3632 77.7449 89.9651C76.9985 89.8991 76.3773 90.422 75.7561 90.9449C75.135 91.4678 74.68 92.1979 74.0792 92.53C72.8778 93.1942 71.2187 92.8549 70.1834 93.7264C69.9763 93.9007 69.7693 94.075 69.7284 94.4566C69.7079 94.6474 69.8537 95.0455 70.0199 95.2528C70.9761 96.8782 72.7196 98.188 74.5654 98.5439C73.9646 98.876 73.7167 99.4319 73.4483 100.179C73.4279 100.369 73.4075 100.56 73.5736 100.767C73.7398 100.975 73.7398 100.975 73.906 101.182C75.3172 102.077 77.186 103.976 79.0522 104.141Z" fill="#FAF09E"/>
<path d="M76.2035 93.8746C75.2295 94.1737 74.2147 94.8544 73.5731 95.5681C73.3456 95.9332 72.9519 96.091 72.911 96.4726C72.8497 97.045 73.3687 97.4761 73.9081 97.7164C74.4475 97.9567 75.9609 97.898 76.0658 98.6777C76.3164 99.8555 76.4826 100.063 77.3544 100.718C78.2466 101.182 78.9318 101.82 79.8649 101.903C80.8184 101.795 81.4191 101.462 81.8741 100.732C82.3087 100.193 82.5566 99.6369 82.6179 99.0645C82.7201 98.1105 83.28 98.16 84.0674 97.8444C85.228 97.5618 86.0766 96.6738 85.6394 95.4795C85.2022 94.2852 84.4966 93.8375 83.6452 92.9918C82.9601 92.3534 82.0883 91.6984 81.4031 91.06C81.2369 90.8527 81.0503 90.8362 80.8637 90.8197C80.677 90.8032 80.47 90.9775 80.263 91.1518C80.0355 91.5169 79.7875 92.0728 79.3734 92.4214C78.9593 92.77 78.379 92.9113 78.0262 92.6875C77.86 92.4802 77.86 92.4802 77.6938 92.2729C77.5276 92.0656 77.3206 92.2399 76.9473 92.2069C76.3875 92.1573 75.8072 92.2986 75.5592 92.8546C75.5388 93.0454 75.5183 93.2362 75.4979 93.427C75.1887 94.5553 73.8414 94.8214 73.5322 95.9497C73.2434 96.8872 74.6341 97.9732 75.3602 98.2301" fill="#D5DF98"/>
<path d="M76.7173 99.687C77.0911 99.7205 77.5049 99.3732 77.5449 98.9924C77.5049 99.3732 77.7986 100.168 78.1524 100.392C78.5061 100.616 79.2737 100.493 79.5007 100.129C79.7076 99.9552 79.7476 99.5744 79.7676 99.384C79.9145 99.7815 80.0814 99.9887 80.2482 100.196L80.4351 100.213L80.622 100.229C81.0158 100.073 81.4096 99.9156 81.6366 99.5516C81.6766 99.1708 81.6966 98.9804 81.7367 98.5996C82.0904 98.8235 82.2573 99.0307 82.818 99.081C83.3787 99.1312 83.8125 98.5936 83.8726 98.0224C83.9126 97.6416 83.9326 97.4512 83.7858 97.0536C83.6189 96.8465 83.2852 96.4321 83.0782 96.6058C83.8859 96.1016 84.4198 94.6119 83.5454 93.9569C83.1917 93.733 82.631 93.6827 82.404 94.0468C82.651 93.4923 82.3773 92.5068 81.8167 92.4565C81.276 92.2158 80.4683 92.72 80.5752 93.4984C80.4683 92.72 79.594 92.065 79.0133 92.2051C78.6194 92.362 78.4125 92.5356 78.3725 92.9164C78.1456 93.2804 78.2924 93.678 78.4393 94.0756C78.2524 94.0588 78.2724 93.8684 78.0855 93.8516C77.7317 93.6277 77.398 93.2134 77.0042 93.3703C76.8173 93.3535 76.6104 93.5272 76.5904 93.7176C76.3834 93.8912 76.1365 94.4456 76.2833 94.8432C76.2633 95.0336 76.557 95.8287 76.557 95.8287C76.1832 95.7952 75.9963 95.7784 75.6025 95.9353C75.1887 96.2826 74.7549 96.8203 74.8817 97.4082C75.0285 97.8058 75.1754 98.2033 75.5292 98.4273C75.8829 98.6512 76.2968 98.3039 76.6906 98.147C76.4636 98.5111 76.2367 98.8751 76.3835 99.2727C76.0298 99.0487 76.1566 99.6367 76.7173 99.687Z" fill="white"/>
<path d="M46.2237 42.1971C50.2639 41.6052 61.3601 42.4289 66.1876 56.3356" stroke="#619B82" stroke-width="0.1824" stroke-miterlimit="10"/>
<path d="M18.5128 27.8878C17.8755 30.3303 19.6425 34.9079 22.46 36.6953C22.9984 36.9352 23.3506 37.1587 23.9094 37.2082C24.4683 37.2577 25.0678 36.9263 25.1289 36.3551C25.3762 35.8003 26.2231 34.9142 25.9117 34.3099C24.9162 33.0684 22.6402 33.2513 20.2564 30.9256C18.8476 30.0319 18.3061 28.0617 18.5128 27.8878Z" fill="#619B82"/>
<path d="M15.9762 43.3369C16.5524 41.4655 17.1491 39.4037 18.2435 37.9626C18.6975 37.2339 19.6697 36.9355 20.4557 36.6206C21.2212 36.4962 22.5254 36.6117 23.0232 37.2326C23.521 37.8534 23.4599 38.4247 22.8399 38.9465C22.2199 39.4683 21.268 39.5763 20.4821 39.8911C19.6962 40.206 18.8899 40.7113 18.2699 41.2331C17.2569 41.9124 16.6166 42.6247 15.9762 43.3369Z" fill="#619B82"/>
<path d="M28.983 32.8378C28.1315 31.9922 26.8863 31.3043 25.58 31.1886C24.2736 31.0729 22.7194 31.5129 21.5181 32.1767C20.1097 33.0147 19.1796 34.6652 19.1827 36.3984C19.1857 38.1315 19.9556 39.7401 20.953 40.9837C21.4721 41.4147 21.9912 41.8458 22.5306 42.0861C23.0701 42.3264 23.8166 42.3925 24.3765 42.4421C26.8026 42.657 29.0829 42.4738 30.8002 40.5079C32.0628 39.2719 31.9343 36.95 31.1644 35.3415C30.479 34.7032 29.8345 33.6834 28.983 32.8378Z" fill="#DE5E52"/>
<path d="M20.4741 38.2008L20.2884 38.1843L20.1027 38.1678C19.5861 37.7383 19.441 37.3417 19.3161 36.755C19.1913 36.1683 19.4379 35.6146 19.6845 35.0608C19.9109 34.6972 20.1169 34.5236 20.3229 34.35C20.529 34.1764 20.9004 34.2093 21.2516 34.4323C21.417 34.6388 21.5824 34.8454 21.5418 35.2255C21.7885 34.6718 22.4066 34.151 22.984 34.0103C23.1698 34.0268 23.3555 34.0432 23.5412 34.0597C23.8924 34.2827 24.2232 34.6958 24.3684 35.0924C24.618 36.2658 24.4962 37.4062 24.1887 38.5301C23.9421 39.0839 23.6955 39.6376 23.4488 40.1913C23.2022 40.7451 22.6044 41.0758 22.0269 41.2165C22.233 41.0429 22.4593 40.6792 22.4796 40.4891C22.9728 39.3817 23.2804 38.2577 23.0307 37.0844C23.051 36.8943 22.9059 36.4977 22.7202 36.4812C22.369 36.2582 22.1427 36.6219 21.9366 36.7955C21.3388 37.1262 21.2373 38.0766 20.4741 38.2008Z" fill="#F0A5B7"/>
<path d="M31.616 39.6178C32.682 36.6447 31.3169 33.6475 29.6246 31.9634C27.3758 30.23 27.8044 27.9672 28.0304 27.6038C27.8652 27.3974 27.164 26.9517 26.7961 28.6447C25.6085 32.7575 31.7922 34.4566 30.7495 38.9657C29.7068 43.4749 24.6762 41.4946 22.2451 41.4706C20.1849 41.4795 19.0549 43.2966 19.6143 45.0718L19.7998 45.0883C19.9011 44.1386 20.3095 42.0658 22.6596 42.8495C25.566 43.6826 27.4844 45.0033 30.405 42.1947C31.0829 41.1044 31.616 39.6178 31.616 39.6178Z" fill="#619B82"/>
<path d="M29.3113 35.0182C28.4624 34.1747 27.407 33.505 26.372 32.645C25.3167 31.9753 24.4677 31.1318 23.6391 30.098C23.7031 31.2561 24.1393 32.4471 24.4097 33.4314C24.8662 34.4322 25.1366 35.4165 25.5931 36.4173C25.8839 37.2114 26.4655 38.7994 27.1487 39.4362C27.6459 40.0564 29.2391 40.9659 30.2101 40.6678C31.3874 40.1959 31.2594 37.8797 30.9686 37.0857C30.8639 36.3081 29.8289 35.4482 29.3113 35.0182Z" fill="#619B82"/>
<path d="M46.5099 42.188C41.8713 42.9507 32.3765 42.8681 28.9087 39.5707" stroke="#619B82" stroke-width="0.1824" stroke-miterlimit="10"/>
<path d="M41.6806 42.529C39.4415 40.4079 35.33 38.1156 37.2762 33.8862C37.2762 33.8862 31.87 36.841 35.3418 39.8413C38.8136 42.8417 41.6806 42.529 41.6806 42.529Z" fill="#619B82"/>
<path d="M63.6568 54.049C63.0457 52.6533 62.6409 51.0851 63.151 49.7919C63.778 47.3611 66.1764 46.0491 68.201 44.703C70.393 43.5636 72.624 42.045 73.251 39.6141C72.9198 42.8377 76.2367 45.4377 76.653 48.7296C76.9604 51.2459 75.5664 53.798 73.5223 55.3337C71.6846 56.6969 69.551 57.2675 67.2696 57.4417C65.3618 57.6501 64.4354 55.6514 63.6568 54.049Z" fill="#619B82"/>
<path d="M69.8946 51.5304C68.5216 53.8958 66.4256 56.0047 66.333 58.6766C64.9931 58.939 63.7526 58.2532 62.9034 57.411C60.6877 55.2974 59.9511 51.5936 60.8265 48.6092C61.7217 45.4351 63.8575 42.9468 66.4908 41.0777C67.9103 40.0566 69.4757 39.4316 71.1871 39.2025C73.27 39.0069 73.1705 39.9552 72.9916 41.6621C72.4479 45.0593 71.6986 48.6294 69.8946 51.5304Z" fill="#3B8A64"/>
<path d="M76.5805 44.1335C75.3753 44.8006 74.296 46.0592 72.9037 46.7097C72.3216 46.8516 71.7395 46.9935 71.1574 47.1354C70.783 47.1022 70.3881 47.2607 70.0137 47.2275" stroke="#3B8A64" stroke-width="0.2287" stroke-miterlimit="10"/>
<path d="M77.4371 47.0555C75.9833 48.2812 74.509 49.6985 72.5549 50.2993C71.3701 50.7749 70.0596 50.6587 68.6876 51.1177" stroke="#3B8A64" stroke-width="0.2287" stroke-miterlimit="10"/>
<path d="M77.412 51.2424C75.9953 52.0926 74.5786 52.9427 73.0151 53.3893C71.2639 53.8191 69.5742 53.6686 67.8844 53.5181" stroke="#3B8A64" stroke-width="0.2287" stroke-miterlimit="10"/>
<path d="M73.1306 56.2012C70.8099 56.5954 68.5096 56.7893 66.5402 55.5977" stroke="#3B8A64" stroke-width="0.2287" stroke-miterlimit="10"/>
<path d="M67.022 74.0321C67.022 74.0321 63.015 74.4322 59.815 74.3313C56.4278 74.2133 50.0508 77.4615 51.2737 89.4492C51.2737 89.4492 53.2226 88.8611 54.3646 88.7739C55.7133 88.5141 62.5071 88.5603 64.6591 84.1598C66.811 79.7593 64.6324 77.0701 67.022 74.0321Z" fill="#619B82"/>
<path d="M64.6568 74.4154C64.6568 74.4154 61.9075 71.6633 59.909 68.98C57.9105 66.2967 51.4067 63.2011 43.108 72.0587C43.108 72.0587 44.6997 73.1661 45.5601 74.0142C46.4205 74.8623 50.9806 80.2804 55.6424 79.1683C60.1164 78.039 60.8438 74.6435 64.6568 74.4154Z" fill="#619B82"/>
<path d="M51.6104 55.1131C51.6104 55.1131 52.838 57.9167 53.7099 60.4956C54.394 63.0574 58.3389 67.0708 66.917 62.8572C66.917 62.8572 66.1156 61.4382 65.6112 60.8153C65.146 59.8116 63.4023 54.6538 59.6489 54.3104C55.9151 53.7766 54.5349 56.1495 51.6104 55.1131Z" fill="#619B82"/>
<path d="M76.9666 65.8296C76.9666 65.8296 82.2265 60.7331 91.1347 58.8552" stroke="#619B82" stroke-width="0.2287" stroke-miterlimit="10"/>
<path d="M85.0451 61.1666C86.721 59.5866 87.1349 59.2392 87.6823 55.8277C88.2298 52.4161 90.9138 48.4272 96.1418 47.1657C101.37 45.9042 104.368 47.9034 106.685 45.6118C106.685 45.6118 106.07 47.8638 106.585 51.9474C107.099 56.0309 103.961 60.7481 98.8796 62.4073C93.5915 64.2401 90.5468 60.891 87.9295 60.6563C86.7877 60.7461 85.0451 61.1666 85.0451 61.1666Z" fill="#619B82"/>
<path d="M85.0376 61.1968C85.0376 61.1968 94.3848 60.0975 98.7528 56.247C102.272 53.2844 104.258 50.5713 106.696 45.3946" stroke="#5A9075" stroke-width="0.2287" stroke-miterlimit="10"/>
<path d="M91.9351 59.5914C91.9351 59.5914 89.1782 56.097 90.6614 48.972" stroke="#5A9075" stroke-width="0.2287" stroke-miterlimit="10"/>
<path d="M91.8753 59.5721C92.9403 60.2532 94.1726 61.1447 95.2377 61.8259C96.3027 62.507 97.3883 62.9946 98.6616 63.4989C99.9349 64.0031 101.082 63.9098 102.291 63.2357" stroke="#5A9075" stroke-width="0.2287" stroke-miterlimit="10"/>
<path d="M96.0906 57.8984C94.3203 53.9215 94.6307 49.1787 95.8029 44.8954" stroke="#5A9075" stroke-width="0.2287" stroke-miterlimit="10"/>
<path d="M100.818 54.925C100.555 52.2316 100.824 49.5869 101.289 46.7696C101.366 46.014 101.62 45.2746 102.229 44.5677" stroke="#5A9075" stroke-width="0.2287" stroke-miterlimit="10"/>
<path d="M96.0075 58.0684C98.6419 60.0725 101.922 61.3483 105.305 61.6507C105.681 61.6843 106.056 61.7179 106.453 61.5569" stroke="#5A9075" stroke-width="0.2287" stroke-miterlimit="10"/>
<path d="M100.691 54.7338C100.67 54.9291 100.858 54.946 101.046 54.9628C102.154 55.2593 103.931 56.4046 105.268 56.3272C106.416 56.233 107.961 55.9771 108.836 54.8723" stroke="#5A9075" stroke-width="0.2287" stroke-miterlimit="10"/>
<path d="M104.058 51.2764C104.619 51.326 104.619 51.326 105.2 51.1844C105.969 51.0593 106.778 50.5517 107.4 50.0277C108.022 49.5036 108.665 48.7883 109.287 48.2642" stroke="#5A9075" stroke-width="0.2287" stroke-miterlimit="10"/>
<path d="M104.074 51.0549C104.168 48.392 104.802 45.778 105.956 43.4019" stroke="#5A9075" stroke-width="0.2287" stroke-miterlimit="10"/>
<path d="M82.3184 62.8775C82.3184 62.8775 83.8571 60.7188 85.3362 59.129C86.8154 57.5392 88.2209 53.0714 81.9303 48.6765C81.9303 48.6765 81.2339 49.9539 80.9886 50.5061C80.5376 51.2313 77.5594 54.6004 78.7477 57.5789C79.936 60.5573 82.0192 60.362 82.3184 62.8775Z" fill="#619B82"/>
<path d="M93.1067 71.1313C93.1067 71.1313 92.6187 68.5852 92.4649 66.4541C92.311 64.323 89.9047 60.2574 82.3256 62.2722C82.3256 62.2722 82.7668 63.4667 83.0609 64.263C83.3551 65.0594 83.8298 69.5291 86.7439 70.5604C89.4709 71.575 90.9612 69.9764 93.1067 71.1313Z" fill="#619B82"/>
<path d="M85.1624 127.117C85.1624 127.117 89.9223 130.425 92.4597 136.979" stroke="#619B82" stroke-width="0.2287" stroke-miterlimit="10"/>
<path d="M90.518 132.967C91.3926 133.622 91.5595 133.829 93.282 133.599C94.9844 133.559 96.9806 134.315 98.0489 136.718C99.1171 139.12 98.3761 140.784 99.7914 141.68C99.7914 141.68 98.6698 141.579 96.8873 142.381C94.9379 142.975 92.5878 141.995 91.3126 139.766C90.0374 137.537 91.1723 135.717 91.1256 134.367C90.8118 133.762 90.518 132.967 90.518 132.967Z" fill="#619B82"/>
<path d="M88.3714 130.92C88.3714 130.92 90.1846 131.661 91.6031 132.56C93.0216 133.458 96.7683 133.795 99.0757 128.026C99.0757 128.026 97.9718 127.734 97.6172 127.509C97.0752 127.268 93.8636 125.437 91.8299 126.797C89.9634 128.364 90.1577 130.117 88.3714 130.92Z" fill="#619B82"/>
<path d="M83.602 140.546C83.602 140.546 85.3756 139.747 87.1293 139.139C88.6771 138.703 91.3938 136.074 88.7888 130.477C88.7888 130.477 87.9652 131.169 87.3872 131.309C86.7894 131.638 83.468 132.872 83.0233 135.322C82.7646 137.789 84.1731 138.681 83.602 140.546Z" fill="#619B82"/>
<path d="M80.2758 70.7586C80.779 71.3796 80.8881 72.1562 80.81 72.9158C80.9112 75.6086 80.4506 78.25 79.4284 80.8401C79.2021 81.2028 79.163 81.5826 78.9563 81.7553C78.5427 82.1009 77.942 82.4294 77.548 82.5851C76.1787 83.035 74.6417 83.2779 73.292 83.5379C72.149 83.6252 70.8187 83.6953 69.7343 83.2128C68.8371 82.7475 68.1662 81.9195 67.7021 80.9187C67.238 79.9179 67.1484 78.9513 67.0782 77.7948C66.8404 76.4314 66.6221 74.878 66.3842 73.5145C66.2556 72.9277 66.1464 72.151 66.205 71.5813C66.4588 69.1127 68.9906 68.3857 71.0502 68.5739C72.9227 68.7449 74.8146 68.7261 76.8353 69.2941C78.146 69.4139 79.6244 69.7406 80.2758 70.7586Z" fill="#E0725C"/>
<path d="M55.8153 61.7728C56.8267 61.0967 57.9845 60.8171 59.1224 60.7275C60.6329 60.6713 61.671 61.5314 62.8954 62.4082C64.1198 63.2851 68.1922 67.4853 68.7978 68.8817C69.1105 69.485 69.4033 70.2783 69.3235 71.038C69.41 72.0045 68.7313 73.094 68.2589 74.0103C66.6952 76.3625 64.7788 78.4913 62.5297 80.2069C60.6932 81.5759 57.6589 83.6044 55.6027 81.6943C54.9173 81.0576 54.6445 80.0744 54.5779 78.918C54.3849 77.1751 54.5646 75.4656 54.1852 73.7059C54.0588 73.1194 53.7461 72.5161 53.6396 71.7396C53.0739 69.9632 52.6946 68.2035 53.0805 66.3208C53.4664 64.4381 54.3913 62.7955 55.8153 61.7728Z" fill="#DE5E52"/>
<path d="M68.317 68.6591C70.0696 69.9729 72.7521 69.6353 74.6853 69.2306C76.9931 68.8594 79.0735 68.8533 81.3412 68.8641C82.4851 68.774 83.7962 68.8916 84.813 68.2118C85.0204 68.0377 85.415 67.8803 85.4551 67.4984C85.6625 67.3243 85.7026 66.9424 85.5554 66.5437C85.4684 65.5721 84.8195 64.5501 84.1505 63.719C82.9798 62.2647 81.8091 60.8103 80.6585 59.165C80.1768 58.3508 79.4877 57.7107 78.5913 57.2447C77.3203 56.7452 76.1163 57.4082 74.745 57.8634C72.6044 58.4423 70.3166 58.6225 68.4704 59.9989C67.4336 60.8696 66.7313 62.1559 66.4035 63.4757C66.3501 65.784 66.8988 67.7608 68.317 68.6591Z" fill="#E0725C"/>
<path d="M63.2427 67.6063C64.3236 68.088 65.4044 68.5697 66.5057 68.8602C67.607 69.1507 68.6031 68.6599 69.5583 68.5515C70.9078 68.285 72.2165 68.4009 73.5456 68.3256C75.0617 68.2668 76.7852 68.0335 78.0296 66.9857C79.7091 65.3975 80.0975 61.765 78.3914 60.07C77.5384 59.2225 76.6445 58.7573 75.7711 58.101C73.4837 56.5475 71.2168 54.8029 69.3647 52.709C69.3647 52.709 69.1982 52.5012 69.0112 52.4847C68.8243 52.4681 68.8243 52.4681 68.6169 52.6427C66.9986 53.6574 65.3599 54.8633 63.4495 55.0801C62.4943 55.1885 61.3725 55.0892 60.3969 55.3888C59.4417 55.4972 58.6326 56.0045 57.9899 56.7196C57.5956 56.8777 57.1604 57.4181 56.9325 57.7839C56.6843 58.3409 56.7895 59.1222 56.7486 59.5046C56.8129 60.6682 57.0642 61.8484 57.5024 63.0452C58.2737 64.6574 59.4393 66.1116 61.0401 67.0253C61.9749 67.1081 62.7023 67.3655 63.2427 67.6063Z" fill="#E9715D"/>
<path d="M60.4218 56.5584C61.232 56.0498 62.209 55.7494 63.0193 55.2409C63.8295 54.7323 64.8065 54.4319 65.2628 53.6985C65.6986 53.1567 65.9677 52.4067 66.2163 51.8483C66.2367 51.6567 66.2572 51.465 66.4649 51.2899C66.6725 51.1149 66.6725 51.1149 66.8802 50.9398C67.8777 50.4478 68.6675 50.1309 69.8317 49.8471C70.0189 49.8637 70.0189 49.8637 70.2061 49.8803C70.3933 49.8969 70.3729 50.0886 70.5601 50.1051C70.8936 50.5216 71.2067 51.1298 71.3325 51.7213C71.2916 52.1046 71.2711 52.2963 71.4174 52.6962C71.4819 53.8627 71.7336 55.0458 71.9853 56.2289C72.237 57.412 72.281 58.7701 72.9275 59.7947C73.8872 61.4275 76.0724 62.2016 77.9446 62.3675C78.5062 62.4173 79.0679 62.467 79.6091 62.7084C80.317 63.1581 80.7764 64.1661 80.6741 65.1244C80.5718 66.0827 80.2823 67.0243 79.826 67.7578C79.3698 68.4912 78.893 69.4163 79.2061 70.0244C80.4112 69.3574 81.6573 68.307 82.5289 67.2234C82.9647 66.6817 83.4006 66.1399 83.4619 65.5649C83.731 64.8149 83.7924 64.2399 83.687 63.4567C83.5345 59.5739 81.6766 55.7334 79.1343 52.9931C78.2801 52.1435 77.4258 51.294 76.3639 50.6195C74.4068 49.4787 71.8062 49.0548 69.5391 49.0473C65.7743 48.9072 61.8018 48.9421 58.2477 50.3683C54.6937 51.7945 51.3913 54.4039 50.2333 58.1705C49.8588 58.1374 49.7801 60.6454 49.7392 61.0287C49.6164 62.1787 49.9295 62.7868 50.4093 63.6032C50.5556 64.0031 50.7019 64.403 51.0354 64.8195C51.8692 65.8607 53.2851 66.76 54.5956 66.8761C56.6346 67.2503 57.3599 65.7669 56.6079 63.959C56.4412 63.7508 56.4617 63.5591 56.3154 63.1592C56.1895 62.5677 56.4381 62.0093 56.4995 61.4344C56.4146 60.4595 56.1219 59.6597 56.5782 58.9263C57.2422 58.0178 58.2396 57.5258 59.2371 57.0338C60.0064 56.9085 60.2141 56.7334 60.4218 56.5584Z" fill="#F0A5B7"/>
<path d="M77.521 62.8503C76.6103 62.5775 75.8655 62.5116 74.914 62.6197C74.1488 62.7442 73.5698 62.8853 72.8045 63.0098C72.0189 63.3247 71.2333 63.6397 70.6338 63.9711C65.7773 67.1939 66.9894 75.1826 70.9459 78.6083C72.1474 79.6757 73.5758 80.3788 75.211 80.9079C75.9354 81.1642 76.6598 81.4205 77.4455 81.1055C78.0245 80.9645 78.6239 80.6331 79.2438 80.1112C79.657 79.7633 80.0498 79.6058 80.2768 79.2415C80.7308 78.5127 80.9986 77.7675 81.4526 77.0387C82.1132 76.136 82.5672 75.4072 83.2278 74.5045C83.4548 74.1402 83.8884 73.6018 84.1154 73.2374C84.6306 71.9374 84.2352 70.3646 83.8193 68.9822C83.5489 67.9971 83.2784 67.012 83.008 66.0269C82.7375 65.0419 82.2401 64.4212 81.536 63.9744C81.0182 63.5442 80.253 63.6687 79.7147 63.4289C78.9903 63.1725 78.2658 62.9162 77.521 62.8503Z" fill="#DE5E52"/>
<path d="M80.8018 62.6378C81.3164 63.0667 81.6054 63.8588 81.7094 64.6344C81.9174 66.1857 82.1457 67.5472 82.5387 69.1149C82.663 69.7007 82.9723 70.303 83.0763 71.0786C83.1398 72.2339 82.6482 73.3399 82.1768 74.2562C81.7055 75.1724 80.8641 76.0557 80.3725 77.1618C79.9012 78.078 79.6149 79.0106 78.999 79.5308C78.5885 79.8776 78.0132 80.0181 77.4581 79.9689C76.6978 80.093 76.1427 80.0438 75.4026 79.9781C75.0325 79.9453 74.6625 79.9125 74.4572 80.0858C74.2519 80.2592 74.2114 80.6389 74.3762 80.8451C74.5409 81.0513 74.7057 81.2575 75.0757 81.2904C75.7956 81.5458 76.741 81.4381 77.5013 81.3139C78.4467 81.2062 79.3921 81.0985 80.378 80.6111C81.3639 80.1238 82.3903 79.2568 83.0466 78.357C83.703 77.4572 84.1946 76.3512 84.6861 75.2452C85.1777 74.1392 85.6896 72.8433 85.9961 71.7209C86.3229 70.4087 86.4445 69.2698 86.2162 67.9083C85.9677 66.7367 85.4937 65.9282 84.8548 64.9135C84.216 63.8988 83.2072 62.8512 81.9323 62.5465" fill="#F0A5B7"/>
<path d="M65.6308 68.0196C67.8028 67.0578 70.618 67.1145 72.5247 68.6294C73.561 69.4903 74.1838 70.6993 74.6 72.0824C75.0161 73.4654 75.2459 74.832 75.2893 76.1821C75.4783 77.9297 75.8536 79.6938 74.3861 81.1026C73.5591 81.7987 72.5867 82.0973 71.6143 82.396C70.6418 82.6946 69.6898 82.8027 68.7174 83.1013C68.138 83.2424 67.5383 83.574 66.9181 84.0961C66.5046 84.4442 66.2162 85.3803 65.5322 84.7428C65.1799 84.5193 65.014 84.3124 64.6618 84.0889C63.7914 83.4349 62.6939 83.1455 61.6167 82.6656C60.5396 82.1857 59.4625 81.7058 58.8193 80.6873C58.3624 79.6853 58.2985 78.5257 58.2346 77.3661C58.3162 76.604 58.5842 75.8585 58.8521 75.1129C59.3881 73.6217 60.317 71.973 61.3711 70.9123C62.6115 69.8681 64.0586 68.6498 65.6308 68.0196Z" fill="#E9715D"/>
<path d="M73.5474 79.2361C72.342 79.9037 71.1981 79.9959 69.9928 80.6635C68.8079 81.1392 67.7693 82.0151 66.8974 83.0993C66.6692 83.4662 66.2333 84.0083 65.6511 84.1503C65.0689 84.2923 64.5687 83.6673 64.2147 83.4424C63.5272 82.8009 62.6321 82.3344 61.8831 82.2681C60.593 81.9603 59.0542 82.2112 57.7845 81.7116C57.8488 82.8787 58.7235 83.5369 59.5982 84.195C60.8473 84.8863 62.0965 85.5777 63.3866 85.8855C64.115 86.1436 64.6768 86.1933 65.4052 86.4514C67.8187 86.8587 70.3347 86.3072 72.7249 85.1639C74.3047 84.5295 75.7178 83.6868 76.4434 82.2025C76.7126 81.4521 76.9818 80.7017 77.0638 79.9346C77.1048 79.5511 77.1663 78.9759 77.02 78.5758C76.8738 78.1757 76.748 77.5839 76.6018 77.1838C76.435 76.9755 76.3093 76.3836 75.9143 76.5422C75.7066 76.7174 75.6451 77.2926 75.4169 77.6596C75.1887 78.0265 74.9605 78.3934 74.7527 78.5686C74.3373 78.9189 73.9423 79.0775 73.5474 79.2361Z" fill="#F0A5B7"/>
<path d="M69.5547 63.8508C69.0126 63.6097 68.2638 63.5413 67.6827 63.6798C66.7272 63.7841 65.7717 63.8885 64.9839 64.1997C63.3887 65.0122 63.182 65.1849 62.7996 67.0664C62.6825 68.2055 62.5654 69.3447 62.8422 70.3282C63.119 71.3117 63.7703 72.3294 64.8544 72.8117C70.088 75.2063 75.3889 65.9171 69.5547 63.8508Z" fill="#DE5E52"/>
<path d="M68.5741 69.4525C68.4872 68.4823 67.8389 67.4618 67.1505 66.8227C66.4621 66.1835 65.7737 65.5444 64.8581 65.2698C64.1297 65.012 63.3812 64.9448 62.8198 64.8945C60.9485 64.7266 58.85 64.9233 57.3999 66.1404C56.1769 66.9931 55.248 68.6419 55.2749 70.1841C55.3017 71.7262 55.8899 73.3187 57.1196 74.1989C57.6409 74.6306 58.1822 74.8716 58.7436 74.922C59.4921 74.9891 60.0736 74.8488 60.8622 74.5346C62.8136 73.9398 64.785 73.1544 66.7365 72.5595C68.1065 72.105 68.768 71.2021 68.5741 69.4525Z" fill="#F3887B"/>
<path d="M65.3735 65.5104C65.3735 65.5104 60.6234 63.9274 57.5528 66.158C54.5023 68.1976 55.1782 70.7644 55.1782 70.7644C55.1782 70.7644 57.319 70.1854 58.5163 67.7867C59.7137 65.388 64.1092 66.7464 65.3735 65.5104Z" fill="#F0A5B7"/>
<path d="M58.5752 73.3477C58.4282 72.9499 58.4683 72.5688 58.3214 72.1711C57.9139 68.8653 63.23 68.5728 65.4941 68.5835C65.8681 68.6171 66.0551 68.6339 66.4291 68.6674C67.511 69.1491 68.0387 71.3118 68.3125 72.2979C68.7534 73.4913 69.3411 75.0825 68.8469 76.192C68.1257 77.6658 66.0286 77.8623 64.6996 77.9354C62.9965 77.975 61.6875 77.8576 60.4987 76.5971C59.4568 75.7344 58.829 74.5243 58.5752 73.3477Z" fill="#F0A5B7"/>
<path d="M58.4749 72.589C58.3301 72.1905 58.3716 71.8084 58.2268 71.4099C57.8346 68.0965 63.1358 67.7888 65.3929 67.7934C65.7656 67.8261 65.952 67.8424 66.3247 67.875C67.4013 68.355 67.9182 70.522 68.187 71.5099C68.6214 72.7053 69.2006 74.2991 68.7032 75.4129C67.9779 76.8925 65.8864 77.0953 64.5611 77.1722C62.8631 77.2165 61.5586 77.1023 60.3787 75.8418C59.3645 74.7886 58.7229 73.768 58.4749 72.589Z" fill="#EE7A6F"/>
<path d="M71.006 68.9709C70.8795 68.3843 70.4402 67.1943 71.4119 66.8981C71.8046 66.7416 71.971 66.9482 72.3437 66.9817C73.2555 67.2553 74.3338 67.7356 75.2456 68.0092C75.7848 68.2493 76.3438 68.2995 76.6766 68.7129C77.1958 69.143 77.3023 69.9196 77.6152 70.5229C77.7416 71.1095 77.8482 71.8861 77.602 72.4393C77.5022 73.3891 77.0895 73.7355 76.2842 74.2385C75.4789 74.7415 74.6736 75.2445 74.0347 75.9541C73.2094 76.6471 72.5506 77.5467 71.7253 78.2396C70.9 78.9326 69.7419 79.2121 68.87 78.5586C68.3509 78.1285 68.058 77.3352 67.9315 76.7486C67.805 76.162 67.6985 75.3854 67.9447 74.8323C68.2907 73.3293 70.0677 72.53 70.9529 71.2672C71.239 70.3341 71.1126 69.7475 71.006 68.9709Z" fill="#F3887B"/>
<path d="M72.9953 68.0171C73.721 68.274 74.2602 68.5142 74.9658 68.9611C75.8379 69.6147 76.2972 70.6148 76.1974 71.5647C76.0976 72.5146 75.6051 73.6211 74.7996 74.1241C74.4069 74.2806 74.1806 74.6439 73.7878 74.8004C72.9424 75.6834 72.6163 76.9965 71.6045 77.6728C70.9854 78.1926 70.4063 78.3324 69.6607 78.2655C68.9152 78.1986 68.376 77.9584 67.8767 77.3382C67.8168 77.9082 68.1497 78.3216 68.4825 78.7351C68.8154 79.1485 69.3746 79.1987 69.9537 79.0589C70.8857 79.1425 71.6512 79.0194 72.6031 78.9131C73.555 78.8068 74.5269 78.5105 75.4988 78.2141C76.2843 77.9011 77.0897 77.3981 77.7088 76.8783C78.1215 76.5318 78.7206 76.202 79.1533 75.6655C79.6059 74.939 80.0585 74.2126 80.1583 73.2626C80.2581 72.3127 80.1516 71.5361 80.2514 70.5861C80.1449 69.8095 80.0383 69.0328 79.9318 68.2562C79.8053 67.6695 79.286 67.2393 78.9731 66.6359C78.6402 66.2225 78.3273 65.6191 77.7881 65.3789C77.2489 65.1387 76.8961 64.9153 76.3369 64.8651C75.5913 64.7982 74.6594 64.7145 73.8739 65.0276C73.2947 65.1674 72.3029 65.6537 72.0566 66.2069C71.5641 67.3133 72.4561 67.777 72.9953 68.0171Z" fill="#F0A5B7"/>
<path d="M66.2874 73.1048L65.6626 77.2649L57.1394 76.1164L62.1452 60.6595L69.4718 67.8331L66.2874 73.1048Z" fill="#E8644D"/>
<path d="M66.3371 73.1278C65.4035 73.044 63.2228 72.2724 64.3965 70.0733C65.5702 67.8742 67.104 67.6277 68.351 68.3156C69.5981 69.0036 69.8649 73.6362 66.3371 73.1278Z" fill="#DA5941"/>
<path d="M66.3948 73.154C67.9267 72.9078 69.9047 70.2076 67.7601 67.3293C65.6155 64.4511 75.8456 69.2058 75.8456 69.2058L70.2844 77.3399L66.3948 73.154Z" fill="#ED7163"/>
<path d="M79.3024 121.569C79.0367 122.312 78.7908 122.865 78.525 123.607C78.2792 124.16 77.6812 124.489 77.2492 125.025C76.6313 125.545 75.9933 126.254 75.5614 126.79C74.9235 127.499 74.0995 128.191 73.1493 128.297C71.8069 128.56 70.0857 127.064 70.0391 125.719C69.9327 124.943 70.1785 124.39 70.2582 123.631C70.6236 121.939 70.6169 120.214 70.424 118.473L70.444 118.283L70.6499 118.11C71.8062 117.831 72.9625 117.551 73.8064 116.669C74.2184 116.323 74.6503 115.787 75.0623 115.441C75.4743 115.095 76.0524 114.955 76.6306 114.815C76.8166 114.832 77.2087 114.676 77.3948 114.692C77.7669 114.726 77.9131 115.122 78.2654 115.345C78.7837 115.775 79.0961 116.378 79.3885 117.17C79.8471 118.17 79.9137 119.325 79.6081 120.447C79.5881 120.637 79.3423 121.19 79.3024 121.569Z" fill="#E9715D"/>
<path d="M75.7666 117.79C75.1875 117.93 74.7747 118.277 74.1956 118.416C73.6164 118.556 73.2037 118.903 72.6445 118.853C72.2717 118.819 71.8989 118.786 71.546 118.562C71.3596 118.545 71.3596 118.545 71.1732 118.529C70.9868 118.512 70.9869 118.512 70.7805 118.685C70.2013 118.825 69.6022 119.155 69.1895 119.501L68.9831 119.675L68.9632 119.865C69.1096 120.261 69.0697 120.641 69.4225 120.865C69.589 121.071 69.589 121.071 69.7554 121.278C70.2747 121.708 70.5876 122.312 71.0869 122.932C71.5862 123.552 72.0856 124.172 72.2121 124.759C72.4651 125.932 71.9725 127.039 71.2936 128.128C71.0673 128.492 70.8609 128.665 70.821 129.045C70.7611 129.615 70.8876 130.201 71.4268 130.442C71.9661 130.682 72.3189 130.905 72.8582 131.145C73.4174 131.196 73.9566 131.436 74.1031 131.833C73.3175 132.146 72.3656 132.252 71.62 132.185C71.2472 132.152 70.8744 132.118 70.5215 131.895C70.1687 131.671 69.8159 131.448 69.463 131.224C67.7587 129.537 67.0663 127.174 66.933 124.86C66.8264 124.084 66.9063 123.324 66.9662 122.754C67.3123 121.251 68.1776 120.178 69.063 118.915C70.5674 117.132 72.0718 115.349 74.0556 114.376C76.0393 113.404 78.5424 112.861 80.5129 113.805C80.7193 113.632 81.7379 114.682 81.9243 114.699C82.4436 115.129 82.59 115.526 82.7166 116.113C82.883 116.319 82.863 116.509 83.0095 116.906C83.1161 117.683 83.0163 118.633 82.5636 119.359C81.8847 120.449 80.9726 120.175 80.5132 119.175C80.5332 118.985 80.3468 118.968 80.3668 118.778C80.2003 118.572 79.8475 118.348 79.4946 118.125C79.1618 117.711 79.0153 117.315 78.2896 117.058C77.544 116.991 76.9449 117.321 76.3458 117.65C75.973 117.617 75.973 117.617 75.7666 117.79Z" fill="#F0A5B7"/>
<path d="M85.0849 124.65C84.6716 124.997 84.2584 125.344 83.6785 125.484C83.2852 125.64 82.8919 125.797 82.5186 125.764C82.1254 125.92 81.5654 125.87 81.1921 125.837C77.6659 125.328 76.446 120.804 77.8858 117.862C78.359 116.944 78.9989 116.234 79.6388 115.523C80.0521 115.177 80.2787 114.813 80.8387 114.863C81.2319 114.707 81.6052 114.74 81.9585 114.964C82.1451 114.98 82.5184 115.014 82.6851 115.221C83.0384 115.444 83.3717 115.858 83.9116 116.099C84.4515 116.339 84.9715 116.77 85.5114 117.01C85.678 117.217 86.0513 117.25 86.218 117.457C86.9046 118.095 86.9912 119.062 87.0979 119.84C87.2246 120.427 87.1646 120.998 87.2912 121.585C87.4179 122.172 87.1913 122.536 86.9446 123.089C86.718 123.453 86.3247 123.61 86.1181 123.783C85.7248 123.94 85.3115 124.287 85.0849 124.65Z" fill="#DE5E52"/>
<path d="M86.0941 123.991C86.3211 123.627 86.1942 123.039 86.0474 122.641C85.7536 121.846 85.4799 120.86 85.3731 120.082C85.4131 119.701 85.2662 119.303 85.1194 118.906C84.9925 118.318 84.4718 117.887 83.7641 117.439C83.2434 117.008 82.7026 116.767 82.1819 116.336C81.8481 115.921 81.3274 115.49 80.7666 115.44C80.3928 115.406 80.1859 115.58 79.812 115.546C79.4181 115.703 79.0243 115.86 78.7973 116.224C78.5904 116.398 78.4034 116.381 78.2165 116.364C78.0296 116.348 78.0496 116.157 78.0696 115.967C78.0896 115.776 78.2966 115.603 78.2966 115.603C78.7105 115.255 79.1043 115.099 79.6851 114.958C80.2659 114.818 80.8667 114.488 81.4275 114.538C82.1752 114.605 82.736 114.655 83.4436 115.103C84.1513 115.551 84.4851 115.966 85.0058 116.397C85.5265 116.828 86.0272 117.449 86.5479 117.881C87.0687 118.312 87.3624 119.107 87.4692 119.885C87.5961 120.474 87.516 121.235 87.4559 121.807C87.3759 122.568 87.1088 123.313 86.488 123.834" fill="#F0A5B7"/>
<path d="M77.8553 129.332C77.5216 128.918 77.1879 128.503 77.0411 128.106C76.8943 127.708 76.7474 127.311 76.6006 126.913C76.4538 126.516 76.5138 125.945 76.5539 125.564C76.7473 121.93 81.4323 120.429 84.1552 121.442C85.0695 121.716 85.9438 122.371 86.6312 123.009C86.9849 123.233 87.3186 123.647 87.4654 124.045C87.6122 124.442 87.5722 124.823 87.5321 125.203C87.4921 125.584 87.4721 125.775 87.2652 125.948C87.0383 126.312 86.6045 126.85 86.5645 127.23C86.3176 127.785 86.0706 128.339 85.8237 128.893C85.5968 129.257 85.5768 129.448 85.3699 129.621C84.7293 130.333 83.9618 130.456 82.9874 130.753C82.4068 130.893 81.8262 131.033 81.2456 131.173C80.665 131.313 80.2912 131.28 79.7507 131.039C79.3969 130.815 79.2501 130.418 78.8964 130.194C78.5427 129.97 78.209 129.556 77.8553 129.332Z" fill="#DE5E52"/>
<path d="M78.5293 130.353C78.8823 130.576 79.4617 130.436 79.8547 130.28C80.6406 129.967 81.6131 129.67 82.399 129.357C82.792 129.2 83.165 129.234 83.5579 129.077C84.1574 128.747 84.5903 128.211 85.0232 127.674C85.2696 127.12 85.7225 126.394 85.969 125.84C86.4019 125.303 86.8148 124.957 86.8748 124.387C86.9147 124.006 86.7482 123.8 86.6017 123.403C86.4552 123.006 86.3086 122.609 85.9556 122.386C85.7891 122.179 85.8091 121.989 85.8091 121.989C85.8291 121.799 86.0155 121.815 86.202 121.832C86.3885 121.849 86.575 121.866 86.555 122.056C86.8881 122.469 87.0346 122.866 87.3676 123.28C87.6807 123.883 87.8072 124.47 87.9338 125.057C88.0404 125.834 87.794 126.388 87.5275 127.131C87.2811 127.685 86.8282 128.411 86.3953 128.948C85.9624 129.485 85.5095 130.212 84.8901 130.731C84.2706 131.251 83.6712 131.581 82.8853 131.895C82.3058 132.034 81.5598 131.968 81.0003 131.917C80.2544 131.85 79.5284 131.593 79.0088 131.163" fill="#F0A5B7"/>
<path d="M77.7141 123.302C76.0711 122.77 74.1611 122.984 72.9189 124.026C72.2978 124.547 71.8236 125.466 71.5565 126.212C71.2894 126.957 71.1892 127.909 71.1091 128.672C70.9889 129.815 70.8888 130.767 71.9306 131.63C72.4516 132.061 73.1996 132.128 73.9275 132.386C74.6755 132.453 75.2366 132.503 75.9645 132.761C76.3385 132.794 76.8795 133.035 77.2335 133.259C77.5874 133.483 77.7344 133.881 78.3355 133.55C78.5425 133.377 78.7495 133.203 78.9365 133.22C79.5576 132.699 80.3256 132.575 81.1137 132.261C81.9018 131.947 82.5029 131.616 82.957 130.888C83.3911 130.35 83.2842 129.571 83.1573 128.983C83.0304 128.395 82.8634 128.187 82.7365 127.599C82.2556 126.787 81.6078 125.767 80.9199 125.128C79.878 124.266 78.796 123.784 77.7141 123.302Z" fill="#E9715D"/>
<path d="M72.6279 130.483C73.359 130.743 74.2981 130.828 75.0292 131.088C75.9482 131.365 76.6593 131.817 77.1624 132.445C77.3302 132.654 77.6656 133.073 78.0412 133.107C78.4169 133.141 78.6448 132.773 79.0406 132.614C79.4563 132.263 80.0599 131.929 80.6434 131.788C81.6227 131.488 82.5617 131.572 83.541 131.272C83.4807 131.849 82.857 132.376 82.2333 132.902C81.4218 133.412 80.6304 133.729 79.6512 134.029C79.2555 134.187 78.8598 134.346 78.2762 134.487C76.5257 134.912 74.8555 134.568 73.2054 134.03C72.0986 133.737 71.0119 133.25 70.5288 132.43C70.1934 132.011 70.2335 131.627 70.106 131.032C70.1261 130.84 69.9784 130.438 70.1863 130.263C70.2265 129.878 70.4344 129.703 70.4545 129.51C70.4746 129.318 70.7026 128.95 70.8703 129.159C71.038 129.369 71.0179 129.561 71.1856 129.77C71.3534 129.98 71.5211 130.189 71.7089 130.206C72.0845 130.24 72.4602 130.274 72.6279 130.483Z" fill="#F0A5B7"/>
<path d="M83.0373 126.522C82.8109 126.885 82.3777 127.421 82.1709 127.594C81.5504 128.112 80.9494 128.441 80.3484 128.769C78.9982 129.029 78.7913 129.202 77.7456 128.34C77.0354 127.891 76.532 127.27 76.0482 126.459C75.7517 125.665 75.4747 124.681 75.9275 123.955C77.5005 119.689 85.2113 121.927 83.0373 126.522Z" fill="#F0A5B7"/>
<path d="M79.004 123.238C79.3375 123.652 79.4442 124.43 79.3842 125.001C79.3242 125.572 79.2642 126.143 79.0174 126.697C78.7906 127.061 78.5638 127.424 78.1502 127.771C77.3031 128.656 76.4761 129.35 75.3154 129.63C74.3616 129.736 73.4478 129.462 72.7608 128.825C72.0737 128.187 71.8002 127.202 71.9003 126.25C71.9403 125.87 72.1671 125.506 72.3738 125.333C72.6006 124.969 72.9942 124.812 73.3877 124.655C74.5683 124.185 75.5822 123.508 76.7628 123.037C77.7766 122.36 78.337 122.41 79.004 123.238Z" fill="#F3887B"/>
<path d="M79.2771 126.314C79.2771 126.314 77.8712 128.892 75.5411 129.455C73.4186 129.844 72.6217 128.42 72.6217 128.42C72.6217 128.42 73.8269 127.756 75.2866 128.273C76.7463 128.791 78.1522 126.213 79.2771 126.314Z" fill="#F0A5B7"/>
<path d="M73.06 125.8C73.2257 126.006 73.2054 126.197 73.3711 126.404C74.5109 128.042 76.9888 125.955 77.8351 125.069C78.0416 124.895 78.062 124.705 78.2481 124.722C78.4953 124.167 77.8732 122.959 77.7482 122.372C77.4371 121.768 77.1668 120.783 76.4427 120.527C75.5325 120.254 74.5204 120.933 73.901 121.455C73.075 122.15 72.6212 122.879 72.5193 123.83C72.4582 124.401 72.7489 125.196 73.06 125.8Z" fill="#F0A5B7"/>
<path d="M73.4014 126.221C73.5659 126.428 73.5449 126.619 73.7094 126.826C74.8398 128.464 77.3168 126.369 78.1635 125.48C78.3699 125.306 78.3909 125.115 78.5763 125.131C78.8247 124.576 78.2087 123.367 78.0861 122.779C77.7782 122.175 77.5121 121.189 76.7913 120.934C75.885 120.663 74.8738 121.345 74.2546 121.868C73.4289 122.566 72.9741 123.297 72.8693 124.25C72.8064 124.822 73.0934 125.617 73.4014 126.221Z" fill="#EE7A6F"/>
<path d="M80.1796 122.653C80.3467 122.861 80.641 123.657 81.0555 123.309C81.2627 123.135 81.2828 122.945 81.49 122.771C81.7374 122.215 82.172 121.676 82.4193 121.12C82.6466 120.756 82.6667 120.565 82.7068 120.183C82.7469 119.802 82.5998 119.403 82.2654 118.988C82.1183 118.59 81.7639 118.365 81.5967 118.158C81.2423 117.933 80.8679 117.9 80.2862 118.04C79.7045 118.18 79.1229 118.321 78.5612 118.27C77.9996 118.22 77.2507 118.153 76.669 118.293C76.0874 118.434 75.4856 118.765 75.2382 119.321C75.1982 119.702 75.3453 120.101 75.4924 120.499C75.6395 120.897 75.9939 121.122 76.1611 121.329C76.8698 121.778 78.0533 121.307 78.9492 121.772C79.6981 121.839 80.0324 122.255 80.1796 122.653Z" fill="#F3887B"/>
<path d="M81.3584 122.197C81.5857 121.832 81.8129 121.468 81.853 121.086C81.9131 120.514 81.8061 119.734 81.2847 119.302C80.7632 118.87 80.2217 118.629 79.6401 118.77C79.453 118.753 79.2457 118.927 78.8714 118.893C78.1026 119.017 77.6012 118.394 76.8324 118.518C76.4581 118.484 76.0637 118.641 75.6492 118.989C75.2348 119.337 75.1947 119.718 75.1546 120.1C74.9875 119.892 74.8404 119.494 74.8604 119.303C74.9005 118.922 75.1077 118.748 75.335 118.383C75.7494 118.035 76.1639 117.687 76.5783 117.34C76.9928 116.992 77.5944 116.661 78.176 116.52C78.5704 116.363 79.152 116.223 79.7336 116.082C80.1079 116.116 80.5023 115.959 80.8767 115.992C81.4382 116.043 81.7925 116.267 82.314 116.699C82.8355 117.131 83.0026 117.338 83.3369 117.753C83.6712 118.169 84.0054 118.584 84.1525 118.982C84.2996 119.38 84.2595 119.762 84.4066 120.16C84.3665 120.541 84.5136 120.94 84.4936 121.13C84.4535 121.512 84.2463 121.686 84.019 122.051C83.7917 122.415 83.3773 122.763 82.9628 123.111C82.5684 123.268 81.9869 123.409 81.6125 123.375C81.071 123.134 81.3183 122.578 81.3584 122.197Z" fill="#F0A5B7"/>
<path d="M76.6109 122.646L74.6957 121.129L71.4326 125.256L79.6272 129.833L80.1009 123.535L76.6109 122.646Z" fill="#E8644D"/>
<path d="M76.6072 122.699C77.4146 122.195 79.2629 122.553 79.4164 124.68C79.5699 126.808 82.3056 120.521 82.3056 120.521L76.5938 119.24L76.6072 122.699Z" fill="#ED7163"/>
<path d="M77.2277 122.155C76.6472 122.295 75.4262 123.146 76.4471 124.199C77.4679 125.251 78.4021 125.334 78.8558 124.607C79.4763 124.086 79.3828 121.388 77.2277 122.155Z" fill="#DA5941"/>
<path d="M46.4917 42.3283C46.4917 42.3283 47.3053 39.915 51.2282 40.2737C53.8435 40.5129 59.3193 40.4395 61.8804 35.6984C64.6284 30.9744 63.0098 24.7029 59.772 21.3451C56.5343 17.9873 58.3518 16.814 58.3518 16.814C58.3518 16.814 55.3082 20.7456 52.2024 21.6097C48.9099 22.4568 43.3209 27.3037 44.6553 34.506C45.803 41.6912 46.4917 42.3283 46.4917 42.3283Z" fill="#619B82"/>
<path d="M46.5194 42.314C49.0819 37.3854 54.7417 33.1189 56.5858 27.9344C57.9622 23.6632 58.9104 19.9266 58.3232 16.6247" stroke="#3F934E" stroke-width="0.1971" stroke-miterlimit="10"/>
<path d="M49.3397 39.4674C46.1563 35.9288 43.2703 29.5475 44.4476 25.445" stroke="#3F934E" stroke-width="0.1971" stroke-miterlimit="10"/>
<path d="M53.9333 33.2454C48.3131 26.2367 49.7871 24.6484 49.1251 18.469" stroke="#3F934E" stroke-width="0.1971" stroke-miterlimit="10"/>
<path d="M49.645 39.5439C52.0506 40.1557 54.2681 40.7505 56.5458 40.7612C58.8235 40.7719 61.1613 40.1986 62.8269 38.7782" stroke="#3F934E" stroke-width="0.1971" stroke-miterlimit="10"/>
<path d="M53.8846 33.1087C55.6803 34.0437 64.5446 36.1945 65.2671 29.2974" stroke="#3F934E" stroke-width="0.1971" stroke-miterlimit="10"/>
<path d="M56.8589 27.853C60.4919 27.2218 65.3733 23.638 63.0615 18.8333" stroke="#3F934E" stroke-width="0.1971" stroke-miterlimit="10"/>
<path d="M56.6109 27.5952C54.6578 24.738 54.5509 18.5988 51.7809 18.1583" stroke="#3F934E" stroke-width="0.1971" stroke-miterlimit="10"/>
<path d="M65.6511 35.187C66.565 35.4612 68.079 35.4057 68.4846 33.3313C68.8903 31.257 68.95 30.6867 70.2772 30.6143C71.6044 30.5419 73.4322 31.0903 73.4322 31.0903C73.4322 31.0903 73.051 29.3289 70.2297 29.2668C70.2297 29.2668 71.0962 28.1934 71.6763 28.0537C72.2764 27.724 70.095 26.9519 68.1754 29.0818C68.1754 29.0818 69.0816 27.6282 66.9798 26.0956C66.9798 26.0956 67.7942 27.3204 67.4283 29.0145C67.0625 30.7086 65.6955 31.1612 65.2224 32.0781C64.1693 33.1346 64.3836 34.6891 65.6511 35.187Z" fill="#619B82"/>
<path d="M62.8898 49.7368C62.8898 49.7368 61.2986 41.9612 65.9232 34.375" stroke="#619B82" stroke-width="0.2287" stroke-miterlimit="10"/>
<path d="M62.7479 43.6519C63.131 41.7651 65.8948 40.6727 68.0683 41.6403C69.1551 42.124 69.7884 43.335 69.7884 43.335C69.7884 43.335 68.729 40.7398 66.9503 39.6162C65.1716 38.4926 63.4946 40.0688 63.1701 41.3843C62.8457 42.6999 62.7479 43.6519 62.7479 43.6519Z" fill="#619B82"/>
<path d="M62.713 43.6118C62.713 43.6118 62.1089 40.3006 60.6705 39.5945C59.2322 38.8884 58.3669 39.9584 58.3669 39.9584C58.3669 39.9584 59.201 37.3533 60.8265 38.0765C62.4519 38.7997 62.713 43.6118 62.713 43.6118Z" fill="#619B82"/>
<path d="M33.1625 25.5012C33.7587 30.9078 39.4396 40.4217 45.3148 42.3098" stroke="#619B82" stroke-width="0.1824" stroke-miterlimit="10"/>
<path d="M20.3623 1.38317C20.3623 1.38317 22.6179 3.31264 26.6734 4.25777C30.7289 5.2029 36.8139 8.43979 36.8096 13.9922C36.9923 19.5618 33.0531 26.6693 33.0531 26.6693C33.0531 26.6693 21.7942 26.0231 18.6 20.3698C14.9618 13.527 20.132 7.29791 20.3623 1.38317Z" fill="#619B82"/>
<path d="M33.204 26.8607C33.204 26.8607 32.3532 11.2879 19.8459 0.96161" stroke="#3B8A64" stroke-width="0.2287" stroke-miterlimit="10"/>
<path d="M26.5838 8.11089C26.5838 8.11089 27.9052 4.22762 26.2071 0.827943" stroke="#3B8A64" stroke-width="0.2287" stroke-miterlimit="10"/>
<path d="M26.5809 8.29789C26.5809 8.29789 19.9742 7.88283 18.8525 5.83254" stroke="#3B8A64" stroke-width="0.2287" stroke-miterlimit="10"/>
<path d="M28.6475 12.4911C28.6475 12.4911 19.8507 13.0441 17.5282 9.70441" stroke="#3B8A64" stroke-width="0.2287" stroke-miterlimit="10"/>
<path d="M31.4027 17.4907C27.746 17.9372 21.5626 18.9356 16.7707 15.5365" stroke="#3B8A64" stroke-width="0.2287" stroke-miterlimit="10"/>
<path d="M32.7916 22.7755C30.8887 22.795 22.7439 24.3965 17.0692 20.3279" stroke="#3B8A64" stroke-width="0.2287" stroke-miterlimit="10"/>
<path d="M32.5919 23.0049C33.4564 21.9355 36.8867 19.7609 37.907 17.1745" stroke="#3B8A64" stroke-width="0.2287" stroke-miterlimit="10"/>
<path d="M31.2004 17.7275C33.0335 16.3659 36.1015 13.9703 36.7347 9.63121" stroke="#3B8A64" stroke-width="0.2287" stroke-miterlimit="10"/>
<path d="M28.8482 12.5352C29.1305 11.6062 33.0256 8.33533 32.2211 5.20591" stroke="#3B8A64" stroke-width="0.2287" stroke-miterlimit="10"/>
</svg>
