<svg width="37" height="37" viewBox="0 0 37 37" fill="none" xmlns="http://www.w3.org/2000/svg">
<path d="M34.0928 11.1609L21.3642 10.1141L20.838 16.5118L35.6992 17.7339L36.05 13.4688C36.0975 12.8913 35.9276 12.3741 35.5402 11.9173C35.1529 11.4605 34.6704 11.2084 34.0928 11.1609ZM4.23712 8.70558C3.65955 8.65808 3.14238 8.82801 2.6856 9.21537C2.22882 9.60273 1.97669 10.0852 1.92919 10.6628L1.57843 14.9279L16.5063 16.1555L17.0324 9.75787L4.23712 8.70558ZM3.5356 17.2358L2.30794 32.1636C2.26044 32.7412 2.43036 33.2584 2.81772 33.7152C3.20508 34.1719 3.68754 34.4241 4.26511 34.4716L14.9279 35.3485L16.3309 18.2881L3.5356 17.2358ZM29.8557 36.5761C30.4333 36.6236 30.9505 36.4537 31.4072 36.0664C31.864 35.679 32.1161 35.1965 32.1636 34.619L33.3913 19.6911L20.6626 18.6443L19.2596 35.7047L29.8557 36.5761ZM19.3404 7.8007L21.5395 7.98156L27.8706 8.50222C29.2923 8.61914 30.3832 8.40694 31.1434 7.86562C31.9036 7.3243 32.322 6.58715 32.3987 5.65415C32.4755 4.72116 32.1831 3.92555 31.5215 3.26731C30.86 2.60906 29.8184 2.22149 28.3967 2.10456C25.9531 1.90361 23.7475 2.61678 21.7798 4.24411C21.1019 3.7858 20.3852 3.52559 19.63 3.46347C18.9191 3.40501 18.1918 3.54648 17.4481 3.88787C15.8171 1.96459 13.7799 0.902479 11.3363 0.701522C9.91459 0.584601 8.82366 0.796798 8.06348 1.33812C7.3033 1.87944 6.88485 2.61659 6.80812 3.54959C6.73139 4.48258 7.02379 5.27819 7.68532 5.93643C8.34684 6.59468 9.38845 6.98225 10.8102 7.09917L17.2078 7.62532L19.3404 7.8007ZM30.2662 5.47877C30.2077 6.18963 29.4676 6.48659 28.0459 6.36967L23.1811 5.96958C23.1811 5.96958 23.1829 5.94737 23.1865 5.90294C24.6771 4.63893 26.3553 4.08366 28.2213 4.23712C29.643 4.35404 30.3246 4.76792 30.2662 5.47877ZM8.94067 3.72497C8.99913 3.01411 9.73921 2.71715 11.1609 2.83407C12.9825 2.98388 14.5271 3.78183 15.7947 5.22794C15.7947 5.22794 15.7818 5.24925 15.7559 5.29185C15.7301 5.33445 15.7171 5.35575 15.7171 5.35575L10.9855 4.96662C9.56383 4.8497 8.88221 4.43582 8.94067 3.72497Z" fill="white"/>
</svg>
