<svg width="101" height="39" viewBox="0 0 101 39" fill="none" xmlns="http://www.w3.org/2000/svg">
<g clip-path="url(#clip0)">
<path d="M49.2802 9.73264C50.8834 9.73264 52.2077 8.41178 52.2077 6.81285C52.2077 5.21392 50.8834 3.89307 49.2802 3.89307C47.677 3.89307 46.3527 5.21392 46.3527 6.81285C46.3527 8.41178 47.677 9.73264 49.2802 9.73264Z" fill="#ED1C24"/>
<path d="M32.76 19.812C28.9263 23.6355 22.6531 24.6088 18.5406 26.7638C15.0554 28.5713 13.2431 30.8654 13.3128 34.0633C13.3825 36.0098 14.7766 37.9564 16.5889 38.6515C18.5406 39.3467 20.7711 38.7906 22.2348 37.4697C24.535 35.4537 23.838 32.5339 23.4198 29.5446C23.2107 28.2933 23.141 25.9991 23.141 24.8173C23.141 22.5927 24.535 16.1275 24.8836 14.1809C24.8836 14.0419 24.8836 13.9029 24.8836 13.7638C24.8836 12.443 23.838 11.4002 22.5136 11.4002C21.5378 11.4002 20.7014 12.0259 20.3529 12.7906C19.7952 14.0419 19.5861 15.7799 18.9588 17.0312C17.3556 20.1596 14.0796 22.2451 10.455 22.1756C8.36389 22.1061 6.4122 21.0633 5.36665 19.1863C3.62407 15.8494 4.66962 11.5392 6.96983 8.68897C8.78211 6.46437 11.5005 5.21304 14.4281 5.69967C16.101 5.97774 17.0071 7.22908 17.9132 7.92427C18.3315 8.20234 18.8194 8.4109 19.377 8.4109C20.7014 8.4109 21.7469 7.36812 21.7469 6.04726C21.7469 5.49111 21.5378 4.93496 21.1893 4.51785C20.4923 3.75314 19.8649 3.26651 18.8891 2.71036C15.5433 0.833357 11.7096 0.694319 8.4336 2.01518C2.92704 4.37881 -0.349013 10.3574 -0.00049687 16.197C0.278316 20.1596 2.50882 24.1221 6.2728 25.7906C10.3156 27.5285 15.3342 26.4858 18.68 24.1916C18.68 24.1916 18.6103 25.8601 18.5406 26.7638C18.4709 28.5713 18.8891 30.3093 19.1679 31.6997C19.3073 32.4644 19.7255 33.5767 19.0982 34.2719C18.8194 34.4804 18.4709 34.4804 18.1921 34.3414C17.7738 34.1328 17.9132 33.6462 17.9829 33.2986C18.2618 32.7425 18.6103 32.1168 19.1679 31.6997C22.8622 28.9189 32.2721 27.6676 37.221 21.828C44.4005 13.4858 43.4246 8.13282 43.1458 5.90822C42.7276 2.98844 40.8456 0.833357 38.9636 0.207688C37.0119 -0.41798 34.9208 0.207688 33.5965 1.59806C29.2749 6.25582 30.4598 16.6836 34.2238 22.1061C35.4785 23.9831 37.0816 24.9564 38.6848 25.443C41.7517 26.3467 44.8884 25.3039 47.1189 23.0793C47.7462 23.9831 48.7221 25.0259 49.8373 25.443C52.3466 26.3467 55.2742 25.5125 57.2259 24.0526C58.0623 24.8868 58.829 25.582 59.8746 25.9991C63.6386 27.3895 67.3328 25.2344 70.6089 23.6355C71.4453 24.7478 72.6303 25.443 73.8849 25.7906C77.3701 26.6943 80.8553 25.2344 83.2252 22.8013L77.3701 21.2719C76.6034 21.5499 75.2093 21.7585 74.5123 21.1328C73.6061 20.3681 75.2093 18.4216 75.2093 18.4216C75.6275 19.4644 76.2549 20.7157 77.3701 21.2719L83.2252 22.8013C93.0533 23.566 98.3508 22.1061 99.1872 21.967C100.372 21.7585 101.209 20.7157 101.069 19.6034C100.93 18.4216 99.8146 17.5874 98.6993 17.7264C94.2383 18.2826 92.8442 19.1168 85.3163 18.4911L80.7856 18.074C80.2279 17.935 79.74 17.7959 79.4612 17.3093C79.2521 16.9617 79.5309 16.4751 79.8794 16.4055C80.3673 16.336 80.7856 16.5446 80.9947 17.0312C81.1341 17.3788 80.925 17.7959 80.7159 18.074L85.2466 18.4911C85.4557 17.8654 85.386 16.1275 84.9678 15.1542C84.4101 13.9724 83.2252 13.0687 82.1099 12.5125C80.925 11.9564 79.2521 12.0259 78.346 12.443C77.858 12.1649 77.2307 12.0954 76.6731 12.2344C75.4184 12.582 73.6758 13.2077 71.9333 15.2932C71.3756 15.9884 70.6089 17.4483 70.2604 18.4216C69.4936 19.3949 67.9602 20.4376 67.1237 20.9243C65.9388 21.4804 62.5233 22.8013 61.1292 21.6195C60.5019 21.0633 60.2231 20.4376 60.3625 19.6034C60.5019 18.7692 60.8504 18.0045 61.6172 17.4483C62.8021 16.5446 63.9871 17.1703 65.172 17.5178C65.3114 17.5874 65.5206 17.5874 65.66 17.5874C66.9146 17.5874 67.8905 16.6141 67.8905 15.3628C67.8905 14.3895 67.2631 13.6943 66.4964 13.2772C63.9871 12.0954 61.1292 12.1649 58.6896 14.0419C56.8773 15.4323 55.9712 17.4483 55.9015 19.4644C53.4619 21.4109 52.2072 21.8975 51.1617 20.9938C49.7676 19.812 50.8829 16.9617 50.9526 15.2237C50.9526 15.1542 50.9526 15.0152 50.9526 14.9457C50.9526 13.7638 49.9767 12.7906 48.7918 12.7906C47.8159 12.7906 46.9795 13.4162 46.7704 14.32C46.0036 17.0312 44.1914 21.2719 41.1941 21.2719C39.2424 21.2719 38.0575 20.09 37.221 18.3521C35.9664 15.9189 34.5723 8.54993 36.5937 5.21304C37.1513 4.30929 38.3363 4.65689 38.5454 5.42159C39.4515 9.1756 38.3363 14.6676 32.76 19.812Z" fill="#ED1C24"/>
</g>
<defs>
<clipPath id="clip0">
<rect width="101" height="39" fill="white"/>
</clipPath>
</defs>
</svg>
