<svg width="25" height="25" viewBox="0 0 25 25" fill="none" xmlns="http://www.w3.org/2000/svg">
<path d="M2.5 5H22.5C23.1771 5 23.763 4.75261 24.2578 4.25781C24.7526 3.76302 25 3.17709 25 2.5C25 1.82291 24.7526 1.23698 24.2578 0.742188C23.763 0.247393 23.1771 0 22.5 0H2.5C1.82291 0 1.23698 0.247393 0.742188 0.742188C0.247393 1.23698 0 1.82291 0 2.5C0 3.17709 0.247393 3.76302 0.742188 4.25781C1.23698 4.75261 1.82291 5 2.5 5ZM22.5 10H2.5C1.82291 10 1.23698 10.2474 0.742188 10.7422C0.247393 11.237 0 11.8229 0 12.5C0 13.1771 0.247393 13.763 0.742188 14.2578C1.23698 14.7526 1.82291 15 2.5 15H22.5C23.1771 15 23.763 14.7526 24.2578 14.2578C24.7526 13.763 25 13.1771 25 12.5C25 11.8229 24.7526 11.237 24.2578 10.7422C23.763 10.2474 23.1771 10 22.5 10ZM22.5 20H2.5C1.82291 20 1.23698 20.2474 0.742188 20.7422C0.247393 21.237 0 21.8229 0 22.5C0 23.1771 0.247393 23.763 0.742188 24.2578C1.23698 24.7526 1.82291 25 2.5 25H22.5C23.1771 25 23.763 24.7526 24.2578 24.2578C24.7526 23.763 25 23.1771 25 22.5C25 21.8229 24.7526 21.237 24.2578 20.7422C23.763 20.2474 23.1771 20 22.5 20Z" fill="#ED1C24"/>
</svg>
