<svg width="773" height="220" viewBox="0 0 773 220" fill="none" xmlns="http://www.w3.org/2000/svg">
<g clip-path="url(#clip0)" filter="url(#filter0_d)">
<path d="M763.796 65.562C763.495 62.2424 761.99 58.9229 759.281 56.5087C756.873 54.3963 753.863 53.491 750.853 53.491C750.552 53.491 749.95 53.491 749.649 53.491L743.027 54.0945C742.425 54.0945 741.823 54.3963 741.221 54.3963C740.018 53.7927 738.513 53.7927 737.008 53.7927C736.707 53.7927 736.105 53.7927 735.804 53.7927L733.396 54.0945C731.891 50.4732 729.182 47.7572 725.269 46.5501L723.764 45.9466C722.56 45.6448 721.356 45.343 719.851 45.343C718.346 45.343 717.142 45.6448 715.637 45.9466C715.035 45.9466 714.734 45.9466 714.132 45.9466C712.627 45.9466 711.423 46.2484 710.219 46.5501L708.413 47.1537C705.102 48.3608 702.092 50.775 700.888 54.0945L698.781 53.7927C698.48 53.7927 697.878 53.7927 697.577 53.7927C696.674 53.7927 695.47 53.7927 694.567 54.0945L688.849 53.491C688.547 53.491 687.946 53.491 687.645 53.491C685.538 53.491 683.732 54.0945 681.926 54.9998C680.12 54.0945 678.314 53.7927 676.508 53.7927C676.207 53.7927 676.207 53.7927 674.702 53.7927C675.003 50.4732 673.799 47.1537 671.692 44.7395L668.983 41.7217C666.575 39.0057 662.963 37.1951 659.351 37.1951C656.642 37.1951 654.234 38.1004 652.127 39.6093L645.505 44.1359C642.194 46.5501 640.388 50.1714 640.087 53.7927C637.981 53.7927 635.874 53.491 635.874 53.491C635.272 53.491 634.369 53.491 633.767 53.7927C633.165 53.7927 632.563 53.7927 631.961 53.7927C631.66 53.7927 631.66 53.7927 623.834 54.0945C623.232 54.0945 622.63 54.0945 622.028 54.3963C621.125 54.0945 619.921 54.0945 619.018 53.7927C617.513 53.491 616.008 53.491 614.503 53.491C610.59 53.491 607.279 54.0945 604.269 55.3016C602.463 55.9052 600.657 57.1123 599.152 58.0176C596.744 55.3016 593.433 53.491 589.52 53.491H579.588C578.685 53.491 578.083 53.491 577.18 53.7927C576.277 52.2839 575.073 51.0768 573.568 50.1714L566.344 45.343C564.237 43.8342 561.829 43.2306 559.421 43.2306C557.916 43.2306 556.712 43.5324 555.508 43.8342C551.896 45.0413 548.886 47.7572 547.381 51.3785L546.478 53.491L543.468 53.7927C542.866 53.7927 542.264 54.0945 541.662 54.0945C540.458 53.491 538.953 53.491 537.448 53.491C537.148 53.491 536.546 53.491 536.245 53.491L529.322 54.0945C526.312 54.3963 523.302 55.9052 521.195 58.0176C521.195 57.7158 521.496 57.414 521.496 57.1123V56.8105C522.098 52.5856 521.195 48.3608 519.389 44.4377C515.476 35.988 509.155 34.7809 505.844 34.7809C505.543 34.7809 504.941 34.7809 504.64 34.7809C503.737 34.7809 502.834 35.0827 502.232 35.3844L491.095 28.1418C488.988 26.633 486.581 26.0294 484.173 26.0294C482.969 26.0294 481.464 26.3312 480.26 26.633C476.648 27.8401 473.638 30.556 472.133 34.1773L469.725 40.2128C469.424 40.5146 469.424 41.1182 469.424 41.4199C468.521 41.1182 467.618 40.8164 466.715 40.5146C463.705 39.6093 460.695 39.3075 457.685 39.3075C453.471 39.3075 448.956 40.2128 445.043 41.7217C444.14 42.0235 443.538 42.627 442.635 42.9288C442.334 42.9288 442.334 43.2306 442.033 43.5324C440.829 42.9288 439.324 42.627 437.819 42.3253L427.285 41.4199C426.984 41.4199 426.382 41.4199 426.081 41.4199C424.576 41.4199 423.372 41.7217 422.168 42.0235L411.934 41.1182C411.633 41.1182 411.031 41.1182 410.73 41.1182C407.72 41.1182 405.011 42.0235 402.904 43.8342C402.603 43.5324 402.603 43.5324 402.302 43.2306C399.894 41.1182 396.884 39.9111 393.573 39.9111C393.272 39.9111 393.272 39.9111 374.31 40.8164C374.009 40.5146 374.009 40.2128 373.708 39.9111C374.611 38.4022 375.213 36.8933 375.514 35.3844C376.116 31.4614 375.213 27.5383 372.504 24.8223L368.29 19.9939C365.882 17.2779 362.27 15.4673 358.658 15.4673C355.949 15.4673 353.541 16.3726 351.434 17.8815L341.2 25.1241C336.685 28.1418 334.88 33.5738 336.083 38.704L335.482 39.3075C334.278 40.2128 333.375 41.7217 332.472 42.9288C329.763 42.0235 327.054 41.42 324.345 41.1182C324.044 41.1182 323.743 41.1182 323.442 41.1182C323.141 41.1182 323.141 41.1182 308.693 41.7217C305.984 41.7217 303.576 42.9288 301.469 44.4377C299.362 42.9288 296.954 42.0235 294.546 41.7217C283.711 41.1182 283.711 41.1182 283.41 41.1182C282.206 41.1182 281.303 41.1182 280.099 41.4199C279.196 41.1182 278.293 41.1182 277.39 41.1182C277.089 41.1182 277.089 41.1182 271.972 41.4199C271.069 40.2128 270.166 39.0057 268.962 38.1004L260.835 31.7631C258.728 29.9525 255.718 29.0472 253.009 29.0472H248.494C245.484 29.0472 242.474 30.2543 240.367 32.0649L232.542 38.704C231.639 39.6093 230.736 40.5146 230.134 41.4199C228.629 41.4199 226.823 41.7217 224.415 41.7217C223.512 41.7217 222.308 42.0235 221.405 42.3253C220.502 42.0235 219.599 41.7217 218.696 41.7217C217.492 41.7217 215.987 41.4199 214.482 41.4199C213.278 41.4199 212.375 41.4199 211.171 41.4199C204.85 41.7217 199.733 43.2306 195.82 45.6448C189.499 49.5679 185.586 55.9052 184.984 63.7513C184.984 65.562 184.984 67.6744 185.285 69.485C185.285 69.7868 185.586 70.3904 185.586 70.9939L185.887 71.5975C185.887 71.8992 186.188 72.201 186.188 72.5028C186.188 72.8046 186.489 73.1063 186.489 73.4081C186.188 73.7099 186.188 74.3134 185.887 74.6152L182.577 65.2602C182.878 64.3549 183.48 63.1478 183.48 62.2424C184.082 58.3194 183.179 54.3963 180.47 51.6803L177.761 48.6626C175.353 45.9466 171.741 44.1359 168.129 44.1359C165.42 44.1359 163.012 45.0413 160.905 46.5501L154.283 51.0768C153.079 51.9821 151.875 53.1892 150.972 54.3963L146.156 54.0945C145.855 54.0945 145.253 54.0945 144.952 54.0945C144.049 54.0945 142.845 54.0945 141.942 54.3963L136.223 53.7927C135.922 53.7927 135.32 53.7927 135.019 53.7927C133.214 53.7927 131.408 54.0945 129.602 54.9998C127.495 54.3963 125.388 53.7927 122.98 53.7927C116.96 53.491 116.96 53.491 116.659 53.491C114.251 53.491 112.144 54.0945 110.037 55.3016C108.231 54.3963 106.425 54.0945 104.318 54.0945C104.017 54.0945 103.415 54.0945 103.114 54.0945L96.4922 54.6981C95.8903 54.6981 95.2883 54.9998 94.6863 54.9998C93.4823 54.3963 91.9773 54.3963 90.4724 54.3963C90.1714 54.3963 89.5694 54.3963 89.2684 54.3963H88.0644C87.4624 53.491 87.1614 52.8874 86.2585 51.9821L83.5495 48.9643C81.1416 46.2484 77.5296 44.7395 73.9177 44.7395C71.2087 44.7395 68.8008 45.6448 66.6938 47.1537L60.072 51.6803C58.868 52.5856 57.664 53.7927 56.761 54.9998L51.9451 54.6981C51.6441 54.6981 51.0421 54.6981 50.7412 54.6981C49.8382 54.6981 48.6342 54.6981 47.7312 54.9998L42.0123 54.3963C41.7113 54.3963 41.1093 54.3963 40.8083 54.3963C39.6044 54.3963 38.4004 54.6981 37.1964 54.9998C35.9924 54.6981 34.7885 54.3963 33.2835 54.3963C31.7785 54.3963 30.5746 54.6981 29.0696 54.9998C28.4676 54.9998 28.1666 54.9998 27.5646 54.6981C20.6417 54.3963 20.6417 54.3963 20.3408 54.3963C17.0298 54.3963 14.0199 55.6034 11.6119 57.7158C9.50497 59.5265 8 62.846 8 66.1655V88.4969C8 91.8164 9.20398 95.1359 11.6119 97.5501C14.0199 99.9643 17.3308 101.473 20.6417 101.473H28.7686C29.0696 101.473 29.6716 101.473 29.9726 101.473C31.4775 102.077 32.6815 102.077 34.1865 102.077C35.6915 102.077 37.1964 101.775 38.7014 101.171C39.0024 101.171 39.6044 101.171 39.9054 101.171H47.4302C48.0322 101.171 48.3332 101.171 48.9352 101.171C49.5372 101.171 50.4402 101.473 51.3431 101.473L59.47 101.171C60.072 101.171 60.9749 101.171 61.5769 100.87L66.3928 101.473C66.6938 101.473 67.2958 101.473 67.5968 101.473C68.8008 101.473 70.0048 101.171 70.9078 100.87C72.1117 101.171 73.0147 101.473 74.2187 101.473C74.5197 101.473 75.1217 101.473 75.4227 101.473L80.5396 100.87C81.4425 101.171 82.3455 101.171 82.9475 101.171C82.9475 101.171 87.4624 101.171 89.8704 100.87C85.6565 103.887 82.3455 108.414 81.1415 113.846C80.5396 116.562 80.2386 119.58 80.5396 122.597C80.8406 125.615 81.4425 128.331 82.6465 130.745C85.3555 137.686 90.7734 142.515 97.9972 144.024C100.104 144.627 102.211 144.929 104.318 144.929C107.629 144.929 110.94 144.325 114.251 143.118C114.552 143.118 114.853 142.816 115.154 142.816C117.562 144.024 120.271 144.627 123.281 144.929C123.883 144.929 124.786 144.929 125.388 144.929C127.194 144.929 129 144.627 130.806 144.325C132.01 144.929 133.515 144.929 135.019 145.231H142.544C143.146 145.231 143.447 145.231 144.049 145.231C144.651 145.231 145.554 145.532 146.457 145.532L154.584 145.231C156.39 145.231 157.895 144.929 159.701 144.024C160.002 144.024 160.604 144.325 160.905 144.325C163.012 144.929 165.119 144.929 167.226 144.929C172.343 144.929 177.159 143.42 181.975 140.402C184.383 142.213 186.79 143.42 189.8 144.024C191.907 144.627 194.014 144.627 196.121 144.627C198.228 144.627 200.335 144.325 202.442 143.722C203.044 144.024 203.947 144.024 204.85 144.024L211.773 144.627C212.074 144.627 212.676 144.627 212.977 144.627C214.181 144.627 215.385 144.325 216.288 144.024C217.492 144.325 218.395 144.627 219.599 144.627C219.9 144.627 220.502 144.627 220.803 144.627L227.726 144.024C228.93 144.024 229.833 143.722 231.037 143.42C232.542 144.024 234.348 144.325 236.153 144.325C236.755 144.325 237.658 144.325 238.26 144.325C243.377 144.325 247.892 142.515 251.504 139.497C253.912 141.609 256.922 142.816 260.233 143.722C262.34 144.325 264.447 144.325 266.554 144.325C268.962 144.325 271.37 144.024 273.778 143.42C275.283 144.024 276.788 144.325 278.293 144.325C278.293 144.325 289.429 144.325 291.837 144.325C292.439 144.325 293.342 144.627 293.944 144.627H302.071C303.877 144.627 305.683 144.325 307.188 143.42C307.489 143.42 308.091 143.722 308.392 143.722C310.499 144.325 312.606 144.627 314.713 144.627C318.024 144.627 321.335 144.024 324.646 142.816C324.947 142.816 325.248 142.515 325.549 142.515C326.753 143.118 328.258 143.722 329.763 144.024C332.472 144.627 335.181 144.929 337.588 144.929C339.394 144.929 340.899 144.627 342.404 144.325C343.006 144.325 343.307 144.024 343.608 144.024C343.608 144.024 345.113 143.42 347.521 142.515C348.123 142.213 348.725 142.213 349.327 141.911C351.434 143.722 354.444 144.627 357.153 144.627H365.28C367.086 144.627 368.892 144.325 370.397 143.42C370.698 143.42 371.3 143.722 371.601 143.722C373.708 144.325 375.815 144.627 377.922 144.627C380.33 144.627 382.738 144.325 385.146 143.722C386.35 144.024 387.553 144.325 388.757 144.325L396.282 144.627C396.583 144.627 396.884 144.627 397.185 144.627C398.389 145.231 399.894 145.231 401.399 145.231C401.7 145.231 402.302 145.231 402.603 145.231C403.506 145.231 404.409 144.929 405.312 144.627H422.168C423.673 144.627 425.479 144.325 426.984 143.722C427.285 143.722 427.887 144.024 428.188 144.024C430.897 144.627 433.606 144.929 436.014 144.929C437.819 144.929 439.324 144.627 440.829 144.325C441.431 144.325 441.732 144.024 442.033 144.024C442.033 144.024 443.538 143.42 445.946 142.515C447.752 141.911 448.956 141.308 450.16 140.402C452.568 143.118 455.879 144.325 459.491 144.325H467.618C468.521 144.325 469.424 144.325 470.327 144.024C471.23 144.325 472.133 144.325 473.036 144.325H480.561C481.163 144.325 481.464 144.325 482.066 144.325C482.668 144.325 483.571 144.627 484.474 144.627L492.6 144.325C494.105 144.325 495.911 144.023 497.416 143.118C497.717 143.118 498.018 143.42 498.319 143.42C501.028 144.024 503.737 144.325 506.145 144.325C507.951 144.325 509.456 144.024 510.961 143.722C511.563 143.722 511.864 143.42 512.466 143.42C512.466 143.42 512.767 143.42 513.369 143.118C514.874 143.722 516.68 144.024 518.486 144.024H526.613C528.419 144.024 530.225 143.722 532.031 142.816C533.235 143.118 534.74 143.722 535.944 143.722L549.488 144.024C549.789 144.024 550.391 144.024 550.692 144.024C551.595 144.024 552.498 143.722 553.401 143.42C553.702 143.42 554.003 143.42 554.605 143.722L561.528 144.325C561.829 144.325 562.431 144.325 562.732 144.325C563.936 144.325 565.14 144.024 566.043 143.722C567.247 144.024 568.15 144.325 569.354 144.325C569.655 144.325 570.257 144.325 570.558 144.325L577.481 143.722C578.685 143.722 579.588 143.42 580.491 143.118C581.996 143.722 583.802 144.325 585.608 144.325L593.433 144.024C594.637 144.024 595.841 143.722 596.744 143.42C597.647 143.722 598.55 143.722 599.754 144.024C599.754 144.024 602.764 144.024 605.172 144.325C607.881 148.55 612.396 151.266 618.115 151.266C622.329 151.266 626.543 149.455 629.553 145.834C630.456 144.929 631.058 144.023 631.66 143.118C632.864 142.515 633.767 141.911 634.67 141.308C636.476 142.213 638.282 143.118 640.388 143.722C643.097 144.325 645.806 144.627 648.214 144.627C650.02 144.627 651.525 144.325 653.03 144.024C653.632 144.024 653.933 143.722 654.234 143.722C654.234 143.722 654.836 143.42 655.438 143.42C656.943 144.024 658.749 144.325 660.555 144.325H668.682C669.585 144.325 670.488 144.325 671.09 144.024C672.294 144.325 673.799 144.627 675.304 144.627C679.819 144.627 684.334 142.515 687.645 138.592C690.354 135.272 691.858 131.349 691.858 127.426C691.858 126.219 691.858 125.012 691.557 124.106C691.557 123.503 691.557 123.201 691.557 122.597L691.858 108.112C691.858 105.396 691.256 102.982 689.752 100.87C691.858 100.87 693.965 100.87 693.965 100.87C694.567 100.87 694.868 100.87 695.47 100.87C696.072 100.87 696.975 101.171 697.878 101.171L706.005 100.87C706.607 100.87 707.51 100.87 708.112 100.568L712.928 101.171C713.229 101.171 713.831 101.171 714.132 101.171C715.336 101.171 716.54 100.87 717.443 100.568C718.647 100.87 719.55 101.171 720.754 101.171C721.055 101.171 721.657 101.171 721.958 101.171L727.075 100.568C727.978 100.87 728.881 100.87 729.483 100.87L737.309 100.568C738.513 100.568 739.716 100.266 740.619 99.9643C741.522 100.266 742.425 100.266 743.629 100.568C743.629 100.568 751.756 100.87 752.057 100.87C755.368 100.87 758.679 99.3608 761.087 96.9466C763.495 94.2306 765 90.9111 764.699 87.2898L763.796 65.562ZM399.292 97.2484C398.991 97.2484 398.991 97.2484 398.69 97.2484L398.991 96.9466C398.991 96.9466 398.991 97.2484 399.292 97.2484Z" fill="white"/>
<path d="M113.348 129.538C113.348 129.84 112.144 130.443 109.736 131.349C106.726 132.556 103.716 132.556 101.007 131.952C97.9973 131.047 95.8903 129.236 94.6863 126.219C94.0843 125.011 93.7833 123.503 93.4823 121.692C93.1813 120.183 93.4823 118.674 93.7833 117.467C94.6863 114.148 96.4923 112.035 99.2012 110.828C101.308 109.923 104.318 109.621 107.629 109.923C108.833 110.225 110.338 110.526 112.144 110.828L110.037 117.467C109.736 117.165 109.134 116.864 108.532 116.562C107.027 115.958 105.823 115.958 104.619 116.562C103.716 116.864 102.813 117.467 102.211 118.372C101.308 119.278 101.007 120.485 101.308 121.692C101.609 123.503 102.512 124.71 103.716 125.011C104.92 125.313 106.726 124.71 108.833 123.503L113.348 129.538Z" fill="#F287B7"/>
<path d="M132.612 125.013C132.612 126.823 132.01 128.332 130.806 129.841C129.301 131.652 127.194 132.557 124.485 132.255C120.873 131.953 118.465 130.445 117.261 128.332C116.659 127.427 116.358 126.22 116.057 125.013L115.154 110.527L122.679 110.226L123.281 123.806C123.582 125.013 124.184 125.616 125.087 125.616C125.99 125.616 126.592 124.711 126.592 123.504V110.226L133.515 110.527L132.612 125.013ZM126.893 104.794L125.388 107.811L118.164 104.19L119.669 100.267L126.893 104.794Z" fill="#F287B7"/>
<path d="M146.156 110.225L153.079 110.829L153.982 132.556L146.156 132.858L141.942 122.296L142.243 132.556H135.02L136.224 110.225L142.845 110.829L146.457 120.184L146.156 110.225Z" fill="#F287B7"/>
<path d="M175.353 129.539C171.44 132.255 167.527 133.161 163.313 131.953C160.303 131.048 158.196 129.237 156.992 126.521C156.39 125.314 156.089 123.805 155.788 122.297C155.788 119.581 156.089 117.468 156.39 116.261C157.293 113.847 158.798 111.734 161.507 109.924C164.216 108.717 167.226 108.717 170.537 109.32C171.741 109.622 173.246 110.226 174.45 110.829L172.343 117.468C172.042 117.166 171.44 116.865 170.838 116.563C169.333 115.959 168.129 115.959 166.925 116.563C166.022 116.865 165.119 117.468 164.517 118.374C163.915 119.279 163.614 120.486 163.614 121.693C163.915 124.711 165.42 125.616 168.129 125.013L167.828 121.391C168.129 121.391 168.43 121.391 168.731 121.09L173.848 120.184L175.353 129.539Z" fill="#F287B7"/>
<path d="M204.248 129.539C200.335 132.255 196.422 133.161 192.208 131.953C189.198 131.048 187.091 129.237 185.888 126.521C185.286 125.314 184.985 123.805 184.684 122.297C184.684 119.581 184.985 117.468 185.286 116.261C186.189 113.847 187.693 111.734 190.402 109.924C193.111 108.717 196.121 108.717 199.432 109.32C200.636 109.622 202.141 110.226 203.345 110.829L201.238 117.468C200.937 117.166 200.335 116.865 199.733 116.563C198.228 115.959 197.024 115.959 195.82 116.563C194.917 116.865 194.014 117.468 193.412 118.374C192.81 119.279 192.509 120.486 192.509 121.693C192.81 124.711 194.315 125.616 197.024 125.013L196.723 121.391C197.024 121.391 197.325 121.391 197.626 121.09L202.743 120.184L204.248 129.539Z" fill="#F287B7"/>
<path d="M205.452 131.953L210.87 110.225H220.803L226.221 132.255L219.298 132.858L218.395 128.633H213.278L212.375 132.858L205.452 131.953ZM215.987 106L212.676 108.414L209.365 106.604L214.482 102.077H217.492L222.91 106.302L219.298 108.414L215.987 106ZM214.181 100.87L212.375 98.1541L218.997 93.6274L221.706 96.6452L214.181 100.87ZM217.191 122.598L215.686 115.959L214.482 122.9L217.191 122.598Z" fill="#F287B7"/>
<path d="M244.882 125.012C244.882 126.823 244.28 128.332 243.076 129.84C241.571 131.651 239.464 132.556 236.755 132.255C233.144 131.953 230.736 130.444 229.532 128.332C228.93 127.426 228.629 126.219 228.328 125.012L227.425 110.527L234.95 110.225L235.552 123.805C235.853 125.012 236.454 125.616 237.357 125.616C238.26 125.616 238.862 124.71 238.862 123.503V110.225L245.785 110.527L244.882 125.012Z" fill="#F287B7"/>
<path d="M274.38 129.539C270.467 132.255 266.554 133.161 262.34 131.953C259.33 131.048 257.223 129.237 256.019 126.521C255.417 125.314 255.116 123.805 254.815 122.297C254.815 119.581 255.116 117.468 255.417 116.261C256.32 113.847 257.825 111.734 260.534 109.924C263.243 108.717 266.253 108.717 269.564 109.32C270.768 109.622 272.273 110.226 273.477 110.829L271.37 117.468C271.069 117.166 270.467 116.865 269.865 116.563C268.36 115.959 267.156 115.959 265.952 116.563C265.049 116.865 264.146 117.468 263.544 118.374C262.942 119.279 262.641 120.486 262.641 121.693C262.942 124.711 264.447 125.616 267.156 125.013L266.855 121.391C267.156 121.391 267.457 121.391 267.758 121.09L272.875 120.184L274.38 129.539Z" fill="#F287B7"/>
<path d="M277.39 132.254L277.089 109.621L284.313 109.923L284.915 125.313H290.332L291.235 131.952L277.39 132.254Z" fill="#F287B7"/>
<path d="M301.168 132.556H293.041L294.245 110.527L300.867 110.225L301.168 132.556Z" fill="#F287B7"/>
<path d="M322.84 129.538C322.84 129.84 321.636 130.443 319.228 131.349C316.218 132.556 313.208 132.556 310.499 131.952C307.489 131.047 305.382 129.236 304.178 126.219C303.576 125.011 303.275 123.503 302.974 121.692C302.673 120.183 302.974 118.674 303.275 117.467C304.178 114.148 305.984 112.035 308.693 110.828C310.8 109.923 313.81 109.621 317.121 109.923C318.325 110.225 319.83 110.526 321.636 110.828L319.529 117.467C319.228 117.165 318.626 116.864 318.024 116.562C316.519 115.958 315.315 115.958 314.111 116.562C313.208 116.864 312.305 117.467 311.703 118.372C311.101 119.278 310.8 120.485 310.8 121.692C311.101 123.503 312.004 124.71 313.208 125.011C314.412 125.313 316.218 124.71 318.325 123.503L322.84 129.538Z" fill="#F287B7"/>
<path d="M338.792 132.557C336.987 132.858 334.579 132.858 331.569 132.255C328.559 131.35 326.452 129.539 325.248 126.521C324.646 125.314 324.345 123.805 324.044 121.995C323.743 120.486 324.044 118.977 324.345 117.77C325.248 114.45 327.054 112.338 329.763 111.131C333.977 109.32 337.589 109.018 340.598 109.924C343.006 110.829 344.812 112.338 346.317 114.752C346.618 115.657 346.919 116.864 347.22 118.071C347.822 120.787 347.521 123.503 346.618 126.521C346.016 128.03 345.414 129.539 344.511 130.444C343.909 131.048 343.307 131.35 343.006 131.35C340.297 131.953 339.093 132.557 338.792 132.557ZM332.773 118.373C332.171 119.279 331.87 120.486 331.87 121.693C332.171 123.503 332.773 124.711 333.977 125.012C334.88 125.314 335.783 125.314 337.589 125.012C338.792 124.711 339.695 124.107 340.297 123.202C340.899 122.296 340.899 121.089 340.598 118.977C340.297 117.77 339.695 116.864 338.792 116.261C337.89 115.959 336.686 115.959 335.181 116.261C334.278 116.864 333.375 117.468 332.773 118.373Z" fill="#F287B7"/>
<path d="M364.678 132.556H356.551L357.755 110.527L364.377 110.225L364.678 132.556Z" fill="#F287B7"/>
<path d="M386.35 129.538C386.35 129.84 385.146 130.443 382.738 131.349C379.728 132.556 376.718 132.556 374.009 131.952C370.999 131.047 368.892 129.236 367.688 126.219C367.086 125.011 366.785 123.503 366.484 121.692C366.183 120.183 366.484 118.674 366.785 117.467C367.688 114.148 369.494 112.035 372.203 110.828C374.31 109.923 377.32 109.621 380.631 109.923C381.835 110.225 383.34 110.526 385.146 110.828L383.039 117.467C382.738 117.165 382.136 116.864 381.534 116.562C380.029 115.958 378.825 115.958 377.621 116.562C376.718 116.864 375.815 117.467 375.213 118.372C374.611 119.278 374.31 120.485 374.31 121.692C374.611 123.503 375.514 124.71 376.718 125.011C377.922 125.313 379.728 124.71 381.835 123.503L386.35 129.538Z" fill="#F287B7"/>
<path d="M405.011 128.029L400.797 133.159L395.68 128.935V132.556L388.457 132.254L389.058 110.224L394.476 109.923C398.69 109.621 401.7 110.828 403.506 113.544C404.108 114.751 404.409 116.562 404.409 118.976C404.409 121.994 403.205 124.106 401.7 125.313L405.011 128.029ZM398.389 117.165C397.787 116.26 397.185 115.656 395.68 115.355V120.787H395.981H396.282C397.787 120.485 398.389 119.278 398.389 117.165Z" fill="#F287B7"/>
<path d="M421.566 132.255H405.312L406.215 110.225H421.265L420.964 113.545C420.964 115.053 420.964 116.261 420.964 116.562H413.439V118.675H419.158L418.556 124.107L413.138 124.409V126.219H415.245C416.148 126.219 416.75 126.219 417.051 126.219C419.76 126.219 421.265 126.219 421.265 126.219L421.566 132.255Z" fill="#F287B7"/>
<path d="M437.82 132.557C436.014 132.858 433.606 132.858 430.596 132.255C427.586 131.35 425.479 129.539 424.275 126.521C423.673 125.314 423.372 123.805 423.071 121.995C422.77 120.486 423.071 118.977 423.372 117.77C424.275 114.45 426.081 112.338 428.79 111.131C433.004 109.32 436.616 109.018 439.625 109.924C442.033 110.829 443.839 112.338 445.344 114.752C445.645 115.657 445.946 116.864 446.247 118.071C446.849 120.787 446.548 123.503 445.645 126.521C445.043 128.03 444.441 129.539 443.538 130.444C442.936 131.048 442.334 131.35 442.033 131.35C439.324 131.953 437.82 132.557 437.82 132.557ZM431.8 118.373C431.198 119.279 430.897 120.486 430.897 121.693C431.198 123.503 431.8 124.711 433.004 125.012C433.907 125.314 434.81 125.314 436.616 125.012C437.82 124.711 438.723 124.107 439.325 123.202C439.926 122.296 439.926 121.089 439.625 118.977C439.324 117.77 438.723 116.864 437.82 116.261C436.917 115.959 435.713 115.959 434.208 116.261C433.004 116.864 432.101 117.468 431.8 118.373Z" fill="#F287B7"/>
<path d="M470.026 114.45L467.016 114.752V132.557H458.889L460.093 115.054L455.277 115.356L455.578 109.924L469.725 109.32L470.026 114.45Z" fill="#F287B7"/>
<path d="M484.173 110.225L491.095 110.829L491.998 132.556L484.173 132.858V124.107H480.561L480.26 132.858H473.036L474.24 110.527L480.862 111.13V119.278H484.173V110.225Z" fill="#F287B7"/>
<path d="M507.951 132.556C506.145 132.858 503.737 132.858 500.727 132.254C497.717 131.349 495.61 129.538 494.406 126.52C493.804 125.313 493.503 123.804 493.202 121.994C492.901 120.485 493.202 118.976 493.503 117.769C494.406 114.449 496.212 112.337 498.921 111.13C503.135 109.319 506.747 109.017 509.757 109.923C512.165 110.828 513.971 112.337 515.476 114.751C515.777 115.657 516.078 116.864 516.379 118.071C516.981 120.787 516.68 123.503 515.777 126.52C515.175 128.029 514.573 129.538 513.67 130.444C513.068 131.047 512.466 131.349 512.165 131.349C509.456 131.952 507.951 132.556 507.951 132.556ZM504.941 105.698L501.63 108.414L498.018 106.603L503.135 102.077H506.145L511.563 106.302L507.951 108.414L504.941 105.698ZM501.931 118.373C501.329 119.278 501.028 120.485 501.028 121.692C501.329 123.503 501.931 124.71 503.135 125.012C504.038 125.313 504.941 125.313 506.747 125.012C507.951 124.71 508.854 124.106 509.456 123.201C510.058 122.296 510.058 121.088 509.757 118.976C509.456 117.769 508.854 116.864 507.951 116.26C507.048 115.958 505.844 115.958 504.339 116.26C503.135 116.864 502.533 117.467 501.931 118.373Z" fill="#F287B7"/>
<path d="M526.312 132.556H518.185L519.389 110.527L526.011 110.225L526.312 132.556Z" fill="#F287B7"/>
<path d="M536.546 110.225L545.876 109.923C547.08 109.923 547.983 110.225 548.886 110.527C550.993 111.432 552.197 112.639 552.498 114.752C552.799 116.261 552.498 118.071 551.896 119.278C551.595 119.882 551.294 120.485 550.692 121.089C553.1 122.9 554.003 125.012 553.702 127.728C553.401 129.539 552.498 131.048 550.993 131.651C550.391 131.953 549.789 132.255 548.886 132.255L535.643 131.953L536.546 110.225ZM542.565 127.728H545.876C547.08 127.728 547.682 127.125 547.682 126.521C547.381 125.314 546.779 124.409 545.876 124.409L542.565 124.107V127.728ZM543.167 117.468H545.575C546.478 117.468 547.08 116.864 547.381 115.657C547.381 114.752 546.478 114.148 545.575 113.846H543.468L543.167 117.468Z" fill="#F287B7"/>
<path d="M555.207 131.953L560.625 110.225H570.558L575.976 132.255L569.053 132.858L568.15 128.633H563.033L562.13 132.858L555.207 131.953ZM566.946 122.598L565.441 115.959L564.237 122.9L566.946 122.598Z" fill="#F287B7"/>
<path d="M600.356 110.527L606.978 109.923L608.182 132.255L600.356 131.953V123.805L598.55 129.237H594.938L592.831 124.107V132.556L585.307 132.858L586.21 111.13L593.132 110.527L596.744 119.278L600.356 110.527Z" fill="#F287B7"/>
<path d="M626.242 132.255H609.988L610.891 110.225H625.941L625.64 113.545C625.64 115.053 625.64 116.261 625.64 116.562H618.115V118.675H623.834L623.232 124.107L617.814 124.409V126.219H619.921C620.824 126.219 621.426 126.219 621.727 126.219C624.436 126.219 625.941 126.219 625.941 126.219L626.242 132.255ZM616.309 135.272C616.61 134.669 617.212 134.367 617.814 134.367C618.416 134.367 619.018 134.367 619.62 134.971C620.222 135.272 620.523 135.876 620.523 136.48C620.523 137.083 620.222 137.687 619.62 138.29C619.018 138.894 618.416 139.196 617.814 139.196C616.309 139.196 615.707 138.592 615.707 137.083C615.707 136.48 616.008 135.876 616.309 135.272Z" fill="#F287B7"/>
<path d="M657.545 114.45C657.846 115.356 658.147 116.563 658.448 117.77C659.05 120.486 658.749 123.202 657.846 126.219C657.244 127.728 656.642 129.237 655.739 130.143C655.137 130.746 654.535 131.048 654.234 131.048C651.525 131.953 650.02 132.557 650.02 132.557C648.214 132.858 645.806 132.858 642.796 132.255C639.787 131.35 637.68 129.539 636.476 126.521C635.874 125.314 635.573 123.805 635.272 121.995C634.971 120.486 635.272 118.977 635.573 117.77C636.476 114.45 638.282 112.338 640.991 111.131C645.204 109.32 648.816 109.018 651.826 109.924C652.428 110.225 653.03 110.527 653.632 110.829H653.933C654.535 110.829 654.836 110.527 654.836 110.225C654.836 109.924 654.535 109.32 653.933 108.415L656.341 106C656.642 106 657.244 106.604 657.545 107.509C658.147 108.716 658.448 109.924 658.147 111.131C657.846 112.338 657.244 113.243 656.341 113.847C657.244 113.847 657.244 114.148 657.545 114.45ZM643.399 121.693C643.7 123.503 644.301 124.711 645.505 125.012C646.408 125.314 647.311 125.314 649.117 125.012C650.321 124.711 651.224 124.107 651.826 123.202C652.428 122.296 652.428 121.089 652.127 118.977C651.826 117.77 651.224 116.864 650.321 116.261C649.418 115.959 648.214 115.959 646.709 116.261C645.806 116.563 644.903 117.166 644.301 118.071C643.398 119.279 643.098 120.486 643.399 121.693Z" fill="#F287B7"/>
<path d="M668.08 132.556H659.953L661.157 110.527L667.779 110.225L668.08 132.556Z" fill="#F287B7"/>
<path d="M671.391 129.539C671.391 128.332 671.692 127.426 672.294 126.521C672.896 125.616 673.799 125.314 674.702 125.314C675.906 125.314 676.809 125.616 677.411 125.917C678.314 126.521 678.615 127.125 678.615 128.03C678.615 128.935 678.314 130.142 677.411 131.048C676.508 131.953 675.605 132.557 674.702 132.557C672.595 132.557 671.391 131.651 671.391 129.539ZM678.916 108.716L671.692 109.622V123.202H678.314L678.916 108.716Z" fill="#F287B7"/>
<path d="M20.9427 66.4678L27.5646 66.7695L27.8656 71.8997L34.1865 66.4678C35.0895 67.6749 35.9924 68.5802 36.5944 69.1837C38.0994 70.9944 39.0024 71.8997 39.0024 71.8997L31.4775 78.5388L39.3034 84.5743C38.7014 85.1778 37.7984 86.0832 36.8954 86.9885C35.0895 88.4974 34.1865 89.4027 34.4875 89.4027L28.7686 85.1778V88.4974H20.9427V66.4678Z" fill="#F287B7"/>
<path d="M51.3431 66.4678L58.266 67.0713L59.169 88.7991L51.3431 89.1009V80.3494H47.7312L47.4302 89.1009H40.2064L41.4103 66.7695L48.0322 67.3731V75.521H51.3431V66.4678Z" fill="#F287B7"/>
<path d="M60.674 88.4969L66.0919 66.7691H76.0247L81.4426 88.7987L74.2187 89.1005L73.3158 84.8756H68.1989L67.2959 89.1005L60.674 88.4969ZM69.4028 64.0532L67.8979 61.3372L74.5197 56.8105L77.2287 59.8283L69.4028 64.0532ZM72.1118 78.8401L70.6068 72.2011L69.4028 79.1419L72.1118 78.8401Z" fill="#F287B7"/>
<path d="M97.9972 66.7696L104.619 66.166L105.823 88.4974H97.9972V80.3494L96.4923 85.4796H92.8804L90.7734 80.3494V88.7991H83.2485L84.1515 67.0713L91.0744 66.4678L94.6863 75.2193L97.9972 66.7696Z" fill="#F287B7"/>
<path d="M123.582 83.9703V88.4969H115.756L116.96 65.562L122.378 65.8638C126.592 66.1656 129.602 67.6744 131.107 70.0886C131.408 70.994 131.709 71.5975 131.709 72.5028C132.01 74.6153 132.01 76.7277 131.408 78.8401C130.806 80.9525 129.903 82.1597 128.699 82.4614C126.291 83.6685 124.485 83.9703 123.582 83.9703ZM126.592 74.0117C125.99 72.8046 124.786 72.2011 123.582 71.8993V78.5384C123.883 78.5384 124.184 78.5384 124.485 78.2366C126.291 77.633 126.893 76.4259 126.592 74.0117Z" fill="#F287B7"/>
<path d="M144.952 66.4678L151.875 67.0713L152.778 88.7991L144.952 89.1009V80.3494H141.34L141.039 89.1009H133.816L135.02 66.7695L141.641 67.3731V75.521H144.952V66.4678Z" fill="#F287B7"/>
<path d="M154.283 88.4969L159.701 66.7691H169.634L175.052 88.7987L168.129 89.4023L167.226 85.1774H162.109L161.206 89.4023L154.283 88.4969ZM163.012 64.0531L161.507 61.3372L168.129 56.8105L170.838 59.8283L163.012 64.0531ZM165.721 78.8401L164.517 72.2011L163.313 79.1419L165.721 78.8401Z" fill="#F287B7"/>
<path d="M544.07 66.7696L550.692 66.166L551.896 88.4974L544.07 88.1956V80.0477L542.264 85.4796H538.653L536.546 80.3494V88.7992L529.021 89.1009L529.924 67.3731L536.847 66.7696L540.458 75.521L544.07 66.7696Z" fill="#F287B7"/>
<path d="M571.762 81.2549C571.762 83.0655 571.16 84.5744 569.956 86.0833C568.451 87.8939 566.344 88.7992 563.635 88.4975C560.023 88.1957 557.615 86.6868 556.411 84.5744C555.809 83.6691 555.508 82.462 555.207 81.2549L554.304 66.7696L561.829 66.4679L562.431 80.0478C562.732 81.2549 563.334 81.8584 564.237 81.8584C565.14 81.8584 565.742 80.9531 565.742 79.746V66.4679L572.665 66.7696L571.762 81.2549ZM566.043 61.0359L564.538 63.7519L557.314 60.1306L558.819 56.2075L566.043 61.0359Z" fill="#F287B7"/>
<path d="M573.568 88.4973L578.986 66.7695H588.919L594.336 88.7991L587.414 89.4027L586.511 85.1778H581.394L580.491 89.4027L573.568 88.4973ZM585.307 78.8405L583.802 72.2015L582.598 79.1423L585.307 78.8405Z" fill="#F287B7"/>
<path d="M622.63 85.7808C622.63 86.0826 621.426 86.6861 619.018 87.5914C616.008 88.7985 612.998 88.7985 610.289 88.195C607.279 87.2897 605.172 85.479 603.968 82.4613C603.366 81.2542 603.065 79.7453 602.764 77.9346C602.463 76.4258 602.764 74.9169 603.065 73.7098C603.968 70.3903 605.774 68.2778 608.483 67.0707C610.59 66.1654 613.6 65.8636 616.911 66.1654C618.115 66.4672 619.62 66.769 621.426 67.0707L619.319 73.7098C619.018 73.408 618.416 73.1062 617.814 72.8045C616.309 72.2009 615.105 72.2009 613.901 72.8045C612.998 73.1062 612.095 73.7098 611.493 74.6151C610.891 75.5204 610.59 76.7275 610.59 77.9346C610.891 79.7453 611.794 80.9524 612.998 81.2542C614.202 81.5559 616.008 80.9524 618.115 79.7453L622.63 85.7808Z" fill="#F287B7"/>
<path d="M641.893 81.2548C641.893 83.0654 641.291 84.5743 640.087 86.0832C638.582 87.8938 636.475 88.7991 633.767 88.4974C630.155 88.1956 627.747 86.6867 626.543 84.5743C625.941 83.669 625.64 82.4619 625.339 81.2548L624.436 66.7695L631.961 66.4678L632.563 80.0477C632.864 81.2548 633.466 81.8583 634.369 81.8583C635.272 81.8583 635.874 80.953 635.874 79.7459V66.4678L642.796 66.7695L641.893 81.2548Z" fill="#F287B7"/>
<path d="M658.448 88.7991C656.642 89.1009 654.234 89.1009 651.224 88.4973C648.214 87.592 646.107 85.7814 644.903 82.7636C644.301 81.5565 644 80.0476 643.699 78.237C643.398 76.7281 643.699 75.2192 644 74.0121C644.903 70.6926 646.709 68.5802 649.418 67.3731C653.632 65.5624 657.244 65.2607 660.254 66.166C662.662 67.0713 664.468 68.5802 665.973 70.9944C666.274 71.8997 666.575 73.1068 666.876 74.3139C667.478 77.0299 667.177 79.7459 666.274 82.7636C665.672 84.2725 665.07 85.7814 664.167 86.6867C663.565 87.2902 662.963 87.592 662.662 87.592C659.953 88.1956 658.749 88.7991 658.448 88.7991ZM655.438 61.9411L652.127 64.6571L648.515 62.8464L653.632 58.3198H656.642L662.06 62.5447L658.448 64.6571L655.438 61.9411ZM652.428 74.6157C651.826 75.521 651.525 76.7281 651.525 77.9352C651.826 79.7459 652.428 80.953 653.632 81.2547C654.535 81.5565 655.438 81.5565 657.244 81.2547C658.448 80.953 659.351 80.3494 659.953 79.4441C660.555 78.5388 660.555 77.3317 660.254 75.2192C659.953 74.0121 659.351 73.1068 658.448 72.5033C657.545 72.2015 656.341 72.2015 654.836 72.5033C653.933 73.1068 653.03 73.7104 652.428 74.6157ZM654.535 57.1127L652.729 54.3967L659.351 49.8701L662.06 52.8879L654.535 57.1127Z" fill="#F287B7"/>
<path d="M676.809 88.7991H668.682L669.886 66.7695L676.508 66.4678L676.809 88.7991Z" fill="#F287B7"/>
<path d="M697.878 66.4678L704.801 67.0713L705.704 88.7991L697.878 89.1009L693.664 78.5388L693.965 88.7991H686.742L687.946 66.4678L694.567 67.0713L698.179 76.4263L697.878 66.4678Z" fill="#F287B7"/>
<path d="M706.908 88.4979L712.326 66.77H722.259L727.677 88.7996L720.754 89.4032L719.851 85.1783H714.734L713.831 89.4032L706.908 88.4979ZM714.433 58.6221C714.433 59.2257 714.734 59.8292 715.336 60.131C715.938 60.4328 716.54 60.7345 717.142 60.7345C717.744 60.7345 718.346 60.4328 718.948 60.131C719.55 59.5274 719.851 58.9239 720.152 58.0186L721.657 58.6221C721.657 60.4328 721.356 61.6399 720.453 62.847C719.55 63.7523 718.346 64.3558 717.142 64.3558C715.938 64.3558 714.734 64.0541 713.831 63.1487C712.928 62.2434 712.627 61.0363 712.627 59.5274L714.433 58.6221ZM718.647 78.841L717.142 72.202L715.938 79.1428L718.647 78.841Z" fill="#F287B7"/>
<path d="M744.532 66.7696L751.154 66.166L752.358 88.4974L744.532 88.1956V80.0477L742.726 85.4796H739.114L737.008 80.3494V88.7992L729.483 89.1009L730.386 67.3731L737.309 66.7696L740.92 75.521L744.532 66.7696Z" fill="#F287B7"/>
<path d="M197.325 68.8817L197.024 67.9764C196.723 66.7693 196.723 65.8639 196.723 64.6568C197.024 61.3373 198.529 58.6213 201.539 56.8107C203.947 55.3018 206.957 54.6983 211.171 54.3965C212.977 54.3965 215.084 54.3965 216.589 54.3965L215.987 66.1657C216.288 65.8639 215.987 65.8639 215.084 65.2604C214.181 64.6568 213.278 64.3551 212.074 64.0533C208.763 63.4497 207.258 64.3551 207.258 66.4675C207.258 67.071 207.559 67.6746 208.763 68.2781L212.676 70.3906C216.589 72.503 218.696 74.9172 218.696 77.6332C218.696 78.8403 218.395 79.7456 218.395 80.6509C217.793 82.7633 216.589 84.574 215.084 85.7811C211.773 88.1953 207.559 89.1006 202.442 88.4971C200.636 88.7988 199.131 88.4971 197.626 88.1953C196.422 87.8935 195.82 87.5918 196.121 87.29L196.723 79.7456C197.626 80.0474 198.529 80.0474 199.733 80.3491C201.84 80.6509 203.646 80.3491 205.151 79.4438C206.054 78.8403 206.054 78.2367 205.753 77.6332C205.452 77.3314 204.549 76.7278 203.345 75.8225C199.733 73.7101 197.626 71.5977 197.325 68.8817C197.325 69.1835 197.325 69.1835 197.325 68.8817Z" fill="#F287B7"/>
<path d="M234.649 88.7989H222.308L224.415 55L234.649 54.3965V88.7989Z" fill="#F287B7"/>
<path d="M262.641 88.4973H237.658L238.862 54.6985L262.039 54.3967L261.738 59.2251C261.738 61.6393 261.437 63.45 261.437 64.0535H249.999V67.0713H258.728L257.825 75.521L249.698 75.8227L249.397 78.5387H252.708C253.912 78.5387 255.116 78.5387 255.718 78.5387C260.233 78.5387 262.34 78.5387 262.34 78.5387L262.641 88.4973ZM249.999 47.4559L245.183 51.379L239.765 48.663L247.591 42.0239H252.106L260.233 48.3612L254.815 51.6807L249.999 47.4559Z" fill="#F287B7"/>
<path d="M292.439 77.3314C292.439 79.7456 291.536 82.1598 289.73 84.574C287.322 87.5918 284.012 88.7989 279.798 88.4971C274.38 87.8935 270.768 86.0829 268.36 82.4616C267.457 80.9527 266.855 79.142 266.554 77.3314L265.049 55L276.487 54.3965L277.691 75.219C277.992 77.3314 278.895 78.2367 280.4 77.9349C281.905 77.6332 282.507 76.7278 282.507 74.9172V54.3965L293.041 55L292.439 77.3314Z" fill="#F287B7"/>
<path d="M308.392 54.6983L322.84 54.0947C324.646 54.0947 326.151 54.3965 327.355 55C330.666 56.2072 332.472 58.3196 333.074 61.3373C333.676 63.7515 333.375 66.1657 332.171 68.5799C331.569 69.4853 330.967 70.3906 330.365 71.2959C333.977 74.0119 335.481 77.3314 334.879 81.2545C334.277 83.9705 333.074 86.0829 330.666 87.5918C329.763 88.1953 328.559 88.4971 327.355 88.4971L306.887 87.8935L308.392 54.6983ZM317.422 81.5563L322.539 81.2545C324.345 81.2545 325.248 80.6509 325.549 79.4438C325.248 77.3314 324.345 76.4261 322.84 76.1243L317.723 75.8225L317.422 81.5563ZM318.626 65.864H322.238C323.743 65.864 324.646 64.9586 324.947 63.148C324.646 61.6391 323.743 60.7338 321.937 60.432L318.626 60.7338V65.864Z" fill="#F287B7"/>
<path d="M337.287 88.1953L345.715 54.6983L360.765 54.3965L368.892 88.1953L358.357 89.1007L357.153 82.4616H349.327L348.123 89.1007L337.287 88.1953ZM353.24 47.7575L348.424 51.6805L343.006 48.9646L350.832 42.3255H355.347L363.474 48.6628L357.755 51.9823L353.24 47.7575ZM350.531 39.9113L347.822 35.6865L358.056 28.4438L362.27 33.2722L350.531 39.9113ZM355.046 73.7101L352.939 63.4498L351.133 74.0119L355.046 73.7101Z" fill="#F287B7"/>
<path d="M393.573 61.0356L389.058 61.3374L389.359 88.7989H377.019L378.825 61.9409L371.601 62.2427L371.902 54.0948L393.874 52.8877L393.573 61.0356Z" fill="#F287B7"/>
<path d="M425.78 54.3965L436.315 55.3018L437.819 88.4971L425.78 88.7989L419.459 72.8048L419.76 88.7989L408.623 88.4971L410.429 54.0947L420.362 55L426.081 69.1835L425.78 54.3965Z" fill="#F287B7"/>
<path d="M470.628 84.2724C464.608 88.4973 458.588 89.7044 452.267 88.1955C447.752 86.9884 444.441 84.2724 442.334 79.7458C441.431 77.6334 440.829 75.5209 440.528 73.1067C440.528 68.8819 440.829 65.8641 441.431 64.0535C442.635 60.4322 445.344 57.1127 449.257 54.3967C453.772 52.586 458.287 52.2842 463.103 53.4913C465.21 54.0949 467.016 54.6985 469.123 55.9056L466.113 66.1659C465.511 65.5624 464.608 64.9588 463.705 64.657C461.598 63.7517 459.491 63.7517 457.685 64.3553C456.18 64.9588 454.976 65.8641 454.073 67.0712C452.869 68.5801 452.568 70.3908 452.869 72.2014C453.471 76.728 455.879 78.2369 459.792 77.3316L459.19 71.8996C459.491 71.8996 460.093 71.8996 460.695 71.5979L468.822 70.089L470.628 84.2724Z" fill="#F287B7"/>
<path d="M507.048 61.0355C507.65 62.5443 508.252 64.355 508.553 66.1656C509.456 70.0887 509.155 74.3136 507.65 79.142C507.048 81.5562 505.844 83.6686 504.339 85.1775C503.135 86.0828 502.533 86.6863 502.232 86.6863C498.018 88.1952 495.911 89.1006 495.61 89.1006C492.6 89.7041 488.988 89.4023 484.775 88.497C480.26 87.2899 476.949 84.2721 474.842 79.7455C473.939 77.6331 473.337 75.5207 473.036 72.8047C472.735 70.3905 472.735 68.2781 473.337 66.1656C474.541 61.3372 477.25 58.0177 481.765 56.2071C488.085 53.4911 493.804 52.8875 498.319 54.3964C499.523 54.6982 500.426 55.3017 501.329 55.9053C501.63 55.9053 501.63 55.9053 501.931 55.9053C502.834 55.6035 503.135 55.3017 503.436 54.6982C503.436 54.0946 503.135 53.1893 502.232 51.6804L505.844 48.0591C506.446 48.0591 507.048 48.6627 507.951 50.4733C508.854 52.284 509.155 54.0946 508.854 55.9053C508.553 57.7159 507.65 58.923 506.145 60.1301C506.145 59.8284 506.446 60.4319 507.048 61.0355ZM495.309 46.2485L492.901 50.4733L481.765 44.7396L484.173 38.7041L495.309 46.2485ZM485.076 72.2011C485.377 74.9171 486.581 76.7278 488.085 77.3313C489.289 77.9349 491.095 77.9349 493.503 77.3313C495.61 76.7278 496.814 75.8224 497.416 74.6153C498.018 73.4082 498.319 71.2958 498.018 68.2781C497.717 66.1656 496.814 64.9585 495.008 64.355C493.503 63.7514 491.697 63.7514 489.59 64.355C488.085 64.9585 486.882 65.5621 485.979 67.071C485.076 68.2781 484.775 70.0887 485.076 72.2011Z" fill="#F287B7"/>
<path d="M508.252 19.6923C507.951 19.6923 507.65 19.6923 507.349 19.3905C507.048 19.0888 506.747 18.787 506.446 18.1834C506.446 17.8817 506.446 17.2781 506.747 16.9763L514.272 4.90533C514.573 4.30178 515.175 4 515.777 4C516.078 4 516.379 4 516.68 4.30178C517.282 4.60355 517.583 5.50888 517.583 6.11243C517.583 6.11243 517.282 6.4142 517.282 6.71598L509.757 18.787C509.155 19.3905 508.854 19.6923 508.252 19.6923Z" fill="#F287B7"/>
<path d="M523.302 29.3489C523.001 29.3489 522.399 29.0472 522.098 29.0472C521.797 28.7454 521.496 28.4436 521.496 27.8401C521.496 27.2365 521.496 26.9347 521.797 26.633L531.429 16.0708C531.73 15.7691 532.332 15.4673 532.633 15.4673C532.934 15.4673 533.536 15.7691 533.837 15.7691C534.439 16.0708 534.439 16.6744 534.439 17.2779C534.439 17.5797 534.138 17.8815 534.138 18.1833L524.807 28.7454C524.205 29.3489 523.603 29.3489 523.302 29.3489Z" fill="#73D1F6"/>
<path d="M526.613 43.2304C526.011 43.2304 525.409 42.9286 525.108 42.3251C524.807 42.0233 524.807 41.4197 525.108 41.118C525.409 40.8162 525.409 40.2126 526.011 40.2126L547.983 28.1416C548.284 28.1416 548.585 27.8398 548.886 27.8398C549.488 27.8398 550.09 28.1416 550.391 28.7452C550.692 29.0469 550.692 29.6505 550.692 29.9523C550.692 30.5558 550.391 30.8576 549.789 31.1594L527.817 43.2304C527.215 42.9286 526.914 43.2304 526.613 43.2304Z" fill="#F287B7"/>
<path d="M362.27 192.307C362.571 192.609 362.571 192.609 362.571 192.911C362.571 193.212 362.571 193.816 362.27 194.118C361.969 194.42 361.668 194.721 361.367 194.721L349.628 197.136C349.026 197.136 348.725 197.136 348.424 196.834C348.123 196.532 348.123 196.532 348.123 196.23C348.123 195.627 348.123 195.023 348.725 194.721C348.725 194.721 349.026 194.721 349.026 194.42L360.765 192.005C361.367 192.005 361.668 192.005 362.27 192.307Z" fill="#F287B7"/>
<path d="M358.658 176.917C358.658 177.219 358.658 177.521 358.658 177.823C358.357 178.124 358.056 178.426 357.755 178.426C357.454 178.426 357.153 178.426 356.551 178.426L346.016 173.296C345.715 172.994 345.414 172.692 345.414 172.391C345.414 172.089 345.414 171.787 345.414 171.485C345.715 170.882 346.016 170.58 346.618 170.58C346.919 170.58 347.22 170.58 347.22 170.58L357.755 175.71C358.357 176.012 358.658 176.314 358.658 176.917Z" fill="#73D1F6"/>
<path d="M368.892 170.58C368.892 171.184 368.892 171.485 368.591 172.089C368.29 172.391 367.989 172.391 367.688 172.391C367.387 172.391 367.086 172.391 366.785 172.089L351.735 157.302C351.434 157 351.434 157 351.434 156.698C351.434 156.095 351.434 155.793 351.735 155.189C352.036 154.888 352.337 154.888 352.638 154.888C352.939 154.888 353.541 154.888 353.842 155.189L368.892 169.976C368.892 170.278 368.892 170.58 368.892 170.58Z" fill="#F287B7"/>
<path d="M57.965 143.721C57.664 144.023 57.664 144.627 57.965 145.23C58.266 145.834 58.567 146.135 59.169 146.437C59.47 146.437 59.771 146.437 60.072 146.437L73.3157 141.609C73.6167 141.609 73.9177 141.307 74.2187 140.704C74.5197 140.402 74.5197 139.798 74.2187 139.195C73.9177 138.893 73.6167 138.289 73.3157 138.289C73.0147 137.988 72.4127 137.988 72.1117 138.289L58.868 143.118C58.567 143.118 58.266 143.419 57.965 143.721Z" fill="#73D1F6"/>
<path d="M63.0819 163.036C62.7809 163.64 62.7809 164.243 63.3829 164.847C63.6839 165.149 63.9849 165.45 64.2859 165.45C64.8879 165.45 65.1889 165.45 65.4899 165.149L85.0545 149.456C85.3555 149.456 85.3555 149.154 85.3555 148.853C85.6565 148.249 85.6565 147.646 85.0545 147.042C84.7535 146.74 84.4525 146.438 83.8505 146.438C83.2485 146.438 82.9475 146.438 82.6465 146.74L63.0819 162.433C63.0819 162.734 63.0819 163.036 63.0819 163.036Z" fill="#F287B7"/>
<path d="M436.014 172.089C436.315 172.391 436.917 172.693 436.917 172.995C437.218 173.598 436.917 174.202 436.616 174.504C436.315 174.805 436.315 174.805 436.014 175.107L423.071 179.332C422.77 179.332 422.168 179.332 421.867 179.332C421.566 179.03 420.964 178.728 420.964 178.427C420.964 178.125 420.964 177.521 420.964 177.22C421.265 176.918 421.566 176.616 421.867 176.314L434.81 172.089C435.412 172.089 435.713 172.089 436.014 172.089Z" fill="#73D1F6"/>
<path d="M443.839 189.592C444.441 189.894 444.742 190.497 444.742 191.101C444.742 191.402 444.441 192.006 444.441 192.308C444.14 192.61 443.538 192.911 443.237 192.911H419.158C418.857 192.911 418.857 192.911 418.556 192.911C417.954 192.61 417.653 192.006 417.653 191.402C417.653 191.101 417.954 190.497 418.255 190.195C418.556 189.894 418.857 189.592 419.459 189.592H443.538C443.237 189.592 443.538 189.592 443.839 189.592Z" fill="#F287B7"/>
<path d="M390.563 208C389.961 208 389.359 207.698 388.757 207.396C388.155 207.095 387.553 206.491 387.252 205.586C387.252 205.586 387.252 205.284 386.951 205.284C386.65 204.68 386.65 204.379 386.349 203.775L386.048 202.87C386.048 202.568 386.048 202.266 385.747 202.266L385.146 201.059C384.845 200.455 384.544 199.852 384.544 199.248L383.641 196.834C383.34 196.231 383.039 195.627 383.039 195.024C382.136 193.213 381.534 191.704 380.631 189.893C380.029 188.384 379.427 186.876 378.524 185.367C378.223 184.461 377.621 183.556 377.32 182.651C377.32 182.349 377.019 182.349 377.019 182.047C377.019 181.745 376.718 181.444 376.718 181.142C376.417 179.331 376.718 177.822 377.922 176.615C379.126 175.408 381.233 174.805 383.039 175.408C383.34 175.408 383.641 175.71 384.243 175.71L384.845 176.012C385.145 176.313 385.747 176.313 386.048 176.615C386.349 176.615 386.349 176.917 386.65 176.917V176.313C386.65 175.71 386.65 175.106 386.65 174.503L386.349 171.787C386.349 170.881 386.349 170.278 386.048 169.674L385.747 167.26L385.447 165.148C385.447 164.846 385.447 164.544 385.146 164.242L384.845 163.639C384.544 162.432 384.243 161.225 383.942 160.319L382.437 155.189C382.437 154.586 382.136 154.284 382.136 153.68L381.835 153.077C381.534 152.171 381.233 150.964 380.932 150.059C380.932 149.757 380.631 149.154 380.631 148.852C380.33 147.343 380.631 145.532 381.835 144.325C382.437 143.722 383.34 143.118 384.243 143.118H384.845C385.145 143.118 385.146 143.118 385.447 143.118H385.747C386.349 143.118 386.951 142.816 387.252 142.816H387.553C387.854 142.816 388.456 142.816 388.757 142.816H389.058C389.359 142.816 389.66 142.816 389.961 142.816H391.165C392.068 142.816 392.971 142.816 393.874 143.118H394.175C395.379 143.118 396.583 143.42 397.787 143.42C398.69 143.42 398.991 143.722 399.593 143.722C400.496 144.024 401.399 144.325 402.302 144.929C402.603 145.231 403.205 145.231 403.506 145.532C405.312 146.438 406.215 148.248 405.914 150.059C405.914 150.361 405.914 150.663 405.914 150.663L406.516 153.077C406.817 153.982 406.817 154.887 407.118 155.793C407.419 157 407.419 158.509 407.419 159.716C407.419 160.923 407.419 162.432 407.419 163.639C407.419 164.242 407.419 165.148 407.419 165.751V166.053C407.419 166.657 407.419 167.26 407.118 167.562L406.817 170.278C406.817 170.58 406.817 170.882 406.817 171.183L406.215 174.201C406.215 174.503 406.215 174.805 405.914 175.106L405.312 176.917C405.312 177.219 405.312 177.219 405.312 177.521C405.613 177.521 405.914 177.521 405.914 177.521C406.516 177.521 406.817 177.521 407.118 177.521C408.322 177.822 409.526 178.426 410.128 179.633C410.73 180.538 411.031 181.444 411.031 182.349C411.031 183.858 410.429 185.065 409.827 185.668C409.526 186.272 409.225 186.574 408.924 186.876C408.623 187.479 408.021 188.083 407.419 188.686L407.118 188.988C406.215 190.195 405.312 191.402 404.409 192.609L401.098 197.136C400.797 197.739 400.496 198.041 400.195 198.645L397.787 202.266C397.185 203.171 396.583 204.077 395.981 204.982L395.68 205.586C395.379 206.189 394.777 206.793 394.476 207.396C394.175 208 393.573 208.603 392.67 209.207L392.369 209.509C392.369 208 391.466 208 390.563 208Z" fill="white"/>
<path d="M401.098 146.74C400.496 146.438 399.894 146.136 398.991 145.835C398.69 145.835 398.088 145.533 397.787 145.533C397.486 145.533 396.884 145.533 396.583 145.231C395.68 145.231 394.777 144.929 393.874 144.929C392.971 144.929 392.369 144.929 391.466 144.929C391.165 144.929 390.563 144.929 390.262 144.929C389.961 144.929 389.359 144.929 389.058 144.929C388.757 144.929 388.155 144.929 387.854 144.929C387.553 144.929 386.951 144.929 386.65 145.231C386.349 145.231 386.349 145.231 386.048 145.231C385.747 145.231 385.447 145.231 385.146 145.533H384.845C384.544 145.533 384.243 145.835 384.243 145.835C383.942 146.136 383.942 146.74 383.942 147.042V147.343C383.942 147.645 383.942 147.947 383.942 147.947C384.243 149.154 384.544 150.059 385.146 151.266C385.447 151.87 385.747 152.775 385.747 153.379C386.349 155.19 386.65 156.698 387.252 158.509C387.553 159.716 388.155 161.225 388.456 162.432C388.456 163.036 388.757 163.337 388.757 163.941C388.757 164.545 389.058 165.45 389.058 166.053C389.058 166.959 389.359 167.562 389.359 168.468C389.359 169.071 389.66 169.977 389.66 170.58C389.66 171.485 389.66 172.089 389.961 172.994C389.961 173.9 389.961 174.503 390.262 175.408C390.262 176.012 390.262 176.917 390.262 177.521C390.262 178.124 390.262 179.03 390.262 179.633C390.262 180.539 390.262 181.444 390.262 182.349C390.262 182.349 389.961 182.349 389.961 182.048C389.359 181.746 388.757 181.142 387.854 180.84C387.252 180.539 386.65 179.935 385.747 179.633C385.447 179.332 384.845 179.03 384.544 179.03C384.243 178.728 383.942 178.728 383.641 178.426C383.34 178.426 383.34 178.124 383.039 178.124C382.738 178.124 382.437 177.823 382.437 177.823C381.835 177.521 381.233 177.823 380.631 178.124C380.33 178.426 380.029 179.03 380.33 179.633V179.935C380.33 180.237 380.33 180.237 380.631 180.539C380.932 181.444 381.233 182.349 381.835 182.953C382.437 184.462 383.34 185.971 383.942 187.479C384.544 188.988 385.447 190.799 386.048 192.308C386.349 192.911 386.65 193.515 386.951 194.42C387.252 195.326 387.553 196.231 387.854 197.136C388.155 197.74 388.456 198.645 388.757 199.249C389.058 199.55 389.058 200.154 389.359 200.456C389.359 200.758 389.66 201.361 389.66 201.663C389.961 202.266 389.961 202.568 389.961 203.172C389.961 203.172 389.961 203.474 390.262 203.474L390.563 203.775C390.864 204.077 391.165 204.077 391.466 203.775C391.767 203.474 392.068 203.172 392.068 202.87C392.67 202.266 392.971 201.361 393.573 200.758C394.476 199.249 395.68 198.042 396.583 196.533C397.185 195.929 397.486 195.024 398.088 194.42C398.389 193.817 398.991 193.213 399.593 192.61C400.496 191.403 401.399 189.894 402.603 188.687C403.506 187.479 404.409 185.971 405.613 184.764C406.215 184.16 406.516 183.556 407.118 182.651C407.419 182.349 407.72 182.048 407.72 181.746C408.021 181.444 408.322 180.84 408.322 180.539C408.322 180.237 408.322 179.935 408.021 179.935C407.72 179.633 407.419 179.332 407.118 179.332C406.817 179.332 406.817 179.332 406.516 179.332C406.215 179.332 406.215 179.332 405.914 179.332C405.613 179.332 405.312 179.633 405.011 179.633C404.71 179.633 404.409 179.935 404.108 179.935C403.506 180.237 402.904 180.237 402.302 180.539C402.001 180.539 402.001 180.539 401.7 180.539C401.399 180.539 401.098 180.539 400.797 180.539H400.496C400.797 180.237 400.797 179.633 401.098 179.332C401.399 179.03 401.399 178.426 401.7 178.124C401.7 177.823 402.001 177.521 402.001 177.219V176.917C402.302 176.012 402.302 175.408 402.603 174.503C402.603 173.9 402.904 173.296 402.904 172.994C402.904 172.693 403.205 172.391 403.205 172.089C403.506 171.184 403.506 170.278 403.807 169.071C403.807 168.769 403.807 168.769 403.807 168.468C403.807 167.864 404.108 167.261 404.108 166.657C404.108 166.355 404.108 166.053 404.108 165.45C404.108 164.846 404.108 164.243 404.409 163.639C404.409 163.036 404.409 162.432 404.409 161.829C404.409 160.622 404.409 159.414 404.409 158.207C404.409 157 404.108 155.793 404.108 154.586C403.807 153.379 403.807 152.474 403.506 151.266C403.506 150.663 403.205 150.059 403.205 149.456C403.205 149.154 402.904 148.55 402.904 148.249C403.205 147.645 402.904 147.042 402.302 146.74C402.001 147.042 401.399 146.74 401.098 146.74ZM401.7 150.663C401.7 151.266 402.001 151.87 402.001 152.474C402.001 153.077 402.302 153.681 402.302 154.284C402.302 154.586 402.302 155.19 402.603 155.491C402.904 157.302 402.904 158.811 402.904 160.622C402.904 161.225 402.904 161.829 402.904 162.13C402.904 162.13 402.904 162.13 402.904 162.432C402.904 163.036 402.904 163.639 402.904 164.243C402.904 164.545 402.904 164.846 402.904 165.148C402.904 165.45 402.904 165.752 402.904 165.752C402.904 166.657 402.603 167.864 402.302 168.769C402.302 169.071 402.302 169.373 402.302 169.675C402.302 169.977 402.302 170.278 402.001 170.278C402.001 170.58 402.001 170.882 401.7 170.882C401.7 171.184 401.7 171.485 401.399 171.485C401.399 172.089 401.098 172.391 401.098 172.994C400.797 173.598 400.797 173.9 400.496 174.503C400.195 175.107 400.195 175.408 399.894 176.012C399.593 176.616 399.593 176.917 399.292 177.521C399.292 177.823 398.991 177.823 398.991 178.124C398.991 178.426 398.69 178.426 398.69 178.728C398.69 179.03 398.389 179.332 398.389 179.332C398.088 179.633 398.088 180.237 397.787 180.539V180.84C397.787 180.84 397.787 181.142 397.486 181.142C397.486 181.444 397.486 182.048 397.787 182.349C398.088 182.651 398.389 182.953 398.69 182.953C398.991 182.953 399.292 183.255 399.593 183.255C400.195 183.255 400.496 183.255 401.098 183.255C401.7 183.255 402.603 183.255 403.205 182.953H403.506C403.205 183.556 402.904 183.858 402.302 184.462C402.001 185.065 401.399 185.669 401.098 186.272C400.496 187.178 399.894 187.781 399.292 188.687C398.389 190.195 397.185 191.403 396.282 192.911C395.379 194.119 394.476 195.627 393.573 196.835C392.971 197.74 392.369 198.645 391.767 199.551C391.466 200.154 390.864 200.758 390.563 201.361C390.563 201.361 390.563 201.361 390.563 201.059C390.563 200.758 390.262 200.154 390.262 199.852C389.961 198.947 389.66 198.343 389.359 197.438C388.757 195.929 388.456 194.42 387.854 192.911C387.854 192.61 387.553 192.006 387.553 191.704C387.252 191.403 387.252 190.799 386.951 190.497C386.65 189.894 386.349 188.988 386.048 188.385C385.447 186.876 384.845 185.367 384.243 183.858C383.942 182.953 383.641 182.349 383.34 181.746C383.34 181.746 383.34 181.444 383.039 181.444C383.34 181.444 383.34 181.746 383.641 181.746C383.942 182.048 384.243 182.048 384.544 182.349C385.146 182.651 385.747 183.255 386.349 183.556C386.951 183.858 387.553 184.462 388.155 184.764C388.456 185.065 388.757 185.065 389.058 185.367C389.359 185.669 389.66 185.669 389.961 185.669C390.262 185.669 390.262 185.971 390.563 185.971C390.864 185.971 391.165 185.971 391.165 185.669C391.165 185.669 391.466 185.669 391.466 185.367C391.767 185.065 391.767 184.764 391.767 184.462C391.767 183.556 391.767 182.953 392.068 182.048C392.068 181.142 392.068 180.539 392.068 179.633C392.068 178.728 392.068 178.124 392.068 177.219C392.068 176.314 392.068 175.71 392.068 174.805C392.068 172.994 391.767 171.184 391.466 169.373C391.466 169.071 391.466 168.769 391.466 168.468C391.466 167.864 391.165 167.261 391.165 166.657C391.165 166.355 391.165 165.752 390.864 165.45L390.563 164.243C390.563 163.639 390.262 163.036 390.262 162.432C390.262 162.13 390.262 162.13 390.262 161.829C389.961 160.923 389.66 160.018 389.359 158.811C389.058 157.906 388.757 157.302 388.456 156.397C388.155 155.793 388.155 155.19 387.854 154.284C387.252 152.172 386.349 149.758 385.747 147.645H386.048C386.349 147.645 386.951 147.645 387.252 147.645C387.553 147.645 388.155 147.645 388.456 147.645C389.359 147.645 389.961 147.645 390.864 147.645C391.466 147.645 392.369 147.645 392.971 147.645C393.874 147.645 394.777 147.947 395.379 147.947C395.68 147.947 396.282 147.947 396.583 148.249C397.185 148.249 397.787 148.551 398.389 148.551C398.69 148.551 398.69 148.852 398.991 148.852C399.292 149.154 399.593 149.154 399.894 149.456C399.894 149.456 399.894 149.456 400.195 149.456C401.399 149.758 401.399 150.059 401.7 150.663Z" fill="#F287B7"/>
<path d="M398.69 149.456C398.389 149.456 398.088 150.059 398.088 150.361C398.389 151.266 398.389 151.87 398.389 152.775C398.389 153.077 398.389 153.379 398.389 153.68C398.389 153.982 398.389 154.284 398.69 154.887C398.69 155.491 398.991 156.095 398.991 156.698C398.991 157.302 399.292 158.207 399.292 158.811C399.292 159.112 399.593 159.414 399.894 159.414H400.195L400.496 159.112C400.496 157.603 400.195 156.396 400.195 154.887C400.195 154.586 400.195 154.284 400.195 153.982C400.195 153.68 400.195 153.379 400.195 153.077C400.195 152.172 399.894 151.568 399.894 150.663C399.593 149.456 398.991 149.154 398.69 149.456Z" fill="#F287B7"/>
<path d="M399.894 160.622C399.894 160.923 399.894 160.923 399.894 160.923C399.894 161.225 399.894 161.225 399.894 161.527C399.894 161.829 399.894 162.13 399.894 162.432V162.734H400.195C400.195 162.734 400.195 162.734 400.496 162.734L400.797 162.432C400.797 161.829 400.797 161.527 400.496 160.923C400.496 160.622 400.496 160.622 400.496 160.32C400.496 160.622 400.195 160.622 399.894 160.622C400.195 160.32 400.195 160.622 399.894 160.622Z" fill="#F287B7"/>
<path d="M394.175 193.817C394.175 193.817 393.874 193.817 393.874 194.119C393.573 194.421 393.272 194.723 392.971 195.326C392.971 195.326 392.971 195.628 392.971 195.93C392.971 196.232 392.971 196.232 393.272 196.232C393.272 196.232 393.573 196.232 393.874 196.232C393.874 196.232 394.175 196.232 394.175 195.93C394.476 195.628 394.777 195.326 394.777 194.723C394.777 194.421 394.777 194.119 394.777 194.119C394.476 193.817 394.476 193.817 394.175 193.817Z" fill="#F287B7"/>
</g>
<defs>
<filter id="filter0_d" x="0" y="0" width="773" height="220" filterUnits="userSpaceOnUse" color-interpolation-filters="sRGB">
<feFlood flood-opacity="0" result="BackgroundImageFix"/>
<feColorMatrix in="SourceAlpha" type="matrix" values="0 0 0 0 0 0 0 0 0 0 0 0 0 0 0 0 0 0 127 0"/>
<feOffset dy="4"/>
<feGaussianBlur stdDeviation="4"/>
<feColorMatrix type="matrix" values="0 0 0 0 0.941176 0 0 0 0 0.647059 0 0 0 0 0.717647 0 0 0 0.5 0"/>
<feBlend mode="multiply" in2="BackgroundImageFix" result="effect1_dropShadow"/>
<feBlend mode="normal" in="SourceGraphic" in2="effect1_dropShadow" result="shape"/>
</filter>
<clipPath id="clip0">
<rect width="757" height="204" fill="white" transform="translate(8 4)"/>
</clipPath>
</defs>
</svg>
